%TF.GenerationSoftware,KiCad,Pcbnew,(5.1.6)-1*%
%TF.CreationDate,2020-06-18T14:24:26-05:00*%
%TF.ProjectId,Euro Playset,4575726f-2050-46c6-9179-7365742e6b69,rev?*%
%TF.SameCoordinates,Original*%
%TF.FileFunction,Soldermask,Bot*%
%TF.FilePolarity,Negative*%
%FSLAX46Y46*%
G04 Gerber Fmt 4.6, Leading zero omitted, Abs format (unit mm)*
G04 Created by KiCad (PCBNEW (5.1.6)-1) date 2020-06-18 14:24:26*
%MOMM*%
%LPD*%
G01*
G04 APERTURE LIST*
%ADD10R,2.100000X2.100000*%
%ADD11C,2.230000*%
%ADD12R,2.030000X1.930000*%
%ADD13R,1.800000X1.800000*%
%ADD14O,1.800000X1.800000*%
G04 APERTURE END LIST*
D10*
%TO.C,REF\u002A\u002A*%
X349500000Y-272750000D03*
%TD*%
%TO.C,REF\u002A\u002A*%
X352250000Y-282000000D03*
%TD*%
%TO.C,REF\u002A\u002A*%
X352250000Y-262000000D03*
%TD*%
%TO.C,REF\u002A\u002A*%
X352250000Y-242000000D03*
%TD*%
%TO.C,REF\u002A\u002A*%
X352250000Y-222000000D03*
%TD*%
%TO.C,REF\u002A\u002A*%
X352250000Y-202000000D03*
%TD*%
%TO.C,REF\u002A\u002A*%
X352250000Y-182000000D03*
%TD*%
%TO.C,REF\u002A\u002A*%
X352250000Y-162000000D03*
%TD*%
%TO.C,REF\u002A\u002A*%
X352250000Y-142000000D03*
%TD*%
D11*
%TO.C,J3*%
X356300000Y-177600000D03*
D12*
X356300000Y-166200000D03*
D11*
X356300000Y-169300000D03*
%TD*%
%TO.C,J2*%
X356300000Y-157600000D03*
D12*
X356300000Y-146200000D03*
D11*
X356300000Y-149300000D03*
%TD*%
%TO.C,J1*%
X356300000Y-137600000D03*
D12*
X356300000Y-126200000D03*
D11*
X356300000Y-129300000D03*
%TD*%
D13*
%TO.C,C1*%
X365150000Y-193100000D03*
D14*
X365150000Y-195640000D03*
X365150000Y-198180000D03*
X365150000Y-200720000D03*
X365150000Y-203260000D03*
X365150000Y-205800000D03*
X365150000Y-208340000D03*
X365150000Y-210880000D03*
X365150000Y-213420000D03*
%TD*%
D11*
%TO.C,J7*%
X356300000Y-257600000D03*
D12*
X356300000Y-246200000D03*
D11*
X356300000Y-249300000D03*
%TD*%
%TO.C,J6*%
X356300000Y-237600000D03*
D12*
X356300000Y-226200000D03*
D11*
X356300000Y-229300000D03*
%TD*%
%TO.C,J5*%
X356300000Y-217600000D03*
D12*
X356300000Y-206200000D03*
D11*
X356300000Y-209300000D03*
%TD*%
%TO.C,J8*%
X356300000Y-277600000D03*
D12*
X356300000Y-266200000D03*
D11*
X356300000Y-269300000D03*
%TD*%
%TO.C,J4*%
X356300000Y-197600000D03*
D12*
X356300000Y-186200000D03*
D11*
X356300000Y-189300000D03*
%TD*%
M02*
