M48
; DRILL file {KiCad (5.1.6)-1} date 06/18/20 14:24:30
; FORMAT={-:-/ absolute / inch / decimal}
; #@! TF.CreationDate,2020-06-18T14:24:30-05:00
; #@! TF.GenerationSoftware,Kicad,Pcbnew,(5.1.6)-1
; #@! TF.FileFunction,Plated,1,2,PTH
FMAT,2
INCH
T1C0.0394
T2C0.0480
T3C0.0559
T4C0.0563
%
G90
G05
T1
X13.8681Y-6.378
X13.8681Y-7.9528
X13.8681Y-11.1024
X13.8681Y-5.5906
X13.8681Y-7.1654
X14.376Y-7.6024
X14.376Y-7.7024
X14.376Y-7.8024
X14.376Y-7.9024
X14.376Y-8.0024
X14.376Y-8.1024
X14.376Y-8.2024
X14.376Y-8.3024
X14.376Y-8.4024
X13.8681Y-9.5276
X13.8681Y-10.315
X13.8681Y-8.7402
X13.7598Y-10.7382
T2
X14.0276Y-10.4803
X14.0276Y-6.5433
X14.0276Y-7.3307
X14.0276Y-9.6929
X14.0276Y-5.7559
X14.0276Y-8.1181
X14.0276Y-4.9685
X14.0276Y-8.9055
T3
X14.0276Y-6.6654
X14.0276Y-9.815
X14.0276Y-5.878
X14.0276Y-8.2402
X14.0276Y-5.0906
X14.0276Y-9.0276
X14.0276Y-10.6024
X14.0276Y-7.4528
T4
X14.0276Y-10.1417
X14.0276Y-6.2047
X14.0276Y-8.5669
X14.0276Y-9.3543
X14.0276Y-10.9291
X14.0276Y-6.9921
X14.0276Y-7.7795
X14.0276Y-5.4173
T0
M30
