%TF.GenerationSoftware,KiCad,Pcbnew,(5.1.6)-1*%
%TF.CreationDate,2020-06-18T14:24:26-05:00*%
%TF.ProjectId,Euro Playset,4575726f-2050-46c6-9179-7365742e6b69,rev?*%
%TF.SameCoordinates,Original*%
%TF.FileFunction,Copper,L1,Top*%
%TF.FilePolarity,Positive*%
%FSLAX46Y46*%
G04 Gerber Fmt 4.6, Leading zero omitted, Abs format (unit mm)*
G04 Created by KiCad (PCBNEW (5.1.6)-1) date 2020-06-18 14:24:26*
%MOMM*%
%LPD*%
G01*
G04 APERTURE LIST*
%TA.AperFunction,ComponentPad*%
%ADD10R,2.000000X2.000000*%
%TD*%
%TA.AperFunction,ComponentPad*%
%ADD11C,2.130000*%
%TD*%
%TA.AperFunction,ComponentPad*%
%ADD12R,1.930000X1.830000*%
%TD*%
%TA.AperFunction,ComponentPad*%
%ADD13R,1.700000X1.700000*%
%TD*%
%TA.AperFunction,ComponentPad*%
%ADD14O,1.700000X1.700000*%
%TD*%
%TA.AperFunction,Conductor*%
%ADD15C,0.250000*%
%TD*%
%TA.AperFunction,Conductor*%
%ADD16C,0.254000*%
%TD*%
G04 APERTURE END LIST*
D10*
%TO.P,REF\u002A\u002A,1*%
%TO.N,GND*%
X349500000Y-272750000D03*
%TD*%
%TO.P,REF\u002A\u002A,1*%
%TO.N,Net-(J8-PadT)*%
X352250000Y-282000000D03*
%TD*%
%TO.P,REF\u002A\u002A,1*%
%TO.N,Net-(J7-PadT)*%
X352250000Y-262000000D03*
%TD*%
%TO.P,REF\u002A\u002A,1*%
%TO.N,Net-(J6-PadT)*%
X352250000Y-242000000D03*
%TD*%
%TO.P,REF\u002A\u002A,1*%
%TO.N,Net-(J5-PadT)*%
X352250000Y-222000000D03*
%TD*%
%TO.P,REF\u002A\u002A,1*%
%TO.N,Net-(J4-PadT)*%
X352250000Y-202000000D03*
%TD*%
%TO.P,REF\u002A\u002A,1*%
%TO.N,Net-(J3-PadT)*%
X352250000Y-182000000D03*
%TD*%
%TO.P,REF\u002A\u002A,1*%
%TO.N,Net-(J2-PadT)*%
X352250000Y-162000000D03*
%TD*%
%TO.P,REF\u002A\u002A,1*%
%TO.N,Net-(J1-PadT)*%
X352250000Y-142000000D03*
%TD*%
D11*
%TO.P,J3,T*%
%TO.N,Net-(J3-PadT)*%
X356300000Y-177600000D03*
D12*
%TO.P,J3,G*%
%TO.N,GND*%
X356300000Y-166200000D03*
D11*
%TO.P,J3,TN*%
%TO.N,N/C*%
X356300000Y-169300000D03*
%TD*%
%TO.P,J2,T*%
%TO.N,Net-(J2-PadT)*%
X356300000Y-157600000D03*
D12*
%TO.P,J2,G*%
%TO.N,GND*%
X356300000Y-146200000D03*
D11*
%TO.P,J2,TN*%
%TO.N,N/C*%
X356300000Y-149300000D03*
%TD*%
%TO.P,J1,T*%
%TO.N,Net-(J1-PadT)*%
X356300000Y-137600000D03*
D12*
%TO.P,J1,G*%
%TO.N,GND*%
X356300000Y-126200000D03*
D11*
%TO.P,J1,TN*%
%TO.N,N/C*%
X356300000Y-129300000D03*
%TD*%
D13*
%TO.P,C1,1*%
%TO.N,Net-(J1-PadT)*%
X365150000Y-193100000D03*
D14*
%TO.P,C1,2*%
%TO.N,Net-(J2-PadT)*%
X365150000Y-195640000D03*
%TO.P,C1,3*%
%TO.N,Net-(J3-PadT)*%
X365150000Y-198180000D03*
%TO.P,C1,4*%
%TO.N,Net-(J4-PadT)*%
X365150000Y-200720000D03*
%TO.P,C1,5*%
%TO.N,Net-(J5-PadT)*%
X365150000Y-203260000D03*
%TO.P,C1,6*%
%TO.N,Net-(J6-PadT)*%
X365150000Y-205800000D03*
%TO.P,C1,7*%
%TO.N,Net-(J7-PadT)*%
X365150000Y-208340000D03*
%TO.P,C1,8*%
%TO.N,Net-(J8-PadT)*%
X365150000Y-210880000D03*
%TO.P,C1,9*%
%TO.N,GND*%
X365150000Y-213420000D03*
%TD*%
D11*
%TO.P,J7,T*%
%TO.N,Net-(J7-PadT)*%
X356300000Y-257600000D03*
D12*
%TO.P,J7,G*%
%TO.N,GND*%
X356300000Y-246200000D03*
D11*
%TO.P,J7,TN*%
%TO.N,N/C*%
X356300000Y-249300000D03*
%TD*%
%TO.P,J6,T*%
%TO.N,Net-(J6-PadT)*%
X356300000Y-237600000D03*
D12*
%TO.P,J6,G*%
%TO.N,GND*%
X356300000Y-226200000D03*
D11*
%TO.P,J6,TN*%
%TO.N,N/C*%
X356300000Y-229300000D03*
%TD*%
%TO.P,J5,T*%
%TO.N,Net-(J5-PadT)*%
X356300000Y-217600000D03*
D12*
%TO.P,J5,G*%
%TO.N,GND*%
X356300000Y-206200000D03*
D11*
%TO.P,J5,TN*%
%TO.N,N/C*%
X356300000Y-209300000D03*
%TD*%
%TO.P,J8,T*%
%TO.N,Net-(J8-PadT)*%
X356300000Y-277600000D03*
D12*
%TO.P,J8,G*%
%TO.N,GND*%
X356300000Y-266200000D03*
D11*
%TO.P,J8,TN*%
%TO.N,N/C*%
X356300000Y-269300000D03*
%TD*%
%TO.P,J4,T*%
%TO.N,Net-(J4-PadT)*%
X356300000Y-197600000D03*
D12*
%TO.P,J4,G*%
%TO.N,GND*%
X356300000Y-186200000D03*
D11*
%TO.P,J4,TN*%
%TO.N,N/C*%
X356300000Y-189300000D03*
%TD*%
D15*
%TO.N,Net-(J1-PadT)*%
X356300000Y-139800000D02*
X357000000Y-140500000D01*
X366250000Y-190000000D02*
X365150000Y-191100000D01*
X365150000Y-191100000D02*
X365150000Y-193100000D01*
X356300000Y-137600000D02*
X356300000Y-139800000D01*
X366250000Y-141000000D02*
X366250000Y-190000000D01*
X365750000Y-140500000D02*
X366250000Y-141000000D01*
X357000000Y-140500000D02*
X365750000Y-140500000D01*
%TO.N,Net-(J2-PadT)*%
X365150000Y-195640000D02*
X363890000Y-195640000D01*
X356750000Y-160500000D02*
X356300000Y-160050000D01*
X363890000Y-195640000D02*
X363250000Y-195000000D01*
X363500000Y-160500000D02*
X356750000Y-160500000D01*
X364750000Y-189000000D02*
X364750000Y-161750000D01*
X363250000Y-190500000D02*
X364750000Y-189000000D01*
X356300000Y-160050000D02*
X356300000Y-157600000D01*
X363250000Y-195000000D02*
X363250000Y-190500000D01*
X364750000Y-161750000D02*
X363500000Y-160500000D01*
%TO.N,Net-(J3-PadT)*%
X362250000Y-181500000D02*
X360750000Y-180000000D01*
X362250000Y-197250000D02*
X362250000Y-181500000D01*
X356300000Y-179800000D02*
X356300000Y-177600000D01*
X356500000Y-180000000D02*
X356300000Y-179800000D01*
X365150000Y-198180000D02*
X363180000Y-198180000D01*
X360750000Y-180000000D02*
X356500000Y-180000000D01*
X363180000Y-198180000D02*
X362250000Y-197250000D01*
%TO.N,Net-(J4-PadT)*%
X365150000Y-200720000D02*
X356720000Y-200720000D01*
X356720000Y-200720000D02*
X356300000Y-200300000D01*
X356300000Y-200300000D02*
X356300000Y-197600000D01*
%TO.N,Net-(J5-PadT)*%
X356750000Y-220750000D02*
X356300000Y-220300000D01*
X356300000Y-220300000D02*
X356300000Y-217600000D01*
X362000000Y-204000000D02*
X362000000Y-219500000D01*
X362000000Y-219500000D02*
X360750000Y-220750000D01*
X362740000Y-203260000D02*
X362000000Y-204000000D01*
X365150000Y-203260000D02*
X362740000Y-203260000D01*
X360750000Y-220750000D02*
X356750000Y-220750000D01*
%TO.N,Net-(J6-PadT)*%
X362500000Y-206000000D02*
X362500000Y-239500000D01*
X365150000Y-205800000D02*
X362700000Y-205800000D01*
X356750000Y-240500000D02*
X356300000Y-240050000D01*
X362700000Y-205800000D02*
X362500000Y-206000000D01*
X356300000Y-240050000D02*
X356300000Y-237600000D01*
X362500000Y-239500000D02*
X361500000Y-240500000D01*
X361500000Y-240500000D02*
X356750000Y-240500000D01*
%TO.N,Net-(J7-PadT)*%
X356300000Y-260050000D02*
X356300000Y-257600000D01*
X363250000Y-208500000D02*
X363250000Y-259750000D01*
X363410000Y-208340000D02*
X363250000Y-208500000D01*
X363250000Y-259750000D02*
X362500000Y-260500000D01*
X362500000Y-260500000D02*
X356750000Y-260500000D01*
X365150000Y-208340000D02*
X363410000Y-208340000D01*
X356750000Y-260500000D02*
X356300000Y-260050000D01*
%TO.N,Net-(J8-PadT)*%
X356300000Y-279800000D02*
X356300000Y-277600000D01*
X363820010Y-210880000D02*
X363750000Y-210950010D01*
X365150000Y-210880000D02*
X365130000Y-210900000D01*
X365150000Y-210880000D02*
X363820010Y-210880000D01*
X356750000Y-280250000D02*
X356300000Y-279800000D01*
X363750000Y-210950010D02*
X363750000Y-279500000D01*
X363750000Y-279500000D02*
X363000000Y-280250000D01*
X363000000Y-280250000D02*
X356750000Y-280250000D01*
%TD*%
D16*
%TO.N,GND*%
G36*
X366590001Y-140265200D02*
G01*
X366313804Y-139989003D01*
X366290001Y-139959999D01*
X366174276Y-139865026D01*
X366042247Y-139794454D01*
X365898986Y-139750997D01*
X365787333Y-139740000D01*
X365787322Y-139740000D01*
X365750000Y-139736324D01*
X365712678Y-139740000D01*
X357314802Y-139740000D01*
X357060000Y-139485198D01*
X357060000Y-139125265D01*
X357105252Y-139106521D01*
X357383687Y-138920477D01*
X357620477Y-138683687D01*
X357806521Y-138405252D01*
X357934670Y-138095872D01*
X358000000Y-137767435D01*
X358000000Y-137432565D01*
X357934670Y-137104128D01*
X357806521Y-136794748D01*
X357620477Y-136516313D01*
X357383687Y-136279523D01*
X357105252Y-136093479D01*
X356795872Y-135965330D01*
X356467435Y-135900000D01*
X356132565Y-135900000D01*
X355804128Y-135965330D01*
X355494748Y-136093479D01*
X355216313Y-136279523D01*
X354979523Y-136516313D01*
X354793479Y-136794748D01*
X354665330Y-137104128D01*
X354600000Y-137432565D01*
X354600000Y-137767435D01*
X354665330Y-138095872D01*
X354793479Y-138405252D01*
X354979523Y-138683687D01*
X355216313Y-138920477D01*
X355494748Y-139106521D01*
X355540001Y-139125265D01*
X355540001Y-139762668D01*
X355536324Y-139800000D01*
X355550998Y-139948985D01*
X355594454Y-140092246D01*
X355665026Y-140224276D01*
X355736201Y-140311002D01*
X355760000Y-140340001D01*
X355788997Y-140363799D01*
X356436205Y-141011008D01*
X356459999Y-141040001D01*
X356488992Y-141063795D01*
X356488996Y-141063799D01*
X356559685Y-141121811D01*
X356575724Y-141134974D01*
X356707753Y-141205546D01*
X356851014Y-141249003D01*
X356962667Y-141260000D01*
X356962676Y-141260000D01*
X356999999Y-141263676D01*
X357037322Y-141260000D01*
X365435199Y-141260000D01*
X365490000Y-141314801D01*
X365490000Y-161571336D01*
X365455546Y-161457753D01*
X365384974Y-161325723D01*
X365313799Y-161238997D01*
X365290001Y-161209999D01*
X365261003Y-161186201D01*
X364063804Y-159989003D01*
X364040001Y-159959999D01*
X363924276Y-159865026D01*
X363792247Y-159794454D01*
X363648986Y-159750997D01*
X363537333Y-159740000D01*
X363537322Y-159740000D01*
X363500000Y-159736324D01*
X363462678Y-159740000D01*
X357064801Y-159740000D01*
X357060000Y-159735199D01*
X357060000Y-159125265D01*
X357105252Y-159106521D01*
X357383687Y-158920477D01*
X357620477Y-158683687D01*
X357806521Y-158405252D01*
X357934670Y-158095872D01*
X358000000Y-157767435D01*
X358000000Y-157432565D01*
X357934670Y-157104128D01*
X357806521Y-156794748D01*
X357620477Y-156516313D01*
X357383687Y-156279523D01*
X357105252Y-156093479D01*
X356795872Y-155965330D01*
X356467435Y-155900000D01*
X356132565Y-155900000D01*
X355804128Y-155965330D01*
X355494748Y-156093479D01*
X355216313Y-156279523D01*
X354979523Y-156516313D01*
X354793479Y-156794748D01*
X354665330Y-157104128D01*
X354600000Y-157432565D01*
X354600000Y-157767435D01*
X354665330Y-158095872D01*
X354793479Y-158405252D01*
X354979523Y-158683687D01*
X355216313Y-158920477D01*
X355494748Y-159106521D01*
X355540000Y-159125265D01*
X355540000Y-160012677D01*
X355536324Y-160050000D01*
X355540000Y-160087322D01*
X355540000Y-160087332D01*
X355550997Y-160198985D01*
X355594454Y-160342246D01*
X355665026Y-160474276D01*
X355704871Y-160522826D01*
X355759999Y-160590001D01*
X355789003Y-160613804D01*
X356186196Y-161010997D01*
X356209999Y-161040001D01*
X356283146Y-161100031D01*
X356325723Y-161134974D01*
X356457753Y-161205546D01*
X356601014Y-161249003D01*
X356712667Y-161260000D01*
X356712676Y-161260000D01*
X356749999Y-161263676D01*
X356787322Y-161260000D01*
X363185199Y-161260000D01*
X363990001Y-162064803D01*
X363990000Y-188685198D01*
X363010000Y-189665199D01*
X363010000Y-181537322D01*
X363013676Y-181499999D01*
X363010000Y-181462676D01*
X363010000Y-181462667D01*
X362999003Y-181351014D01*
X362955546Y-181207753D01*
X362884974Y-181075724D01*
X362790001Y-180959999D01*
X362761003Y-180936201D01*
X361313804Y-179489003D01*
X361290001Y-179459999D01*
X361174276Y-179365026D01*
X361042247Y-179294454D01*
X360898986Y-179250997D01*
X360787333Y-179240000D01*
X360787322Y-179240000D01*
X360750000Y-179236324D01*
X360712678Y-179240000D01*
X357060000Y-179240000D01*
X357060000Y-179125265D01*
X357105252Y-179106521D01*
X357383687Y-178920477D01*
X357620477Y-178683687D01*
X357806521Y-178405252D01*
X357934670Y-178095872D01*
X358000000Y-177767435D01*
X358000000Y-177432565D01*
X357934670Y-177104128D01*
X357806521Y-176794748D01*
X357620477Y-176516313D01*
X357383687Y-176279523D01*
X357105252Y-176093479D01*
X356795872Y-175965330D01*
X356467435Y-175900000D01*
X356132565Y-175900000D01*
X355804128Y-175965330D01*
X355494748Y-176093479D01*
X355216313Y-176279523D01*
X354979523Y-176516313D01*
X354793479Y-176794748D01*
X354665330Y-177104128D01*
X354600000Y-177432565D01*
X354600000Y-177767435D01*
X354665330Y-178095872D01*
X354793479Y-178405252D01*
X354979523Y-178683687D01*
X355216313Y-178920477D01*
X355494748Y-179106521D01*
X355540000Y-179125265D01*
X355540000Y-179762677D01*
X355536324Y-179800000D01*
X355540000Y-179837322D01*
X355540000Y-179837332D01*
X355550997Y-179948985D01*
X355594454Y-180092246D01*
X355665026Y-180224276D01*
X355704871Y-180272826D01*
X355759999Y-180340001D01*
X355789003Y-180363804D01*
X355936196Y-180510997D01*
X355959999Y-180540001D01*
X356075724Y-180634974D01*
X356207753Y-180705546D01*
X356351014Y-180749003D01*
X356462667Y-180760000D01*
X356462675Y-180760000D01*
X356500000Y-180763676D01*
X356537325Y-180760000D01*
X360435199Y-180760000D01*
X361490001Y-181814803D01*
X361490000Y-197212678D01*
X361486324Y-197250000D01*
X361490000Y-197287322D01*
X361490000Y-197287332D01*
X361500997Y-197398985D01*
X361516780Y-197451014D01*
X361544454Y-197542246D01*
X361615026Y-197674276D01*
X361654871Y-197722826D01*
X361709999Y-197790001D01*
X361739002Y-197813803D01*
X362616201Y-198691003D01*
X362639999Y-198720001D01*
X362668997Y-198743799D01*
X362755724Y-198814974D01*
X362887753Y-198885546D01*
X363031014Y-198929003D01*
X363180000Y-198943677D01*
X363217333Y-198940000D01*
X363871822Y-198940000D01*
X363996525Y-199126632D01*
X364203368Y-199333475D01*
X364377760Y-199450000D01*
X364203368Y-199566525D01*
X363996525Y-199773368D01*
X363871822Y-199960000D01*
X357060000Y-199960000D01*
X357060000Y-199125265D01*
X357105252Y-199106521D01*
X357383687Y-198920477D01*
X357620477Y-198683687D01*
X357806521Y-198405252D01*
X357934670Y-198095872D01*
X358000000Y-197767435D01*
X358000000Y-197432565D01*
X357934670Y-197104128D01*
X357806521Y-196794748D01*
X357620477Y-196516313D01*
X357383687Y-196279523D01*
X357105252Y-196093479D01*
X356795872Y-195965330D01*
X356467435Y-195900000D01*
X356132565Y-195900000D01*
X355804128Y-195965330D01*
X355494748Y-196093479D01*
X355216313Y-196279523D01*
X354979523Y-196516313D01*
X354793479Y-196794748D01*
X354665330Y-197104128D01*
X354600000Y-197432565D01*
X354600000Y-197767435D01*
X354665330Y-198095872D01*
X354793479Y-198405252D01*
X354979523Y-198683687D01*
X355216313Y-198920477D01*
X355494748Y-199106521D01*
X355540000Y-199125265D01*
X355540000Y-200262677D01*
X355536324Y-200300000D01*
X355540000Y-200337322D01*
X355540000Y-200337332D01*
X355550997Y-200448985D01*
X355588840Y-200573740D01*
X355594454Y-200592246D01*
X355665026Y-200724276D01*
X355690914Y-200755820D01*
X355759999Y-200840001D01*
X355789003Y-200863804D01*
X356156196Y-201230997D01*
X356179999Y-201260001D01*
X356295724Y-201354974D01*
X356427753Y-201425546D01*
X356571014Y-201469003D01*
X356682667Y-201480000D01*
X356682675Y-201480000D01*
X356720000Y-201483676D01*
X356757325Y-201480000D01*
X363871822Y-201480000D01*
X363996525Y-201666632D01*
X364203368Y-201873475D01*
X364377760Y-201990000D01*
X364203368Y-202106525D01*
X363996525Y-202313368D01*
X363871822Y-202500000D01*
X362777322Y-202500000D01*
X362739999Y-202496324D01*
X362702676Y-202500000D01*
X362702667Y-202500000D01*
X362591014Y-202510997D01*
X362447753Y-202554454D01*
X362315723Y-202625026D01*
X362232083Y-202693668D01*
X362199999Y-202719999D01*
X362176201Y-202748998D01*
X361489002Y-203436197D01*
X361459999Y-203459999D01*
X361404871Y-203527174D01*
X361365026Y-203575724D01*
X361331700Y-203638072D01*
X361294454Y-203707754D01*
X361250997Y-203851015D01*
X361240000Y-203962668D01*
X361240000Y-203962678D01*
X361236324Y-204000000D01*
X361240000Y-204037322D01*
X361240001Y-219185197D01*
X360435199Y-219990000D01*
X357064801Y-219990000D01*
X357060000Y-219985199D01*
X357060000Y-219125265D01*
X357105252Y-219106521D01*
X357383687Y-218920477D01*
X357620477Y-218683687D01*
X357806521Y-218405252D01*
X357934670Y-218095872D01*
X358000000Y-217767435D01*
X358000000Y-217432565D01*
X357934670Y-217104128D01*
X357806521Y-216794748D01*
X357620477Y-216516313D01*
X357383687Y-216279523D01*
X357105252Y-216093479D01*
X356795872Y-215965330D01*
X356467435Y-215900000D01*
X356132565Y-215900000D01*
X355804128Y-215965330D01*
X355494748Y-216093479D01*
X355216313Y-216279523D01*
X354979523Y-216516313D01*
X354793479Y-216794748D01*
X354665330Y-217104128D01*
X354600000Y-217432565D01*
X354600000Y-217767435D01*
X354665330Y-218095872D01*
X354793479Y-218405252D01*
X354979523Y-218683687D01*
X355216313Y-218920477D01*
X355494748Y-219106521D01*
X355540000Y-219125265D01*
X355540000Y-220262677D01*
X355536324Y-220300000D01*
X355540000Y-220337322D01*
X355540000Y-220337332D01*
X355550997Y-220448985D01*
X355581280Y-220548815D01*
X355594454Y-220592246D01*
X355665026Y-220724276D01*
X355690914Y-220755820D01*
X355759999Y-220840001D01*
X355789003Y-220863804D01*
X356186196Y-221260997D01*
X356209999Y-221290001D01*
X356283146Y-221350031D01*
X356325723Y-221384974D01*
X356457753Y-221455546D01*
X356601014Y-221499003D01*
X356712667Y-221510000D01*
X356712676Y-221510000D01*
X356749999Y-221513676D01*
X356787322Y-221510000D01*
X360712678Y-221510000D01*
X360750000Y-221513676D01*
X360787322Y-221510000D01*
X360787333Y-221510000D01*
X360898986Y-221499003D01*
X361042247Y-221455546D01*
X361174276Y-221384974D01*
X361290001Y-221290001D01*
X361313804Y-221260997D01*
X361740000Y-220834801D01*
X361740001Y-239185197D01*
X361185199Y-239740000D01*
X357064801Y-239740000D01*
X357060000Y-239735199D01*
X357060000Y-239125265D01*
X357105252Y-239106521D01*
X357383687Y-238920477D01*
X357620477Y-238683687D01*
X357806521Y-238405252D01*
X357934670Y-238095872D01*
X358000000Y-237767435D01*
X358000000Y-237432565D01*
X357934670Y-237104128D01*
X357806521Y-236794748D01*
X357620477Y-236516313D01*
X357383687Y-236279523D01*
X357105252Y-236093479D01*
X356795872Y-235965330D01*
X356467435Y-235900000D01*
X356132565Y-235900000D01*
X355804128Y-235965330D01*
X355494748Y-236093479D01*
X355216313Y-236279523D01*
X354979523Y-236516313D01*
X354793479Y-236794748D01*
X354665330Y-237104128D01*
X354600000Y-237432565D01*
X354600000Y-237767435D01*
X354665330Y-238095872D01*
X354793479Y-238405252D01*
X354979523Y-238683687D01*
X355216313Y-238920477D01*
X355494748Y-239106521D01*
X355540000Y-239125265D01*
X355540000Y-240012677D01*
X355536324Y-240050000D01*
X355540000Y-240087322D01*
X355540000Y-240087332D01*
X355550997Y-240198985D01*
X355566170Y-240249003D01*
X355594454Y-240342246D01*
X355665026Y-240474276D01*
X355704871Y-240522826D01*
X355759999Y-240590001D01*
X355789003Y-240613804D01*
X356186196Y-241010997D01*
X356209999Y-241040001D01*
X356283146Y-241100031D01*
X356325723Y-241134974D01*
X356457753Y-241205546D01*
X356601014Y-241249003D01*
X356712667Y-241260000D01*
X356712676Y-241260000D01*
X356749999Y-241263676D01*
X356787322Y-241260000D01*
X361462678Y-241260000D01*
X361500000Y-241263676D01*
X361537322Y-241260000D01*
X361537333Y-241260000D01*
X361648986Y-241249003D01*
X361792247Y-241205546D01*
X361924276Y-241134974D01*
X362040001Y-241040001D01*
X362063804Y-241010998D01*
X362490001Y-240584801D01*
X362490001Y-259435197D01*
X362185199Y-259740000D01*
X357064801Y-259740000D01*
X357060000Y-259735199D01*
X357060000Y-259125265D01*
X357105252Y-259106521D01*
X357383687Y-258920477D01*
X357620477Y-258683687D01*
X357806521Y-258405252D01*
X357934670Y-258095872D01*
X358000000Y-257767435D01*
X358000000Y-257432565D01*
X357934670Y-257104128D01*
X357806521Y-256794748D01*
X357620477Y-256516313D01*
X357383687Y-256279523D01*
X357105252Y-256093479D01*
X356795872Y-255965330D01*
X356467435Y-255900000D01*
X356132565Y-255900000D01*
X355804128Y-255965330D01*
X355494748Y-256093479D01*
X355216313Y-256279523D01*
X354979523Y-256516313D01*
X354793479Y-256794748D01*
X354665330Y-257104128D01*
X354600000Y-257432565D01*
X354600000Y-257767435D01*
X354665330Y-258095872D01*
X354793479Y-258405252D01*
X354979523Y-258683687D01*
X355216313Y-258920477D01*
X355494748Y-259106521D01*
X355540000Y-259125265D01*
X355540000Y-260012677D01*
X355536324Y-260050000D01*
X355540000Y-260087322D01*
X355540000Y-260087332D01*
X355550997Y-260198985D01*
X355569810Y-260261003D01*
X355594454Y-260342246D01*
X355665026Y-260474276D01*
X355697362Y-260513677D01*
X355759999Y-260590001D01*
X355789003Y-260613804D01*
X356186196Y-261010997D01*
X356209999Y-261040001D01*
X356283146Y-261100031D01*
X356325723Y-261134974D01*
X356457753Y-261205546D01*
X356601014Y-261249003D01*
X356712667Y-261260000D01*
X356712676Y-261260000D01*
X356749999Y-261263676D01*
X356787322Y-261260000D01*
X362462678Y-261260000D01*
X362500000Y-261263676D01*
X362537322Y-261260000D01*
X362537333Y-261260000D01*
X362648986Y-261249003D01*
X362792247Y-261205546D01*
X362924276Y-261134974D01*
X362990001Y-261081035D01*
X362990001Y-279185197D01*
X362685199Y-279490000D01*
X357064801Y-279490000D01*
X357060000Y-279485199D01*
X357060000Y-279125265D01*
X357105252Y-279106521D01*
X357383687Y-278920477D01*
X357620477Y-278683687D01*
X357806521Y-278405252D01*
X357934670Y-278095872D01*
X358000000Y-277767435D01*
X358000000Y-277432565D01*
X357934670Y-277104128D01*
X357806521Y-276794748D01*
X357620477Y-276516313D01*
X357383687Y-276279523D01*
X357105252Y-276093479D01*
X356795872Y-275965330D01*
X356467435Y-275900000D01*
X356132565Y-275900000D01*
X355804128Y-275965330D01*
X355494748Y-276093479D01*
X355216313Y-276279523D01*
X354979523Y-276516313D01*
X354793479Y-276794748D01*
X354665330Y-277104128D01*
X354600000Y-277432565D01*
X354600000Y-277767435D01*
X354665330Y-278095872D01*
X354793479Y-278405252D01*
X354979523Y-278683687D01*
X355216313Y-278920477D01*
X355494748Y-279106521D01*
X355540000Y-279125265D01*
X355540000Y-279762677D01*
X355536324Y-279800000D01*
X355540000Y-279837322D01*
X355540000Y-279837332D01*
X355550997Y-279948985D01*
X355569810Y-280011003D01*
X355594454Y-280092246D01*
X355665026Y-280224276D01*
X355697362Y-280263677D01*
X355759999Y-280340001D01*
X355789003Y-280363804D01*
X356186196Y-280760997D01*
X356209999Y-280790001D01*
X356283146Y-280850031D01*
X356325723Y-280884974D01*
X356457753Y-280955546D01*
X356601014Y-280999003D01*
X356712667Y-281010000D01*
X356712676Y-281010000D01*
X356749999Y-281013676D01*
X356787322Y-281010000D01*
X362962678Y-281010000D01*
X363000000Y-281013676D01*
X363037322Y-281010000D01*
X363037333Y-281010000D01*
X363148986Y-280999003D01*
X363292247Y-280955546D01*
X363424276Y-280884974D01*
X363540001Y-280790001D01*
X363563803Y-280760998D01*
X364261002Y-280063799D01*
X364290001Y-280040001D01*
X364384974Y-279924276D01*
X364455546Y-279792247D01*
X364499003Y-279648986D01*
X364510000Y-279537333D01*
X364510000Y-279537324D01*
X364513676Y-279500001D01*
X364510000Y-279462678D01*
X364510000Y-212222256D01*
X364716842Y-212307932D01*
X365003740Y-212365000D01*
X365296260Y-212365000D01*
X365583158Y-212307932D01*
X365853411Y-212195990D01*
X366096632Y-212033475D01*
X366303475Y-211826632D01*
X366465990Y-211583411D01*
X366577932Y-211313158D01*
X366590000Y-211252486D01*
X366590000Y-285740000D01*
X348410000Y-285740000D01*
X348410000Y-281000000D01*
X350611928Y-281000000D01*
X350611928Y-283000000D01*
X350624188Y-283124482D01*
X350660498Y-283244180D01*
X350719463Y-283354494D01*
X350798815Y-283451185D01*
X350895506Y-283530537D01*
X351005820Y-283589502D01*
X351125518Y-283625812D01*
X351250000Y-283638072D01*
X353250000Y-283638072D01*
X353374482Y-283625812D01*
X353494180Y-283589502D01*
X353604494Y-283530537D01*
X353701185Y-283451185D01*
X353780537Y-283354494D01*
X353839502Y-283244180D01*
X353875812Y-283124482D01*
X353888072Y-283000000D01*
X353888072Y-281000000D01*
X353875812Y-280875518D01*
X353839502Y-280755820D01*
X353780537Y-280645506D01*
X353701185Y-280548815D01*
X353604494Y-280469463D01*
X353494180Y-280410498D01*
X353374482Y-280374188D01*
X353250000Y-280361928D01*
X351250000Y-280361928D01*
X351125518Y-280374188D01*
X351005820Y-280410498D01*
X350895506Y-280469463D01*
X350798815Y-280548815D01*
X350719463Y-280645506D01*
X350660498Y-280755820D01*
X350624188Y-280875518D01*
X350611928Y-281000000D01*
X348410000Y-281000000D01*
X348410000Y-269132565D01*
X354600000Y-269132565D01*
X354600000Y-269467435D01*
X354665330Y-269795872D01*
X354793479Y-270105252D01*
X354979523Y-270383687D01*
X355216313Y-270620477D01*
X355494748Y-270806521D01*
X355804128Y-270934670D01*
X356132565Y-271000000D01*
X356467435Y-271000000D01*
X356795872Y-270934670D01*
X357105252Y-270806521D01*
X357383687Y-270620477D01*
X357620477Y-270383687D01*
X357806521Y-270105252D01*
X357934670Y-269795872D01*
X358000000Y-269467435D01*
X358000000Y-269132565D01*
X357934670Y-268804128D01*
X357806521Y-268494748D01*
X357620477Y-268216313D01*
X357383687Y-267979523D01*
X357105252Y-267793479D01*
X356795872Y-267665330D01*
X356467435Y-267600000D01*
X356132565Y-267600000D01*
X355804128Y-267665330D01*
X355494748Y-267793479D01*
X355216313Y-267979523D01*
X354979523Y-268216313D01*
X354793479Y-268494748D01*
X354665330Y-268804128D01*
X354600000Y-269132565D01*
X348410000Y-269132565D01*
X348410000Y-261000000D01*
X350611928Y-261000000D01*
X350611928Y-263000000D01*
X350624188Y-263124482D01*
X350660498Y-263244180D01*
X350719463Y-263354494D01*
X350798815Y-263451185D01*
X350895506Y-263530537D01*
X351005820Y-263589502D01*
X351125518Y-263625812D01*
X351250000Y-263638072D01*
X353250000Y-263638072D01*
X353374482Y-263625812D01*
X353494180Y-263589502D01*
X353604494Y-263530537D01*
X353701185Y-263451185D01*
X353780537Y-263354494D01*
X353839502Y-263244180D01*
X353875812Y-263124482D01*
X353888072Y-263000000D01*
X353888072Y-261000000D01*
X353875812Y-260875518D01*
X353839502Y-260755820D01*
X353780537Y-260645506D01*
X353701185Y-260548815D01*
X353604494Y-260469463D01*
X353494180Y-260410498D01*
X353374482Y-260374188D01*
X353250000Y-260361928D01*
X351250000Y-260361928D01*
X351125518Y-260374188D01*
X351005820Y-260410498D01*
X350895506Y-260469463D01*
X350798815Y-260548815D01*
X350719463Y-260645506D01*
X350660498Y-260755820D01*
X350624188Y-260875518D01*
X350611928Y-261000000D01*
X348410000Y-261000000D01*
X348410000Y-249132565D01*
X354600000Y-249132565D01*
X354600000Y-249467435D01*
X354665330Y-249795872D01*
X354793479Y-250105252D01*
X354979523Y-250383687D01*
X355216313Y-250620477D01*
X355494748Y-250806521D01*
X355804128Y-250934670D01*
X356132565Y-251000000D01*
X356467435Y-251000000D01*
X356795872Y-250934670D01*
X357105252Y-250806521D01*
X357383687Y-250620477D01*
X357620477Y-250383687D01*
X357806521Y-250105252D01*
X357934670Y-249795872D01*
X358000000Y-249467435D01*
X358000000Y-249132565D01*
X357934670Y-248804128D01*
X357806521Y-248494748D01*
X357620477Y-248216313D01*
X357383687Y-247979523D01*
X357105252Y-247793479D01*
X356795872Y-247665330D01*
X356467435Y-247600000D01*
X356132565Y-247600000D01*
X355804128Y-247665330D01*
X355494748Y-247793479D01*
X355216313Y-247979523D01*
X354979523Y-248216313D01*
X354793479Y-248494748D01*
X354665330Y-248804128D01*
X354600000Y-249132565D01*
X348410000Y-249132565D01*
X348410000Y-241000000D01*
X350611928Y-241000000D01*
X350611928Y-243000000D01*
X350624188Y-243124482D01*
X350660498Y-243244180D01*
X350719463Y-243354494D01*
X350798815Y-243451185D01*
X350895506Y-243530537D01*
X351005820Y-243589502D01*
X351125518Y-243625812D01*
X351250000Y-243638072D01*
X353250000Y-243638072D01*
X353374482Y-243625812D01*
X353494180Y-243589502D01*
X353604494Y-243530537D01*
X353701185Y-243451185D01*
X353780537Y-243354494D01*
X353839502Y-243244180D01*
X353875812Y-243124482D01*
X353888072Y-243000000D01*
X353888072Y-241000000D01*
X353875812Y-240875518D01*
X353839502Y-240755820D01*
X353780537Y-240645506D01*
X353701185Y-240548815D01*
X353604494Y-240469463D01*
X353494180Y-240410498D01*
X353374482Y-240374188D01*
X353250000Y-240361928D01*
X351250000Y-240361928D01*
X351125518Y-240374188D01*
X351005820Y-240410498D01*
X350895506Y-240469463D01*
X350798815Y-240548815D01*
X350719463Y-240645506D01*
X350660498Y-240755820D01*
X350624188Y-240875518D01*
X350611928Y-241000000D01*
X348410000Y-241000000D01*
X348410000Y-229132565D01*
X354600000Y-229132565D01*
X354600000Y-229467435D01*
X354665330Y-229795872D01*
X354793479Y-230105252D01*
X354979523Y-230383687D01*
X355216313Y-230620477D01*
X355494748Y-230806521D01*
X355804128Y-230934670D01*
X356132565Y-231000000D01*
X356467435Y-231000000D01*
X356795872Y-230934670D01*
X357105252Y-230806521D01*
X357383687Y-230620477D01*
X357620477Y-230383687D01*
X357806521Y-230105252D01*
X357934670Y-229795872D01*
X358000000Y-229467435D01*
X358000000Y-229132565D01*
X357934670Y-228804128D01*
X357806521Y-228494748D01*
X357620477Y-228216313D01*
X357383687Y-227979523D01*
X357105252Y-227793479D01*
X356795872Y-227665330D01*
X356467435Y-227600000D01*
X356132565Y-227600000D01*
X355804128Y-227665330D01*
X355494748Y-227793479D01*
X355216313Y-227979523D01*
X354979523Y-228216313D01*
X354793479Y-228494748D01*
X354665330Y-228804128D01*
X354600000Y-229132565D01*
X348410000Y-229132565D01*
X348410000Y-221000000D01*
X350611928Y-221000000D01*
X350611928Y-223000000D01*
X350624188Y-223124482D01*
X350660498Y-223244180D01*
X350719463Y-223354494D01*
X350798815Y-223451185D01*
X350895506Y-223530537D01*
X351005820Y-223589502D01*
X351125518Y-223625812D01*
X351250000Y-223638072D01*
X353250000Y-223638072D01*
X353374482Y-223625812D01*
X353494180Y-223589502D01*
X353604494Y-223530537D01*
X353701185Y-223451185D01*
X353780537Y-223354494D01*
X353839502Y-223244180D01*
X353875812Y-223124482D01*
X353888072Y-223000000D01*
X353888072Y-221000000D01*
X353875812Y-220875518D01*
X353839502Y-220755820D01*
X353780537Y-220645506D01*
X353701185Y-220548815D01*
X353604494Y-220469463D01*
X353494180Y-220410498D01*
X353374482Y-220374188D01*
X353250000Y-220361928D01*
X351250000Y-220361928D01*
X351125518Y-220374188D01*
X351005820Y-220410498D01*
X350895506Y-220469463D01*
X350798815Y-220548815D01*
X350719463Y-220645506D01*
X350660498Y-220755820D01*
X350624188Y-220875518D01*
X350611928Y-221000000D01*
X348410000Y-221000000D01*
X348410000Y-209132565D01*
X354600000Y-209132565D01*
X354600000Y-209467435D01*
X354665330Y-209795872D01*
X354793479Y-210105252D01*
X354979523Y-210383687D01*
X355216313Y-210620477D01*
X355494748Y-210806521D01*
X355804128Y-210934670D01*
X356132565Y-211000000D01*
X356467435Y-211000000D01*
X356795872Y-210934670D01*
X357105252Y-210806521D01*
X357383687Y-210620477D01*
X357620477Y-210383687D01*
X357806521Y-210105252D01*
X357934670Y-209795872D01*
X358000000Y-209467435D01*
X358000000Y-209132565D01*
X357934670Y-208804128D01*
X357806521Y-208494748D01*
X357620477Y-208216313D01*
X357383687Y-207979523D01*
X357105252Y-207793479D01*
X356795872Y-207665330D01*
X356467435Y-207600000D01*
X356132565Y-207600000D01*
X355804128Y-207665330D01*
X355494748Y-207793479D01*
X355216313Y-207979523D01*
X354979523Y-208216313D01*
X354793479Y-208494748D01*
X354665330Y-208804128D01*
X354600000Y-209132565D01*
X348410000Y-209132565D01*
X348410000Y-201000000D01*
X350611928Y-201000000D01*
X350611928Y-203000000D01*
X350624188Y-203124482D01*
X350660498Y-203244180D01*
X350719463Y-203354494D01*
X350798815Y-203451185D01*
X350895506Y-203530537D01*
X351005820Y-203589502D01*
X351125518Y-203625812D01*
X351250000Y-203638072D01*
X353250000Y-203638072D01*
X353374482Y-203625812D01*
X353494180Y-203589502D01*
X353604494Y-203530537D01*
X353701185Y-203451185D01*
X353780537Y-203354494D01*
X353839502Y-203244180D01*
X353875812Y-203124482D01*
X353888072Y-203000000D01*
X353888072Y-201000000D01*
X353875812Y-200875518D01*
X353839502Y-200755820D01*
X353780537Y-200645506D01*
X353701185Y-200548815D01*
X353604494Y-200469463D01*
X353494180Y-200410498D01*
X353374482Y-200374188D01*
X353250000Y-200361928D01*
X351250000Y-200361928D01*
X351125518Y-200374188D01*
X351005820Y-200410498D01*
X350895506Y-200469463D01*
X350798815Y-200548815D01*
X350719463Y-200645506D01*
X350660498Y-200755820D01*
X350624188Y-200875518D01*
X350611928Y-201000000D01*
X348410000Y-201000000D01*
X348410000Y-189132565D01*
X354600000Y-189132565D01*
X354600000Y-189467435D01*
X354665330Y-189795872D01*
X354793479Y-190105252D01*
X354979523Y-190383687D01*
X355216313Y-190620477D01*
X355494748Y-190806521D01*
X355804128Y-190934670D01*
X356132565Y-191000000D01*
X356467435Y-191000000D01*
X356795872Y-190934670D01*
X357105252Y-190806521D01*
X357383687Y-190620477D01*
X357620477Y-190383687D01*
X357806521Y-190105252D01*
X357934670Y-189795872D01*
X358000000Y-189467435D01*
X358000000Y-189132565D01*
X357934670Y-188804128D01*
X357806521Y-188494748D01*
X357620477Y-188216313D01*
X357383687Y-187979523D01*
X357105252Y-187793479D01*
X356795872Y-187665330D01*
X356467435Y-187600000D01*
X356132565Y-187600000D01*
X355804128Y-187665330D01*
X355494748Y-187793479D01*
X355216313Y-187979523D01*
X354979523Y-188216313D01*
X354793479Y-188494748D01*
X354665330Y-188804128D01*
X354600000Y-189132565D01*
X348410000Y-189132565D01*
X348410000Y-181000000D01*
X350611928Y-181000000D01*
X350611928Y-183000000D01*
X350624188Y-183124482D01*
X350660498Y-183244180D01*
X350719463Y-183354494D01*
X350798815Y-183451185D01*
X350895506Y-183530537D01*
X351005820Y-183589502D01*
X351125518Y-183625812D01*
X351250000Y-183638072D01*
X353250000Y-183638072D01*
X353374482Y-183625812D01*
X353494180Y-183589502D01*
X353604494Y-183530537D01*
X353701185Y-183451185D01*
X353780537Y-183354494D01*
X353839502Y-183244180D01*
X353875812Y-183124482D01*
X353888072Y-183000000D01*
X353888072Y-181000000D01*
X353875812Y-180875518D01*
X353839502Y-180755820D01*
X353780537Y-180645506D01*
X353701185Y-180548815D01*
X353604494Y-180469463D01*
X353494180Y-180410498D01*
X353374482Y-180374188D01*
X353250000Y-180361928D01*
X351250000Y-180361928D01*
X351125518Y-180374188D01*
X351005820Y-180410498D01*
X350895506Y-180469463D01*
X350798815Y-180548815D01*
X350719463Y-180645506D01*
X350660498Y-180755820D01*
X350624188Y-180875518D01*
X350611928Y-181000000D01*
X348410000Y-181000000D01*
X348410000Y-169132565D01*
X354600000Y-169132565D01*
X354600000Y-169467435D01*
X354665330Y-169795872D01*
X354793479Y-170105252D01*
X354979523Y-170383687D01*
X355216313Y-170620477D01*
X355494748Y-170806521D01*
X355804128Y-170934670D01*
X356132565Y-171000000D01*
X356467435Y-171000000D01*
X356795872Y-170934670D01*
X357105252Y-170806521D01*
X357383687Y-170620477D01*
X357620477Y-170383687D01*
X357806521Y-170105252D01*
X357934670Y-169795872D01*
X358000000Y-169467435D01*
X358000000Y-169132565D01*
X357934670Y-168804128D01*
X357806521Y-168494748D01*
X357620477Y-168216313D01*
X357383687Y-167979523D01*
X357105252Y-167793479D01*
X356795872Y-167665330D01*
X356467435Y-167600000D01*
X356132565Y-167600000D01*
X355804128Y-167665330D01*
X355494748Y-167793479D01*
X355216313Y-167979523D01*
X354979523Y-168216313D01*
X354793479Y-168494748D01*
X354665330Y-168804128D01*
X354600000Y-169132565D01*
X348410000Y-169132565D01*
X348410000Y-161000000D01*
X350611928Y-161000000D01*
X350611928Y-163000000D01*
X350624188Y-163124482D01*
X350660498Y-163244180D01*
X350719463Y-163354494D01*
X350798815Y-163451185D01*
X350895506Y-163530537D01*
X351005820Y-163589502D01*
X351125518Y-163625812D01*
X351250000Y-163638072D01*
X353250000Y-163638072D01*
X353374482Y-163625812D01*
X353494180Y-163589502D01*
X353604494Y-163530537D01*
X353701185Y-163451185D01*
X353780537Y-163354494D01*
X353839502Y-163244180D01*
X353875812Y-163124482D01*
X353888072Y-163000000D01*
X353888072Y-161000000D01*
X353875812Y-160875518D01*
X353839502Y-160755820D01*
X353780537Y-160645506D01*
X353701185Y-160548815D01*
X353604494Y-160469463D01*
X353494180Y-160410498D01*
X353374482Y-160374188D01*
X353250000Y-160361928D01*
X351250000Y-160361928D01*
X351125518Y-160374188D01*
X351005820Y-160410498D01*
X350895506Y-160469463D01*
X350798815Y-160548815D01*
X350719463Y-160645506D01*
X350660498Y-160755820D01*
X350624188Y-160875518D01*
X350611928Y-161000000D01*
X348410000Y-161000000D01*
X348410000Y-149132565D01*
X354600000Y-149132565D01*
X354600000Y-149467435D01*
X354665330Y-149795872D01*
X354793479Y-150105252D01*
X354979523Y-150383687D01*
X355216313Y-150620477D01*
X355494748Y-150806521D01*
X355804128Y-150934670D01*
X356132565Y-151000000D01*
X356467435Y-151000000D01*
X356795872Y-150934670D01*
X357105252Y-150806521D01*
X357383687Y-150620477D01*
X357620477Y-150383687D01*
X357806521Y-150105252D01*
X357934670Y-149795872D01*
X358000000Y-149467435D01*
X358000000Y-149132565D01*
X357934670Y-148804128D01*
X357806521Y-148494748D01*
X357620477Y-148216313D01*
X357383687Y-147979523D01*
X357105252Y-147793479D01*
X356795872Y-147665330D01*
X356467435Y-147600000D01*
X356132565Y-147600000D01*
X355804128Y-147665330D01*
X355494748Y-147793479D01*
X355216313Y-147979523D01*
X354979523Y-148216313D01*
X354793479Y-148494748D01*
X354665330Y-148804128D01*
X354600000Y-149132565D01*
X348410000Y-149132565D01*
X348410000Y-141000000D01*
X350611928Y-141000000D01*
X350611928Y-143000000D01*
X350624188Y-143124482D01*
X350660498Y-143244180D01*
X350719463Y-143354494D01*
X350798815Y-143451185D01*
X350895506Y-143530537D01*
X351005820Y-143589502D01*
X351125518Y-143625812D01*
X351250000Y-143638072D01*
X353250000Y-143638072D01*
X353374482Y-143625812D01*
X353494180Y-143589502D01*
X353604494Y-143530537D01*
X353701185Y-143451185D01*
X353780537Y-143354494D01*
X353839502Y-143244180D01*
X353875812Y-143124482D01*
X353888072Y-143000000D01*
X353888072Y-141000000D01*
X353875812Y-140875518D01*
X353839502Y-140755820D01*
X353780537Y-140645506D01*
X353701185Y-140548815D01*
X353604494Y-140469463D01*
X353494180Y-140410498D01*
X353374482Y-140374188D01*
X353250000Y-140361928D01*
X351250000Y-140361928D01*
X351125518Y-140374188D01*
X351005820Y-140410498D01*
X350895506Y-140469463D01*
X350798815Y-140548815D01*
X350719463Y-140645506D01*
X350660498Y-140755820D01*
X350624188Y-140875518D01*
X350611928Y-141000000D01*
X348410000Y-141000000D01*
X348410000Y-129132565D01*
X354600000Y-129132565D01*
X354600000Y-129467435D01*
X354665330Y-129795872D01*
X354793479Y-130105252D01*
X354979523Y-130383687D01*
X355216313Y-130620477D01*
X355494748Y-130806521D01*
X355804128Y-130934670D01*
X356132565Y-131000000D01*
X356467435Y-131000000D01*
X356795872Y-130934670D01*
X357105252Y-130806521D01*
X357383687Y-130620477D01*
X357620477Y-130383687D01*
X357806521Y-130105252D01*
X357934670Y-129795872D01*
X358000000Y-129467435D01*
X358000000Y-129132565D01*
X357934670Y-128804128D01*
X357806521Y-128494748D01*
X357620477Y-128216313D01*
X357383687Y-127979523D01*
X357105252Y-127793479D01*
X356795872Y-127665330D01*
X356467435Y-127600000D01*
X356132565Y-127600000D01*
X355804128Y-127665330D01*
X355494748Y-127793479D01*
X355216313Y-127979523D01*
X354979523Y-128216313D01*
X354793479Y-128494748D01*
X354665330Y-128804128D01*
X354600000Y-129132565D01*
X348410000Y-129132565D01*
X348410000Y-120460000D01*
X366590001Y-120460000D01*
X366590001Y-140265200D01*
G37*
X366590001Y-140265200D02*
X366313804Y-139989003D01*
X366290001Y-139959999D01*
X366174276Y-139865026D01*
X366042247Y-139794454D01*
X365898986Y-139750997D01*
X365787333Y-139740000D01*
X365787322Y-139740000D01*
X365750000Y-139736324D01*
X365712678Y-139740000D01*
X357314802Y-139740000D01*
X357060000Y-139485198D01*
X357060000Y-139125265D01*
X357105252Y-139106521D01*
X357383687Y-138920477D01*
X357620477Y-138683687D01*
X357806521Y-138405252D01*
X357934670Y-138095872D01*
X358000000Y-137767435D01*
X358000000Y-137432565D01*
X357934670Y-137104128D01*
X357806521Y-136794748D01*
X357620477Y-136516313D01*
X357383687Y-136279523D01*
X357105252Y-136093479D01*
X356795872Y-135965330D01*
X356467435Y-135900000D01*
X356132565Y-135900000D01*
X355804128Y-135965330D01*
X355494748Y-136093479D01*
X355216313Y-136279523D01*
X354979523Y-136516313D01*
X354793479Y-136794748D01*
X354665330Y-137104128D01*
X354600000Y-137432565D01*
X354600000Y-137767435D01*
X354665330Y-138095872D01*
X354793479Y-138405252D01*
X354979523Y-138683687D01*
X355216313Y-138920477D01*
X355494748Y-139106521D01*
X355540001Y-139125265D01*
X355540001Y-139762668D01*
X355536324Y-139800000D01*
X355550998Y-139948985D01*
X355594454Y-140092246D01*
X355665026Y-140224276D01*
X355736201Y-140311002D01*
X355760000Y-140340001D01*
X355788997Y-140363799D01*
X356436205Y-141011008D01*
X356459999Y-141040001D01*
X356488992Y-141063795D01*
X356488996Y-141063799D01*
X356559685Y-141121811D01*
X356575724Y-141134974D01*
X356707753Y-141205546D01*
X356851014Y-141249003D01*
X356962667Y-141260000D01*
X356962676Y-141260000D01*
X356999999Y-141263676D01*
X357037322Y-141260000D01*
X365435199Y-141260000D01*
X365490000Y-141314801D01*
X365490000Y-161571336D01*
X365455546Y-161457753D01*
X365384974Y-161325723D01*
X365313799Y-161238997D01*
X365290001Y-161209999D01*
X365261003Y-161186201D01*
X364063804Y-159989003D01*
X364040001Y-159959999D01*
X363924276Y-159865026D01*
X363792247Y-159794454D01*
X363648986Y-159750997D01*
X363537333Y-159740000D01*
X363537322Y-159740000D01*
X363500000Y-159736324D01*
X363462678Y-159740000D01*
X357064801Y-159740000D01*
X357060000Y-159735199D01*
X357060000Y-159125265D01*
X357105252Y-159106521D01*
X357383687Y-158920477D01*
X357620477Y-158683687D01*
X357806521Y-158405252D01*
X357934670Y-158095872D01*
X358000000Y-157767435D01*
X358000000Y-157432565D01*
X357934670Y-157104128D01*
X357806521Y-156794748D01*
X357620477Y-156516313D01*
X357383687Y-156279523D01*
X357105252Y-156093479D01*
X356795872Y-155965330D01*
X356467435Y-155900000D01*
X356132565Y-155900000D01*
X355804128Y-155965330D01*
X355494748Y-156093479D01*
X355216313Y-156279523D01*
X354979523Y-156516313D01*
X354793479Y-156794748D01*
X354665330Y-157104128D01*
X354600000Y-157432565D01*
X354600000Y-157767435D01*
X354665330Y-158095872D01*
X354793479Y-158405252D01*
X354979523Y-158683687D01*
X355216313Y-158920477D01*
X355494748Y-159106521D01*
X355540000Y-159125265D01*
X355540000Y-160012677D01*
X355536324Y-160050000D01*
X355540000Y-160087322D01*
X355540000Y-160087332D01*
X355550997Y-160198985D01*
X355594454Y-160342246D01*
X355665026Y-160474276D01*
X355704871Y-160522826D01*
X355759999Y-160590001D01*
X355789003Y-160613804D01*
X356186196Y-161010997D01*
X356209999Y-161040001D01*
X356283146Y-161100031D01*
X356325723Y-161134974D01*
X356457753Y-161205546D01*
X356601014Y-161249003D01*
X356712667Y-161260000D01*
X356712676Y-161260000D01*
X356749999Y-161263676D01*
X356787322Y-161260000D01*
X363185199Y-161260000D01*
X363990001Y-162064803D01*
X363990000Y-188685198D01*
X363010000Y-189665199D01*
X363010000Y-181537322D01*
X363013676Y-181499999D01*
X363010000Y-181462676D01*
X363010000Y-181462667D01*
X362999003Y-181351014D01*
X362955546Y-181207753D01*
X362884974Y-181075724D01*
X362790001Y-180959999D01*
X362761003Y-180936201D01*
X361313804Y-179489003D01*
X361290001Y-179459999D01*
X361174276Y-179365026D01*
X361042247Y-179294454D01*
X360898986Y-179250997D01*
X360787333Y-179240000D01*
X360787322Y-179240000D01*
X360750000Y-179236324D01*
X360712678Y-179240000D01*
X357060000Y-179240000D01*
X357060000Y-179125265D01*
X357105252Y-179106521D01*
X357383687Y-178920477D01*
X357620477Y-178683687D01*
X357806521Y-178405252D01*
X357934670Y-178095872D01*
X358000000Y-177767435D01*
X358000000Y-177432565D01*
X357934670Y-177104128D01*
X357806521Y-176794748D01*
X357620477Y-176516313D01*
X357383687Y-176279523D01*
X357105252Y-176093479D01*
X356795872Y-175965330D01*
X356467435Y-175900000D01*
X356132565Y-175900000D01*
X355804128Y-175965330D01*
X355494748Y-176093479D01*
X355216313Y-176279523D01*
X354979523Y-176516313D01*
X354793479Y-176794748D01*
X354665330Y-177104128D01*
X354600000Y-177432565D01*
X354600000Y-177767435D01*
X354665330Y-178095872D01*
X354793479Y-178405252D01*
X354979523Y-178683687D01*
X355216313Y-178920477D01*
X355494748Y-179106521D01*
X355540000Y-179125265D01*
X355540000Y-179762677D01*
X355536324Y-179800000D01*
X355540000Y-179837322D01*
X355540000Y-179837332D01*
X355550997Y-179948985D01*
X355594454Y-180092246D01*
X355665026Y-180224276D01*
X355704871Y-180272826D01*
X355759999Y-180340001D01*
X355789003Y-180363804D01*
X355936196Y-180510997D01*
X355959999Y-180540001D01*
X356075724Y-180634974D01*
X356207753Y-180705546D01*
X356351014Y-180749003D01*
X356462667Y-180760000D01*
X356462675Y-180760000D01*
X356500000Y-180763676D01*
X356537325Y-180760000D01*
X360435199Y-180760000D01*
X361490001Y-181814803D01*
X361490000Y-197212678D01*
X361486324Y-197250000D01*
X361490000Y-197287322D01*
X361490000Y-197287332D01*
X361500997Y-197398985D01*
X361516780Y-197451014D01*
X361544454Y-197542246D01*
X361615026Y-197674276D01*
X361654871Y-197722826D01*
X361709999Y-197790001D01*
X361739002Y-197813803D01*
X362616201Y-198691003D01*
X362639999Y-198720001D01*
X362668997Y-198743799D01*
X362755724Y-198814974D01*
X362887753Y-198885546D01*
X363031014Y-198929003D01*
X363180000Y-198943677D01*
X363217333Y-198940000D01*
X363871822Y-198940000D01*
X363996525Y-199126632D01*
X364203368Y-199333475D01*
X364377760Y-199450000D01*
X364203368Y-199566525D01*
X363996525Y-199773368D01*
X363871822Y-199960000D01*
X357060000Y-199960000D01*
X357060000Y-199125265D01*
X357105252Y-199106521D01*
X357383687Y-198920477D01*
X357620477Y-198683687D01*
X357806521Y-198405252D01*
X357934670Y-198095872D01*
X358000000Y-197767435D01*
X358000000Y-197432565D01*
X357934670Y-197104128D01*
X357806521Y-196794748D01*
X357620477Y-196516313D01*
X357383687Y-196279523D01*
X357105252Y-196093479D01*
X356795872Y-195965330D01*
X356467435Y-195900000D01*
X356132565Y-195900000D01*
X355804128Y-195965330D01*
X355494748Y-196093479D01*
X355216313Y-196279523D01*
X354979523Y-196516313D01*
X354793479Y-196794748D01*
X354665330Y-197104128D01*
X354600000Y-197432565D01*
X354600000Y-197767435D01*
X354665330Y-198095872D01*
X354793479Y-198405252D01*
X354979523Y-198683687D01*
X355216313Y-198920477D01*
X355494748Y-199106521D01*
X355540000Y-199125265D01*
X355540000Y-200262677D01*
X355536324Y-200300000D01*
X355540000Y-200337322D01*
X355540000Y-200337332D01*
X355550997Y-200448985D01*
X355588840Y-200573740D01*
X355594454Y-200592246D01*
X355665026Y-200724276D01*
X355690914Y-200755820D01*
X355759999Y-200840001D01*
X355789003Y-200863804D01*
X356156196Y-201230997D01*
X356179999Y-201260001D01*
X356295724Y-201354974D01*
X356427753Y-201425546D01*
X356571014Y-201469003D01*
X356682667Y-201480000D01*
X356682675Y-201480000D01*
X356720000Y-201483676D01*
X356757325Y-201480000D01*
X363871822Y-201480000D01*
X363996525Y-201666632D01*
X364203368Y-201873475D01*
X364377760Y-201990000D01*
X364203368Y-202106525D01*
X363996525Y-202313368D01*
X363871822Y-202500000D01*
X362777322Y-202500000D01*
X362739999Y-202496324D01*
X362702676Y-202500000D01*
X362702667Y-202500000D01*
X362591014Y-202510997D01*
X362447753Y-202554454D01*
X362315723Y-202625026D01*
X362232083Y-202693668D01*
X362199999Y-202719999D01*
X362176201Y-202748998D01*
X361489002Y-203436197D01*
X361459999Y-203459999D01*
X361404871Y-203527174D01*
X361365026Y-203575724D01*
X361331700Y-203638072D01*
X361294454Y-203707754D01*
X361250997Y-203851015D01*
X361240000Y-203962668D01*
X361240000Y-203962678D01*
X361236324Y-204000000D01*
X361240000Y-204037322D01*
X361240001Y-219185197D01*
X360435199Y-219990000D01*
X357064801Y-219990000D01*
X357060000Y-219985199D01*
X357060000Y-219125265D01*
X357105252Y-219106521D01*
X357383687Y-218920477D01*
X357620477Y-218683687D01*
X357806521Y-218405252D01*
X357934670Y-218095872D01*
X358000000Y-217767435D01*
X358000000Y-217432565D01*
X357934670Y-217104128D01*
X357806521Y-216794748D01*
X357620477Y-216516313D01*
X357383687Y-216279523D01*
X357105252Y-216093479D01*
X356795872Y-215965330D01*
X356467435Y-215900000D01*
X356132565Y-215900000D01*
X355804128Y-215965330D01*
X355494748Y-216093479D01*
X355216313Y-216279523D01*
X354979523Y-216516313D01*
X354793479Y-216794748D01*
X354665330Y-217104128D01*
X354600000Y-217432565D01*
X354600000Y-217767435D01*
X354665330Y-218095872D01*
X354793479Y-218405252D01*
X354979523Y-218683687D01*
X355216313Y-218920477D01*
X355494748Y-219106521D01*
X355540000Y-219125265D01*
X355540000Y-220262677D01*
X355536324Y-220300000D01*
X355540000Y-220337322D01*
X355540000Y-220337332D01*
X355550997Y-220448985D01*
X355581280Y-220548815D01*
X355594454Y-220592246D01*
X355665026Y-220724276D01*
X355690914Y-220755820D01*
X355759999Y-220840001D01*
X355789003Y-220863804D01*
X356186196Y-221260997D01*
X356209999Y-221290001D01*
X356283146Y-221350031D01*
X356325723Y-221384974D01*
X356457753Y-221455546D01*
X356601014Y-221499003D01*
X356712667Y-221510000D01*
X356712676Y-221510000D01*
X356749999Y-221513676D01*
X356787322Y-221510000D01*
X360712678Y-221510000D01*
X360750000Y-221513676D01*
X360787322Y-221510000D01*
X360787333Y-221510000D01*
X360898986Y-221499003D01*
X361042247Y-221455546D01*
X361174276Y-221384974D01*
X361290001Y-221290001D01*
X361313804Y-221260997D01*
X361740000Y-220834801D01*
X361740001Y-239185197D01*
X361185199Y-239740000D01*
X357064801Y-239740000D01*
X357060000Y-239735199D01*
X357060000Y-239125265D01*
X357105252Y-239106521D01*
X357383687Y-238920477D01*
X357620477Y-238683687D01*
X357806521Y-238405252D01*
X357934670Y-238095872D01*
X358000000Y-237767435D01*
X358000000Y-237432565D01*
X357934670Y-237104128D01*
X357806521Y-236794748D01*
X357620477Y-236516313D01*
X357383687Y-236279523D01*
X357105252Y-236093479D01*
X356795872Y-235965330D01*
X356467435Y-235900000D01*
X356132565Y-235900000D01*
X355804128Y-235965330D01*
X355494748Y-236093479D01*
X355216313Y-236279523D01*
X354979523Y-236516313D01*
X354793479Y-236794748D01*
X354665330Y-237104128D01*
X354600000Y-237432565D01*
X354600000Y-237767435D01*
X354665330Y-238095872D01*
X354793479Y-238405252D01*
X354979523Y-238683687D01*
X355216313Y-238920477D01*
X355494748Y-239106521D01*
X355540000Y-239125265D01*
X355540000Y-240012677D01*
X355536324Y-240050000D01*
X355540000Y-240087322D01*
X355540000Y-240087332D01*
X355550997Y-240198985D01*
X355566170Y-240249003D01*
X355594454Y-240342246D01*
X355665026Y-240474276D01*
X355704871Y-240522826D01*
X355759999Y-240590001D01*
X355789003Y-240613804D01*
X356186196Y-241010997D01*
X356209999Y-241040001D01*
X356283146Y-241100031D01*
X356325723Y-241134974D01*
X356457753Y-241205546D01*
X356601014Y-241249003D01*
X356712667Y-241260000D01*
X356712676Y-241260000D01*
X356749999Y-241263676D01*
X356787322Y-241260000D01*
X361462678Y-241260000D01*
X361500000Y-241263676D01*
X361537322Y-241260000D01*
X361537333Y-241260000D01*
X361648986Y-241249003D01*
X361792247Y-241205546D01*
X361924276Y-241134974D01*
X362040001Y-241040001D01*
X362063804Y-241010998D01*
X362490001Y-240584801D01*
X362490001Y-259435197D01*
X362185199Y-259740000D01*
X357064801Y-259740000D01*
X357060000Y-259735199D01*
X357060000Y-259125265D01*
X357105252Y-259106521D01*
X357383687Y-258920477D01*
X357620477Y-258683687D01*
X357806521Y-258405252D01*
X357934670Y-258095872D01*
X358000000Y-257767435D01*
X358000000Y-257432565D01*
X357934670Y-257104128D01*
X357806521Y-256794748D01*
X357620477Y-256516313D01*
X357383687Y-256279523D01*
X357105252Y-256093479D01*
X356795872Y-255965330D01*
X356467435Y-255900000D01*
X356132565Y-255900000D01*
X355804128Y-255965330D01*
X355494748Y-256093479D01*
X355216313Y-256279523D01*
X354979523Y-256516313D01*
X354793479Y-256794748D01*
X354665330Y-257104128D01*
X354600000Y-257432565D01*
X354600000Y-257767435D01*
X354665330Y-258095872D01*
X354793479Y-258405252D01*
X354979523Y-258683687D01*
X355216313Y-258920477D01*
X355494748Y-259106521D01*
X355540000Y-259125265D01*
X355540000Y-260012677D01*
X355536324Y-260050000D01*
X355540000Y-260087322D01*
X355540000Y-260087332D01*
X355550997Y-260198985D01*
X355569810Y-260261003D01*
X355594454Y-260342246D01*
X355665026Y-260474276D01*
X355697362Y-260513677D01*
X355759999Y-260590001D01*
X355789003Y-260613804D01*
X356186196Y-261010997D01*
X356209999Y-261040001D01*
X356283146Y-261100031D01*
X356325723Y-261134974D01*
X356457753Y-261205546D01*
X356601014Y-261249003D01*
X356712667Y-261260000D01*
X356712676Y-261260000D01*
X356749999Y-261263676D01*
X356787322Y-261260000D01*
X362462678Y-261260000D01*
X362500000Y-261263676D01*
X362537322Y-261260000D01*
X362537333Y-261260000D01*
X362648986Y-261249003D01*
X362792247Y-261205546D01*
X362924276Y-261134974D01*
X362990001Y-261081035D01*
X362990001Y-279185197D01*
X362685199Y-279490000D01*
X357064801Y-279490000D01*
X357060000Y-279485199D01*
X357060000Y-279125265D01*
X357105252Y-279106521D01*
X357383687Y-278920477D01*
X357620477Y-278683687D01*
X357806521Y-278405252D01*
X357934670Y-278095872D01*
X358000000Y-277767435D01*
X358000000Y-277432565D01*
X357934670Y-277104128D01*
X357806521Y-276794748D01*
X357620477Y-276516313D01*
X357383687Y-276279523D01*
X357105252Y-276093479D01*
X356795872Y-275965330D01*
X356467435Y-275900000D01*
X356132565Y-275900000D01*
X355804128Y-275965330D01*
X355494748Y-276093479D01*
X355216313Y-276279523D01*
X354979523Y-276516313D01*
X354793479Y-276794748D01*
X354665330Y-277104128D01*
X354600000Y-277432565D01*
X354600000Y-277767435D01*
X354665330Y-278095872D01*
X354793479Y-278405252D01*
X354979523Y-278683687D01*
X355216313Y-278920477D01*
X355494748Y-279106521D01*
X355540000Y-279125265D01*
X355540000Y-279762677D01*
X355536324Y-279800000D01*
X355540000Y-279837322D01*
X355540000Y-279837332D01*
X355550997Y-279948985D01*
X355569810Y-280011003D01*
X355594454Y-280092246D01*
X355665026Y-280224276D01*
X355697362Y-280263677D01*
X355759999Y-280340001D01*
X355789003Y-280363804D01*
X356186196Y-280760997D01*
X356209999Y-280790001D01*
X356283146Y-280850031D01*
X356325723Y-280884974D01*
X356457753Y-280955546D01*
X356601014Y-280999003D01*
X356712667Y-281010000D01*
X356712676Y-281010000D01*
X356749999Y-281013676D01*
X356787322Y-281010000D01*
X362962678Y-281010000D01*
X363000000Y-281013676D01*
X363037322Y-281010000D01*
X363037333Y-281010000D01*
X363148986Y-280999003D01*
X363292247Y-280955546D01*
X363424276Y-280884974D01*
X363540001Y-280790001D01*
X363563803Y-280760998D01*
X364261002Y-280063799D01*
X364290001Y-280040001D01*
X364384974Y-279924276D01*
X364455546Y-279792247D01*
X364499003Y-279648986D01*
X364510000Y-279537333D01*
X364510000Y-279537324D01*
X364513676Y-279500001D01*
X364510000Y-279462678D01*
X364510000Y-212222256D01*
X364716842Y-212307932D01*
X365003740Y-212365000D01*
X365296260Y-212365000D01*
X365583158Y-212307932D01*
X365853411Y-212195990D01*
X366096632Y-212033475D01*
X366303475Y-211826632D01*
X366465990Y-211583411D01*
X366577932Y-211313158D01*
X366590000Y-211252486D01*
X366590000Y-285740000D01*
X348410000Y-285740000D01*
X348410000Y-281000000D01*
X350611928Y-281000000D01*
X350611928Y-283000000D01*
X350624188Y-283124482D01*
X350660498Y-283244180D01*
X350719463Y-283354494D01*
X350798815Y-283451185D01*
X350895506Y-283530537D01*
X351005820Y-283589502D01*
X351125518Y-283625812D01*
X351250000Y-283638072D01*
X353250000Y-283638072D01*
X353374482Y-283625812D01*
X353494180Y-283589502D01*
X353604494Y-283530537D01*
X353701185Y-283451185D01*
X353780537Y-283354494D01*
X353839502Y-283244180D01*
X353875812Y-283124482D01*
X353888072Y-283000000D01*
X353888072Y-281000000D01*
X353875812Y-280875518D01*
X353839502Y-280755820D01*
X353780537Y-280645506D01*
X353701185Y-280548815D01*
X353604494Y-280469463D01*
X353494180Y-280410498D01*
X353374482Y-280374188D01*
X353250000Y-280361928D01*
X351250000Y-280361928D01*
X351125518Y-280374188D01*
X351005820Y-280410498D01*
X350895506Y-280469463D01*
X350798815Y-280548815D01*
X350719463Y-280645506D01*
X350660498Y-280755820D01*
X350624188Y-280875518D01*
X350611928Y-281000000D01*
X348410000Y-281000000D01*
X348410000Y-269132565D01*
X354600000Y-269132565D01*
X354600000Y-269467435D01*
X354665330Y-269795872D01*
X354793479Y-270105252D01*
X354979523Y-270383687D01*
X355216313Y-270620477D01*
X355494748Y-270806521D01*
X355804128Y-270934670D01*
X356132565Y-271000000D01*
X356467435Y-271000000D01*
X356795872Y-270934670D01*
X357105252Y-270806521D01*
X357383687Y-270620477D01*
X357620477Y-270383687D01*
X357806521Y-270105252D01*
X357934670Y-269795872D01*
X358000000Y-269467435D01*
X358000000Y-269132565D01*
X357934670Y-268804128D01*
X357806521Y-268494748D01*
X357620477Y-268216313D01*
X357383687Y-267979523D01*
X357105252Y-267793479D01*
X356795872Y-267665330D01*
X356467435Y-267600000D01*
X356132565Y-267600000D01*
X355804128Y-267665330D01*
X355494748Y-267793479D01*
X355216313Y-267979523D01*
X354979523Y-268216313D01*
X354793479Y-268494748D01*
X354665330Y-268804128D01*
X354600000Y-269132565D01*
X348410000Y-269132565D01*
X348410000Y-261000000D01*
X350611928Y-261000000D01*
X350611928Y-263000000D01*
X350624188Y-263124482D01*
X350660498Y-263244180D01*
X350719463Y-263354494D01*
X350798815Y-263451185D01*
X350895506Y-263530537D01*
X351005820Y-263589502D01*
X351125518Y-263625812D01*
X351250000Y-263638072D01*
X353250000Y-263638072D01*
X353374482Y-263625812D01*
X353494180Y-263589502D01*
X353604494Y-263530537D01*
X353701185Y-263451185D01*
X353780537Y-263354494D01*
X353839502Y-263244180D01*
X353875812Y-263124482D01*
X353888072Y-263000000D01*
X353888072Y-261000000D01*
X353875812Y-260875518D01*
X353839502Y-260755820D01*
X353780537Y-260645506D01*
X353701185Y-260548815D01*
X353604494Y-260469463D01*
X353494180Y-260410498D01*
X353374482Y-260374188D01*
X353250000Y-260361928D01*
X351250000Y-260361928D01*
X351125518Y-260374188D01*
X351005820Y-260410498D01*
X350895506Y-260469463D01*
X350798815Y-260548815D01*
X350719463Y-260645506D01*
X350660498Y-260755820D01*
X350624188Y-260875518D01*
X350611928Y-261000000D01*
X348410000Y-261000000D01*
X348410000Y-249132565D01*
X354600000Y-249132565D01*
X354600000Y-249467435D01*
X354665330Y-249795872D01*
X354793479Y-250105252D01*
X354979523Y-250383687D01*
X355216313Y-250620477D01*
X355494748Y-250806521D01*
X355804128Y-250934670D01*
X356132565Y-251000000D01*
X356467435Y-251000000D01*
X356795872Y-250934670D01*
X357105252Y-250806521D01*
X357383687Y-250620477D01*
X357620477Y-250383687D01*
X357806521Y-250105252D01*
X357934670Y-249795872D01*
X358000000Y-249467435D01*
X358000000Y-249132565D01*
X357934670Y-248804128D01*
X357806521Y-248494748D01*
X357620477Y-248216313D01*
X357383687Y-247979523D01*
X357105252Y-247793479D01*
X356795872Y-247665330D01*
X356467435Y-247600000D01*
X356132565Y-247600000D01*
X355804128Y-247665330D01*
X355494748Y-247793479D01*
X355216313Y-247979523D01*
X354979523Y-248216313D01*
X354793479Y-248494748D01*
X354665330Y-248804128D01*
X354600000Y-249132565D01*
X348410000Y-249132565D01*
X348410000Y-241000000D01*
X350611928Y-241000000D01*
X350611928Y-243000000D01*
X350624188Y-243124482D01*
X350660498Y-243244180D01*
X350719463Y-243354494D01*
X350798815Y-243451185D01*
X350895506Y-243530537D01*
X351005820Y-243589502D01*
X351125518Y-243625812D01*
X351250000Y-243638072D01*
X353250000Y-243638072D01*
X353374482Y-243625812D01*
X353494180Y-243589502D01*
X353604494Y-243530537D01*
X353701185Y-243451185D01*
X353780537Y-243354494D01*
X353839502Y-243244180D01*
X353875812Y-243124482D01*
X353888072Y-243000000D01*
X353888072Y-241000000D01*
X353875812Y-240875518D01*
X353839502Y-240755820D01*
X353780537Y-240645506D01*
X353701185Y-240548815D01*
X353604494Y-240469463D01*
X353494180Y-240410498D01*
X353374482Y-240374188D01*
X353250000Y-240361928D01*
X351250000Y-240361928D01*
X351125518Y-240374188D01*
X351005820Y-240410498D01*
X350895506Y-240469463D01*
X350798815Y-240548815D01*
X350719463Y-240645506D01*
X350660498Y-240755820D01*
X350624188Y-240875518D01*
X350611928Y-241000000D01*
X348410000Y-241000000D01*
X348410000Y-229132565D01*
X354600000Y-229132565D01*
X354600000Y-229467435D01*
X354665330Y-229795872D01*
X354793479Y-230105252D01*
X354979523Y-230383687D01*
X355216313Y-230620477D01*
X355494748Y-230806521D01*
X355804128Y-230934670D01*
X356132565Y-231000000D01*
X356467435Y-231000000D01*
X356795872Y-230934670D01*
X357105252Y-230806521D01*
X357383687Y-230620477D01*
X357620477Y-230383687D01*
X357806521Y-230105252D01*
X357934670Y-229795872D01*
X358000000Y-229467435D01*
X358000000Y-229132565D01*
X357934670Y-228804128D01*
X357806521Y-228494748D01*
X357620477Y-228216313D01*
X357383687Y-227979523D01*
X357105252Y-227793479D01*
X356795872Y-227665330D01*
X356467435Y-227600000D01*
X356132565Y-227600000D01*
X355804128Y-227665330D01*
X355494748Y-227793479D01*
X355216313Y-227979523D01*
X354979523Y-228216313D01*
X354793479Y-228494748D01*
X354665330Y-228804128D01*
X354600000Y-229132565D01*
X348410000Y-229132565D01*
X348410000Y-221000000D01*
X350611928Y-221000000D01*
X350611928Y-223000000D01*
X350624188Y-223124482D01*
X350660498Y-223244180D01*
X350719463Y-223354494D01*
X350798815Y-223451185D01*
X350895506Y-223530537D01*
X351005820Y-223589502D01*
X351125518Y-223625812D01*
X351250000Y-223638072D01*
X353250000Y-223638072D01*
X353374482Y-223625812D01*
X353494180Y-223589502D01*
X353604494Y-223530537D01*
X353701185Y-223451185D01*
X353780537Y-223354494D01*
X353839502Y-223244180D01*
X353875812Y-223124482D01*
X353888072Y-223000000D01*
X353888072Y-221000000D01*
X353875812Y-220875518D01*
X353839502Y-220755820D01*
X353780537Y-220645506D01*
X353701185Y-220548815D01*
X353604494Y-220469463D01*
X353494180Y-220410498D01*
X353374482Y-220374188D01*
X353250000Y-220361928D01*
X351250000Y-220361928D01*
X351125518Y-220374188D01*
X351005820Y-220410498D01*
X350895506Y-220469463D01*
X350798815Y-220548815D01*
X350719463Y-220645506D01*
X350660498Y-220755820D01*
X350624188Y-220875518D01*
X350611928Y-221000000D01*
X348410000Y-221000000D01*
X348410000Y-209132565D01*
X354600000Y-209132565D01*
X354600000Y-209467435D01*
X354665330Y-209795872D01*
X354793479Y-210105252D01*
X354979523Y-210383687D01*
X355216313Y-210620477D01*
X355494748Y-210806521D01*
X355804128Y-210934670D01*
X356132565Y-211000000D01*
X356467435Y-211000000D01*
X356795872Y-210934670D01*
X357105252Y-210806521D01*
X357383687Y-210620477D01*
X357620477Y-210383687D01*
X357806521Y-210105252D01*
X357934670Y-209795872D01*
X358000000Y-209467435D01*
X358000000Y-209132565D01*
X357934670Y-208804128D01*
X357806521Y-208494748D01*
X357620477Y-208216313D01*
X357383687Y-207979523D01*
X357105252Y-207793479D01*
X356795872Y-207665330D01*
X356467435Y-207600000D01*
X356132565Y-207600000D01*
X355804128Y-207665330D01*
X355494748Y-207793479D01*
X355216313Y-207979523D01*
X354979523Y-208216313D01*
X354793479Y-208494748D01*
X354665330Y-208804128D01*
X354600000Y-209132565D01*
X348410000Y-209132565D01*
X348410000Y-201000000D01*
X350611928Y-201000000D01*
X350611928Y-203000000D01*
X350624188Y-203124482D01*
X350660498Y-203244180D01*
X350719463Y-203354494D01*
X350798815Y-203451185D01*
X350895506Y-203530537D01*
X351005820Y-203589502D01*
X351125518Y-203625812D01*
X351250000Y-203638072D01*
X353250000Y-203638072D01*
X353374482Y-203625812D01*
X353494180Y-203589502D01*
X353604494Y-203530537D01*
X353701185Y-203451185D01*
X353780537Y-203354494D01*
X353839502Y-203244180D01*
X353875812Y-203124482D01*
X353888072Y-203000000D01*
X353888072Y-201000000D01*
X353875812Y-200875518D01*
X353839502Y-200755820D01*
X353780537Y-200645506D01*
X353701185Y-200548815D01*
X353604494Y-200469463D01*
X353494180Y-200410498D01*
X353374482Y-200374188D01*
X353250000Y-200361928D01*
X351250000Y-200361928D01*
X351125518Y-200374188D01*
X351005820Y-200410498D01*
X350895506Y-200469463D01*
X350798815Y-200548815D01*
X350719463Y-200645506D01*
X350660498Y-200755820D01*
X350624188Y-200875518D01*
X350611928Y-201000000D01*
X348410000Y-201000000D01*
X348410000Y-189132565D01*
X354600000Y-189132565D01*
X354600000Y-189467435D01*
X354665330Y-189795872D01*
X354793479Y-190105252D01*
X354979523Y-190383687D01*
X355216313Y-190620477D01*
X355494748Y-190806521D01*
X355804128Y-190934670D01*
X356132565Y-191000000D01*
X356467435Y-191000000D01*
X356795872Y-190934670D01*
X357105252Y-190806521D01*
X357383687Y-190620477D01*
X357620477Y-190383687D01*
X357806521Y-190105252D01*
X357934670Y-189795872D01*
X358000000Y-189467435D01*
X358000000Y-189132565D01*
X357934670Y-188804128D01*
X357806521Y-188494748D01*
X357620477Y-188216313D01*
X357383687Y-187979523D01*
X357105252Y-187793479D01*
X356795872Y-187665330D01*
X356467435Y-187600000D01*
X356132565Y-187600000D01*
X355804128Y-187665330D01*
X355494748Y-187793479D01*
X355216313Y-187979523D01*
X354979523Y-188216313D01*
X354793479Y-188494748D01*
X354665330Y-188804128D01*
X354600000Y-189132565D01*
X348410000Y-189132565D01*
X348410000Y-181000000D01*
X350611928Y-181000000D01*
X350611928Y-183000000D01*
X350624188Y-183124482D01*
X350660498Y-183244180D01*
X350719463Y-183354494D01*
X350798815Y-183451185D01*
X350895506Y-183530537D01*
X351005820Y-183589502D01*
X351125518Y-183625812D01*
X351250000Y-183638072D01*
X353250000Y-183638072D01*
X353374482Y-183625812D01*
X353494180Y-183589502D01*
X353604494Y-183530537D01*
X353701185Y-183451185D01*
X353780537Y-183354494D01*
X353839502Y-183244180D01*
X353875812Y-183124482D01*
X353888072Y-183000000D01*
X353888072Y-181000000D01*
X353875812Y-180875518D01*
X353839502Y-180755820D01*
X353780537Y-180645506D01*
X353701185Y-180548815D01*
X353604494Y-180469463D01*
X353494180Y-180410498D01*
X353374482Y-180374188D01*
X353250000Y-180361928D01*
X351250000Y-180361928D01*
X351125518Y-180374188D01*
X351005820Y-180410498D01*
X350895506Y-180469463D01*
X350798815Y-180548815D01*
X350719463Y-180645506D01*
X350660498Y-180755820D01*
X350624188Y-180875518D01*
X350611928Y-181000000D01*
X348410000Y-181000000D01*
X348410000Y-169132565D01*
X354600000Y-169132565D01*
X354600000Y-169467435D01*
X354665330Y-169795872D01*
X354793479Y-170105252D01*
X354979523Y-170383687D01*
X355216313Y-170620477D01*
X355494748Y-170806521D01*
X355804128Y-170934670D01*
X356132565Y-171000000D01*
X356467435Y-171000000D01*
X356795872Y-170934670D01*
X357105252Y-170806521D01*
X357383687Y-170620477D01*
X357620477Y-170383687D01*
X357806521Y-170105252D01*
X357934670Y-169795872D01*
X358000000Y-169467435D01*
X358000000Y-169132565D01*
X357934670Y-168804128D01*
X357806521Y-168494748D01*
X357620477Y-168216313D01*
X357383687Y-167979523D01*
X357105252Y-167793479D01*
X356795872Y-167665330D01*
X356467435Y-167600000D01*
X356132565Y-167600000D01*
X355804128Y-167665330D01*
X355494748Y-167793479D01*
X355216313Y-167979523D01*
X354979523Y-168216313D01*
X354793479Y-168494748D01*
X354665330Y-168804128D01*
X354600000Y-169132565D01*
X348410000Y-169132565D01*
X348410000Y-161000000D01*
X350611928Y-161000000D01*
X350611928Y-163000000D01*
X350624188Y-163124482D01*
X350660498Y-163244180D01*
X350719463Y-163354494D01*
X350798815Y-163451185D01*
X350895506Y-163530537D01*
X351005820Y-163589502D01*
X351125518Y-163625812D01*
X351250000Y-163638072D01*
X353250000Y-163638072D01*
X353374482Y-163625812D01*
X353494180Y-163589502D01*
X353604494Y-163530537D01*
X353701185Y-163451185D01*
X353780537Y-163354494D01*
X353839502Y-163244180D01*
X353875812Y-163124482D01*
X353888072Y-163000000D01*
X353888072Y-161000000D01*
X353875812Y-160875518D01*
X353839502Y-160755820D01*
X353780537Y-160645506D01*
X353701185Y-160548815D01*
X353604494Y-160469463D01*
X353494180Y-160410498D01*
X353374482Y-160374188D01*
X353250000Y-160361928D01*
X351250000Y-160361928D01*
X351125518Y-160374188D01*
X351005820Y-160410498D01*
X350895506Y-160469463D01*
X350798815Y-160548815D01*
X350719463Y-160645506D01*
X350660498Y-160755820D01*
X350624188Y-160875518D01*
X350611928Y-161000000D01*
X348410000Y-161000000D01*
X348410000Y-149132565D01*
X354600000Y-149132565D01*
X354600000Y-149467435D01*
X354665330Y-149795872D01*
X354793479Y-150105252D01*
X354979523Y-150383687D01*
X355216313Y-150620477D01*
X355494748Y-150806521D01*
X355804128Y-150934670D01*
X356132565Y-151000000D01*
X356467435Y-151000000D01*
X356795872Y-150934670D01*
X357105252Y-150806521D01*
X357383687Y-150620477D01*
X357620477Y-150383687D01*
X357806521Y-150105252D01*
X357934670Y-149795872D01*
X358000000Y-149467435D01*
X358000000Y-149132565D01*
X357934670Y-148804128D01*
X357806521Y-148494748D01*
X357620477Y-148216313D01*
X357383687Y-147979523D01*
X357105252Y-147793479D01*
X356795872Y-147665330D01*
X356467435Y-147600000D01*
X356132565Y-147600000D01*
X355804128Y-147665330D01*
X355494748Y-147793479D01*
X355216313Y-147979523D01*
X354979523Y-148216313D01*
X354793479Y-148494748D01*
X354665330Y-148804128D01*
X354600000Y-149132565D01*
X348410000Y-149132565D01*
X348410000Y-141000000D01*
X350611928Y-141000000D01*
X350611928Y-143000000D01*
X350624188Y-143124482D01*
X350660498Y-143244180D01*
X350719463Y-143354494D01*
X350798815Y-143451185D01*
X350895506Y-143530537D01*
X351005820Y-143589502D01*
X351125518Y-143625812D01*
X351250000Y-143638072D01*
X353250000Y-143638072D01*
X353374482Y-143625812D01*
X353494180Y-143589502D01*
X353604494Y-143530537D01*
X353701185Y-143451185D01*
X353780537Y-143354494D01*
X353839502Y-143244180D01*
X353875812Y-143124482D01*
X353888072Y-143000000D01*
X353888072Y-141000000D01*
X353875812Y-140875518D01*
X353839502Y-140755820D01*
X353780537Y-140645506D01*
X353701185Y-140548815D01*
X353604494Y-140469463D01*
X353494180Y-140410498D01*
X353374482Y-140374188D01*
X353250000Y-140361928D01*
X351250000Y-140361928D01*
X351125518Y-140374188D01*
X351005820Y-140410498D01*
X350895506Y-140469463D01*
X350798815Y-140548815D01*
X350719463Y-140645506D01*
X350660498Y-140755820D01*
X350624188Y-140875518D01*
X350611928Y-141000000D01*
X348410000Y-141000000D01*
X348410000Y-129132565D01*
X354600000Y-129132565D01*
X354600000Y-129467435D01*
X354665330Y-129795872D01*
X354793479Y-130105252D01*
X354979523Y-130383687D01*
X355216313Y-130620477D01*
X355494748Y-130806521D01*
X355804128Y-130934670D01*
X356132565Y-131000000D01*
X356467435Y-131000000D01*
X356795872Y-130934670D01*
X357105252Y-130806521D01*
X357383687Y-130620477D01*
X357620477Y-130383687D01*
X357806521Y-130105252D01*
X357934670Y-129795872D01*
X358000000Y-129467435D01*
X358000000Y-129132565D01*
X357934670Y-128804128D01*
X357806521Y-128494748D01*
X357620477Y-128216313D01*
X357383687Y-127979523D01*
X357105252Y-127793479D01*
X356795872Y-127665330D01*
X356467435Y-127600000D01*
X356132565Y-127600000D01*
X355804128Y-127665330D01*
X355494748Y-127793479D01*
X355216313Y-127979523D01*
X354979523Y-128216313D01*
X354793479Y-128494748D01*
X354665330Y-128804128D01*
X354600000Y-129132565D01*
X348410000Y-129132565D01*
X348410000Y-120460000D01*
X366590001Y-120460000D01*
X366590001Y-140265200D01*
%TD*%
M02*
