%TF.GenerationSoftware,KiCad,Pcbnew,(5.1.6)-1*%
%TF.CreationDate,2020-06-18T14:24:26-05:00*%
%TF.ProjectId,Euro Playset,4575726f-2050-46c6-9179-7365742e6b69,rev?*%
%TF.SameCoordinates,Original*%
%TF.FileFunction,Copper,L2,Bot*%
%TF.FilePolarity,Positive*%
%FSLAX46Y46*%
G04 Gerber Fmt 4.6, Leading zero omitted, Abs format (unit mm)*
G04 Created by KiCad (PCBNEW (5.1.6)-1) date 2020-06-18 14:24:26*
%MOMM*%
%LPD*%
G01*
G04 APERTURE LIST*
%TA.AperFunction,ComponentPad*%
%ADD10R,2.000000X2.000000*%
%TD*%
%TA.AperFunction,ComponentPad*%
%ADD11C,2.130000*%
%TD*%
%TA.AperFunction,ComponentPad*%
%ADD12R,1.930000X1.830000*%
%TD*%
%TA.AperFunction,ComponentPad*%
%ADD13R,1.700000X1.700000*%
%TD*%
%TA.AperFunction,ComponentPad*%
%ADD14O,1.700000X1.700000*%
%TD*%
%TA.AperFunction,Conductor*%
%ADD15C,0.250000*%
%TD*%
%TA.AperFunction,Conductor*%
%ADD16C,0.254000*%
%TD*%
G04 APERTURE END LIST*
D10*
%TO.P,REF\u002A\u002A,1*%
%TO.N,GND*%
X349500000Y-272750000D03*
%TD*%
%TO.P,REF\u002A\u002A,1*%
%TO.N,Net-(J8-PadT)*%
X352250000Y-282000000D03*
%TD*%
%TO.P,REF\u002A\u002A,1*%
%TO.N,Net-(J7-PadT)*%
X352250000Y-262000000D03*
%TD*%
%TO.P,REF\u002A\u002A,1*%
%TO.N,Net-(J6-PadT)*%
X352250000Y-242000000D03*
%TD*%
%TO.P,REF\u002A\u002A,1*%
%TO.N,Net-(J5-PadT)*%
X352250000Y-222000000D03*
%TD*%
%TO.P,REF\u002A\u002A,1*%
%TO.N,Net-(J4-PadT)*%
X352250000Y-202000000D03*
%TD*%
%TO.P,REF\u002A\u002A,1*%
%TO.N,Net-(J3-PadT)*%
X352250000Y-182000000D03*
%TD*%
%TO.P,REF\u002A\u002A,1*%
%TO.N,Net-(J2-PadT)*%
X352250000Y-162000000D03*
%TD*%
%TO.P,REF\u002A\u002A,1*%
%TO.N,Net-(J1-PadT)*%
X352250000Y-142000000D03*
%TD*%
D11*
%TO.P,J3,T*%
%TO.N,Net-(J3-PadT)*%
X356300000Y-177600000D03*
D12*
%TO.P,J3,G*%
%TO.N,GND*%
X356300000Y-166200000D03*
D11*
%TO.P,J3,TN*%
%TO.N,N/C*%
X356300000Y-169300000D03*
%TD*%
%TO.P,J2,T*%
%TO.N,Net-(J2-PadT)*%
X356300000Y-157600000D03*
D12*
%TO.P,J2,G*%
%TO.N,GND*%
X356300000Y-146200000D03*
D11*
%TO.P,J2,TN*%
%TO.N,N/C*%
X356300000Y-149300000D03*
%TD*%
%TO.P,J1,T*%
%TO.N,Net-(J1-PadT)*%
X356300000Y-137600000D03*
D12*
%TO.P,J1,G*%
%TO.N,GND*%
X356300000Y-126200000D03*
D11*
%TO.P,J1,TN*%
%TO.N,N/C*%
X356300000Y-129300000D03*
%TD*%
D13*
%TO.P,C1,1*%
%TO.N,Net-(J1-PadT)*%
X365150000Y-193100000D03*
D14*
%TO.P,C1,2*%
%TO.N,Net-(J2-PadT)*%
X365150000Y-195640000D03*
%TO.P,C1,3*%
%TO.N,Net-(J3-PadT)*%
X365150000Y-198180000D03*
%TO.P,C1,4*%
%TO.N,Net-(J4-PadT)*%
X365150000Y-200720000D03*
%TO.P,C1,5*%
%TO.N,Net-(J5-PadT)*%
X365150000Y-203260000D03*
%TO.P,C1,6*%
%TO.N,Net-(J6-PadT)*%
X365150000Y-205800000D03*
%TO.P,C1,7*%
%TO.N,Net-(J7-PadT)*%
X365150000Y-208340000D03*
%TO.P,C1,8*%
%TO.N,Net-(J8-PadT)*%
X365150000Y-210880000D03*
%TO.P,C1,9*%
%TO.N,GND*%
X365150000Y-213420000D03*
%TD*%
D11*
%TO.P,J7,T*%
%TO.N,Net-(J7-PadT)*%
X356300000Y-257600000D03*
D12*
%TO.P,J7,G*%
%TO.N,GND*%
X356300000Y-246200000D03*
D11*
%TO.P,J7,TN*%
%TO.N,N/C*%
X356300000Y-249300000D03*
%TD*%
%TO.P,J6,T*%
%TO.N,Net-(J6-PadT)*%
X356300000Y-237600000D03*
D12*
%TO.P,J6,G*%
%TO.N,GND*%
X356300000Y-226200000D03*
D11*
%TO.P,J6,TN*%
%TO.N,N/C*%
X356300000Y-229300000D03*
%TD*%
%TO.P,J5,T*%
%TO.N,Net-(J5-PadT)*%
X356300000Y-217600000D03*
D12*
%TO.P,J5,G*%
%TO.N,GND*%
X356300000Y-206200000D03*
D11*
%TO.P,J5,TN*%
%TO.N,N/C*%
X356300000Y-209300000D03*
%TD*%
%TO.P,J8,T*%
%TO.N,Net-(J8-PadT)*%
X356300000Y-277600000D03*
D12*
%TO.P,J8,G*%
%TO.N,GND*%
X356300000Y-266200000D03*
D11*
%TO.P,J8,TN*%
%TO.N,N/C*%
X356300000Y-269300000D03*
%TD*%
%TO.P,J4,T*%
%TO.N,Net-(J4-PadT)*%
X356300000Y-197600000D03*
D12*
%TO.P,J4,G*%
%TO.N,GND*%
X356300000Y-186200000D03*
D11*
%TO.P,J4,TN*%
%TO.N,N/C*%
X356300000Y-189300000D03*
%TD*%
D15*
%TO.N,Net-(J1-PadT)*%
X352250000Y-142000000D02*
X354500000Y-142000000D01*
X356300000Y-140200000D02*
X356300000Y-137600000D01*
X354500000Y-142000000D02*
X356300000Y-140200000D01*
%TO.N,Net-(J2-PadT)*%
X352250000Y-162000000D02*
X355500000Y-162000000D01*
X356300000Y-161200000D02*
X356300000Y-157600000D01*
X355500000Y-162000000D02*
X356300000Y-161200000D01*
%TO.N,Net-(J3-PadT)*%
X352250000Y-182000000D02*
X355750000Y-182000000D01*
X356300000Y-181450000D02*
X356300000Y-177600000D01*
X355750000Y-182000000D02*
X356300000Y-181450000D01*
%TO.N,Net-(J4-PadT)*%
X352250000Y-202000000D02*
X355500000Y-202000000D01*
X356300000Y-201200000D02*
X356300000Y-197600000D01*
X355500000Y-202000000D02*
X356300000Y-201200000D01*
%TO.N,Net-(J5-PadT)*%
X352250000Y-222000000D02*
X355250000Y-222000000D01*
X356300000Y-220950000D02*
X356300000Y-217600000D01*
X355250000Y-222000000D02*
X356300000Y-220950000D01*
%TO.N,Net-(J6-PadT)*%
X352250000Y-242000000D02*
X355000000Y-242000000D01*
X356300000Y-240700000D02*
X356300000Y-237600000D01*
X355000000Y-242000000D02*
X356300000Y-240700000D01*
%TO.N,Net-(J7-PadT)*%
X352250000Y-262000000D02*
X355500000Y-262000000D01*
X356300000Y-261200000D02*
X356300000Y-257600000D01*
X355500000Y-262000000D02*
X356300000Y-261200000D01*
%TO.N,Net-(J8-PadT)*%
X352250000Y-282000000D02*
X355000000Y-282000000D01*
X356300000Y-280700000D02*
X356300000Y-277600000D01*
X355000000Y-282000000D02*
X356300000Y-280700000D01*
%TD*%
D16*
%TO.N,GND*%
G36*
X366898000Y-286048000D02*
G01*
X348102000Y-286048000D01*
X348102000Y-281000000D01*
X350921418Y-281000000D01*
X350921418Y-283000000D01*
X350927732Y-283064103D01*
X350946430Y-283125743D01*
X350976794Y-283182550D01*
X351017657Y-283232343D01*
X351067450Y-283273206D01*
X351124257Y-283303570D01*
X351185897Y-283322268D01*
X351250000Y-283328582D01*
X353250000Y-283328582D01*
X353314103Y-283322268D01*
X353375743Y-283303570D01*
X353432550Y-283273206D01*
X353482343Y-283232343D01*
X353523206Y-283182550D01*
X353553570Y-283125743D01*
X353572268Y-283064103D01*
X353578582Y-283000000D01*
X353578582Y-282452000D01*
X354977795Y-282452000D01*
X355000000Y-282454187D01*
X355022205Y-282452000D01*
X355088607Y-282445460D01*
X355173810Y-282419614D01*
X355252333Y-282377643D01*
X355321159Y-282321159D01*
X355335323Y-282303900D01*
X356603906Y-281035318D01*
X356621159Y-281021159D01*
X356677643Y-280952333D01*
X356719614Y-280873810D01*
X356745460Y-280788607D01*
X356752000Y-280722205D01*
X356752000Y-280722204D01*
X356754187Y-280700000D01*
X356752000Y-280677795D01*
X356752000Y-278919465D01*
X356959359Y-278833574D01*
X357187348Y-278681237D01*
X357381237Y-278487348D01*
X357533574Y-278259359D01*
X357638506Y-278006031D01*
X357692000Y-277737100D01*
X357692000Y-277462900D01*
X357638506Y-277193969D01*
X357533574Y-276940641D01*
X357381237Y-276712652D01*
X357187348Y-276518763D01*
X356959359Y-276366426D01*
X356706031Y-276261494D01*
X356437100Y-276208000D01*
X356162900Y-276208000D01*
X355893969Y-276261494D01*
X355640641Y-276366426D01*
X355412652Y-276518763D01*
X355218763Y-276712652D01*
X355066426Y-276940641D01*
X354961494Y-277193969D01*
X354908000Y-277462900D01*
X354908000Y-277737100D01*
X354961494Y-278006031D01*
X355066426Y-278259359D01*
X355218763Y-278487348D01*
X355412652Y-278681237D01*
X355640641Y-278833574D01*
X355848001Y-278919465D01*
X355848000Y-280512776D01*
X354812777Y-281548000D01*
X353578582Y-281548000D01*
X353578582Y-281000000D01*
X353572268Y-280935897D01*
X353553570Y-280874257D01*
X353523206Y-280817450D01*
X353482343Y-280767657D01*
X353432550Y-280726794D01*
X353375743Y-280696430D01*
X353314103Y-280677732D01*
X353250000Y-280671418D01*
X351250000Y-280671418D01*
X351185897Y-280677732D01*
X351124257Y-280696430D01*
X351067450Y-280726794D01*
X351017657Y-280767657D01*
X350976794Y-280817450D01*
X350946430Y-280874257D01*
X350927732Y-280935897D01*
X350921418Y-281000000D01*
X348102000Y-281000000D01*
X348102000Y-273750000D01*
X348171418Y-273750000D01*
X348177732Y-273814103D01*
X348196430Y-273875743D01*
X348226794Y-273932550D01*
X348267657Y-273982343D01*
X348317450Y-274023206D01*
X348374257Y-274053570D01*
X348435897Y-274072268D01*
X348500000Y-274078582D01*
X349291250Y-274077000D01*
X349373000Y-273995250D01*
X349373000Y-272877000D01*
X349627000Y-272877000D01*
X349627000Y-273995250D01*
X349708750Y-274077000D01*
X350500000Y-274078582D01*
X350564103Y-274072268D01*
X350625743Y-274053570D01*
X350682550Y-274023206D01*
X350732343Y-273982343D01*
X350773206Y-273932550D01*
X350803570Y-273875743D01*
X350822268Y-273814103D01*
X350828582Y-273750000D01*
X350827000Y-272958750D01*
X350745250Y-272877000D01*
X349627000Y-272877000D01*
X349373000Y-272877000D01*
X348254750Y-272877000D01*
X348173000Y-272958750D01*
X348171418Y-273750000D01*
X348102000Y-273750000D01*
X348102000Y-271750000D01*
X348171418Y-271750000D01*
X348173000Y-272541250D01*
X348254750Y-272623000D01*
X349373000Y-272623000D01*
X349373000Y-271504750D01*
X349627000Y-271504750D01*
X349627000Y-272623000D01*
X350745250Y-272623000D01*
X350827000Y-272541250D01*
X350828582Y-271750000D01*
X350822268Y-271685897D01*
X350803570Y-271624257D01*
X350773206Y-271567450D01*
X350732343Y-271517657D01*
X350682550Y-271476794D01*
X350625743Y-271446430D01*
X350564103Y-271427732D01*
X350500000Y-271421418D01*
X349708750Y-271423000D01*
X349627000Y-271504750D01*
X349373000Y-271504750D01*
X349291250Y-271423000D01*
X348500000Y-271421418D01*
X348435897Y-271427732D01*
X348374257Y-271446430D01*
X348317450Y-271476794D01*
X348267657Y-271517657D01*
X348226794Y-271567450D01*
X348196430Y-271624257D01*
X348177732Y-271685897D01*
X348171418Y-271750000D01*
X348102000Y-271750000D01*
X348102000Y-269162900D01*
X354908000Y-269162900D01*
X354908000Y-269437100D01*
X354961494Y-269706031D01*
X355066426Y-269959359D01*
X355218763Y-270187348D01*
X355412652Y-270381237D01*
X355640641Y-270533574D01*
X355893969Y-270638506D01*
X356162900Y-270692000D01*
X356437100Y-270692000D01*
X356706031Y-270638506D01*
X356959359Y-270533574D01*
X357187348Y-270381237D01*
X357381237Y-270187348D01*
X357533574Y-269959359D01*
X357638506Y-269706031D01*
X357692000Y-269437100D01*
X357692000Y-269162900D01*
X357638506Y-268893969D01*
X357533574Y-268640641D01*
X357381237Y-268412652D01*
X357187348Y-268218763D01*
X356959359Y-268066426D01*
X356706031Y-267961494D01*
X356437100Y-267908000D01*
X356162900Y-267908000D01*
X355893969Y-267961494D01*
X355640641Y-268066426D01*
X355412652Y-268218763D01*
X355218763Y-268412652D01*
X355066426Y-268640641D01*
X354961494Y-268893969D01*
X354908000Y-269162900D01*
X348102000Y-269162900D01*
X348102000Y-267115000D01*
X355006418Y-267115000D01*
X355012732Y-267179103D01*
X355031430Y-267240743D01*
X355061794Y-267297550D01*
X355102657Y-267347343D01*
X355152450Y-267388206D01*
X355209257Y-267418570D01*
X355270897Y-267437268D01*
X355335000Y-267443582D01*
X356091250Y-267442000D01*
X356173000Y-267360250D01*
X356173000Y-266327000D01*
X356427000Y-266327000D01*
X356427000Y-267360250D01*
X356508750Y-267442000D01*
X357265000Y-267443582D01*
X357329103Y-267437268D01*
X357390743Y-267418570D01*
X357447550Y-267388206D01*
X357497343Y-267347343D01*
X357538206Y-267297550D01*
X357568570Y-267240743D01*
X357587268Y-267179103D01*
X357593582Y-267115000D01*
X357592000Y-266408750D01*
X357510250Y-266327000D01*
X356427000Y-266327000D01*
X356173000Y-266327000D01*
X355089750Y-266327000D01*
X355008000Y-266408750D01*
X355006418Y-267115000D01*
X348102000Y-267115000D01*
X348102000Y-265285000D01*
X355006418Y-265285000D01*
X355008000Y-265991250D01*
X355089750Y-266073000D01*
X356173000Y-266073000D01*
X356173000Y-265039750D01*
X356427000Y-265039750D01*
X356427000Y-266073000D01*
X357510250Y-266073000D01*
X357592000Y-265991250D01*
X357593582Y-265285000D01*
X357587268Y-265220897D01*
X357568570Y-265159257D01*
X357538206Y-265102450D01*
X357497343Y-265052657D01*
X357447550Y-265011794D01*
X357390743Y-264981430D01*
X357329103Y-264962732D01*
X357265000Y-264956418D01*
X356508750Y-264958000D01*
X356427000Y-265039750D01*
X356173000Y-265039750D01*
X356091250Y-264958000D01*
X355335000Y-264956418D01*
X355270897Y-264962732D01*
X355209257Y-264981430D01*
X355152450Y-265011794D01*
X355102657Y-265052657D01*
X355061794Y-265102450D01*
X355031430Y-265159257D01*
X355012732Y-265220897D01*
X355006418Y-265285000D01*
X348102000Y-265285000D01*
X348102000Y-261000000D01*
X350921418Y-261000000D01*
X350921418Y-263000000D01*
X350927732Y-263064103D01*
X350946430Y-263125743D01*
X350976794Y-263182550D01*
X351017657Y-263232343D01*
X351067450Y-263273206D01*
X351124257Y-263303570D01*
X351185897Y-263322268D01*
X351250000Y-263328582D01*
X353250000Y-263328582D01*
X353314103Y-263322268D01*
X353375743Y-263303570D01*
X353432550Y-263273206D01*
X353482343Y-263232343D01*
X353523206Y-263182550D01*
X353553570Y-263125743D01*
X353572268Y-263064103D01*
X353578582Y-263000000D01*
X353578582Y-262452000D01*
X355477795Y-262452000D01*
X355500000Y-262454187D01*
X355522205Y-262452000D01*
X355588607Y-262445460D01*
X355673810Y-262419614D01*
X355752333Y-262377643D01*
X355821159Y-262321159D01*
X355835323Y-262303900D01*
X356603906Y-261535318D01*
X356621159Y-261521159D01*
X356677643Y-261452333D01*
X356719614Y-261373810D01*
X356745460Y-261288607D01*
X356752000Y-261222205D01*
X356752000Y-261222204D01*
X356754187Y-261200000D01*
X356752000Y-261177795D01*
X356752000Y-258919465D01*
X356959359Y-258833574D01*
X357187348Y-258681237D01*
X357381237Y-258487348D01*
X357533574Y-258259359D01*
X357638506Y-258006031D01*
X357692000Y-257737100D01*
X357692000Y-257462900D01*
X357638506Y-257193969D01*
X357533574Y-256940641D01*
X357381237Y-256712652D01*
X357187348Y-256518763D01*
X356959359Y-256366426D01*
X356706031Y-256261494D01*
X356437100Y-256208000D01*
X356162900Y-256208000D01*
X355893969Y-256261494D01*
X355640641Y-256366426D01*
X355412652Y-256518763D01*
X355218763Y-256712652D01*
X355066426Y-256940641D01*
X354961494Y-257193969D01*
X354908000Y-257462900D01*
X354908000Y-257737100D01*
X354961494Y-258006031D01*
X355066426Y-258259359D01*
X355218763Y-258487348D01*
X355412652Y-258681237D01*
X355640641Y-258833574D01*
X355848001Y-258919465D01*
X355848000Y-261012776D01*
X355312777Y-261548000D01*
X353578582Y-261548000D01*
X353578582Y-261000000D01*
X353572268Y-260935897D01*
X353553570Y-260874257D01*
X353523206Y-260817450D01*
X353482343Y-260767657D01*
X353432550Y-260726794D01*
X353375743Y-260696430D01*
X353314103Y-260677732D01*
X353250000Y-260671418D01*
X351250000Y-260671418D01*
X351185897Y-260677732D01*
X351124257Y-260696430D01*
X351067450Y-260726794D01*
X351017657Y-260767657D01*
X350976794Y-260817450D01*
X350946430Y-260874257D01*
X350927732Y-260935897D01*
X350921418Y-261000000D01*
X348102000Y-261000000D01*
X348102000Y-249162900D01*
X354908000Y-249162900D01*
X354908000Y-249437100D01*
X354961494Y-249706031D01*
X355066426Y-249959359D01*
X355218763Y-250187348D01*
X355412652Y-250381237D01*
X355640641Y-250533574D01*
X355893969Y-250638506D01*
X356162900Y-250692000D01*
X356437100Y-250692000D01*
X356706031Y-250638506D01*
X356959359Y-250533574D01*
X357187348Y-250381237D01*
X357381237Y-250187348D01*
X357533574Y-249959359D01*
X357638506Y-249706031D01*
X357692000Y-249437100D01*
X357692000Y-249162900D01*
X357638506Y-248893969D01*
X357533574Y-248640641D01*
X357381237Y-248412652D01*
X357187348Y-248218763D01*
X356959359Y-248066426D01*
X356706031Y-247961494D01*
X356437100Y-247908000D01*
X356162900Y-247908000D01*
X355893969Y-247961494D01*
X355640641Y-248066426D01*
X355412652Y-248218763D01*
X355218763Y-248412652D01*
X355066426Y-248640641D01*
X354961494Y-248893969D01*
X354908000Y-249162900D01*
X348102000Y-249162900D01*
X348102000Y-247115000D01*
X355006418Y-247115000D01*
X355012732Y-247179103D01*
X355031430Y-247240743D01*
X355061794Y-247297550D01*
X355102657Y-247347343D01*
X355152450Y-247388206D01*
X355209257Y-247418570D01*
X355270897Y-247437268D01*
X355335000Y-247443582D01*
X356091250Y-247442000D01*
X356173000Y-247360250D01*
X356173000Y-246327000D01*
X356427000Y-246327000D01*
X356427000Y-247360250D01*
X356508750Y-247442000D01*
X357265000Y-247443582D01*
X357329103Y-247437268D01*
X357390743Y-247418570D01*
X357447550Y-247388206D01*
X357497343Y-247347343D01*
X357538206Y-247297550D01*
X357568570Y-247240743D01*
X357587268Y-247179103D01*
X357593582Y-247115000D01*
X357592000Y-246408750D01*
X357510250Y-246327000D01*
X356427000Y-246327000D01*
X356173000Y-246327000D01*
X355089750Y-246327000D01*
X355008000Y-246408750D01*
X355006418Y-247115000D01*
X348102000Y-247115000D01*
X348102000Y-245285000D01*
X355006418Y-245285000D01*
X355008000Y-245991250D01*
X355089750Y-246073000D01*
X356173000Y-246073000D01*
X356173000Y-245039750D01*
X356427000Y-245039750D01*
X356427000Y-246073000D01*
X357510250Y-246073000D01*
X357592000Y-245991250D01*
X357593582Y-245285000D01*
X357587268Y-245220897D01*
X357568570Y-245159257D01*
X357538206Y-245102450D01*
X357497343Y-245052657D01*
X357447550Y-245011794D01*
X357390743Y-244981430D01*
X357329103Y-244962732D01*
X357265000Y-244956418D01*
X356508750Y-244958000D01*
X356427000Y-245039750D01*
X356173000Y-245039750D01*
X356091250Y-244958000D01*
X355335000Y-244956418D01*
X355270897Y-244962732D01*
X355209257Y-244981430D01*
X355152450Y-245011794D01*
X355102657Y-245052657D01*
X355061794Y-245102450D01*
X355031430Y-245159257D01*
X355012732Y-245220897D01*
X355006418Y-245285000D01*
X348102000Y-245285000D01*
X348102000Y-241000000D01*
X350921418Y-241000000D01*
X350921418Y-243000000D01*
X350927732Y-243064103D01*
X350946430Y-243125743D01*
X350976794Y-243182550D01*
X351017657Y-243232343D01*
X351067450Y-243273206D01*
X351124257Y-243303570D01*
X351185897Y-243322268D01*
X351250000Y-243328582D01*
X353250000Y-243328582D01*
X353314103Y-243322268D01*
X353375743Y-243303570D01*
X353432550Y-243273206D01*
X353482343Y-243232343D01*
X353523206Y-243182550D01*
X353553570Y-243125743D01*
X353572268Y-243064103D01*
X353578582Y-243000000D01*
X353578582Y-242452000D01*
X354977795Y-242452000D01*
X355000000Y-242454187D01*
X355022205Y-242452000D01*
X355088607Y-242445460D01*
X355173810Y-242419614D01*
X355252333Y-242377643D01*
X355321159Y-242321159D01*
X355335323Y-242303900D01*
X356603906Y-241035318D01*
X356621159Y-241021159D01*
X356677643Y-240952333D01*
X356719614Y-240873810D01*
X356745460Y-240788607D01*
X356752000Y-240722205D01*
X356752000Y-240722204D01*
X356754187Y-240700000D01*
X356752000Y-240677795D01*
X356752000Y-238919465D01*
X356959359Y-238833574D01*
X357187348Y-238681237D01*
X357381237Y-238487348D01*
X357533574Y-238259359D01*
X357638506Y-238006031D01*
X357692000Y-237737100D01*
X357692000Y-237462900D01*
X357638506Y-237193969D01*
X357533574Y-236940641D01*
X357381237Y-236712652D01*
X357187348Y-236518763D01*
X356959359Y-236366426D01*
X356706031Y-236261494D01*
X356437100Y-236208000D01*
X356162900Y-236208000D01*
X355893969Y-236261494D01*
X355640641Y-236366426D01*
X355412652Y-236518763D01*
X355218763Y-236712652D01*
X355066426Y-236940641D01*
X354961494Y-237193969D01*
X354908000Y-237462900D01*
X354908000Y-237737100D01*
X354961494Y-238006031D01*
X355066426Y-238259359D01*
X355218763Y-238487348D01*
X355412652Y-238681237D01*
X355640641Y-238833574D01*
X355848001Y-238919465D01*
X355848000Y-240512776D01*
X354812777Y-241548000D01*
X353578582Y-241548000D01*
X353578582Y-241000000D01*
X353572268Y-240935897D01*
X353553570Y-240874257D01*
X353523206Y-240817450D01*
X353482343Y-240767657D01*
X353432550Y-240726794D01*
X353375743Y-240696430D01*
X353314103Y-240677732D01*
X353250000Y-240671418D01*
X351250000Y-240671418D01*
X351185897Y-240677732D01*
X351124257Y-240696430D01*
X351067450Y-240726794D01*
X351017657Y-240767657D01*
X350976794Y-240817450D01*
X350946430Y-240874257D01*
X350927732Y-240935897D01*
X350921418Y-241000000D01*
X348102000Y-241000000D01*
X348102000Y-229162900D01*
X354908000Y-229162900D01*
X354908000Y-229437100D01*
X354961494Y-229706031D01*
X355066426Y-229959359D01*
X355218763Y-230187348D01*
X355412652Y-230381237D01*
X355640641Y-230533574D01*
X355893969Y-230638506D01*
X356162900Y-230692000D01*
X356437100Y-230692000D01*
X356706031Y-230638506D01*
X356959359Y-230533574D01*
X357187348Y-230381237D01*
X357381237Y-230187348D01*
X357533574Y-229959359D01*
X357638506Y-229706031D01*
X357692000Y-229437100D01*
X357692000Y-229162900D01*
X357638506Y-228893969D01*
X357533574Y-228640641D01*
X357381237Y-228412652D01*
X357187348Y-228218763D01*
X356959359Y-228066426D01*
X356706031Y-227961494D01*
X356437100Y-227908000D01*
X356162900Y-227908000D01*
X355893969Y-227961494D01*
X355640641Y-228066426D01*
X355412652Y-228218763D01*
X355218763Y-228412652D01*
X355066426Y-228640641D01*
X354961494Y-228893969D01*
X354908000Y-229162900D01*
X348102000Y-229162900D01*
X348102000Y-227115000D01*
X355006418Y-227115000D01*
X355012732Y-227179103D01*
X355031430Y-227240743D01*
X355061794Y-227297550D01*
X355102657Y-227347343D01*
X355152450Y-227388206D01*
X355209257Y-227418570D01*
X355270897Y-227437268D01*
X355335000Y-227443582D01*
X356091250Y-227442000D01*
X356173000Y-227360250D01*
X356173000Y-226327000D01*
X356427000Y-226327000D01*
X356427000Y-227360250D01*
X356508750Y-227442000D01*
X357265000Y-227443582D01*
X357329103Y-227437268D01*
X357390743Y-227418570D01*
X357447550Y-227388206D01*
X357497343Y-227347343D01*
X357538206Y-227297550D01*
X357568570Y-227240743D01*
X357587268Y-227179103D01*
X357593582Y-227115000D01*
X357592000Y-226408750D01*
X357510250Y-226327000D01*
X356427000Y-226327000D01*
X356173000Y-226327000D01*
X355089750Y-226327000D01*
X355008000Y-226408750D01*
X355006418Y-227115000D01*
X348102000Y-227115000D01*
X348102000Y-225285000D01*
X355006418Y-225285000D01*
X355008000Y-225991250D01*
X355089750Y-226073000D01*
X356173000Y-226073000D01*
X356173000Y-225039750D01*
X356427000Y-225039750D01*
X356427000Y-226073000D01*
X357510250Y-226073000D01*
X357592000Y-225991250D01*
X357593582Y-225285000D01*
X357587268Y-225220897D01*
X357568570Y-225159257D01*
X357538206Y-225102450D01*
X357497343Y-225052657D01*
X357447550Y-225011794D01*
X357390743Y-224981430D01*
X357329103Y-224962732D01*
X357265000Y-224956418D01*
X356508750Y-224958000D01*
X356427000Y-225039750D01*
X356173000Y-225039750D01*
X356091250Y-224958000D01*
X355335000Y-224956418D01*
X355270897Y-224962732D01*
X355209257Y-224981430D01*
X355152450Y-225011794D01*
X355102657Y-225052657D01*
X355061794Y-225102450D01*
X355031430Y-225159257D01*
X355012732Y-225220897D01*
X355006418Y-225285000D01*
X348102000Y-225285000D01*
X348102000Y-221000000D01*
X350921418Y-221000000D01*
X350921418Y-223000000D01*
X350927732Y-223064103D01*
X350946430Y-223125743D01*
X350976794Y-223182550D01*
X351017657Y-223232343D01*
X351067450Y-223273206D01*
X351124257Y-223303570D01*
X351185897Y-223322268D01*
X351250000Y-223328582D01*
X353250000Y-223328582D01*
X353314103Y-223322268D01*
X353375743Y-223303570D01*
X353432550Y-223273206D01*
X353482343Y-223232343D01*
X353523206Y-223182550D01*
X353553570Y-223125743D01*
X353572268Y-223064103D01*
X353578582Y-223000000D01*
X353578582Y-222452000D01*
X355227795Y-222452000D01*
X355250000Y-222454187D01*
X355272205Y-222452000D01*
X355338607Y-222445460D01*
X355423810Y-222419614D01*
X355502333Y-222377643D01*
X355571159Y-222321159D01*
X355585323Y-222303900D01*
X356603911Y-221285313D01*
X356621159Y-221271159D01*
X356677643Y-221202333D01*
X356719614Y-221123810D01*
X356745460Y-221038607D01*
X356745460Y-221038606D01*
X356754187Y-220950001D01*
X356752000Y-220927796D01*
X356752000Y-218919465D01*
X356959359Y-218833574D01*
X357187348Y-218681237D01*
X357381237Y-218487348D01*
X357533574Y-218259359D01*
X357638506Y-218006031D01*
X357692000Y-217737100D01*
X357692000Y-217462900D01*
X357638506Y-217193969D01*
X357533574Y-216940641D01*
X357381237Y-216712652D01*
X357187348Y-216518763D01*
X356959359Y-216366426D01*
X356706031Y-216261494D01*
X356437100Y-216208000D01*
X356162900Y-216208000D01*
X355893969Y-216261494D01*
X355640641Y-216366426D01*
X355412652Y-216518763D01*
X355218763Y-216712652D01*
X355066426Y-216940641D01*
X354961494Y-217193969D01*
X354908000Y-217462900D01*
X354908000Y-217737100D01*
X354961494Y-218006031D01*
X355066426Y-218259359D01*
X355218763Y-218487348D01*
X355412652Y-218681237D01*
X355640641Y-218833574D01*
X355848001Y-218919465D01*
X355848000Y-220762775D01*
X355062777Y-221548000D01*
X353578582Y-221548000D01*
X353578582Y-221000000D01*
X353572268Y-220935897D01*
X353553570Y-220874257D01*
X353523206Y-220817450D01*
X353482343Y-220767657D01*
X353432550Y-220726794D01*
X353375743Y-220696430D01*
X353314103Y-220677732D01*
X353250000Y-220671418D01*
X351250000Y-220671418D01*
X351185897Y-220677732D01*
X351124257Y-220696430D01*
X351067450Y-220726794D01*
X351017657Y-220767657D01*
X350976794Y-220817450D01*
X350946430Y-220874257D01*
X350927732Y-220935897D01*
X350921418Y-221000000D01*
X348102000Y-221000000D01*
X348102000Y-213728485D01*
X364014145Y-213728485D01*
X364034181Y-213794553D01*
X364128693Y-214005042D01*
X364262453Y-214193048D01*
X364430321Y-214351346D01*
X364625846Y-214473853D01*
X364841514Y-214555861D01*
X365023000Y-214508384D01*
X365023000Y-213547000D01*
X365277000Y-213547000D01*
X365277000Y-214508384D01*
X365458486Y-214555861D01*
X365674154Y-214473853D01*
X365869679Y-214351346D01*
X366037547Y-214193048D01*
X366171307Y-214005042D01*
X366265819Y-213794553D01*
X366285855Y-213728485D01*
X366237862Y-213547000D01*
X365277000Y-213547000D01*
X365023000Y-213547000D01*
X364062138Y-213547000D01*
X364014145Y-213728485D01*
X348102000Y-213728485D01*
X348102000Y-213111515D01*
X364014145Y-213111515D01*
X364062138Y-213293000D01*
X365023000Y-213293000D01*
X365023000Y-212331616D01*
X365277000Y-212331616D01*
X365277000Y-213293000D01*
X366237862Y-213293000D01*
X366285855Y-213111515D01*
X366265819Y-213045447D01*
X366171307Y-212834958D01*
X366037547Y-212646952D01*
X365869679Y-212488654D01*
X365674154Y-212366147D01*
X365458486Y-212284139D01*
X365277000Y-212331616D01*
X365023000Y-212331616D01*
X364841514Y-212284139D01*
X364625846Y-212366147D01*
X364430321Y-212488654D01*
X364262453Y-212646952D01*
X364128693Y-212834958D01*
X364034181Y-213045447D01*
X364014145Y-213111515D01*
X348102000Y-213111515D01*
X348102000Y-210764076D01*
X363973000Y-210764076D01*
X363973000Y-210995924D01*
X364018231Y-211223318D01*
X364106956Y-211437519D01*
X364235764Y-211630294D01*
X364399706Y-211794236D01*
X364592481Y-211923044D01*
X364806682Y-212011769D01*
X365034076Y-212057000D01*
X365265924Y-212057000D01*
X365493318Y-212011769D01*
X365707519Y-211923044D01*
X365900294Y-211794236D01*
X366064236Y-211630294D01*
X366193044Y-211437519D01*
X366281769Y-211223318D01*
X366327000Y-210995924D01*
X366327000Y-210764076D01*
X366281769Y-210536682D01*
X366193044Y-210322481D01*
X366064236Y-210129706D01*
X365900294Y-209965764D01*
X365707519Y-209836956D01*
X365493318Y-209748231D01*
X365265924Y-209703000D01*
X365034076Y-209703000D01*
X364806682Y-209748231D01*
X364592481Y-209836956D01*
X364399706Y-209965764D01*
X364235764Y-210129706D01*
X364106956Y-210322481D01*
X364018231Y-210536682D01*
X363973000Y-210764076D01*
X348102000Y-210764076D01*
X348102000Y-209162900D01*
X354908000Y-209162900D01*
X354908000Y-209437100D01*
X354961494Y-209706031D01*
X355066426Y-209959359D01*
X355218763Y-210187348D01*
X355412652Y-210381237D01*
X355640641Y-210533574D01*
X355893969Y-210638506D01*
X356162900Y-210692000D01*
X356437100Y-210692000D01*
X356706031Y-210638506D01*
X356959359Y-210533574D01*
X357187348Y-210381237D01*
X357381237Y-210187348D01*
X357533574Y-209959359D01*
X357638506Y-209706031D01*
X357692000Y-209437100D01*
X357692000Y-209162900D01*
X357638506Y-208893969D01*
X357533574Y-208640641D01*
X357381237Y-208412652D01*
X357192661Y-208224076D01*
X363973000Y-208224076D01*
X363973000Y-208455924D01*
X364018231Y-208683318D01*
X364106956Y-208897519D01*
X364235764Y-209090294D01*
X364399706Y-209254236D01*
X364592481Y-209383044D01*
X364806682Y-209471769D01*
X365034076Y-209517000D01*
X365265924Y-209517000D01*
X365493318Y-209471769D01*
X365707519Y-209383044D01*
X365900294Y-209254236D01*
X366064236Y-209090294D01*
X366193044Y-208897519D01*
X366281769Y-208683318D01*
X366327000Y-208455924D01*
X366327000Y-208224076D01*
X366281769Y-207996682D01*
X366193044Y-207782481D01*
X366064236Y-207589706D01*
X365900294Y-207425764D01*
X365707519Y-207296956D01*
X365493318Y-207208231D01*
X365265924Y-207163000D01*
X365034076Y-207163000D01*
X364806682Y-207208231D01*
X364592481Y-207296956D01*
X364399706Y-207425764D01*
X364235764Y-207589706D01*
X364106956Y-207782481D01*
X364018231Y-207996682D01*
X363973000Y-208224076D01*
X357192661Y-208224076D01*
X357187348Y-208218763D01*
X356959359Y-208066426D01*
X356706031Y-207961494D01*
X356437100Y-207908000D01*
X356162900Y-207908000D01*
X355893969Y-207961494D01*
X355640641Y-208066426D01*
X355412652Y-208218763D01*
X355218763Y-208412652D01*
X355066426Y-208640641D01*
X354961494Y-208893969D01*
X354908000Y-209162900D01*
X348102000Y-209162900D01*
X348102000Y-207115000D01*
X355006418Y-207115000D01*
X355012732Y-207179103D01*
X355031430Y-207240743D01*
X355061794Y-207297550D01*
X355102657Y-207347343D01*
X355152450Y-207388206D01*
X355209257Y-207418570D01*
X355270897Y-207437268D01*
X355335000Y-207443582D01*
X356091250Y-207442000D01*
X356173000Y-207360250D01*
X356173000Y-206327000D01*
X356427000Y-206327000D01*
X356427000Y-207360250D01*
X356508750Y-207442000D01*
X357265000Y-207443582D01*
X357329103Y-207437268D01*
X357390743Y-207418570D01*
X357447550Y-207388206D01*
X357497343Y-207347343D01*
X357538206Y-207297550D01*
X357568570Y-207240743D01*
X357587268Y-207179103D01*
X357593582Y-207115000D01*
X357592000Y-206408750D01*
X357510250Y-206327000D01*
X356427000Y-206327000D01*
X356173000Y-206327000D01*
X355089750Y-206327000D01*
X355008000Y-206408750D01*
X355006418Y-207115000D01*
X348102000Y-207115000D01*
X348102000Y-205285000D01*
X355006418Y-205285000D01*
X355008000Y-205991250D01*
X355089750Y-206073000D01*
X356173000Y-206073000D01*
X356173000Y-205039750D01*
X356427000Y-205039750D01*
X356427000Y-206073000D01*
X357510250Y-206073000D01*
X357592000Y-205991250D01*
X357592688Y-205684076D01*
X363973000Y-205684076D01*
X363973000Y-205915924D01*
X364018231Y-206143318D01*
X364106956Y-206357519D01*
X364235764Y-206550294D01*
X364399706Y-206714236D01*
X364592481Y-206843044D01*
X364806682Y-206931769D01*
X365034076Y-206977000D01*
X365265924Y-206977000D01*
X365493318Y-206931769D01*
X365707519Y-206843044D01*
X365900294Y-206714236D01*
X366064236Y-206550294D01*
X366193044Y-206357519D01*
X366281769Y-206143318D01*
X366327000Y-205915924D01*
X366327000Y-205684076D01*
X366281769Y-205456682D01*
X366193044Y-205242481D01*
X366064236Y-205049706D01*
X365900294Y-204885764D01*
X365707519Y-204756956D01*
X365493318Y-204668231D01*
X365265924Y-204623000D01*
X365034076Y-204623000D01*
X364806682Y-204668231D01*
X364592481Y-204756956D01*
X364399706Y-204885764D01*
X364235764Y-205049706D01*
X364106956Y-205242481D01*
X364018231Y-205456682D01*
X363973000Y-205684076D01*
X357592688Y-205684076D01*
X357593582Y-205285000D01*
X357587268Y-205220897D01*
X357568570Y-205159257D01*
X357538206Y-205102450D01*
X357497343Y-205052657D01*
X357447550Y-205011794D01*
X357390743Y-204981430D01*
X357329103Y-204962732D01*
X357265000Y-204956418D01*
X356508750Y-204958000D01*
X356427000Y-205039750D01*
X356173000Y-205039750D01*
X356091250Y-204958000D01*
X355335000Y-204956418D01*
X355270897Y-204962732D01*
X355209257Y-204981430D01*
X355152450Y-205011794D01*
X355102657Y-205052657D01*
X355061794Y-205102450D01*
X355031430Y-205159257D01*
X355012732Y-205220897D01*
X355006418Y-205285000D01*
X348102000Y-205285000D01*
X348102000Y-201000000D01*
X350921418Y-201000000D01*
X350921418Y-203000000D01*
X350927732Y-203064103D01*
X350946430Y-203125743D01*
X350976794Y-203182550D01*
X351017657Y-203232343D01*
X351067450Y-203273206D01*
X351124257Y-203303570D01*
X351185897Y-203322268D01*
X351250000Y-203328582D01*
X353250000Y-203328582D01*
X353314103Y-203322268D01*
X353375743Y-203303570D01*
X353432550Y-203273206D01*
X353482343Y-203232343D01*
X353523206Y-203182550D01*
X353543770Y-203144076D01*
X363973000Y-203144076D01*
X363973000Y-203375924D01*
X364018231Y-203603318D01*
X364106956Y-203817519D01*
X364235764Y-204010294D01*
X364399706Y-204174236D01*
X364592481Y-204303044D01*
X364806682Y-204391769D01*
X365034076Y-204437000D01*
X365265924Y-204437000D01*
X365493318Y-204391769D01*
X365707519Y-204303044D01*
X365900294Y-204174236D01*
X366064236Y-204010294D01*
X366193044Y-203817519D01*
X366281769Y-203603318D01*
X366327000Y-203375924D01*
X366327000Y-203144076D01*
X366281769Y-202916682D01*
X366193044Y-202702481D01*
X366064236Y-202509706D01*
X365900294Y-202345764D01*
X365707519Y-202216956D01*
X365493318Y-202128231D01*
X365265924Y-202083000D01*
X365034076Y-202083000D01*
X364806682Y-202128231D01*
X364592481Y-202216956D01*
X364399706Y-202345764D01*
X364235764Y-202509706D01*
X364106956Y-202702481D01*
X364018231Y-202916682D01*
X363973000Y-203144076D01*
X353543770Y-203144076D01*
X353553570Y-203125743D01*
X353572268Y-203064103D01*
X353578582Y-203000000D01*
X353578582Y-202452000D01*
X355477795Y-202452000D01*
X355500000Y-202454187D01*
X355522205Y-202452000D01*
X355588607Y-202445460D01*
X355673810Y-202419614D01*
X355752333Y-202377643D01*
X355821159Y-202321159D01*
X355835323Y-202303900D01*
X356603906Y-201535318D01*
X356621159Y-201521159D01*
X356677643Y-201452333D01*
X356719614Y-201373810D01*
X356745460Y-201288607D01*
X356752000Y-201222205D01*
X356752000Y-201222204D01*
X356754187Y-201200000D01*
X356752000Y-201177795D01*
X356752000Y-200604076D01*
X363973000Y-200604076D01*
X363973000Y-200835924D01*
X364018231Y-201063318D01*
X364106956Y-201277519D01*
X364235764Y-201470294D01*
X364399706Y-201634236D01*
X364592481Y-201763044D01*
X364806682Y-201851769D01*
X365034076Y-201897000D01*
X365265924Y-201897000D01*
X365493318Y-201851769D01*
X365707519Y-201763044D01*
X365900294Y-201634236D01*
X366064236Y-201470294D01*
X366193044Y-201277519D01*
X366281769Y-201063318D01*
X366327000Y-200835924D01*
X366327000Y-200604076D01*
X366281769Y-200376682D01*
X366193044Y-200162481D01*
X366064236Y-199969706D01*
X365900294Y-199805764D01*
X365707519Y-199676956D01*
X365493318Y-199588231D01*
X365265924Y-199543000D01*
X365034076Y-199543000D01*
X364806682Y-199588231D01*
X364592481Y-199676956D01*
X364399706Y-199805764D01*
X364235764Y-199969706D01*
X364106956Y-200162481D01*
X364018231Y-200376682D01*
X363973000Y-200604076D01*
X356752000Y-200604076D01*
X356752000Y-198919465D01*
X356959359Y-198833574D01*
X357187348Y-198681237D01*
X357381237Y-198487348D01*
X357533574Y-198259359D01*
X357614462Y-198064076D01*
X363973000Y-198064076D01*
X363973000Y-198295924D01*
X364018231Y-198523318D01*
X364106956Y-198737519D01*
X364235764Y-198930294D01*
X364399706Y-199094236D01*
X364592481Y-199223044D01*
X364806682Y-199311769D01*
X365034076Y-199357000D01*
X365265924Y-199357000D01*
X365493318Y-199311769D01*
X365707519Y-199223044D01*
X365900294Y-199094236D01*
X366064236Y-198930294D01*
X366193044Y-198737519D01*
X366281769Y-198523318D01*
X366327000Y-198295924D01*
X366327000Y-198064076D01*
X366281769Y-197836682D01*
X366193044Y-197622481D01*
X366064236Y-197429706D01*
X365900294Y-197265764D01*
X365707519Y-197136956D01*
X365493318Y-197048231D01*
X365265924Y-197003000D01*
X365034076Y-197003000D01*
X364806682Y-197048231D01*
X364592481Y-197136956D01*
X364399706Y-197265764D01*
X364235764Y-197429706D01*
X364106956Y-197622481D01*
X364018231Y-197836682D01*
X363973000Y-198064076D01*
X357614462Y-198064076D01*
X357638506Y-198006031D01*
X357692000Y-197737100D01*
X357692000Y-197462900D01*
X357638506Y-197193969D01*
X357533574Y-196940641D01*
X357381237Y-196712652D01*
X357187348Y-196518763D01*
X356959359Y-196366426D01*
X356706031Y-196261494D01*
X356437100Y-196208000D01*
X356162900Y-196208000D01*
X355893969Y-196261494D01*
X355640641Y-196366426D01*
X355412652Y-196518763D01*
X355218763Y-196712652D01*
X355066426Y-196940641D01*
X354961494Y-197193969D01*
X354908000Y-197462900D01*
X354908000Y-197737100D01*
X354961494Y-198006031D01*
X355066426Y-198259359D01*
X355218763Y-198487348D01*
X355412652Y-198681237D01*
X355640641Y-198833574D01*
X355848001Y-198919465D01*
X355848000Y-201012776D01*
X355312777Y-201548000D01*
X353578582Y-201548000D01*
X353578582Y-201000000D01*
X353572268Y-200935897D01*
X353553570Y-200874257D01*
X353523206Y-200817450D01*
X353482343Y-200767657D01*
X353432550Y-200726794D01*
X353375743Y-200696430D01*
X353314103Y-200677732D01*
X353250000Y-200671418D01*
X351250000Y-200671418D01*
X351185897Y-200677732D01*
X351124257Y-200696430D01*
X351067450Y-200726794D01*
X351017657Y-200767657D01*
X350976794Y-200817450D01*
X350946430Y-200874257D01*
X350927732Y-200935897D01*
X350921418Y-201000000D01*
X348102000Y-201000000D01*
X348102000Y-195524076D01*
X363973000Y-195524076D01*
X363973000Y-195755924D01*
X364018231Y-195983318D01*
X364106956Y-196197519D01*
X364235764Y-196390294D01*
X364399706Y-196554236D01*
X364592481Y-196683044D01*
X364806682Y-196771769D01*
X365034076Y-196817000D01*
X365265924Y-196817000D01*
X365493318Y-196771769D01*
X365707519Y-196683044D01*
X365900294Y-196554236D01*
X366064236Y-196390294D01*
X366193044Y-196197519D01*
X366281769Y-195983318D01*
X366327000Y-195755924D01*
X366327000Y-195524076D01*
X366281769Y-195296682D01*
X366193044Y-195082481D01*
X366064236Y-194889706D01*
X365900294Y-194725764D01*
X365707519Y-194596956D01*
X365493318Y-194508231D01*
X365265924Y-194463000D01*
X365034076Y-194463000D01*
X364806682Y-194508231D01*
X364592481Y-194596956D01*
X364399706Y-194725764D01*
X364235764Y-194889706D01*
X364106956Y-195082481D01*
X364018231Y-195296682D01*
X363973000Y-195524076D01*
X348102000Y-195524076D01*
X348102000Y-192250000D01*
X363971418Y-192250000D01*
X363971418Y-193950000D01*
X363977732Y-194014103D01*
X363996430Y-194075743D01*
X364026794Y-194132550D01*
X364067657Y-194182343D01*
X364117450Y-194223206D01*
X364174257Y-194253570D01*
X364235897Y-194272268D01*
X364300000Y-194278582D01*
X366000000Y-194278582D01*
X366064103Y-194272268D01*
X366125743Y-194253570D01*
X366182550Y-194223206D01*
X366232343Y-194182343D01*
X366273206Y-194132550D01*
X366303570Y-194075743D01*
X366322268Y-194014103D01*
X366328582Y-193950000D01*
X366328582Y-192250000D01*
X366322268Y-192185897D01*
X366303570Y-192124257D01*
X366273206Y-192067450D01*
X366232343Y-192017657D01*
X366182550Y-191976794D01*
X366125743Y-191946430D01*
X366064103Y-191927732D01*
X366000000Y-191921418D01*
X364300000Y-191921418D01*
X364235897Y-191927732D01*
X364174257Y-191946430D01*
X364117450Y-191976794D01*
X364067657Y-192017657D01*
X364026794Y-192067450D01*
X363996430Y-192124257D01*
X363977732Y-192185897D01*
X363971418Y-192250000D01*
X348102000Y-192250000D01*
X348102000Y-189162900D01*
X354908000Y-189162900D01*
X354908000Y-189437100D01*
X354961494Y-189706031D01*
X355066426Y-189959359D01*
X355218763Y-190187348D01*
X355412652Y-190381237D01*
X355640641Y-190533574D01*
X355893969Y-190638506D01*
X356162900Y-190692000D01*
X356437100Y-190692000D01*
X356706031Y-190638506D01*
X356959359Y-190533574D01*
X357187348Y-190381237D01*
X357381237Y-190187348D01*
X357533574Y-189959359D01*
X357638506Y-189706031D01*
X357692000Y-189437100D01*
X357692000Y-189162900D01*
X357638506Y-188893969D01*
X357533574Y-188640641D01*
X357381237Y-188412652D01*
X357187348Y-188218763D01*
X356959359Y-188066426D01*
X356706031Y-187961494D01*
X356437100Y-187908000D01*
X356162900Y-187908000D01*
X355893969Y-187961494D01*
X355640641Y-188066426D01*
X355412652Y-188218763D01*
X355218763Y-188412652D01*
X355066426Y-188640641D01*
X354961494Y-188893969D01*
X354908000Y-189162900D01*
X348102000Y-189162900D01*
X348102000Y-187115000D01*
X355006418Y-187115000D01*
X355012732Y-187179103D01*
X355031430Y-187240743D01*
X355061794Y-187297550D01*
X355102657Y-187347343D01*
X355152450Y-187388206D01*
X355209257Y-187418570D01*
X355270897Y-187437268D01*
X355335000Y-187443582D01*
X356091250Y-187442000D01*
X356173000Y-187360250D01*
X356173000Y-186327000D01*
X356427000Y-186327000D01*
X356427000Y-187360250D01*
X356508750Y-187442000D01*
X357265000Y-187443582D01*
X357329103Y-187437268D01*
X357390743Y-187418570D01*
X357447550Y-187388206D01*
X357497343Y-187347343D01*
X357538206Y-187297550D01*
X357568570Y-187240743D01*
X357587268Y-187179103D01*
X357593582Y-187115000D01*
X357592000Y-186408750D01*
X357510250Y-186327000D01*
X356427000Y-186327000D01*
X356173000Y-186327000D01*
X355089750Y-186327000D01*
X355008000Y-186408750D01*
X355006418Y-187115000D01*
X348102000Y-187115000D01*
X348102000Y-185285000D01*
X355006418Y-185285000D01*
X355008000Y-185991250D01*
X355089750Y-186073000D01*
X356173000Y-186073000D01*
X356173000Y-185039750D01*
X356427000Y-185039750D01*
X356427000Y-186073000D01*
X357510250Y-186073000D01*
X357592000Y-185991250D01*
X357593582Y-185285000D01*
X357587268Y-185220897D01*
X357568570Y-185159257D01*
X357538206Y-185102450D01*
X357497343Y-185052657D01*
X357447550Y-185011794D01*
X357390743Y-184981430D01*
X357329103Y-184962732D01*
X357265000Y-184956418D01*
X356508750Y-184958000D01*
X356427000Y-185039750D01*
X356173000Y-185039750D01*
X356091250Y-184958000D01*
X355335000Y-184956418D01*
X355270897Y-184962732D01*
X355209257Y-184981430D01*
X355152450Y-185011794D01*
X355102657Y-185052657D01*
X355061794Y-185102450D01*
X355031430Y-185159257D01*
X355012732Y-185220897D01*
X355006418Y-185285000D01*
X348102000Y-185285000D01*
X348102000Y-181000000D01*
X350921418Y-181000000D01*
X350921418Y-183000000D01*
X350927732Y-183064103D01*
X350946430Y-183125743D01*
X350976794Y-183182550D01*
X351017657Y-183232343D01*
X351067450Y-183273206D01*
X351124257Y-183303570D01*
X351185897Y-183322268D01*
X351250000Y-183328582D01*
X353250000Y-183328582D01*
X353314103Y-183322268D01*
X353375743Y-183303570D01*
X353432550Y-183273206D01*
X353482343Y-183232343D01*
X353523206Y-183182550D01*
X353553570Y-183125743D01*
X353572268Y-183064103D01*
X353578582Y-183000000D01*
X353578582Y-182452000D01*
X355727795Y-182452000D01*
X355750000Y-182454187D01*
X355772205Y-182452000D01*
X355838607Y-182445460D01*
X355923810Y-182419614D01*
X356002333Y-182377643D01*
X356071159Y-182321159D01*
X356085323Y-182303900D01*
X356603911Y-181785314D01*
X356621159Y-181771159D01*
X356677643Y-181702333D01*
X356719614Y-181623810D01*
X356745460Y-181538607D01*
X356752000Y-181472205D01*
X356752000Y-181472204D01*
X356754187Y-181450001D01*
X356752000Y-181427798D01*
X356752000Y-178919465D01*
X356959359Y-178833574D01*
X357187348Y-178681237D01*
X357381237Y-178487348D01*
X357533574Y-178259359D01*
X357638506Y-178006031D01*
X357692000Y-177737100D01*
X357692000Y-177462900D01*
X357638506Y-177193969D01*
X357533574Y-176940641D01*
X357381237Y-176712652D01*
X357187348Y-176518763D01*
X356959359Y-176366426D01*
X356706031Y-176261494D01*
X356437100Y-176208000D01*
X356162900Y-176208000D01*
X355893969Y-176261494D01*
X355640641Y-176366426D01*
X355412652Y-176518763D01*
X355218763Y-176712652D01*
X355066426Y-176940641D01*
X354961494Y-177193969D01*
X354908000Y-177462900D01*
X354908000Y-177737100D01*
X354961494Y-178006031D01*
X355066426Y-178259359D01*
X355218763Y-178487348D01*
X355412652Y-178681237D01*
X355640641Y-178833574D01*
X355848001Y-178919465D01*
X355848000Y-181262775D01*
X355562776Y-181548000D01*
X353578582Y-181548000D01*
X353578582Y-181000000D01*
X353572268Y-180935897D01*
X353553570Y-180874257D01*
X353523206Y-180817450D01*
X353482343Y-180767657D01*
X353432550Y-180726794D01*
X353375743Y-180696430D01*
X353314103Y-180677732D01*
X353250000Y-180671418D01*
X351250000Y-180671418D01*
X351185897Y-180677732D01*
X351124257Y-180696430D01*
X351067450Y-180726794D01*
X351017657Y-180767657D01*
X350976794Y-180817450D01*
X350946430Y-180874257D01*
X350927732Y-180935897D01*
X350921418Y-181000000D01*
X348102000Y-181000000D01*
X348102000Y-169162900D01*
X354908000Y-169162900D01*
X354908000Y-169437100D01*
X354961494Y-169706031D01*
X355066426Y-169959359D01*
X355218763Y-170187348D01*
X355412652Y-170381237D01*
X355640641Y-170533574D01*
X355893969Y-170638506D01*
X356162900Y-170692000D01*
X356437100Y-170692000D01*
X356706031Y-170638506D01*
X356959359Y-170533574D01*
X357187348Y-170381237D01*
X357381237Y-170187348D01*
X357533574Y-169959359D01*
X357638506Y-169706031D01*
X357692000Y-169437100D01*
X357692000Y-169162900D01*
X357638506Y-168893969D01*
X357533574Y-168640641D01*
X357381237Y-168412652D01*
X357187348Y-168218763D01*
X356959359Y-168066426D01*
X356706031Y-167961494D01*
X356437100Y-167908000D01*
X356162900Y-167908000D01*
X355893969Y-167961494D01*
X355640641Y-168066426D01*
X355412652Y-168218763D01*
X355218763Y-168412652D01*
X355066426Y-168640641D01*
X354961494Y-168893969D01*
X354908000Y-169162900D01*
X348102000Y-169162900D01*
X348102000Y-167115000D01*
X355006418Y-167115000D01*
X355012732Y-167179103D01*
X355031430Y-167240743D01*
X355061794Y-167297550D01*
X355102657Y-167347343D01*
X355152450Y-167388206D01*
X355209257Y-167418570D01*
X355270897Y-167437268D01*
X355335000Y-167443582D01*
X356091250Y-167442000D01*
X356173000Y-167360250D01*
X356173000Y-166327000D01*
X356427000Y-166327000D01*
X356427000Y-167360250D01*
X356508750Y-167442000D01*
X357265000Y-167443582D01*
X357329103Y-167437268D01*
X357390743Y-167418570D01*
X357447550Y-167388206D01*
X357497343Y-167347343D01*
X357538206Y-167297550D01*
X357568570Y-167240743D01*
X357587268Y-167179103D01*
X357593582Y-167115000D01*
X357592000Y-166408750D01*
X357510250Y-166327000D01*
X356427000Y-166327000D01*
X356173000Y-166327000D01*
X355089750Y-166327000D01*
X355008000Y-166408750D01*
X355006418Y-167115000D01*
X348102000Y-167115000D01*
X348102000Y-165285000D01*
X355006418Y-165285000D01*
X355008000Y-165991250D01*
X355089750Y-166073000D01*
X356173000Y-166073000D01*
X356173000Y-165039750D01*
X356427000Y-165039750D01*
X356427000Y-166073000D01*
X357510250Y-166073000D01*
X357592000Y-165991250D01*
X357593582Y-165285000D01*
X357587268Y-165220897D01*
X357568570Y-165159257D01*
X357538206Y-165102450D01*
X357497343Y-165052657D01*
X357447550Y-165011794D01*
X357390743Y-164981430D01*
X357329103Y-164962732D01*
X357265000Y-164956418D01*
X356508750Y-164958000D01*
X356427000Y-165039750D01*
X356173000Y-165039750D01*
X356091250Y-164958000D01*
X355335000Y-164956418D01*
X355270897Y-164962732D01*
X355209257Y-164981430D01*
X355152450Y-165011794D01*
X355102657Y-165052657D01*
X355061794Y-165102450D01*
X355031430Y-165159257D01*
X355012732Y-165220897D01*
X355006418Y-165285000D01*
X348102000Y-165285000D01*
X348102000Y-161000000D01*
X350921418Y-161000000D01*
X350921418Y-163000000D01*
X350927732Y-163064103D01*
X350946430Y-163125743D01*
X350976794Y-163182550D01*
X351017657Y-163232343D01*
X351067450Y-163273206D01*
X351124257Y-163303570D01*
X351185897Y-163322268D01*
X351250000Y-163328582D01*
X353250000Y-163328582D01*
X353314103Y-163322268D01*
X353375743Y-163303570D01*
X353432550Y-163273206D01*
X353482343Y-163232343D01*
X353523206Y-163182550D01*
X353553570Y-163125743D01*
X353572268Y-163064103D01*
X353578582Y-163000000D01*
X353578582Y-162452000D01*
X355477795Y-162452000D01*
X355500000Y-162454187D01*
X355522205Y-162452000D01*
X355588607Y-162445460D01*
X355673810Y-162419614D01*
X355752333Y-162377643D01*
X355821159Y-162321159D01*
X355835323Y-162303900D01*
X356603906Y-161535318D01*
X356621159Y-161521159D01*
X356677643Y-161452333D01*
X356719614Y-161373810D01*
X356745460Y-161288607D01*
X356752000Y-161222205D01*
X356752000Y-161222204D01*
X356754187Y-161200000D01*
X356752000Y-161177795D01*
X356752000Y-158919465D01*
X356959359Y-158833574D01*
X357187348Y-158681237D01*
X357381237Y-158487348D01*
X357533574Y-158259359D01*
X357638506Y-158006031D01*
X357692000Y-157737100D01*
X357692000Y-157462900D01*
X357638506Y-157193969D01*
X357533574Y-156940641D01*
X357381237Y-156712652D01*
X357187348Y-156518763D01*
X356959359Y-156366426D01*
X356706031Y-156261494D01*
X356437100Y-156208000D01*
X356162900Y-156208000D01*
X355893969Y-156261494D01*
X355640641Y-156366426D01*
X355412652Y-156518763D01*
X355218763Y-156712652D01*
X355066426Y-156940641D01*
X354961494Y-157193969D01*
X354908000Y-157462900D01*
X354908000Y-157737100D01*
X354961494Y-158006031D01*
X355066426Y-158259359D01*
X355218763Y-158487348D01*
X355412652Y-158681237D01*
X355640641Y-158833574D01*
X355848001Y-158919465D01*
X355848000Y-161012776D01*
X355312777Y-161548000D01*
X353578582Y-161548000D01*
X353578582Y-161000000D01*
X353572268Y-160935897D01*
X353553570Y-160874257D01*
X353523206Y-160817450D01*
X353482343Y-160767657D01*
X353432550Y-160726794D01*
X353375743Y-160696430D01*
X353314103Y-160677732D01*
X353250000Y-160671418D01*
X351250000Y-160671418D01*
X351185897Y-160677732D01*
X351124257Y-160696430D01*
X351067450Y-160726794D01*
X351017657Y-160767657D01*
X350976794Y-160817450D01*
X350946430Y-160874257D01*
X350927732Y-160935897D01*
X350921418Y-161000000D01*
X348102000Y-161000000D01*
X348102000Y-149162900D01*
X354908000Y-149162900D01*
X354908000Y-149437100D01*
X354961494Y-149706031D01*
X355066426Y-149959359D01*
X355218763Y-150187348D01*
X355412652Y-150381237D01*
X355640641Y-150533574D01*
X355893969Y-150638506D01*
X356162900Y-150692000D01*
X356437100Y-150692000D01*
X356706031Y-150638506D01*
X356959359Y-150533574D01*
X357187348Y-150381237D01*
X357381237Y-150187348D01*
X357533574Y-149959359D01*
X357638506Y-149706031D01*
X357692000Y-149437100D01*
X357692000Y-149162900D01*
X357638506Y-148893969D01*
X357533574Y-148640641D01*
X357381237Y-148412652D01*
X357187348Y-148218763D01*
X356959359Y-148066426D01*
X356706031Y-147961494D01*
X356437100Y-147908000D01*
X356162900Y-147908000D01*
X355893969Y-147961494D01*
X355640641Y-148066426D01*
X355412652Y-148218763D01*
X355218763Y-148412652D01*
X355066426Y-148640641D01*
X354961494Y-148893969D01*
X354908000Y-149162900D01*
X348102000Y-149162900D01*
X348102000Y-147115000D01*
X355006418Y-147115000D01*
X355012732Y-147179103D01*
X355031430Y-147240743D01*
X355061794Y-147297550D01*
X355102657Y-147347343D01*
X355152450Y-147388206D01*
X355209257Y-147418570D01*
X355270897Y-147437268D01*
X355335000Y-147443582D01*
X356091250Y-147442000D01*
X356173000Y-147360250D01*
X356173000Y-146327000D01*
X356427000Y-146327000D01*
X356427000Y-147360250D01*
X356508750Y-147442000D01*
X357265000Y-147443582D01*
X357329103Y-147437268D01*
X357390743Y-147418570D01*
X357447550Y-147388206D01*
X357497343Y-147347343D01*
X357538206Y-147297550D01*
X357568570Y-147240743D01*
X357587268Y-147179103D01*
X357593582Y-147115000D01*
X357592000Y-146408750D01*
X357510250Y-146327000D01*
X356427000Y-146327000D01*
X356173000Y-146327000D01*
X355089750Y-146327000D01*
X355008000Y-146408750D01*
X355006418Y-147115000D01*
X348102000Y-147115000D01*
X348102000Y-145285000D01*
X355006418Y-145285000D01*
X355008000Y-145991250D01*
X355089750Y-146073000D01*
X356173000Y-146073000D01*
X356173000Y-145039750D01*
X356427000Y-145039750D01*
X356427000Y-146073000D01*
X357510250Y-146073000D01*
X357592000Y-145991250D01*
X357593582Y-145285000D01*
X357587268Y-145220897D01*
X357568570Y-145159257D01*
X357538206Y-145102450D01*
X357497343Y-145052657D01*
X357447550Y-145011794D01*
X357390743Y-144981430D01*
X357329103Y-144962732D01*
X357265000Y-144956418D01*
X356508750Y-144958000D01*
X356427000Y-145039750D01*
X356173000Y-145039750D01*
X356091250Y-144958000D01*
X355335000Y-144956418D01*
X355270897Y-144962732D01*
X355209257Y-144981430D01*
X355152450Y-145011794D01*
X355102657Y-145052657D01*
X355061794Y-145102450D01*
X355031430Y-145159257D01*
X355012732Y-145220897D01*
X355006418Y-145285000D01*
X348102000Y-145285000D01*
X348102000Y-141000000D01*
X350921418Y-141000000D01*
X350921418Y-143000000D01*
X350927732Y-143064103D01*
X350946430Y-143125743D01*
X350976794Y-143182550D01*
X351017657Y-143232343D01*
X351067450Y-143273206D01*
X351124257Y-143303570D01*
X351185897Y-143322268D01*
X351250000Y-143328582D01*
X353250000Y-143328582D01*
X353314103Y-143322268D01*
X353375743Y-143303570D01*
X353432550Y-143273206D01*
X353482343Y-143232343D01*
X353523206Y-143182550D01*
X353553570Y-143125743D01*
X353572268Y-143064103D01*
X353578582Y-143000000D01*
X353578582Y-142452000D01*
X354477795Y-142452000D01*
X354500000Y-142454187D01*
X354522205Y-142452000D01*
X354588607Y-142445460D01*
X354673810Y-142419614D01*
X354752333Y-142377643D01*
X354821159Y-142321159D01*
X354835323Y-142303900D01*
X356603912Y-140535313D01*
X356621159Y-140521159D01*
X356677643Y-140452333D01*
X356719614Y-140373810D01*
X356745460Y-140288607D01*
X356752000Y-140222205D01*
X356752000Y-140222204D01*
X356754187Y-140200001D01*
X356752000Y-140177796D01*
X356752000Y-138919465D01*
X356959359Y-138833574D01*
X357187348Y-138681237D01*
X357381237Y-138487348D01*
X357533574Y-138259359D01*
X357638506Y-138006031D01*
X357692000Y-137737100D01*
X357692000Y-137462900D01*
X357638506Y-137193969D01*
X357533574Y-136940641D01*
X357381237Y-136712652D01*
X357187348Y-136518763D01*
X356959359Y-136366426D01*
X356706031Y-136261494D01*
X356437100Y-136208000D01*
X356162900Y-136208000D01*
X355893969Y-136261494D01*
X355640641Y-136366426D01*
X355412652Y-136518763D01*
X355218763Y-136712652D01*
X355066426Y-136940641D01*
X354961494Y-137193969D01*
X354908000Y-137462900D01*
X354908000Y-137737100D01*
X354961494Y-138006031D01*
X355066426Y-138259359D01*
X355218763Y-138487348D01*
X355412652Y-138681237D01*
X355640641Y-138833574D01*
X355848000Y-138919465D01*
X355848000Y-140012775D01*
X354312777Y-141548000D01*
X353578582Y-141548000D01*
X353578582Y-141000000D01*
X353572268Y-140935897D01*
X353553570Y-140874257D01*
X353523206Y-140817450D01*
X353482343Y-140767657D01*
X353432550Y-140726794D01*
X353375743Y-140696430D01*
X353314103Y-140677732D01*
X353250000Y-140671418D01*
X351250000Y-140671418D01*
X351185897Y-140677732D01*
X351124257Y-140696430D01*
X351067450Y-140726794D01*
X351017657Y-140767657D01*
X350976794Y-140817450D01*
X350946430Y-140874257D01*
X350927732Y-140935897D01*
X350921418Y-141000000D01*
X348102000Y-141000000D01*
X348102000Y-129162900D01*
X354908000Y-129162900D01*
X354908000Y-129437100D01*
X354961494Y-129706031D01*
X355066426Y-129959359D01*
X355218763Y-130187348D01*
X355412652Y-130381237D01*
X355640641Y-130533574D01*
X355893969Y-130638506D01*
X356162900Y-130692000D01*
X356437100Y-130692000D01*
X356706031Y-130638506D01*
X356959359Y-130533574D01*
X357187348Y-130381237D01*
X357381237Y-130187348D01*
X357533574Y-129959359D01*
X357638506Y-129706031D01*
X357692000Y-129437100D01*
X357692000Y-129162900D01*
X357638506Y-128893969D01*
X357533574Y-128640641D01*
X357381237Y-128412652D01*
X357187348Y-128218763D01*
X356959359Y-128066426D01*
X356706031Y-127961494D01*
X356437100Y-127908000D01*
X356162900Y-127908000D01*
X355893969Y-127961494D01*
X355640641Y-128066426D01*
X355412652Y-128218763D01*
X355218763Y-128412652D01*
X355066426Y-128640641D01*
X354961494Y-128893969D01*
X354908000Y-129162900D01*
X348102000Y-129162900D01*
X348102000Y-127115000D01*
X355006418Y-127115000D01*
X355012732Y-127179103D01*
X355031430Y-127240743D01*
X355061794Y-127297550D01*
X355102657Y-127347343D01*
X355152450Y-127388206D01*
X355209257Y-127418570D01*
X355270897Y-127437268D01*
X355335000Y-127443582D01*
X356091250Y-127442000D01*
X356173000Y-127360250D01*
X356173000Y-126327000D01*
X356427000Y-126327000D01*
X356427000Y-127360250D01*
X356508750Y-127442000D01*
X357265000Y-127443582D01*
X357329103Y-127437268D01*
X357390743Y-127418570D01*
X357447550Y-127388206D01*
X357497343Y-127347343D01*
X357538206Y-127297550D01*
X357568570Y-127240743D01*
X357587268Y-127179103D01*
X357593582Y-127115000D01*
X357592000Y-126408750D01*
X357510250Y-126327000D01*
X356427000Y-126327000D01*
X356173000Y-126327000D01*
X355089750Y-126327000D01*
X355008000Y-126408750D01*
X355006418Y-127115000D01*
X348102000Y-127115000D01*
X348102000Y-125285000D01*
X355006418Y-125285000D01*
X355008000Y-125991250D01*
X355089750Y-126073000D01*
X356173000Y-126073000D01*
X356173000Y-125039750D01*
X356427000Y-125039750D01*
X356427000Y-126073000D01*
X357510250Y-126073000D01*
X357592000Y-125991250D01*
X357593582Y-125285000D01*
X357587268Y-125220897D01*
X357568570Y-125159257D01*
X357538206Y-125102450D01*
X357497343Y-125052657D01*
X357447550Y-125011794D01*
X357390743Y-124981430D01*
X357329103Y-124962732D01*
X357265000Y-124956418D01*
X356508750Y-124958000D01*
X356427000Y-125039750D01*
X356173000Y-125039750D01*
X356091250Y-124958000D01*
X355335000Y-124956418D01*
X355270897Y-124962732D01*
X355209257Y-124981430D01*
X355152450Y-125011794D01*
X355102657Y-125052657D01*
X355061794Y-125102450D01*
X355031430Y-125159257D01*
X355012732Y-125220897D01*
X355006418Y-125285000D01*
X348102000Y-125285000D01*
X348102000Y-120152000D01*
X366898001Y-120152000D01*
X366898000Y-286048000D01*
G37*
X366898000Y-286048000D02*
X348102000Y-286048000D01*
X348102000Y-281000000D01*
X350921418Y-281000000D01*
X350921418Y-283000000D01*
X350927732Y-283064103D01*
X350946430Y-283125743D01*
X350976794Y-283182550D01*
X351017657Y-283232343D01*
X351067450Y-283273206D01*
X351124257Y-283303570D01*
X351185897Y-283322268D01*
X351250000Y-283328582D01*
X353250000Y-283328582D01*
X353314103Y-283322268D01*
X353375743Y-283303570D01*
X353432550Y-283273206D01*
X353482343Y-283232343D01*
X353523206Y-283182550D01*
X353553570Y-283125743D01*
X353572268Y-283064103D01*
X353578582Y-283000000D01*
X353578582Y-282452000D01*
X354977795Y-282452000D01*
X355000000Y-282454187D01*
X355022205Y-282452000D01*
X355088607Y-282445460D01*
X355173810Y-282419614D01*
X355252333Y-282377643D01*
X355321159Y-282321159D01*
X355335323Y-282303900D01*
X356603906Y-281035318D01*
X356621159Y-281021159D01*
X356677643Y-280952333D01*
X356719614Y-280873810D01*
X356745460Y-280788607D01*
X356752000Y-280722205D01*
X356752000Y-280722204D01*
X356754187Y-280700000D01*
X356752000Y-280677795D01*
X356752000Y-278919465D01*
X356959359Y-278833574D01*
X357187348Y-278681237D01*
X357381237Y-278487348D01*
X357533574Y-278259359D01*
X357638506Y-278006031D01*
X357692000Y-277737100D01*
X357692000Y-277462900D01*
X357638506Y-277193969D01*
X357533574Y-276940641D01*
X357381237Y-276712652D01*
X357187348Y-276518763D01*
X356959359Y-276366426D01*
X356706031Y-276261494D01*
X356437100Y-276208000D01*
X356162900Y-276208000D01*
X355893969Y-276261494D01*
X355640641Y-276366426D01*
X355412652Y-276518763D01*
X355218763Y-276712652D01*
X355066426Y-276940641D01*
X354961494Y-277193969D01*
X354908000Y-277462900D01*
X354908000Y-277737100D01*
X354961494Y-278006031D01*
X355066426Y-278259359D01*
X355218763Y-278487348D01*
X355412652Y-278681237D01*
X355640641Y-278833574D01*
X355848001Y-278919465D01*
X355848000Y-280512776D01*
X354812777Y-281548000D01*
X353578582Y-281548000D01*
X353578582Y-281000000D01*
X353572268Y-280935897D01*
X353553570Y-280874257D01*
X353523206Y-280817450D01*
X353482343Y-280767657D01*
X353432550Y-280726794D01*
X353375743Y-280696430D01*
X353314103Y-280677732D01*
X353250000Y-280671418D01*
X351250000Y-280671418D01*
X351185897Y-280677732D01*
X351124257Y-280696430D01*
X351067450Y-280726794D01*
X351017657Y-280767657D01*
X350976794Y-280817450D01*
X350946430Y-280874257D01*
X350927732Y-280935897D01*
X350921418Y-281000000D01*
X348102000Y-281000000D01*
X348102000Y-273750000D01*
X348171418Y-273750000D01*
X348177732Y-273814103D01*
X348196430Y-273875743D01*
X348226794Y-273932550D01*
X348267657Y-273982343D01*
X348317450Y-274023206D01*
X348374257Y-274053570D01*
X348435897Y-274072268D01*
X348500000Y-274078582D01*
X349291250Y-274077000D01*
X349373000Y-273995250D01*
X349373000Y-272877000D01*
X349627000Y-272877000D01*
X349627000Y-273995250D01*
X349708750Y-274077000D01*
X350500000Y-274078582D01*
X350564103Y-274072268D01*
X350625743Y-274053570D01*
X350682550Y-274023206D01*
X350732343Y-273982343D01*
X350773206Y-273932550D01*
X350803570Y-273875743D01*
X350822268Y-273814103D01*
X350828582Y-273750000D01*
X350827000Y-272958750D01*
X350745250Y-272877000D01*
X349627000Y-272877000D01*
X349373000Y-272877000D01*
X348254750Y-272877000D01*
X348173000Y-272958750D01*
X348171418Y-273750000D01*
X348102000Y-273750000D01*
X348102000Y-271750000D01*
X348171418Y-271750000D01*
X348173000Y-272541250D01*
X348254750Y-272623000D01*
X349373000Y-272623000D01*
X349373000Y-271504750D01*
X349627000Y-271504750D01*
X349627000Y-272623000D01*
X350745250Y-272623000D01*
X350827000Y-272541250D01*
X350828582Y-271750000D01*
X350822268Y-271685897D01*
X350803570Y-271624257D01*
X350773206Y-271567450D01*
X350732343Y-271517657D01*
X350682550Y-271476794D01*
X350625743Y-271446430D01*
X350564103Y-271427732D01*
X350500000Y-271421418D01*
X349708750Y-271423000D01*
X349627000Y-271504750D01*
X349373000Y-271504750D01*
X349291250Y-271423000D01*
X348500000Y-271421418D01*
X348435897Y-271427732D01*
X348374257Y-271446430D01*
X348317450Y-271476794D01*
X348267657Y-271517657D01*
X348226794Y-271567450D01*
X348196430Y-271624257D01*
X348177732Y-271685897D01*
X348171418Y-271750000D01*
X348102000Y-271750000D01*
X348102000Y-269162900D01*
X354908000Y-269162900D01*
X354908000Y-269437100D01*
X354961494Y-269706031D01*
X355066426Y-269959359D01*
X355218763Y-270187348D01*
X355412652Y-270381237D01*
X355640641Y-270533574D01*
X355893969Y-270638506D01*
X356162900Y-270692000D01*
X356437100Y-270692000D01*
X356706031Y-270638506D01*
X356959359Y-270533574D01*
X357187348Y-270381237D01*
X357381237Y-270187348D01*
X357533574Y-269959359D01*
X357638506Y-269706031D01*
X357692000Y-269437100D01*
X357692000Y-269162900D01*
X357638506Y-268893969D01*
X357533574Y-268640641D01*
X357381237Y-268412652D01*
X357187348Y-268218763D01*
X356959359Y-268066426D01*
X356706031Y-267961494D01*
X356437100Y-267908000D01*
X356162900Y-267908000D01*
X355893969Y-267961494D01*
X355640641Y-268066426D01*
X355412652Y-268218763D01*
X355218763Y-268412652D01*
X355066426Y-268640641D01*
X354961494Y-268893969D01*
X354908000Y-269162900D01*
X348102000Y-269162900D01*
X348102000Y-267115000D01*
X355006418Y-267115000D01*
X355012732Y-267179103D01*
X355031430Y-267240743D01*
X355061794Y-267297550D01*
X355102657Y-267347343D01*
X355152450Y-267388206D01*
X355209257Y-267418570D01*
X355270897Y-267437268D01*
X355335000Y-267443582D01*
X356091250Y-267442000D01*
X356173000Y-267360250D01*
X356173000Y-266327000D01*
X356427000Y-266327000D01*
X356427000Y-267360250D01*
X356508750Y-267442000D01*
X357265000Y-267443582D01*
X357329103Y-267437268D01*
X357390743Y-267418570D01*
X357447550Y-267388206D01*
X357497343Y-267347343D01*
X357538206Y-267297550D01*
X357568570Y-267240743D01*
X357587268Y-267179103D01*
X357593582Y-267115000D01*
X357592000Y-266408750D01*
X357510250Y-266327000D01*
X356427000Y-266327000D01*
X356173000Y-266327000D01*
X355089750Y-266327000D01*
X355008000Y-266408750D01*
X355006418Y-267115000D01*
X348102000Y-267115000D01*
X348102000Y-265285000D01*
X355006418Y-265285000D01*
X355008000Y-265991250D01*
X355089750Y-266073000D01*
X356173000Y-266073000D01*
X356173000Y-265039750D01*
X356427000Y-265039750D01*
X356427000Y-266073000D01*
X357510250Y-266073000D01*
X357592000Y-265991250D01*
X357593582Y-265285000D01*
X357587268Y-265220897D01*
X357568570Y-265159257D01*
X357538206Y-265102450D01*
X357497343Y-265052657D01*
X357447550Y-265011794D01*
X357390743Y-264981430D01*
X357329103Y-264962732D01*
X357265000Y-264956418D01*
X356508750Y-264958000D01*
X356427000Y-265039750D01*
X356173000Y-265039750D01*
X356091250Y-264958000D01*
X355335000Y-264956418D01*
X355270897Y-264962732D01*
X355209257Y-264981430D01*
X355152450Y-265011794D01*
X355102657Y-265052657D01*
X355061794Y-265102450D01*
X355031430Y-265159257D01*
X355012732Y-265220897D01*
X355006418Y-265285000D01*
X348102000Y-265285000D01*
X348102000Y-261000000D01*
X350921418Y-261000000D01*
X350921418Y-263000000D01*
X350927732Y-263064103D01*
X350946430Y-263125743D01*
X350976794Y-263182550D01*
X351017657Y-263232343D01*
X351067450Y-263273206D01*
X351124257Y-263303570D01*
X351185897Y-263322268D01*
X351250000Y-263328582D01*
X353250000Y-263328582D01*
X353314103Y-263322268D01*
X353375743Y-263303570D01*
X353432550Y-263273206D01*
X353482343Y-263232343D01*
X353523206Y-263182550D01*
X353553570Y-263125743D01*
X353572268Y-263064103D01*
X353578582Y-263000000D01*
X353578582Y-262452000D01*
X355477795Y-262452000D01*
X355500000Y-262454187D01*
X355522205Y-262452000D01*
X355588607Y-262445460D01*
X355673810Y-262419614D01*
X355752333Y-262377643D01*
X355821159Y-262321159D01*
X355835323Y-262303900D01*
X356603906Y-261535318D01*
X356621159Y-261521159D01*
X356677643Y-261452333D01*
X356719614Y-261373810D01*
X356745460Y-261288607D01*
X356752000Y-261222205D01*
X356752000Y-261222204D01*
X356754187Y-261200000D01*
X356752000Y-261177795D01*
X356752000Y-258919465D01*
X356959359Y-258833574D01*
X357187348Y-258681237D01*
X357381237Y-258487348D01*
X357533574Y-258259359D01*
X357638506Y-258006031D01*
X357692000Y-257737100D01*
X357692000Y-257462900D01*
X357638506Y-257193969D01*
X357533574Y-256940641D01*
X357381237Y-256712652D01*
X357187348Y-256518763D01*
X356959359Y-256366426D01*
X356706031Y-256261494D01*
X356437100Y-256208000D01*
X356162900Y-256208000D01*
X355893969Y-256261494D01*
X355640641Y-256366426D01*
X355412652Y-256518763D01*
X355218763Y-256712652D01*
X355066426Y-256940641D01*
X354961494Y-257193969D01*
X354908000Y-257462900D01*
X354908000Y-257737100D01*
X354961494Y-258006031D01*
X355066426Y-258259359D01*
X355218763Y-258487348D01*
X355412652Y-258681237D01*
X355640641Y-258833574D01*
X355848001Y-258919465D01*
X355848000Y-261012776D01*
X355312777Y-261548000D01*
X353578582Y-261548000D01*
X353578582Y-261000000D01*
X353572268Y-260935897D01*
X353553570Y-260874257D01*
X353523206Y-260817450D01*
X353482343Y-260767657D01*
X353432550Y-260726794D01*
X353375743Y-260696430D01*
X353314103Y-260677732D01*
X353250000Y-260671418D01*
X351250000Y-260671418D01*
X351185897Y-260677732D01*
X351124257Y-260696430D01*
X351067450Y-260726794D01*
X351017657Y-260767657D01*
X350976794Y-260817450D01*
X350946430Y-260874257D01*
X350927732Y-260935897D01*
X350921418Y-261000000D01*
X348102000Y-261000000D01*
X348102000Y-249162900D01*
X354908000Y-249162900D01*
X354908000Y-249437100D01*
X354961494Y-249706031D01*
X355066426Y-249959359D01*
X355218763Y-250187348D01*
X355412652Y-250381237D01*
X355640641Y-250533574D01*
X355893969Y-250638506D01*
X356162900Y-250692000D01*
X356437100Y-250692000D01*
X356706031Y-250638506D01*
X356959359Y-250533574D01*
X357187348Y-250381237D01*
X357381237Y-250187348D01*
X357533574Y-249959359D01*
X357638506Y-249706031D01*
X357692000Y-249437100D01*
X357692000Y-249162900D01*
X357638506Y-248893969D01*
X357533574Y-248640641D01*
X357381237Y-248412652D01*
X357187348Y-248218763D01*
X356959359Y-248066426D01*
X356706031Y-247961494D01*
X356437100Y-247908000D01*
X356162900Y-247908000D01*
X355893969Y-247961494D01*
X355640641Y-248066426D01*
X355412652Y-248218763D01*
X355218763Y-248412652D01*
X355066426Y-248640641D01*
X354961494Y-248893969D01*
X354908000Y-249162900D01*
X348102000Y-249162900D01*
X348102000Y-247115000D01*
X355006418Y-247115000D01*
X355012732Y-247179103D01*
X355031430Y-247240743D01*
X355061794Y-247297550D01*
X355102657Y-247347343D01*
X355152450Y-247388206D01*
X355209257Y-247418570D01*
X355270897Y-247437268D01*
X355335000Y-247443582D01*
X356091250Y-247442000D01*
X356173000Y-247360250D01*
X356173000Y-246327000D01*
X356427000Y-246327000D01*
X356427000Y-247360250D01*
X356508750Y-247442000D01*
X357265000Y-247443582D01*
X357329103Y-247437268D01*
X357390743Y-247418570D01*
X357447550Y-247388206D01*
X357497343Y-247347343D01*
X357538206Y-247297550D01*
X357568570Y-247240743D01*
X357587268Y-247179103D01*
X357593582Y-247115000D01*
X357592000Y-246408750D01*
X357510250Y-246327000D01*
X356427000Y-246327000D01*
X356173000Y-246327000D01*
X355089750Y-246327000D01*
X355008000Y-246408750D01*
X355006418Y-247115000D01*
X348102000Y-247115000D01*
X348102000Y-245285000D01*
X355006418Y-245285000D01*
X355008000Y-245991250D01*
X355089750Y-246073000D01*
X356173000Y-246073000D01*
X356173000Y-245039750D01*
X356427000Y-245039750D01*
X356427000Y-246073000D01*
X357510250Y-246073000D01*
X357592000Y-245991250D01*
X357593582Y-245285000D01*
X357587268Y-245220897D01*
X357568570Y-245159257D01*
X357538206Y-245102450D01*
X357497343Y-245052657D01*
X357447550Y-245011794D01*
X357390743Y-244981430D01*
X357329103Y-244962732D01*
X357265000Y-244956418D01*
X356508750Y-244958000D01*
X356427000Y-245039750D01*
X356173000Y-245039750D01*
X356091250Y-244958000D01*
X355335000Y-244956418D01*
X355270897Y-244962732D01*
X355209257Y-244981430D01*
X355152450Y-245011794D01*
X355102657Y-245052657D01*
X355061794Y-245102450D01*
X355031430Y-245159257D01*
X355012732Y-245220897D01*
X355006418Y-245285000D01*
X348102000Y-245285000D01*
X348102000Y-241000000D01*
X350921418Y-241000000D01*
X350921418Y-243000000D01*
X350927732Y-243064103D01*
X350946430Y-243125743D01*
X350976794Y-243182550D01*
X351017657Y-243232343D01*
X351067450Y-243273206D01*
X351124257Y-243303570D01*
X351185897Y-243322268D01*
X351250000Y-243328582D01*
X353250000Y-243328582D01*
X353314103Y-243322268D01*
X353375743Y-243303570D01*
X353432550Y-243273206D01*
X353482343Y-243232343D01*
X353523206Y-243182550D01*
X353553570Y-243125743D01*
X353572268Y-243064103D01*
X353578582Y-243000000D01*
X353578582Y-242452000D01*
X354977795Y-242452000D01*
X355000000Y-242454187D01*
X355022205Y-242452000D01*
X355088607Y-242445460D01*
X355173810Y-242419614D01*
X355252333Y-242377643D01*
X355321159Y-242321159D01*
X355335323Y-242303900D01*
X356603906Y-241035318D01*
X356621159Y-241021159D01*
X356677643Y-240952333D01*
X356719614Y-240873810D01*
X356745460Y-240788607D01*
X356752000Y-240722205D01*
X356752000Y-240722204D01*
X356754187Y-240700000D01*
X356752000Y-240677795D01*
X356752000Y-238919465D01*
X356959359Y-238833574D01*
X357187348Y-238681237D01*
X357381237Y-238487348D01*
X357533574Y-238259359D01*
X357638506Y-238006031D01*
X357692000Y-237737100D01*
X357692000Y-237462900D01*
X357638506Y-237193969D01*
X357533574Y-236940641D01*
X357381237Y-236712652D01*
X357187348Y-236518763D01*
X356959359Y-236366426D01*
X356706031Y-236261494D01*
X356437100Y-236208000D01*
X356162900Y-236208000D01*
X355893969Y-236261494D01*
X355640641Y-236366426D01*
X355412652Y-236518763D01*
X355218763Y-236712652D01*
X355066426Y-236940641D01*
X354961494Y-237193969D01*
X354908000Y-237462900D01*
X354908000Y-237737100D01*
X354961494Y-238006031D01*
X355066426Y-238259359D01*
X355218763Y-238487348D01*
X355412652Y-238681237D01*
X355640641Y-238833574D01*
X355848001Y-238919465D01*
X355848000Y-240512776D01*
X354812777Y-241548000D01*
X353578582Y-241548000D01*
X353578582Y-241000000D01*
X353572268Y-240935897D01*
X353553570Y-240874257D01*
X353523206Y-240817450D01*
X353482343Y-240767657D01*
X353432550Y-240726794D01*
X353375743Y-240696430D01*
X353314103Y-240677732D01*
X353250000Y-240671418D01*
X351250000Y-240671418D01*
X351185897Y-240677732D01*
X351124257Y-240696430D01*
X351067450Y-240726794D01*
X351017657Y-240767657D01*
X350976794Y-240817450D01*
X350946430Y-240874257D01*
X350927732Y-240935897D01*
X350921418Y-241000000D01*
X348102000Y-241000000D01*
X348102000Y-229162900D01*
X354908000Y-229162900D01*
X354908000Y-229437100D01*
X354961494Y-229706031D01*
X355066426Y-229959359D01*
X355218763Y-230187348D01*
X355412652Y-230381237D01*
X355640641Y-230533574D01*
X355893969Y-230638506D01*
X356162900Y-230692000D01*
X356437100Y-230692000D01*
X356706031Y-230638506D01*
X356959359Y-230533574D01*
X357187348Y-230381237D01*
X357381237Y-230187348D01*
X357533574Y-229959359D01*
X357638506Y-229706031D01*
X357692000Y-229437100D01*
X357692000Y-229162900D01*
X357638506Y-228893969D01*
X357533574Y-228640641D01*
X357381237Y-228412652D01*
X357187348Y-228218763D01*
X356959359Y-228066426D01*
X356706031Y-227961494D01*
X356437100Y-227908000D01*
X356162900Y-227908000D01*
X355893969Y-227961494D01*
X355640641Y-228066426D01*
X355412652Y-228218763D01*
X355218763Y-228412652D01*
X355066426Y-228640641D01*
X354961494Y-228893969D01*
X354908000Y-229162900D01*
X348102000Y-229162900D01*
X348102000Y-227115000D01*
X355006418Y-227115000D01*
X355012732Y-227179103D01*
X355031430Y-227240743D01*
X355061794Y-227297550D01*
X355102657Y-227347343D01*
X355152450Y-227388206D01*
X355209257Y-227418570D01*
X355270897Y-227437268D01*
X355335000Y-227443582D01*
X356091250Y-227442000D01*
X356173000Y-227360250D01*
X356173000Y-226327000D01*
X356427000Y-226327000D01*
X356427000Y-227360250D01*
X356508750Y-227442000D01*
X357265000Y-227443582D01*
X357329103Y-227437268D01*
X357390743Y-227418570D01*
X357447550Y-227388206D01*
X357497343Y-227347343D01*
X357538206Y-227297550D01*
X357568570Y-227240743D01*
X357587268Y-227179103D01*
X357593582Y-227115000D01*
X357592000Y-226408750D01*
X357510250Y-226327000D01*
X356427000Y-226327000D01*
X356173000Y-226327000D01*
X355089750Y-226327000D01*
X355008000Y-226408750D01*
X355006418Y-227115000D01*
X348102000Y-227115000D01*
X348102000Y-225285000D01*
X355006418Y-225285000D01*
X355008000Y-225991250D01*
X355089750Y-226073000D01*
X356173000Y-226073000D01*
X356173000Y-225039750D01*
X356427000Y-225039750D01*
X356427000Y-226073000D01*
X357510250Y-226073000D01*
X357592000Y-225991250D01*
X357593582Y-225285000D01*
X357587268Y-225220897D01*
X357568570Y-225159257D01*
X357538206Y-225102450D01*
X357497343Y-225052657D01*
X357447550Y-225011794D01*
X357390743Y-224981430D01*
X357329103Y-224962732D01*
X357265000Y-224956418D01*
X356508750Y-224958000D01*
X356427000Y-225039750D01*
X356173000Y-225039750D01*
X356091250Y-224958000D01*
X355335000Y-224956418D01*
X355270897Y-224962732D01*
X355209257Y-224981430D01*
X355152450Y-225011794D01*
X355102657Y-225052657D01*
X355061794Y-225102450D01*
X355031430Y-225159257D01*
X355012732Y-225220897D01*
X355006418Y-225285000D01*
X348102000Y-225285000D01*
X348102000Y-221000000D01*
X350921418Y-221000000D01*
X350921418Y-223000000D01*
X350927732Y-223064103D01*
X350946430Y-223125743D01*
X350976794Y-223182550D01*
X351017657Y-223232343D01*
X351067450Y-223273206D01*
X351124257Y-223303570D01*
X351185897Y-223322268D01*
X351250000Y-223328582D01*
X353250000Y-223328582D01*
X353314103Y-223322268D01*
X353375743Y-223303570D01*
X353432550Y-223273206D01*
X353482343Y-223232343D01*
X353523206Y-223182550D01*
X353553570Y-223125743D01*
X353572268Y-223064103D01*
X353578582Y-223000000D01*
X353578582Y-222452000D01*
X355227795Y-222452000D01*
X355250000Y-222454187D01*
X355272205Y-222452000D01*
X355338607Y-222445460D01*
X355423810Y-222419614D01*
X355502333Y-222377643D01*
X355571159Y-222321159D01*
X355585323Y-222303900D01*
X356603911Y-221285313D01*
X356621159Y-221271159D01*
X356677643Y-221202333D01*
X356719614Y-221123810D01*
X356745460Y-221038607D01*
X356745460Y-221038606D01*
X356754187Y-220950001D01*
X356752000Y-220927796D01*
X356752000Y-218919465D01*
X356959359Y-218833574D01*
X357187348Y-218681237D01*
X357381237Y-218487348D01*
X357533574Y-218259359D01*
X357638506Y-218006031D01*
X357692000Y-217737100D01*
X357692000Y-217462900D01*
X357638506Y-217193969D01*
X357533574Y-216940641D01*
X357381237Y-216712652D01*
X357187348Y-216518763D01*
X356959359Y-216366426D01*
X356706031Y-216261494D01*
X356437100Y-216208000D01*
X356162900Y-216208000D01*
X355893969Y-216261494D01*
X355640641Y-216366426D01*
X355412652Y-216518763D01*
X355218763Y-216712652D01*
X355066426Y-216940641D01*
X354961494Y-217193969D01*
X354908000Y-217462900D01*
X354908000Y-217737100D01*
X354961494Y-218006031D01*
X355066426Y-218259359D01*
X355218763Y-218487348D01*
X355412652Y-218681237D01*
X355640641Y-218833574D01*
X355848001Y-218919465D01*
X355848000Y-220762775D01*
X355062777Y-221548000D01*
X353578582Y-221548000D01*
X353578582Y-221000000D01*
X353572268Y-220935897D01*
X353553570Y-220874257D01*
X353523206Y-220817450D01*
X353482343Y-220767657D01*
X353432550Y-220726794D01*
X353375743Y-220696430D01*
X353314103Y-220677732D01*
X353250000Y-220671418D01*
X351250000Y-220671418D01*
X351185897Y-220677732D01*
X351124257Y-220696430D01*
X351067450Y-220726794D01*
X351017657Y-220767657D01*
X350976794Y-220817450D01*
X350946430Y-220874257D01*
X350927732Y-220935897D01*
X350921418Y-221000000D01*
X348102000Y-221000000D01*
X348102000Y-213728485D01*
X364014145Y-213728485D01*
X364034181Y-213794553D01*
X364128693Y-214005042D01*
X364262453Y-214193048D01*
X364430321Y-214351346D01*
X364625846Y-214473853D01*
X364841514Y-214555861D01*
X365023000Y-214508384D01*
X365023000Y-213547000D01*
X365277000Y-213547000D01*
X365277000Y-214508384D01*
X365458486Y-214555861D01*
X365674154Y-214473853D01*
X365869679Y-214351346D01*
X366037547Y-214193048D01*
X366171307Y-214005042D01*
X366265819Y-213794553D01*
X366285855Y-213728485D01*
X366237862Y-213547000D01*
X365277000Y-213547000D01*
X365023000Y-213547000D01*
X364062138Y-213547000D01*
X364014145Y-213728485D01*
X348102000Y-213728485D01*
X348102000Y-213111515D01*
X364014145Y-213111515D01*
X364062138Y-213293000D01*
X365023000Y-213293000D01*
X365023000Y-212331616D01*
X365277000Y-212331616D01*
X365277000Y-213293000D01*
X366237862Y-213293000D01*
X366285855Y-213111515D01*
X366265819Y-213045447D01*
X366171307Y-212834958D01*
X366037547Y-212646952D01*
X365869679Y-212488654D01*
X365674154Y-212366147D01*
X365458486Y-212284139D01*
X365277000Y-212331616D01*
X365023000Y-212331616D01*
X364841514Y-212284139D01*
X364625846Y-212366147D01*
X364430321Y-212488654D01*
X364262453Y-212646952D01*
X364128693Y-212834958D01*
X364034181Y-213045447D01*
X364014145Y-213111515D01*
X348102000Y-213111515D01*
X348102000Y-210764076D01*
X363973000Y-210764076D01*
X363973000Y-210995924D01*
X364018231Y-211223318D01*
X364106956Y-211437519D01*
X364235764Y-211630294D01*
X364399706Y-211794236D01*
X364592481Y-211923044D01*
X364806682Y-212011769D01*
X365034076Y-212057000D01*
X365265924Y-212057000D01*
X365493318Y-212011769D01*
X365707519Y-211923044D01*
X365900294Y-211794236D01*
X366064236Y-211630294D01*
X366193044Y-211437519D01*
X366281769Y-211223318D01*
X366327000Y-210995924D01*
X366327000Y-210764076D01*
X366281769Y-210536682D01*
X366193044Y-210322481D01*
X366064236Y-210129706D01*
X365900294Y-209965764D01*
X365707519Y-209836956D01*
X365493318Y-209748231D01*
X365265924Y-209703000D01*
X365034076Y-209703000D01*
X364806682Y-209748231D01*
X364592481Y-209836956D01*
X364399706Y-209965764D01*
X364235764Y-210129706D01*
X364106956Y-210322481D01*
X364018231Y-210536682D01*
X363973000Y-210764076D01*
X348102000Y-210764076D01*
X348102000Y-209162900D01*
X354908000Y-209162900D01*
X354908000Y-209437100D01*
X354961494Y-209706031D01*
X355066426Y-209959359D01*
X355218763Y-210187348D01*
X355412652Y-210381237D01*
X355640641Y-210533574D01*
X355893969Y-210638506D01*
X356162900Y-210692000D01*
X356437100Y-210692000D01*
X356706031Y-210638506D01*
X356959359Y-210533574D01*
X357187348Y-210381237D01*
X357381237Y-210187348D01*
X357533574Y-209959359D01*
X357638506Y-209706031D01*
X357692000Y-209437100D01*
X357692000Y-209162900D01*
X357638506Y-208893969D01*
X357533574Y-208640641D01*
X357381237Y-208412652D01*
X357192661Y-208224076D01*
X363973000Y-208224076D01*
X363973000Y-208455924D01*
X364018231Y-208683318D01*
X364106956Y-208897519D01*
X364235764Y-209090294D01*
X364399706Y-209254236D01*
X364592481Y-209383044D01*
X364806682Y-209471769D01*
X365034076Y-209517000D01*
X365265924Y-209517000D01*
X365493318Y-209471769D01*
X365707519Y-209383044D01*
X365900294Y-209254236D01*
X366064236Y-209090294D01*
X366193044Y-208897519D01*
X366281769Y-208683318D01*
X366327000Y-208455924D01*
X366327000Y-208224076D01*
X366281769Y-207996682D01*
X366193044Y-207782481D01*
X366064236Y-207589706D01*
X365900294Y-207425764D01*
X365707519Y-207296956D01*
X365493318Y-207208231D01*
X365265924Y-207163000D01*
X365034076Y-207163000D01*
X364806682Y-207208231D01*
X364592481Y-207296956D01*
X364399706Y-207425764D01*
X364235764Y-207589706D01*
X364106956Y-207782481D01*
X364018231Y-207996682D01*
X363973000Y-208224076D01*
X357192661Y-208224076D01*
X357187348Y-208218763D01*
X356959359Y-208066426D01*
X356706031Y-207961494D01*
X356437100Y-207908000D01*
X356162900Y-207908000D01*
X355893969Y-207961494D01*
X355640641Y-208066426D01*
X355412652Y-208218763D01*
X355218763Y-208412652D01*
X355066426Y-208640641D01*
X354961494Y-208893969D01*
X354908000Y-209162900D01*
X348102000Y-209162900D01*
X348102000Y-207115000D01*
X355006418Y-207115000D01*
X355012732Y-207179103D01*
X355031430Y-207240743D01*
X355061794Y-207297550D01*
X355102657Y-207347343D01*
X355152450Y-207388206D01*
X355209257Y-207418570D01*
X355270897Y-207437268D01*
X355335000Y-207443582D01*
X356091250Y-207442000D01*
X356173000Y-207360250D01*
X356173000Y-206327000D01*
X356427000Y-206327000D01*
X356427000Y-207360250D01*
X356508750Y-207442000D01*
X357265000Y-207443582D01*
X357329103Y-207437268D01*
X357390743Y-207418570D01*
X357447550Y-207388206D01*
X357497343Y-207347343D01*
X357538206Y-207297550D01*
X357568570Y-207240743D01*
X357587268Y-207179103D01*
X357593582Y-207115000D01*
X357592000Y-206408750D01*
X357510250Y-206327000D01*
X356427000Y-206327000D01*
X356173000Y-206327000D01*
X355089750Y-206327000D01*
X355008000Y-206408750D01*
X355006418Y-207115000D01*
X348102000Y-207115000D01*
X348102000Y-205285000D01*
X355006418Y-205285000D01*
X355008000Y-205991250D01*
X355089750Y-206073000D01*
X356173000Y-206073000D01*
X356173000Y-205039750D01*
X356427000Y-205039750D01*
X356427000Y-206073000D01*
X357510250Y-206073000D01*
X357592000Y-205991250D01*
X357592688Y-205684076D01*
X363973000Y-205684076D01*
X363973000Y-205915924D01*
X364018231Y-206143318D01*
X364106956Y-206357519D01*
X364235764Y-206550294D01*
X364399706Y-206714236D01*
X364592481Y-206843044D01*
X364806682Y-206931769D01*
X365034076Y-206977000D01*
X365265924Y-206977000D01*
X365493318Y-206931769D01*
X365707519Y-206843044D01*
X365900294Y-206714236D01*
X366064236Y-206550294D01*
X366193044Y-206357519D01*
X366281769Y-206143318D01*
X366327000Y-205915924D01*
X366327000Y-205684076D01*
X366281769Y-205456682D01*
X366193044Y-205242481D01*
X366064236Y-205049706D01*
X365900294Y-204885764D01*
X365707519Y-204756956D01*
X365493318Y-204668231D01*
X365265924Y-204623000D01*
X365034076Y-204623000D01*
X364806682Y-204668231D01*
X364592481Y-204756956D01*
X364399706Y-204885764D01*
X364235764Y-205049706D01*
X364106956Y-205242481D01*
X364018231Y-205456682D01*
X363973000Y-205684076D01*
X357592688Y-205684076D01*
X357593582Y-205285000D01*
X357587268Y-205220897D01*
X357568570Y-205159257D01*
X357538206Y-205102450D01*
X357497343Y-205052657D01*
X357447550Y-205011794D01*
X357390743Y-204981430D01*
X357329103Y-204962732D01*
X357265000Y-204956418D01*
X356508750Y-204958000D01*
X356427000Y-205039750D01*
X356173000Y-205039750D01*
X356091250Y-204958000D01*
X355335000Y-204956418D01*
X355270897Y-204962732D01*
X355209257Y-204981430D01*
X355152450Y-205011794D01*
X355102657Y-205052657D01*
X355061794Y-205102450D01*
X355031430Y-205159257D01*
X355012732Y-205220897D01*
X355006418Y-205285000D01*
X348102000Y-205285000D01*
X348102000Y-201000000D01*
X350921418Y-201000000D01*
X350921418Y-203000000D01*
X350927732Y-203064103D01*
X350946430Y-203125743D01*
X350976794Y-203182550D01*
X351017657Y-203232343D01*
X351067450Y-203273206D01*
X351124257Y-203303570D01*
X351185897Y-203322268D01*
X351250000Y-203328582D01*
X353250000Y-203328582D01*
X353314103Y-203322268D01*
X353375743Y-203303570D01*
X353432550Y-203273206D01*
X353482343Y-203232343D01*
X353523206Y-203182550D01*
X353543770Y-203144076D01*
X363973000Y-203144076D01*
X363973000Y-203375924D01*
X364018231Y-203603318D01*
X364106956Y-203817519D01*
X364235764Y-204010294D01*
X364399706Y-204174236D01*
X364592481Y-204303044D01*
X364806682Y-204391769D01*
X365034076Y-204437000D01*
X365265924Y-204437000D01*
X365493318Y-204391769D01*
X365707519Y-204303044D01*
X365900294Y-204174236D01*
X366064236Y-204010294D01*
X366193044Y-203817519D01*
X366281769Y-203603318D01*
X366327000Y-203375924D01*
X366327000Y-203144076D01*
X366281769Y-202916682D01*
X366193044Y-202702481D01*
X366064236Y-202509706D01*
X365900294Y-202345764D01*
X365707519Y-202216956D01*
X365493318Y-202128231D01*
X365265924Y-202083000D01*
X365034076Y-202083000D01*
X364806682Y-202128231D01*
X364592481Y-202216956D01*
X364399706Y-202345764D01*
X364235764Y-202509706D01*
X364106956Y-202702481D01*
X364018231Y-202916682D01*
X363973000Y-203144076D01*
X353543770Y-203144076D01*
X353553570Y-203125743D01*
X353572268Y-203064103D01*
X353578582Y-203000000D01*
X353578582Y-202452000D01*
X355477795Y-202452000D01*
X355500000Y-202454187D01*
X355522205Y-202452000D01*
X355588607Y-202445460D01*
X355673810Y-202419614D01*
X355752333Y-202377643D01*
X355821159Y-202321159D01*
X355835323Y-202303900D01*
X356603906Y-201535318D01*
X356621159Y-201521159D01*
X356677643Y-201452333D01*
X356719614Y-201373810D01*
X356745460Y-201288607D01*
X356752000Y-201222205D01*
X356752000Y-201222204D01*
X356754187Y-201200000D01*
X356752000Y-201177795D01*
X356752000Y-200604076D01*
X363973000Y-200604076D01*
X363973000Y-200835924D01*
X364018231Y-201063318D01*
X364106956Y-201277519D01*
X364235764Y-201470294D01*
X364399706Y-201634236D01*
X364592481Y-201763044D01*
X364806682Y-201851769D01*
X365034076Y-201897000D01*
X365265924Y-201897000D01*
X365493318Y-201851769D01*
X365707519Y-201763044D01*
X365900294Y-201634236D01*
X366064236Y-201470294D01*
X366193044Y-201277519D01*
X366281769Y-201063318D01*
X366327000Y-200835924D01*
X366327000Y-200604076D01*
X366281769Y-200376682D01*
X366193044Y-200162481D01*
X366064236Y-199969706D01*
X365900294Y-199805764D01*
X365707519Y-199676956D01*
X365493318Y-199588231D01*
X365265924Y-199543000D01*
X365034076Y-199543000D01*
X364806682Y-199588231D01*
X364592481Y-199676956D01*
X364399706Y-199805764D01*
X364235764Y-199969706D01*
X364106956Y-200162481D01*
X364018231Y-200376682D01*
X363973000Y-200604076D01*
X356752000Y-200604076D01*
X356752000Y-198919465D01*
X356959359Y-198833574D01*
X357187348Y-198681237D01*
X357381237Y-198487348D01*
X357533574Y-198259359D01*
X357614462Y-198064076D01*
X363973000Y-198064076D01*
X363973000Y-198295924D01*
X364018231Y-198523318D01*
X364106956Y-198737519D01*
X364235764Y-198930294D01*
X364399706Y-199094236D01*
X364592481Y-199223044D01*
X364806682Y-199311769D01*
X365034076Y-199357000D01*
X365265924Y-199357000D01*
X365493318Y-199311769D01*
X365707519Y-199223044D01*
X365900294Y-199094236D01*
X366064236Y-198930294D01*
X366193044Y-198737519D01*
X366281769Y-198523318D01*
X366327000Y-198295924D01*
X366327000Y-198064076D01*
X366281769Y-197836682D01*
X366193044Y-197622481D01*
X366064236Y-197429706D01*
X365900294Y-197265764D01*
X365707519Y-197136956D01*
X365493318Y-197048231D01*
X365265924Y-197003000D01*
X365034076Y-197003000D01*
X364806682Y-197048231D01*
X364592481Y-197136956D01*
X364399706Y-197265764D01*
X364235764Y-197429706D01*
X364106956Y-197622481D01*
X364018231Y-197836682D01*
X363973000Y-198064076D01*
X357614462Y-198064076D01*
X357638506Y-198006031D01*
X357692000Y-197737100D01*
X357692000Y-197462900D01*
X357638506Y-197193969D01*
X357533574Y-196940641D01*
X357381237Y-196712652D01*
X357187348Y-196518763D01*
X356959359Y-196366426D01*
X356706031Y-196261494D01*
X356437100Y-196208000D01*
X356162900Y-196208000D01*
X355893969Y-196261494D01*
X355640641Y-196366426D01*
X355412652Y-196518763D01*
X355218763Y-196712652D01*
X355066426Y-196940641D01*
X354961494Y-197193969D01*
X354908000Y-197462900D01*
X354908000Y-197737100D01*
X354961494Y-198006031D01*
X355066426Y-198259359D01*
X355218763Y-198487348D01*
X355412652Y-198681237D01*
X355640641Y-198833574D01*
X355848001Y-198919465D01*
X355848000Y-201012776D01*
X355312777Y-201548000D01*
X353578582Y-201548000D01*
X353578582Y-201000000D01*
X353572268Y-200935897D01*
X353553570Y-200874257D01*
X353523206Y-200817450D01*
X353482343Y-200767657D01*
X353432550Y-200726794D01*
X353375743Y-200696430D01*
X353314103Y-200677732D01*
X353250000Y-200671418D01*
X351250000Y-200671418D01*
X351185897Y-200677732D01*
X351124257Y-200696430D01*
X351067450Y-200726794D01*
X351017657Y-200767657D01*
X350976794Y-200817450D01*
X350946430Y-200874257D01*
X350927732Y-200935897D01*
X350921418Y-201000000D01*
X348102000Y-201000000D01*
X348102000Y-195524076D01*
X363973000Y-195524076D01*
X363973000Y-195755924D01*
X364018231Y-195983318D01*
X364106956Y-196197519D01*
X364235764Y-196390294D01*
X364399706Y-196554236D01*
X364592481Y-196683044D01*
X364806682Y-196771769D01*
X365034076Y-196817000D01*
X365265924Y-196817000D01*
X365493318Y-196771769D01*
X365707519Y-196683044D01*
X365900294Y-196554236D01*
X366064236Y-196390294D01*
X366193044Y-196197519D01*
X366281769Y-195983318D01*
X366327000Y-195755924D01*
X366327000Y-195524076D01*
X366281769Y-195296682D01*
X366193044Y-195082481D01*
X366064236Y-194889706D01*
X365900294Y-194725764D01*
X365707519Y-194596956D01*
X365493318Y-194508231D01*
X365265924Y-194463000D01*
X365034076Y-194463000D01*
X364806682Y-194508231D01*
X364592481Y-194596956D01*
X364399706Y-194725764D01*
X364235764Y-194889706D01*
X364106956Y-195082481D01*
X364018231Y-195296682D01*
X363973000Y-195524076D01*
X348102000Y-195524076D01*
X348102000Y-192250000D01*
X363971418Y-192250000D01*
X363971418Y-193950000D01*
X363977732Y-194014103D01*
X363996430Y-194075743D01*
X364026794Y-194132550D01*
X364067657Y-194182343D01*
X364117450Y-194223206D01*
X364174257Y-194253570D01*
X364235897Y-194272268D01*
X364300000Y-194278582D01*
X366000000Y-194278582D01*
X366064103Y-194272268D01*
X366125743Y-194253570D01*
X366182550Y-194223206D01*
X366232343Y-194182343D01*
X366273206Y-194132550D01*
X366303570Y-194075743D01*
X366322268Y-194014103D01*
X366328582Y-193950000D01*
X366328582Y-192250000D01*
X366322268Y-192185897D01*
X366303570Y-192124257D01*
X366273206Y-192067450D01*
X366232343Y-192017657D01*
X366182550Y-191976794D01*
X366125743Y-191946430D01*
X366064103Y-191927732D01*
X366000000Y-191921418D01*
X364300000Y-191921418D01*
X364235897Y-191927732D01*
X364174257Y-191946430D01*
X364117450Y-191976794D01*
X364067657Y-192017657D01*
X364026794Y-192067450D01*
X363996430Y-192124257D01*
X363977732Y-192185897D01*
X363971418Y-192250000D01*
X348102000Y-192250000D01*
X348102000Y-189162900D01*
X354908000Y-189162900D01*
X354908000Y-189437100D01*
X354961494Y-189706031D01*
X355066426Y-189959359D01*
X355218763Y-190187348D01*
X355412652Y-190381237D01*
X355640641Y-190533574D01*
X355893969Y-190638506D01*
X356162900Y-190692000D01*
X356437100Y-190692000D01*
X356706031Y-190638506D01*
X356959359Y-190533574D01*
X357187348Y-190381237D01*
X357381237Y-190187348D01*
X357533574Y-189959359D01*
X357638506Y-189706031D01*
X357692000Y-189437100D01*
X357692000Y-189162900D01*
X357638506Y-188893969D01*
X357533574Y-188640641D01*
X357381237Y-188412652D01*
X357187348Y-188218763D01*
X356959359Y-188066426D01*
X356706031Y-187961494D01*
X356437100Y-187908000D01*
X356162900Y-187908000D01*
X355893969Y-187961494D01*
X355640641Y-188066426D01*
X355412652Y-188218763D01*
X355218763Y-188412652D01*
X355066426Y-188640641D01*
X354961494Y-188893969D01*
X354908000Y-189162900D01*
X348102000Y-189162900D01*
X348102000Y-187115000D01*
X355006418Y-187115000D01*
X355012732Y-187179103D01*
X355031430Y-187240743D01*
X355061794Y-187297550D01*
X355102657Y-187347343D01*
X355152450Y-187388206D01*
X355209257Y-187418570D01*
X355270897Y-187437268D01*
X355335000Y-187443582D01*
X356091250Y-187442000D01*
X356173000Y-187360250D01*
X356173000Y-186327000D01*
X356427000Y-186327000D01*
X356427000Y-187360250D01*
X356508750Y-187442000D01*
X357265000Y-187443582D01*
X357329103Y-187437268D01*
X357390743Y-187418570D01*
X357447550Y-187388206D01*
X357497343Y-187347343D01*
X357538206Y-187297550D01*
X357568570Y-187240743D01*
X357587268Y-187179103D01*
X357593582Y-187115000D01*
X357592000Y-186408750D01*
X357510250Y-186327000D01*
X356427000Y-186327000D01*
X356173000Y-186327000D01*
X355089750Y-186327000D01*
X355008000Y-186408750D01*
X355006418Y-187115000D01*
X348102000Y-187115000D01*
X348102000Y-185285000D01*
X355006418Y-185285000D01*
X355008000Y-185991250D01*
X355089750Y-186073000D01*
X356173000Y-186073000D01*
X356173000Y-185039750D01*
X356427000Y-185039750D01*
X356427000Y-186073000D01*
X357510250Y-186073000D01*
X357592000Y-185991250D01*
X357593582Y-185285000D01*
X357587268Y-185220897D01*
X357568570Y-185159257D01*
X357538206Y-185102450D01*
X357497343Y-185052657D01*
X357447550Y-185011794D01*
X357390743Y-184981430D01*
X357329103Y-184962732D01*
X357265000Y-184956418D01*
X356508750Y-184958000D01*
X356427000Y-185039750D01*
X356173000Y-185039750D01*
X356091250Y-184958000D01*
X355335000Y-184956418D01*
X355270897Y-184962732D01*
X355209257Y-184981430D01*
X355152450Y-185011794D01*
X355102657Y-185052657D01*
X355061794Y-185102450D01*
X355031430Y-185159257D01*
X355012732Y-185220897D01*
X355006418Y-185285000D01*
X348102000Y-185285000D01*
X348102000Y-181000000D01*
X350921418Y-181000000D01*
X350921418Y-183000000D01*
X350927732Y-183064103D01*
X350946430Y-183125743D01*
X350976794Y-183182550D01*
X351017657Y-183232343D01*
X351067450Y-183273206D01*
X351124257Y-183303570D01*
X351185897Y-183322268D01*
X351250000Y-183328582D01*
X353250000Y-183328582D01*
X353314103Y-183322268D01*
X353375743Y-183303570D01*
X353432550Y-183273206D01*
X353482343Y-183232343D01*
X353523206Y-183182550D01*
X353553570Y-183125743D01*
X353572268Y-183064103D01*
X353578582Y-183000000D01*
X353578582Y-182452000D01*
X355727795Y-182452000D01*
X355750000Y-182454187D01*
X355772205Y-182452000D01*
X355838607Y-182445460D01*
X355923810Y-182419614D01*
X356002333Y-182377643D01*
X356071159Y-182321159D01*
X356085323Y-182303900D01*
X356603911Y-181785314D01*
X356621159Y-181771159D01*
X356677643Y-181702333D01*
X356719614Y-181623810D01*
X356745460Y-181538607D01*
X356752000Y-181472205D01*
X356752000Y-181472204D01*
X356754187Y-181450001D01*
X356752000Y-181427798D01*
X356752000Y-178919465D01*
X356959359Y-178833574D01*
X357187348Y-178681237D01*
X357381237Y-178487348D01*
X357533574Y-178259359D01*
X357638506Y-178006031D01*
X357692000Y-177737100D01*
X357692000Y-177462900D01*
X357638506Y-177193969D01*
X357533574Y-176940641D01*
X357381237Y-176712652D01*
X357187348Y-176518763D01*
X356959359Y-176366426D01*
X356706031Y-176261494D01*
X356437100Y-176208000D01*
X356162900Y-176208000D01*
X355893969Y-176261494D01*
X355640641Y-176366426D01*
X355412652Y-176518763D01*
X355218763Y-176712652D01*
X355066426Y-176940641D01*
X354961494Y-177193969D01*
X354908000Y-177462900D01*
X354908000Y-177737100D01*
X354961494Y-178006031D01*
X355066426Y-178259359D01*
X355218763Y-178487348D01*
X355412652Y-178681237D01*
X355640641Y-178833574D01*
X355848001Y-178919465D01*
X355848000Y-181262775D01*
X355562776Y-181548000D01*
X353578582Y-181548000D01*
X353578582Y-181000000D01*
X353572268Y-180935897D01*
X353553570Y-180874257D01*
X353523206Y-180817450D01*
X353482343Y-180767657D01*
X353432550Y-180726794D01*
X353375743Y-180696430D01*
X353314103Y-180677732D01*
X353250000Y-180671418D01*
X351250000Y-180671418D01*
X351185897Y-180677732D01*
X351124257Y-180696430D01*
X351067450Y-180726794D01*
X351017657Y-180767657D01*
X350976794Y-180817450D01*
X350946430Y-180874257D01*
X350927732Y-180935897D01*
X350921418Y-181000000D01*
X348102000Y-181000000D01*
X348102000Y-169162900D01*
X354908000Y-169162900D01*
X354908000Y-169437100D01*
X354961494Y-169706031D01*
X355066426Y-169959359D01*
X355218763Y-170187348D01*
X355412652Y-170381237D01*
X355640641Y-170533574D01*
X355893969Y-170638506D01*
X356162900Y-170692000D01*
X356437100Y-170692000D01*
X356706031Y-170638506D01*
X356959359Y-170533574D01*
X357187348Y-170381237D01*
X357381237Y-170187348D01*
X357533574Y-169959359D01*
X357638506Y-169706031D01*
X357692000Y-169437100D01*
X357692000Y-169162900D01*
X357638506Y-168893969D01*
X357533574Y-168640641D01*
X357381237Y-168412652D01*
X357187348Y-168218763D01*
X356959359Y-168066426D01*
X356706031Y-167961494D01*
X356437100Y-167908000D01*
X356162900Y-167908000D01*
X355893969Y-167961494D01*
X355640641Y-168066426D01*
X355412652Y-168218763D01*
X355218763Y-168412652D01*
X355066426Y-168640641D01*
X354961494Y-168893969D01*
X354908000Y-169162900D01*
X348102000Y-169162900D01*
X348102000Y-167115000D01*
X355006418Y-167115000D01*
X355012732Y-167179103D01*
X355031430Y-167240743D01*
X355061794Y-167297550D01*
X355102657Y-167347343D01*
X355152450Y-167388206D01*
X355209257Y-167418570D01*
X355270897Y-167437268D01*
X355335000Y-167443582D01*
X356091250Y-167442000D01*
X356173000Y-167360250D01*
X356173000Y-166327000D01*
X356427000Y-166327000D01*
X356427000Y-167360250D01*
X356508750Y-167442000D01*
X357265000Y-167443582D01*
X357329103Y-167437268D01*
X357390743Y-167418570D01*
X357447550Y-167388206D01*
X357497343Y-167347343D01*
X357538206Y-167297550D01*
X357568570Y-167240743D01*
X357587268Y-167179103D01*
X357593582Y-167115000D01*
X357592000Y-166408750D01*
X357510250Y-166327000D01*
X356427000Y-166327000D01*
X356173000Y-166327000D01*
X355089750Y-166327000D01*
X355008000Y-166408750D01*
X355006418Y-167115000D01*
X348102000Y-167115000D01*
X348102000Y-165285000D01*
X355006418Y-165285000D01*
X355008000Y-165991250D01*
X355089750Y-166073000D01*
X356173000Y-166073000D01*
X356173000Y-165039750D01*
X356427000Y-165039750D01*
X356427000Y-166073000D01*
X357510250Y-166073000D01*
X357592000Y-165991250D01*
X357593582Y-165285000D01*
X357587268Y-165220897D01*
X357568570Y-165159257D01*
X357538206Y-165102450D01*
X357497343Y-165052657D01*
X357447550Y-165011794D01*
X357390743Y-164981430D01*
X357329103Y-164962732D01*
X357265000Y-164956418D01*
X356508750Y-164958000D01*
X356427000Y-165039750D01*
X356173000Y-165039750D01*
X356091250Y-164958000D01*
X355335000Y-164956418D01*
X355270897Y-164962732D01*
X355209257Y-164981430D01*
X355152450Y-165011794D01*
X355102657Y-165052657D01*
X355061794Y-165102450D01*
X355031430Y-165159257D01*
X355012732Y-165220897D01*
X355006418Y-165285000D01*
X348102000Y-165285000D01*
X348102000Y-161000000D01*
X350921418Y-161000000D01*
X350921418Y-163000000D01*
X350927732Y-163064103D01*
X350946430Y-163125743D01*
X350976794Y-163182550D01*
X351017657Y-163232343D01*
X351067450Y-163273206D01*
X351124257Y-163303570D01*
X351185897Y-163322268D01*
X351250000Y-163328582D01*
X353250000Y-163328582D01*
X353314103Y-163322268D01*
X353375743Y-163303570D01*
X353432550Y-163273206D01*
X353482343Y-163232343D01*
X353523206Y-163182550D01*
X353553570Y-163125743D01*
X353572268Y-163064103D01*
X353578582Y-163000000D01*
X353578582Y-162452000D01*
X355477795Y-162452000D01*
X355500000Y-162454187D01*
X355522205Y-162452000D01*
X355588607Y-162445460D01*
X355673810Y-162419614D01*
X355752333Y-162377643D01*
X355821159Y-162321159D01*
X355835323Y-162303900D01*
X356603906Y-161535318D01*
X356621159Y-161521159D01*
X356677643Y-161452333D01*
X356719614Y-161373810D01*
X356745460Y-161288607D01*
X356752000Y-161222205D01*
X356752000Y-161222204D01*
X356754187Y-161200000D01*
X356752000Y-161177795D01*
X356752000Y-158919465D01*
X356959359Y-158833574D01*
X357187348Y-158681237D01*
X357381237Y-158487348D01*
X357533574Y-158259359D01*
X357638506Y-158006031D01*
X357692000Y-157737100D01*
X357692000Y-157462900D01*
X357638506Y-157193969D01*
X357533574Y-156940641D01*
X357381237Y-156712652D01*
X357187348Y-156518763D01*
X356959359Y-156366426D01*
X356706031Y-156261494D01*
X356437100Y-156208000D01*
X356162900Y-156208000D01*
X355893969Y-156261494D01*
X355640641Y-156366426D01*
X355412652Y-156518763D01*
X355218763Y-156712652D01*
X355066426Y-156940641D01*
X354961494Y-157193969D01*
X354908000Y-157462900D01*
X354908000Y-157737100D01*
X354961494Y-158006031D01*
X355066426Y-158259359D01*
X355218763Y-158487348D01*
X355412652Y-158681237D01*
X355640641Y-158833574D01*
X355848001Y-158919465D01*
X355848000Y-161012776D01*
X355312777Y-161548000D01*
X353578582Y-161548000D01*
X353578582Y-161000000D01*
X353572268Y-160935897D01*
X353553570Y-160874257D01*
X353523206Y-160817450D01*
X353482343Y-160767657D01*
X353432550Y-160726794D01*
X353375743Y-160696430D01*
X353314103Y-160677732D01*
X353250000Y-160671418D01*
X351250000Y-160671418D01*
X351185897Y-160677732D01*
X351124257Y-160696430D01*
X351067450Y-160726794D01*
X351017657Y-160767657D01*
X350976794Y-160817450D01*
X350946430Y-160874257D01*
X350927732Y-160935897D01*
X350921418Y-161000000D01*
X348102000Y-161000000D01*
X348102000Y-149162900D01*
X354908000Y-149162900D01*
X354908000Y-149437100D01*
X354961494Y-149706031D01*
X355066426Y-149959359D01*
X355218763Y-150187348D01*
X355412652Y-150381237D01*
X355640641Y-150533574D01*
X355893969Y-150638506D01*
X356162900Y-150692000D01*
X356437100Y-150692000D01*
X356706031Y-150638506D01*
X356959359Y-150533574D01*
X357187348Y-150381237D01*
X357381237Y-150187348D01*
X357533574Y-149959359D01*
X357638506Y-149706031D01*
X357692000Y-149437100D01*
X357692000Y-149162900D01*
X357638506Y-148893969D01*
X357533574Y-148640641D01*
X357381237Y-148412652D01*
X357187348Y-148218763D01*
X356959359Y-148066426D01*
X356706031Y-147961494D01*
X356437100Y-147908000D01*
X356162900Y-147908000D01*
X355893969Y-147961494D01*
X355640641Y-148066426D01*
X355412652Y-148218763D01*
X355218763Y-148412652D01*
X355066426Y-148640641D01*
X354961494Y-148893969D01*
X354908000Y-149162900D01*
X348102000Y-149162900D01*
X348102000Y-147115000D01*
X355006418Y-147115000D01*
X355012732Y-147179103D01*
X355031430Y-147240743D01*
X355061794Y-147297550D01*
X355102657Y-147347343D01*
X355152450Y-147388206D01*
X355209257Y-147418570D01*
X355270897Y-147437268D01*
X355335000Y-147443582D01*
X356091250Y-147442000D01*
X356173000Y-147360250D01*
X356173000Y-146327000D01*
X356427000Y-146327000D01*
X356427000Y-147360250D01*
X356508750Y-147442000D01*
X357265000Y-147443582D01*
X357329103Y-147437268D01*
X357390743Y-147418570D01*
X357447550Y-147388206D01*
X357497343Y-147347343D01*
X357538206Y-147297550D01*
X357568570Y-147240743D01*
X357587268Y-147179103D01*
X357593582Y-147115000D01*
X357592000Y-146408750D01*
X357510250Y-146327000D01*
X356427000Y-146327000D01*
X356173000Y-146327000D01*
X355089750Y-146327000D01*
X355008000Y-146408750D01*
X355006418Y-147115000D01*
X348102000Y-147115000D01*
X348102000Y-145285000D01*
X355006418Y-145285000D01*
X355008000Y-145991250D01*
X355089750Y-146073000D01*
X356173000Y-146073000D01*
X356173000Y-145039750D01*
X356427000Y-145039750D01*
X356427000Y-146073000D01*
X357510250Y-146073000D01*
X357592000Y-145991250D01*
X357593582Y-145285000D01*
X357587268Y-145220897D01*
X357568570Y-145159257D01*
X357538206Y-145102450D01*
X357497343Y-145052657D01*
X357447550Y-145011794D01*
X357390743Y-144981430D01*
X357329103Y-144962732D01*
X357265000Y-144956418D01*
X356508750Y-144958000D01*
X356427000Y-145039750D01*
X356173000Y-145039750D01*
X356091250Y-144958000D01*
X355335000Y-144956418D01*
X355270897Y-144962732D01*
X355209257Y-144981430D01*
X355152450Y-145011794D01*
X355102657Y-145052657D01*
X355061794Y-145102450D01*
X355031430Y-145159257D01*
X355012732Y-145220897D01*
X355006418Y-145285000D01*
X348102000Y-145285000D01*
X348102000Y-141000000D01*
X350921418Y-141000000D01*
X350921418Y-143000000D01*
X350927732Y-143064103D01*
X350946430Y-143125743D01*
X350976794Y-143182550D01*
X351017657Y-143232343D01*
X351067450Y-143273206D01*
X351124257Y-143303570D01*
X351185897Y-143322268D01*
X351250000Y-143328582D01*
X353250000Y-143328582D01*
X353314103Y-143322268D01*
X353375743Y-143303570D01*
X353432550Y-143273206D01*
X353482343Y-143232343D01*
X353523206Y-143182550D01*
X353553570Y-143125743D01*
X353572268Y-143064103D01*
X353578582Y-143000000D01*
X353578582Y-142452000D01*
X354477795Y-142452000D01*
X354500000Y-142454187D01*
X354522205Y-142452000D01*
X354588607Y-142445460D01*
X354673810Y-142419614D01*
X354752333Y-142377643D01*
X354821159Y-142321159D01*
X354835323Y-142303900D01*
X356603912Y-140535313D01*
X356621159Y-140521159D01*
X356677643Y-140452333D01*
X356719614Y-140373810D01*
X356745460Y-140288607D01*
X356752000Y-140222205D01*
X356752000Y-140222204D01*
X356754187Y-140200001D01*
X356752000Y-140177796D01*
X356752000Y-138919465D01*
X356959359Y-138833574D01*
X357187348Y-138681237D01*
X357381237Y-138487348D01*
X357533574Y-138259359D01*
X357638506Y-138006031D01*
X357692000Y-137737100D01*
X357692000Y-137462900D01*
X357638506Y-137193969D01*
X357533574Y-136940641D01*
X357381237Y-136712652D01*
X357187348Y-136518763D01*
X356959359Y-136366426D01*
X356706031Y-136261494D01*
X356437100Y-136208000D01*
X356162900Y-136208000D01*
X355893969Y-136261494D01*
X355640641Y-136366426D01*
X355412652Y-136518763D01*
X355218763Y-136712652D01*
X355066426Y-136940641D01*
X354961494Y-137193969D01*
X354908000Y-137462900D01*
X354908000Y-137737100D01*
X354961494Y-138006031D01*
X355066426Y-138259359D01*
X355218763Y-138487348D01*
X355412652Y-138681237D01*
X355640641Y-138833574D01*
X355848000Y-138919465D01*
X355848000Y-140012775D01*
X354312777Y-141548000D01*
X353578582Y-141548000D01*
X353578582Y-141000000D01*
X353572268Y-140935897D01*
X353553570Y-140874257D01*
X353523206Y-140817450D01*
X353482343Y-140767657D01*
X353432550Y-140726794D01*
X353375743Y-140696430D01*
X353314103Y-140677732D01*
X353250000Y-140671418D01*
X351250000Y-140671418D01*
X351185897Y-140677732D01*
X351124257Y-140696430D01*
X351067450Y-140726794D01*
X351017657Y-140767657D01*
X350976794Y-140817450D01*
X350946430Y-140874257D01*
X350927732Y-140935897D01*
X350921418Y-141000000D01*
X348102000Y-141000000D01*
X348102000Y-129162900D01*
X354908000Y-129162900D01*
X354908000Y-129437100D01*
X354961494Y-129706031D01*
X355066426Y-129959359D01*
X355218763Y-130187348D01*
X355412652Y-130381237D01*
X355640641Y-130533574D01*
X355893969Y-130638506D01*
X356162900Y-130692000D01*
X356437100Y-130692000D01*
X356706031Y-130638506D01*
X356959359Y-130533574D01*
X357187348Y-130381237D01*
X357381237Y-130187348D01*
X357533574Y-129959359D01*
X357638506Y-129706031D01*
X357692000Y-129437100D01*
X357692000Y-129162900D01*
X357638506Y-128893969D01*
X357533574Y-128640641D01*
X357381237Y-128412652D01*
X357187348Y-128218763D01*
X356959359Y-128066426D01*
X356706031Y-127961494D01*
X356437100Y-127908000D01*
X356162900Y-127908000D01*
X355893969Y-127961494D01*
X355640641Y-128066426D01*
X355412652Y-128218763D01*
X355218763Y-128412652D01*
X355066426Y-128640641D01*
X354961494Y-128893969D01*
X354908000Y-129162900D01*
X348102000Y-129162900D01*
X348102000Y-127115000D01*
X355006418Y-127115000D01*
X355012732Y-127179103D01*
X355031430Y-127240743D01*
X355061794Y-127297550D01*
X355102657Y-127347343D01*
X355152450Y-127388206D01*
X355209257Y-127418570D01*
X355270897Y-127437268D01*
X355335000Y-127443582D01*
X356091250Y-127442000D01*
X356173000Y-127360250D01*
X356173000Y-126327000D01*
X356427000Y-126327000D01*
X356427000Y-127360250D01*
X356508750Y-127442000D01*
X357265000Y-127443582D01*
X357329103Y-127437268D01*
X357390743Y-127418570D01*
X357447550Y-127388206D01*
X357497343Y-127347343D01*
X357538206Y-127297550D01*
X357568570Y-127240743D01*
X357587268Y-127179103D01*
X357593582Y-127115000D01*
X357592000Y-126408750D01*
X357510250Y-126327000D01*
X356427000Y-126327000D01*
X356173000Y-126327000D01*
X355089750Y-126327000D01*
X355008000Y-126408750D01*
X355006418Y-127115000D01*
X348102000Y-127115000D01*
X348102000Y-125285000D01*
X355006418Y-125285000D01*
X355008000Y-125991250D01*
X355089750Y-126073000D01*
X356173000Y-126073000D01*
X356173000Y-125039750D01*
X356427000Y-125039750D01*
X356427000Y-126073000D01*
X357510250Y-126073000D01*
X357592000Y-125991250D01*
X357593582Y-125285000D01*
X357587268Y-125220897D01*
X357568570Y-125159257D01*
X357538206Y-125102450D01*
X357497343Y-125052657D01*
X357447550Y-125011794D01*
X357390743Y-124981430D01*
X357329103Y-124962732D01*
X357265000Y-124956418D01*
X356508750Y-124958000D01*
X356427000Y-125039750D01*
X356173000Y-125039750D01*
X356091250Y-124958000D01*
X355335000Y-124956418D01*
X355270897Y-124962732D01*
X355209257Y-124981430D01*
X355152450Y-125011794D01*
X355102657Y-125052657D01*
X355061794Y-125102450D01*
X355031430Y-125159257D01*
X355012732Y-125220897D01*
X355006418Y-125285000D01*
X348102000Y-125285000D01*
X348102000Y-120152000D01*
X366898001Y-120152000D01*
X366898000Y-286048000D01*
%TD*%
M02*
