%TF.GenerationSoftware,KiCad,Pcbnew,(5.1.6)-1*%
%TF.CreationDate,2020-06-19T12:49:59-05:00*%
%TF.ProjectId,JMBLR Panel,4a4d424c-5220-4506-916e-656c2e6b6963,rev?*%
%TF.SameCoordinates,Original*%
%TF.FileFunction,Soldermask,Bot*%
%TF.FilePolarity,Negative*%
%FSLAX46Y46*%
G04 Gerber Fmt 4.6, Leading zero omitted, Abs format (unit mm)*
G04 Created by KiCad (PCBNEW (5.1.6)-1) date 2020-06-19 12:49:59*
%MOMM*%
%LPD*%
G01*
G04 APERTURE LIST*
%ADD10C,0.750000*%
%ADD11C,0.150000*%
%ADD12C,0.010000*%
%ADD13C,10.100000*%
%ADD14C,7.000000*%
%ADD15C,14.100000*%
%ADD16O,7.000000X4.000000*%
G04 APERTURE END LIST*
D10*
X220000000Y-209750000D02*
X229500000Y-209750000D01*
X220000000Y-189750000D02*
X229500000Y-189750000D01*
X220000000Y-169750000D02*
X229500000Y-169750000D01*
X220000000Y-149750000D02*
X229500000Y-149750000D01*
X220000000Y-129500000D02*
X229500000Y-129500000D01*
X220000000Y-109500000D02*
X229500000Y-109500000D01*
X220000000Y-89750000D02*
X229500000Y-89750000D01*
X209250000Y-209750000D02*
X213000000Y-209750000D01*
X209250000Y-189750000D02*
X213000000Y-189750000D01*
X209250000Y-169750000D02*
X213000000Y-169750000D01*
X209250000Y-149750000D02*
X213000000Y-149750000D01*
X209250000Y-129500000D02*
X213000000Y-129500000D01*
X209250000Y-109500000D02*
X213000000Y-109500000D01*
X209250000Y-89750000D02*
X213000000Y-89750000D01*
X220000000Y-69750000D02*
X229500000Y-69750000D01*
X209250000Y-69750000D02*
X213000000Y-69750000D01*
D11*
X223250000Y-54250000D02*
X220250000Y-52500000D01*
X223500000Y-50750000D02*
X223500000Y-58000000D01*
X227750000Y-54500000D02*
X229250000Y-51000000D01*
X223500000Y-58000000D02*
X220250000Y-56000000D01*
X220250000Y-52500000D02*
X223500000Y-50750000D01*
X226000000Y-51250000D02*
X227750000Y-54500000D01*
X219250000Y-57250000D02*
X219250000Y-50750000D01*
X215000000Y-50750000D02*
X214500000Y-58000000D01*
X214750000Y-54500000D02*
X211500000Y-52500000D01*
X220250000Y-56000000D02*
X223250000Y-54250000D01*
X215000000Y-50750000D02*
X211500000Y-52500000D01*
X225250000Y-57500000D02*
X226000000Y-51250000D01*
X210000000Y-57750000D02*
X214750000Y-54500000D01*
X231250000Y-57750000D02*
X235250000Y-56250000D01*
X232250000Y-51250000D02*
X231250000Y-57750000D01*
X229250000Y-51000000D02*
X230250000Y-57500000D01*
X219250000Y-57250000D02*
X215500000Y-56250000D01*
D12*
%TO.C,G\u002A\u002A\u002A*%
G36*
X215505055Y-219732054D02*
G01*
X215509978Y-219751559D01*
X215514410Y-219784752D01*
X215518395Y-219834225D01*
X215521982Y-219902566D01*
X215525218Y-219992366D01*
X215528149Y-220106214D01*
X215530821Y-220246700D01*
X215533283Y-220416415D01*
X215535581Y-220617948D01*
X215537761Y-220853889D01*
X215539871Y-221126828D01*
X215541958Y-221439355D01*
X215544068Y-221794060D01*
X215546249Y-222193532D01*
X215548547Y-222640362D01*
X215549384Y-222807756D01*
X215551282Y-223200832D01*
X215552997Y-223579632D01*
X215554522Y-223941064D01*
X215555848Y-224282041D01*
X215556968Y-224599474D01*
X215557873Y-224890273D01*
X215558554Y-225151349D01*
X215559005Y-225379613D01*
X215559215Y-225571975D01*
X215559178Y-225725348D01*
X215558885Y-225836641D01*
X215558328Y-225902766D01*
X215557651Y-225921144D01*
X215539610Y-225904516D01*
X215491043Y-225854049D01*
X215415538Y-225773614D01*
X215316679Y-225667085D01*
X215198053Y-225538333D01*
X215063248Y-225391231D01*
X214915848Y-225229651D01*
X214840162Y-225146422D01*
X214477387Y-224746582D01*
X214148424Y-224382958D01*
X213852410Y-224054575D01*
X213588478Y-223760457D01*
X213355763Y-223499627D01*
X213153400Y-223271111D01*
X212980524Y-223073932D01*
X212836270Y-222907115D01*
X212719772Y-222769684D01*
X212630166Y-222660663D01*
X212582676Y-222600334D01*
X212494230Y-222461513D01*
X212455631Y-222345117D01*
X212978716Y-222345117D01*
X212987113Y-222371991D01*
X213010969Y-222411410D01*
X213053760Y-222468292D01*
X213118963Y-222547557D01*
X213210054Y-222654126D01*
X213330508Y-222792917D01*
X213360200Y-222827007D01*
X213476354Y-222959596D01*
X213619271Y-223121551D01*
X213781560Y-223304562D01*
X213955828Y-223500323D01*
X214134684Y-223700526D01*
X214310736Y-223896863D01*
X214433274Y-224033016D01*
X215097197Y-224769386D01*
X215105140Y-223384668D01*
X215106376Y-223095540D01*
X215106868Y-222798825D01*
X215106652Y-222502769D01*
X215105765Y-222215622D01*
X215104243Y-221945629D01*
X215102123Y-221701039D01*
X215099441Y-221490099D01*
X215096234Y-221321056D01*
X215095937Y-221308842D01*
X215078792Y-220617734D01*
X214706613Y-220912684D01*
X214554292Y-221033862D01*
X214388295Y-221166731D01*
X214213291Y-221307485D01*
X214033944Y-221452317D01*
X213854923Y-221597421D01*
X213680894Y-221738991D01*
X213516525Y-221873218D01*
X213366480Y-221996297D01*
X213235429Y-222104422D01*
X213128037Y-222193784D01*
X213048971Y-222260578D01*
X213002898Y-222300998D01*
X212994393Y-222309320D01*
X212982302Y-222325866D01*
X212978716Y-222345117D01*
X212455631Y-222345117D01*
X212453246Y-222337926D01*
X212459939Y-222230323D01*
X212469682Y-222204692D01*
X212499309Y-222165237D01*
X212560697Y-222100999D01*
X212646232Y-222019372D01*
X212748300Y-221927749D01*
X212806243Y-221877879D01*
X212878825Y-221817244D01*
X212981929Y-221732425D01*
X213111517Y-221626660D01*
X213263551Y-221503185D01*
X213433993Y-221365237D01*
X213618805Y-221216053D01*
X213813948Y-221058870D01*
X214015386Y-220896925D01*
X214219079Y-220733455D01*
X214420989Y-220571696D01*
X214617080Y-220414885D01*
X214803311Y-220266260D01*
X214975647Y-220129057D01*
X215130047Y-220006514D01*
X215262475Y-219901866D01*
X215368893Y-219818351D01*
X215445262Y-219759206D01*
X215487544Y-219727668D01*
X215493543Y-219723750D01*
X215499592Y-219723647D01*
X215505055Y-219732054D01*
G37*
X215505055Y-219732054D02*
X215509978Y-219751559D01*
X215514410Y-219784752D01*
X215518395Y-219834225D01*
X215521982Y-219902566D01*
X215525218Y-219992366D01*
X215528149Y-220106214D01*
X215530821Y-220246700D01*
X215533283Y-220416415D01*
X215535581Y-220617948D01*
X215537761Y-220853889D01*
X215539871Y-221126828D01*
X215541958Y-221439355D01*
X215544068Y-221794060D01*
X215546249Y-222193532D01*
X215548547Y-222640362D01*
X215549384Y-222807756D01*
X215551282Y-223200832D01*
X215552997Y-223579632D01*
X215554522Y-223941064D01*
X215555848Y-224282041D01*
X215556968Y-224599474D01*
X215557873Y-224890273D01*
X215558554Y-225151349D01*
X215559005Y-225379613D01*
X215559215Y-225571975D01*
X215559178Y-225725348D01*
X215558885Y-225836641D01*
X215558328Y-225902766D01*
X215557651Y-225921144D01*
X215539610Y-225904516D01*
X215491043Y-225854049D01*
X215415538Y-225773614D01*
X215316679Y-225667085D01*
X215198053Y-225538333D01*
X215063248Y-225391231D01*
X214915848Y-225229651D01*
X214840162Y-225146422D01*
X214477387Y-224746582D01*
X214148424Y-224382958D01*
X213852410Y-224054575D01*
X213588478Y-223760457D01*
X213355763Y-223499627D01*
X213153400Y-223271111D01*
X212980524Y-223073932D01*
X212836270Y-222907115D01*
X212719772Y-222769684D01*
X212630166Y-222660663D01*
X212582676Y-222600334D01*
X212494230Y-222461513D01*
X212455631Y-222345117D01*
X212978716Y-222345117D01*
X212987113Y-222371991D01*
X213010969Y-222411410D01*
X213053760Y-222468292D01*
X213118963Y-222547557D01*
X213210054Y-222654126D01*
X213330508Y-222792917D01*
X213360200Y-222827007D01*
X213476354Y-222959596D01*
X213619271Y-223121551D01*
X213781560Y-223304562D01*
X213955828Y-223500323D01*
X214134684Y-223700526D01*
X214310736Y-223896863D01*
X214433274Y-224033016D01*
X215097197Y-224769386D01*
X215105140Y-223384668D01*
X215106376Y-223095540D01*
X215106868Y-222798825D01*
X215106652Y-222502769D01*
X215105765Y-222215622D01*
X215104243Y-221945629D01*
X215102123Y-221701039D01*
X215099441Y-221490099D01*
X215096234Y-221321056D01*
X215095937Y-221308842D01*
X215078792Y-220617734D01*
X214706613Y-220912684D01*
X214554292Y-221033862D01*
X214388295Y-221166731D01*
X214213291Y-221307485D01*
X214033944Y-221452317D01*
X213854923Y-221597421D01*
X213680894Y-221738991D01*
X213516525Y-221873218D01*
X213366480Y-221996297D01*
X213235429Y-222104422D01*
X213128037Y-222193784D01*
X213048971Y-222260578D01*
X213002898Y-222300998D01*
X212994393Y-222309320D01*
X212982302Y-222325866D01*
X212978716Y-222345117D01*
X212455631Y-222345117D01*
X212453246Y-222337926D01*
X212459939Y-222230323D01*
X212469682Y-222204692D01*
X212499309Y-222165237D01*
X212560697Y-222100999D01*
X212646232Y-222019372D01*
X212748300Y-221927749D01*
X212806243Y-221877879D01*
X212878825Y-221817244D01*
X212981929Y-221732425D01*
X213111517Y-221626660D01*
X213263551Y-221503185D01*
X213433993Y-221365237D01*
X213618805Y-221216053D01*
X213813948Y-221058870D01*
X214015386Y-220896925D01*
X214219079Y-220733455D01*
X214420989Y-220571696D01*
X214617080Y-220414885D01*
X214803311Y-220266260D01*
X214975647Y-220129057D01*
X215130047Y-220006514D01*
X215262475Y-219901866D01*
X215368893Y-219818351D01*
X215445262Y-219759206D01*
X215487544Y-219727668D01*
X215493543Y-219723750D01*
X215499592Y-219723647D01*
X215505055Y-219732054D01*
G36*
X219792086Y-220022356D02*
G01*
X219870894Y-220044715D01*
X219929575Y-220063152D01*
X220032881Y-220098496D01*
X220094762Y-220126861D01*
X220123326Y-220152775D01*
X220127727Y-220173792D01*
X220124658Y-220205689D01*
X220116862Y-220284357D01*
X220104725Y-220405974D01*
X220088628Y-220566717D01*
X220068958Y-220762764D01*
X220046097Y-220990292D01*
X220020430Y-221245479D01*
X219992340Y-221524503D01*
X219962211Y-221823540D01*
X219930428Y-222138770D01*
X219911611Y-222325296D01*
X219699199Y-224430423D01*
X219495796Y-224413560D01*
X219398542Y-224403784D01*
X219321733Y-224392869D01*
X219278783Y-224382817D01*
X219274833Y-224380605D01*
X219274270Y-224353154D01*
X219278618Y-224279458D01*
X219287488Y-224163847D01*
X219300489Y-224010650D01*
X219317230Y-223824196D01*
X219337322Y-223608816D01*
X219360373Y-223368838D01*
X219385994Y-223108591D01*
X219413794Y-222832404D01*
X219419538Y-222776052D01*
X219447846Y-222497447D01*
X219474308Y-222234117D01*
X219498511Y-221990365D01*
X219520040Y-221770498D01*
X219538484Y-221578818D01*
X219553428Y-221419629D01*
X219564459Y-221297237D01*
X219571164Y-221215945D01*
X219573130Y-221180058D01*
X219572914Y-221178703D01*
X219571055Y-221176957D01*
X219568367Y-221177228D01*
X219563409Y-221182002D01*
X219554742Y-221193767D01*
X219540924Y-221215011D01*
X219520516Y-221248219D01*
X219492076Y-221295881D01*
X219454164Y-221360482D01*
X219405341Y-221444510D01*
X219344165Y-221550452D01*
X219269195Y-221680796D01*
X219178992Y-221838029D01*
X219072116Y-222024637D01*
X218947124Y-222243109D01*
X218802578Y-222495931D01*
X218637037Y-222785591D01*
X218449059Y-223114576D01*
X218250610Y-223461911D01*
X218082963Y-223755213D01*
X217922326Y-224036007D01*
X217770513Y-224301138D01*
X217629337Y-224547450D01*
X217500612Y-224771788D01*
X217386151Y-224970996D01*
X217287766Y-225141919D01*
X217207272Y-225281400D01*
X217146481Y-225386285D01*
X217107207Y-225453417D01*
X217091262Y-225479640D01*
X217091156Y-225479770D01*
X217078231Y-225469577D01*
X217064789Y-225420335D01*
X217056551Y-225365356D01*
X217052241Y-225318849D01*
X217044700Y-225227734D01*
X217034241Y-225096231D01*
X217021177Y-224928558D01*
X217005821Y-224728935D01*
X216988485Y-224501580D01*
X216969483Y-224250712D01*
X216949126Y-223980550D01*
X216927728Y-223695313D01*
X216905602Y-223399219D01*
X216883060Y-223096488D01*
X216860415Y-222791338D01*
X216837980Y-222487989D01*
X216816068Y-222190658D01*
X216794990Y-221903565D01*
X216775061Y-221630929D01*
X216756593Y-221376969D01*
X216739899Y-221145903D01*
X216725291Y-220941951D01*
X216713082Y-220769330D01*
X216703585Y-220632261D01*
X216697112Y-220534961D01*
X216693977Y-220481651D01*
X216693822Y-220472537D01*
X216719708Y-220469103D01*
X216784341Y-220463177D01*
X216875738Y-220455822D01*
X216916020Y-220452799D01*
X217133041Y-220436827D01*
X217255532Y-222108278D01*
X217276915Y-222398560D01*
X217297614Y-222676645D01*
X217317270Y-222937923D01*
X217335527Y-223177782D01*
X217352029Y-223391610D01*
X217366418Y-223574797D01*
X217378338Y-223722731D01*
X217387432Y-223830800D01*
X217393342Y-223894394D01*
X217394603Y-223905375D01*
X217411185Y-224031021D01*
X218539133Y-222056418D01*
X218706145Y-221764173D01*
X218866358Y-221484072D01*
X219017925Y-221219330D01*
X219158999Y-220973163D01*
X219287733Y-220748786D01*
X219402279Y-220549413D01*
X219500792Y-220378260D01*
X219581423Y-220238541D01*
X219642326Y-220133472D01*
X219681654Y-220066267D01*
X219697400Y-220040353D01*
X219716447Y-220021265D01*
X219744307Y-220014903D01*
X219792086Y-220022356D01*
G37*
X219792086Y-220022356D02*
X219870894Y-220044715D01*
X219929575Y-220063152D01*
X220032881Y-220098496D01*
X220094762Y-220126861D01*
X220123326Y-220152775D01*
X220127727Y-220173792D01*
X220124658Y-220205689D01*
X220116862Y-220284357D01*
X220104725Y-220405974D01*
X220088628Y-220566717D01*
X220068958Y-220762764D01*
X220046097Y-220990292D01*
X220020430Y-221245479D01*
X219992340Y-221524503D01*
X219962211Y-221823540D01*
X219930428Y-222138770D01*
X219911611Y-222325296D01*
X219699199Y-224430423D01*
X219495796Y-224413560D01*
X219398542Y-224403784D01*
X219321733Y-224392869D01*
X219278783Y-224382817D01*
X219274833Y-224380605D01*
X219274270Y-224353154D01*
X219278618Y-224279458D01*
X219287488Y-224163847D01*
X219300489Y-224010650D01*
X219317230Y-223824196D01*
X219337322Y-223608816D01*
X219360373Y-223368838D01*
X219385994Y-223108591D01*
X219413794Y-222832404D01*
X219419538Y-222776052D01*
X219447846Y-222497447D01*
X219474308Y-222234117D01*
X219498511Y-221990365D01*
X219520040Y-221770498D01*
X219538484Y-221578818D01*
X219553428Y-221419629D01*
X219564459Y-221297237D01*
X219571164Y-221215945D01*
X219573130Y-221180058D01*
X219572914Y-221178703D01*
X219571055Y-221176957D01*
X219568367Y-221177228D01*
X219563409Y-221182002D01*
X219554742Y-221193767D01*
X219540924Y-221215011D01*
X219520516Y-221248219D01*
X219492076Y-221295881D01*
X219454164Y-221360482D01*
X219405341Y-221444510D01*
X219344165Y-221550452D01*
X219269195Y-221680796D01*
X219178992Y-221838029D01*
X219072116Y-222024637D01*
X218947124Y-222243109D01*
X218802578Y-222495931D01*
X218637037Y-222785591D01*
X218449059Y-223114576D01*
X218250610Y-223461911D01*
X218082963Y-223755213D01*
X217922326Y-224036007D01*
X217770513Y-224301138D01*
X217629337Y-224547450D01*
X217500612Y-224771788D01*
X217386151Y-224970996D01*
X217287766Y-225141919D01*
X217207272Y-225281400D01*
X217146481Y-225386285D01*
X217107207Y-225453417D01*
X217091262Y-225479640D01*
X217091156Y-225479770D01*
X217078231Y-225469577D01*
X217064789Y-225420335D01*
X217056551Y-225365356D01*
X217052241Y-225318849D01*
X217044700Y-225227734D01*
X217034241Y-225096231D01*
X217021177Y-224928558D01*
X217005821Y-224728935D01*
X216988485Y-224501580D01*
X216969483Y-224250712D01*
X216949126Y-223980550D01*
X216927728Y-223695313D01*
X216905602Y-223399219D01*
X216883060Y-223096488D01*
X216860415Y-222791338D01*
X216837980Y-222487989D01*
X216816068Y-222190658D01*
X216794990Y-221903565D01*
X216775061Y-221630929D01*
X216756593Y-221376969D01*
X216739899Y-221145903D01*
X216725291Y-220941951D01*
X216713082Y-220769330D01*
X216703585Y-220632261D01*
X216697112Y-220534961D01*
X216693977Y-220481651D01*
X216693822Y-220472537D01*
X216719708Y-220469103D01*
X216784341Y-220463177D01*
X216875738Y-220455822D01*
X216916020Y-220452799D01*
X217133041Y-220436827D01*
X217255532Y-222108278D01*
X217276915Y-222398560D01*
X217297614Y-222676645D01*
X217317270Y-222937923D01*
X217335527Y-223177782D01*
X217352029Y-223391610D01*
X217366418Y-223574797D01*
X217378338Y-223722731D01*
X217387432Y-223830800D01*
X217393342Y-223894394D01*
X217394603Y-223905375D01*
X217411185Y-224031021D01*
X218539133Y-222056418D01*
X218706145Y-221764173D01*
X218866358Y-221484072D01*
X219017925Y-221219330D01*
X219158999Y-220973163D01*
X219287733Y-220748786D01*
X219402279Y-220549413D01*
X219500792Y-220378260D01*
X219581423Y-220238541D01*
X219642326Y-220133472D01*
X219681654Y-220066267D01*
X219697400Y-220040353D01*
X219716447Y-220021265D01*
X219744307Y-220014903D01*
X219792086Y-220022356D01*
G36*
X223358202Y-220229277D02*
G01*
X223401566Y-220288706D01*
X223466916Y-220382601D01*
X223551584Y-220506876D01*
X223652906Y-220657449D01*
X223768215Y-220830236D01*
X223894846Y-221021154D01*
X224030133Y-221226118D01*
X224171411Y-221441046D01*
X224316014Y-221661853D01*
X224461276Y-221884457D01*
X224604531Y-222104772D01*
X224743115Y-222318717D01*
X224874361Y-222522208D01*
X224995603Y-222711160D01*
X225104176Y-222881490D01*
X225197414Y-223029116D01*
X225272652Y-223149952D01*
X225327224Y-223239916D01*
X225358464Y-223294923D01*
X225364836Y-223311050D01*
X225340151Y-223324411D01*
X225273978Y-223358016D01*
X225170439Y-223409841D01*
X225033656Y-223477862D01*
X224867753Y-223560056D01*
X224676852Y-223654400D01*
X224465076Y-223758871D01*
X224236549Y-223871444D01*
X223995392Y-223990098D01*
X223745729Y-224112808D01*
X223491682Y-224237551D01*
X223237375Y-224362304D01*
X222986930Y-224485043D01*
X222744470Y-224603746D01*
X222514117Y-224716388D01*
X222299995Y-224820947D01*
X222106227Y-224915399D01*
X221936934Y-224997721D01*
X221796241Y-225065890D01*
X221688270Y-225117882D01*
X221617143Y-225151673D01*
X221586984Y-225165242D01*
X221586301Y-225165415D01*
X221577910Y-225141732D01*
X221556102Y-225073346D01*
X221522102Y-224964253D01*
X221477133Y-224818448D01*
X221422416Y-224639927D01*
X221359177Y-224432686D01*
X221288637Y-224200719D01*
X221212021Y-223948022D01*
X221130550Y-223678591D01*
X221090095Y-223544544D01*
X221006777Y-223268075D01*
X220927945Y-223006043D01*
X220854805Y-222762488D01*
X220788565Y-222541453D01*
X220730431Y-222346978D01*
X220681611Y-222183104D01*
X220643312Y-222053874D01*
X220616741Y-221963327D01*
X220603106Y-221915506D01*
X220601510Y-221908933D01*
X220625637Y-221911049D01*
X220694244Y-221921438D01*
X220801815Y-221939104D01*
X220942829Y-221963054D01*
X221111769Y-221992294D01*
X221303117Y-222025831D01*
X221511353Y-222062671D01*
X221730959Y-222101819D01*
X221956417Y-222142282D01*
X222182208Y-222183066D01*
X222402814Y-222223178D01*
X222612717Y-222261623D01*
X222806397Y-222297409D01*
X222978336Y-222329540D01*
X223123016Y-222357023D01*
X223234919Y-222378864D01*
X223308525Y-222394070D01*
X223338317Y-222401647D01*
X223338603Y-222401849D01*
X223338011Y-222428614D01*
X223329369Y-222490567D01*
X223315375Y-222573196D01*
X223298727Y-222661987D01*
X223282122Y-222742426D01*
X223268257Y-222800000D01*
X223260894Y-222819903D01*
X223234617Y-222817614D01*
X223163702Y-222807021D01*
X223053520Y-222789041D01*
X222909440Y-222764588D01*
X222736834Y-222734579D01*
X222541072Y-222699928D01*
X222327523Y-222661552D01*
X222254455Y-222648298D01*
X222036184Y-222608925D01*
X221833884Y-222573036D01*
X221652933Y-222541537D01*
X221498710Y-222515340D01*
X221376594Y-222495353D01*
X221291964Y-222482486D01*
X221250199Y-222477647D01*
X221246746Y-222477961D01*
X221251824Y-222503304D01*
X221269948Y-222571101D01*
X221299272Y-222675182D01*
X221337950Y-222809380D01*
X221384136Y-222967527D01*
X221435984Y-223143454D01*
X221491647Y-223330993D01*
X221549280Y-223523976D01*
X221607037Y-223716234D01*
X221663072Y-223901601D01*
X221715538Y-224073906D01*
X221762590Y-224226983D01*
X221802381Y-224354663D01*
X221833065Y-224450777D01*
X221852797Y-224509158D01*
X221859220Y-224524401D01*
X221882827Y-224515156D01*
X221947360Y-224485813D01*
X222048087Y-224438667D01*
X222180280Y-224376014D01*
X222339208Y-224300148D01*
X222520140Y-224213364D01*
X222718348Y-224117957D01*
X222929100Y-224016221D01*
X223147667Y-223910452D01*
X223369318Y-223802943D01*
X223589324Y-223695991D01*
X223802954Y-223591890D01*
X224005479Y-223492934D01*
X224192168Y-223401418D01*
X224358292Y-223319638D01*
X224499119Y-223249887D01*
X224609921Y-223194462D01*
X224685967Y-223155656D01*
X224722527Y-223135765D01*
X224724808Y-223134148D01*
X224714112Y-223110817D01*
X224677566Y-223048762D01*
X224617488Y-222951597D01*
X224536193Y-222822936D01*
X224435998Y-222666394D01*
X224319219Y-222485585D01*
X224188171Y-222284123D01*
X224045172Y-222065622D01*
X223892537Y-221833697D01*
X223854749Y-221776471D01*
X222967890Y-220434274D01*
X223143202Y-220320866D01*
X223226733Y-220268488D01*
X223294325Y-220229170D01*
X223334503Y-220209488D01*
X223339487Y-220208395D01*
X223358202Y-220229277D01*
G37*
X223358202Y-220229277D02*
X223401566Y-220288706D01*
X223466916Y-220382601D01*
X223551584Y-220506876D01*
X223652906Y-220657449D01*
X223768215Y-220830236D01*
X223894846Y-221021154D01*
X224030133Y-221226118D01*
X224171411Y-221441046D01*
X224316014Y-221661853D01*
X224461276Y-221884457D01*
X224604531Y-222104772D01*
X224743115Y-222318717D01*
X224874361Y-222522208D01*
X224995603Y-222711160D01*
X225104176Y-222881490D01*
X225197414Y-223029116D01*
X225272652Y-223149952D01*
X225327224Y-223239916D01*
X225358464Y-223294923D01*
X225364836Y-223311050D01*
X225340151Y-223324411D01*
X225273978Y-223358016D01*
X225170439Y-223409841D01*
X225033656Y-223477862D01*
X224867753Y-223560056D01*
X224676852Y-223654400D01*
X224465076Y-223758871D01*
X224236549Y-223871444D01*
X223995392Y-223990098D01*
X223745729Y-224112808D01*
X223491682Y-224237551D01*
X223237375Y-224362304D01*
X222986930Y-224485043D01*
X222744470Y-224603746D01*
X222514117Y-224716388D01*
X222299995Y-224820947D01*
X222106227Y-224915399D01*
X221936934Y-224997721D01*
X221796241Y-225065890D01*
X221688270Y-225117882D01*
X221617143Y-225151673D01*
X221586984Y-225165242D01*
X221586301Y-225165415D01*
X221577910Y-225141732D01*
X221556102Y-225073346D01*
X221522102Y-224964253D01*
X221477133Y-224818448D01*
X221422416Y-224639927D01*
X221359177Y-224432686D01*
X221288637Y-224200719D01*
X221212021Y-223948022D01*
X221130550Y-223678591D01*
X221090095Y-223544544D01*
X221006777Y-223268075D01*
X220927945Y-223006043D01*
X220854805Y-222762488D01*
X220788565Y-222541453D01*
X220730431Y-222346978D01*
X220681611Y-222183104D01*
X220643312Y-222053874D01*
X220616741Y-221963327D01*
X220603106Y-221915506D01*
X220601510Y-221908933D01*
X220625637Y-221911049D01*
X220694244Y-221921438D01*
X220801815Y-221939104D01*
X220942829Y-221963054D01*
X221111769Y-221992294D01*
X221303117Y-222025831D01*
X221511353Y-222062671D01*
X221730959Y-222101819D01*
X221956417Y-222142282D01*
X222182208Y-222183066D01*
X222402814Y-222223178D01*
X222612717Y-222261623D01*
X222806397Y-222297409D01*
X222978336Y-222329540D01*
X223123016Y-222357023D01*
X223234919Y-222378864D01*
X223308525Y-222394070D01*
X223338317Y-222401647D01*
X223338603Y-222401849D01*
X223338011Y-222428614D01*
X223329369Y-222490567D01*
X223315375Y-222573196D01*
X223298727Y-222661987D01*
X223282122Y-222742426D01*
X223268257Y-222800000D01*
X223260894Y-222819903D01*
X223234617Y-222817614D01*
X223163702Y-222807021D01*
X223053520Y-222789041D01*
X222909440Y-222764588D01*
X222736834Y-222734579D01*
X222541072Y-222699928D01*
X222327523Y-222661552D01*
X222254455Y-222648298D01*
X222036184Y-222608925D01*
X221833884Y-222573036D01*
X221652933Y-222541537D01*
X221498710Y-222515340D01*
X221376594Y-222495353D01*
X221291964Y-222482486D01*
X221250199Y-222477647D01*
X221246746Y-222477961D01*
X221251824Y-222503304D01*
X221269948Y-222571101D01*
X221299272Y-222675182D01*
X221337950Y-222809380D01*
X221384136Y-222967527D01*
X221435984Y-223143454D01*
X221491647Y-223330993D01*
X221549280Y-223523976D01*
X221607037Y-223716234D01*
X221663072Y-223901601D01*
X221715538Y-224073906D01*
X221762590Y-224226983D01*
X221802381Y-224354663D01*
X221833065Y-224450777D01*
X221852797Y-224509158D01*
X221859220Y-224524401D01*
X221882827Y-224515156D01*
X221947360Y-224485813D01*
X222048087Y-224438667D01*
X222180280Y-224376014D01*
X222339208Y-224300148D01*
X222520140Y-224213364D01*
X222718348Y-224117957D01*
X222929100Y-224016221D01*
X223147667Y-223910452D01*
X223369318Y-223802943D01*
X223589324Y-223695991D01*
X223802954Y-223591890D01*
X224005479Y-223492934D01*
X224192168Y-223401418D01*
X224358292Y-223319638D01*
X224499119Y-223249887D01*
X224609921Y-223194462D01*
X224685967Y-223155656D01*
X224722527Y-223135765D01*
X224724808Y-223134148D01*
X224714112Y-223110817D01*
X224677566Y-223048762D01*
X224617488Y-222951597D01*
X224536193Y-222822936D01*
X224435998Y-222666394D01*
X224319219Y-222485585D01*
X224188171Y-222284123D01*
X224045172Y-222065622D01*
X223892537Y-221833697D01*
X223854749Y-221776471D01*
X222967890Y-220434274D01*
X223143202Y-220320866D01*
X223226733Y-220268488D01*
X223294325Y-220229170D01*
X223334503Y-220209488D01*
X223339487Y-220208395D01*
X223358202Y-220229277D01*
G36*
X214366293Y-232801985D02*
G01*
X214613693Y-232882263D01*
X214833664Y-233001440D01*
X215028785Y-233161705D01*
X215201637Y-233365251D01*
X215354799Y-233614268D01*
X215379742Y-233662629D01*
X215478660Y-233859342D01*
X215675591Y-233846319D01*
X215778808Y-233839089D01*
X215915125Y-233828975D01*
X216066965Y-233817305D01*
X216216752Y-233805409D01*
X216219759Y-233805165D01*
X216353088Y-233795947D01*
X216473183Y-233790550D01*
X216568399Y-233789295D01*
X216627094Y-233792503D01*
X216633711Y-233793779D01*
X216710195Y-233837052D01*
X216763976Y-233915475D01*
X216792163Y-234017364D01*
X216791864Y-234131037D01*
X216760188Y-234244811D01*
X216750437Y-234265370D01*
X216661260Y-234386598D01*
X216535336Y-234482189D01*
X216380947Y-234550134D01*
X216206375Y-234588422D01*
X216019902Y-234595045D01*
X215829811Y-234567992D01*
X215687247Y-234523369D01*
X215612211Y-234494456D01*
X215558462Y-234475152D01*
X215541050Y-234470220D01*
X215533132Y-234492714D01*
X215528267Y-234548479D01*
X215527813Y-234565565D01*
X215520443Y-234639602D01*
X215502610Y-234739963D01*
X215479672Y-234838889D01*
X215457755Y-234926466D01*
X215443297Y-234992150D01*
X215439094Y-235023103D01*
X215439398Y-235023859D01*
X215461128Y-235014785D01*
X215504654Y-234983191D01*
X215505783Y-234982278D01*
X215545047Y-234943709D01*
X215546078Y-234913240D01*
X215531697Y-234892654D01*
X215514183Y-234859637D01*
X215524724Y-234851601D01*
X215565399Y-234874164D01*
X215602140Y-234930851D01*
X215626227Y-235005163D01*
X215630981Y-235052635D01*
X215610731Y-235166099D01*
X215556299Y-235286886D01*
X215477159Y-235396242D01*
X215437624Y-235435316D01*
X215345553Y-235504678D01*
X215240002Y-235566850D01*
X215136632Y-235613968D01*
X215051110Y-235638169D01*
X215030305Y-235639790D01*
X214987404Y-235649499D01*
X214911368Y-235675103D01*
X214815290Y-235711314D01*
X214712265Y-235752845D01*
X214615386Y-235794409D01*
X214537748Y-235830718D01*
X214492443Y-235856485D01*
X214491133Y-235857505D01*
X214490651Y-235884449D01*
X214516860Y-235923703D01*
X214555096Y-235957986D01*
X214586851Y-235970320D01*
X214651716Y-235985742D01*
X214742034Y-236026940D01*
X214844898Y-236086312D01*
X214947396Y-236156256D01*
X215036620Y-236229171D01*
X215053371Y-236245037D01*
X215180933Y-236396816D01*
X215263162Y-236555653D01*
X215298805Y-236716942D01*
X215286607Y-236876081D01*
X215252494Y-236976043D01*
X215206735Y-237050528D01*
X215140354Y-237128253D01*
X215065584Y-237197834D01*
X214994654Y-237247883D01*
X214939918Y-237267017D01*
X214901591Y-237262583D01*
X214903094Y-237246698D01*
X214946925Y-237215485D01*
X214988989Y-237190940D01*
X215102362Y-237101188D01*
X215188820Y-236981758D01*
X215238055Y-236848105D01*
X215243908Y-236808796D01*
X215240995Y-236690955D01*
X215214883Y-236568828D01*
X215171104Y-236460659D01*
X215115285Y-236384777D01*
X215065266Y-236350822D01*
X214985072Y-236307905D01*
X214886311Y-236260971D01*
X214780593Y-236214966D01*
X214679528Y-236174836D01*
X214594725Y-236145526D01*
X214537795Y-236131982D01*
X214523444Y-236132654D01*
X214496807Y-236166232D01*
X214486836Y-236223262D01*
X214476968Y-236295314D01*
X214452318Y-236382165D01*
X214442373Y-236408394D01*
X214410690Y-236529522D01*
X214398035Y-236686724D01*
X214397878Y-236707657D01*
X214399609Y-236803454D01*
X214408386Y-236874998D01*
X214429529Y-236940321D01*
X214468361Y-237017455D01*
X214511418Y-237092407D01*
X214624989Y-237286466D01*
X214754706Y-237299854D01*
X214836188Y-237314139D01*
X214947290Y-237341370D01*
X215069924Y-237376884D01*
X215133339Y-237397446D01*
X215263644Y-237445211D01*
X215350411Y-237487910D01*
X215399837Y-237531072D01*
X215418121Y-237580225D01*
X215411458Y-237640900D01*
X215410477Y-237644734D01*
X215413138Y-237697461D01*
X215435351Y-237772576D01*
X215453392Y-237814468D01*
X215494798Y-237946649D01*
X215491444Y-238084877D01*
X215442814Y-238235913D01*
X215417207Y-238288823D01*
X215382118Y-238359612D01*
X215360596Y-238409266D01*
X215357011Y-238424755D01*
X215383109Y-238421928D01*
X215445428Y-238408520D01*
X215531126Y-238387326D01*
X215541992Y-238384491D01*
X215697482Y-238349759D01*
X215811217Y-238338962D01*
X215886550Y-238352567D01*
X215926835Y-238391036D01*
X215936086Y-238439038D01*
X215913353Y-238493469D01*
X215851957Y-238554567D01*
X215762101Y-238614932D01*
X215653986Y-238667159D01*
X215590594Y-238689686D01*
X215472052Y-238717020D01*
X215333711Y-238734750D01*
X215191383Y-238742258D01*
X215060877Y-238738925D01*
X214958002Y-238724132D01*
X214929910Y-238715555D01*
X214879390Y-238692207D01*
X214877567Y-238679498D01*
X214923371Y-238677628D01*
X215015731Y-238686796D01*
X215055479Y-238692169D01*
X215202263Y-238701374D01*
X215356799Y-238691357D01*
X215508435Y-238664877D01*
X215646518Y-238624692D01*
X215760392Y-238573562D01*
X215839406Y-238514245D01*
X215862013Y-238483319D01*
X215881439Y-238435206D01*
X215868918Y-238425035D01*
X215826087Y-238452563D01*
X215777136Y-238495841D01*
X215660898Y-238573969D01*
X215505488Y-238625367D01*
X215309581Y-238650266D01*
X215071854Y-238648896D01*
X214950959Y-238639778D01*
X214867805Y-238629115D01*
X214827826Y-238612328D01*
X214823365Y-238582052D01*
X214839297Y-238546431D01*
X215104243Y-238546431D01*
X215134049Y-238567131D01*
X215169330Y-238568472D01*
X215212373Y-238572554D01*
X215224174Y-238587541D01*
X215239333Y-238612774D01*
X215284837Y-238597271D01*
X215335159Y-238561868D01*
X215380691Y-238529944D01*
X215399454Y-238530939D01*
X215402152Y-238549155D01*
X215413541Y-238584856D01*
X215448092Y-238576140D01*
X215503759Y-238525676D01*
X215543341Y-238472914D01*
X215543388Y-238446003D01*
X215506318Y-238449903D01*
X215474249Y-238465161D01*
X215410760Y-238487633D01*
X215366335Y-238490365D01*
X215299768Y-238487965D01*
X215224877Y-238496177D01*
X215157356Y-238511645D01*
X215112898Y-238531012D01*
X215104243Y-238546431D01*
X214839297Y-238546431D01*
X214843687Y-238536617D01*
X214854606Y-238496930D01*
X214835897Y-238489779D01*
X214798909Y-238517587D01*
X214791942Y-238525575D01*
X214749939Y-238557820D01*
X214727696Y-238563713D01*
X214696067Y-238550685D01*
X214629743Y-238514691D01*
X214536735Y-238460364D01*
X214425056Y-238392339D01*
X214348433Y-238344355D01*
X214231314Y-238271111D01*
X214130083Y-238209444D01*
X214052078Y-238163695D01*
X214004639Y-238138201D01*
X213993624Y-238134595D01*
X213992319Y-238162864D01*
X213997152Y-238226612D01*
X214005186Y-238296747D01*
X214016854Y-238413104D01*
X214024977Y-238542449D01*
X214027033Y-238609364D01*
X214020045Y-238723385D01*
X213989762Y-238804389D01*
X213927667Y-238868018D01*
X213863991Y-238908736D01*
X213836320Y-238928548D01*
X213834600Y-238952369D01*
X213861186Y-238994862D01*
X213882383Y-239023151D01*
X213940999Y-239120057D01*
X213991169Y-239238421D01*
X214027410Y-239360924D01*
X214044244Y-239470249D01*
X214041953Y-239527407D01*
X214002755Y-239642347D01*
X213935399Y-239718689D01*
X213846220Y-239753029D01*
X213741554Y-239741963D01*
X213685992Y-239718653D01*
X213616808Y-239677098D01*
X213562262Y-239636177D01*
X213511029Y-239581175D01*
X213457774Y-239510427D01*
X213411462Y-239437865D01*
X213381055Y-239377419D01*
X213374744Y-239344734D01*
X213391724Y-239339803D01*
X213416807Y-239373288D01*
X213468533Y-239449792D01*
X213541823Y-239534749D01*
X213621258Y-239612037D01*
X213691423Y-239665532D01*
X213701831Y-239671365D01*
X213803685Y-239704831D01*
X213887155Y-239694873D01*
X213949068Y-239646592D01*
X213986253Y-239565089D01*
X213995534Y-239455463D01*
X213973740Y-239322813D01*
X213955394Y-239263835D01*
X213920972Y-239177171D01*
X213885888Y-239106548D01*
X213862723Y-239073145D01*
X213843606Y-239059728D01*
X213846124Y-239081700D01*
X213870935Y-239143915D01*
X213872915Y-239148498D01*
X213911953Y-239260917D01*
X213936691Y-239377675D01*
X213945132Y-239483368D01*
X213935279Y-239562593D01*
X213928664Y-239578514D01*
X213881193Y-239618226D01*
X213805671Y-239631724D01*
X213717706Y-239618866D01*
X213635370Y-239581157D01*
X213583802Y-239534427D01*
X213520657Y-239459348D01*
X213485256Y-239408869D01*
X213647797Y-239408869D01*
X213667902Y-239426759D01*
X213719707Y-239421589D01*
X213790452Y-239394976D01*
X213801613Y-239389387D01*
X213854427Y-239352077D01*
X213877628Y-239316776D01*
X213869611Y-239294352D01*
X213828770Y-239295674D01*
X213814757Y-239300407D01*
X213737932Y-239335416D01*
X213677865Y-239373115D01*
X213648685Y-239404328D01*
X213647797Y-239408869D01*
X213485256Y-239408869D01*
X213459312Y-239371877D01*
X213457392Y-239368835D01*
X213432284Y-239330993D01*
X213571521Y-239330993D01*
X213587484Y-239350518D01*
X213636999Y-239337369D01*
X213707637Y-239299879D01*
X213765773Y-239258151D01*
X213805398Y-239216357D01*
X213818753Y-239184871D01*
X213801834Y-239173924D01*
X213766063Y-239187257D01*
X213709485Y-239220114D01*
X213647809Y-239261783D01*
X213596743Y-239301552D01*
X213571993Y-239328708D01*
X213571521Y-239330993D01*
X213432284Y-239330993D01*
X213387561Y-239263589D01*
X213308397Y-239152844D01*
X213247347Y-239073565D01*
X213191963Y-238998284D01*
X213152991Y-238931761D01*
X213139289Y-238890664D01*
X213136450Y-238867204D01*
X213130337Y-238858207D01*
X213167294Y-238858207D01*
X213173159Y-238884457D01*
X213204765Y-238936558D01*
X213253424Y-239002933D01*
X213310450Y-239072007D01*
X213367159Y-239132203D01*
X213385885Y-239149525D01*
X213473196Y-239204061D01*
X213564694Y-239225400D01*
X213645661Y-239211688D01*
X213682071Y-239186869D01*
X213715264Y-239137736D01*
X213746837Y-239067110D01*
X213750419Y-239056721D01*
X213765328Y-238985569D01*
X213747778Y-238943449D01*
X213691423Y-238923543D01*
X213622372Y-238919124D01*
X213551151Y-238913484D01*
X213452484Y-238900052D01*
X213355405Y-238883158D01*
X213266695Y-238867404D01*
X213199738Y-238858356D01*
X213167957Y-238857793D01*
X213167294Y-238858207D01*
X213130337Y-238858207D01*
X213122702Y-238846972D01*
X213090201Y-238825596D01*
X213031100Y-238798707D01*
X212937554Y-238761934D01*
X212846897Y-238727793D01*
X212776435Y-238697509D01*
X212754345Y-238677648D01*
X212766447Y-238670537D01*
X212798454Y-238652578D01*
X212799269Y-238608940D01*
X212795546Y-238593211D01*
X212789991Y-238548591D01*
X212785276Y-238476843D01*
X213572294Y-238476843D01*
X213579467Y-238525544D01*
X213596454Y-238553736D01*
X213614063Y-238548348D01*
X213617285Y-238540835D01*
X213612887Y-238499447D01*
X213601801Y-238474467D01*
X213679999Y-238474467D01*
X213701884Y-238519907D01*
X213708085Y-238531932D01*
X213742504Y-238586215D01*
X213772382Y-238613723D01*
X213776472Y-238614564D01*
X213788911Y-238597298D01*
X213777207Y-238567979D01*
X213736092Y-238512051D01*
X213708820Y-238485346D01*
X213682273Y-238465360D01*
X213679999Y-238474467D01*
X213601801Y-238474467D01*
X213599519Y-238469326D01*
X213579050Y-238439411D01*
X213572842Y-238456788D01*
X213572294Y-238476843D01*
X212785276Y-238476843D01*
X212784268Y-238461513D01*
X212778738Y-238340364D01*
X212773758Y-238193532D01*
X212769688Y-238029407D01*
X212768339Y-237957478D01*
X212768229Y-237950934D01*
X214886961Y-237950934D01*
X214953866Y-238030446D01*
X215002606Y-238103739D01*
X215018679Y-238178917D01*
X215004877Y-238274250D01*
X214996082Y-238306891D01*
X214982513Y-238389457D01*
X214997174Y-238431907D01*
X215035242Y-238432766D01*
X215091892Y-238390562D01*
X215129796Y-238347742D01*
X215202286Y-238278465D01*
X215288467Y-238245142D01*
X215303403Y-238242474D01*
X215382500Y-238216212D01*
X215429892Y-238163567D01*
X215449222Y-238077623D01*
X215446140Y-237971384D01*
X215409764Y-237843950D01*
X215328040Y-237735736D01*
X215215991Y-237657244D01*
X215171036Y-237637880D01*
X215133993Y-237637844D01*
X215096069Y-237663002D01*
X215048468Y-237719221D01*
X214982395Y-237812367D01*
X214981513Y-237813647D01*
X214886961Y-237950934D01*
X212768229Y-237950934D01*
X212758710Y-237389381D01*
X212688389Y-237336300D01*
X212595171Y-237257966D01*
X212506968Y-237169976D01*
X212433460Y-237083389D01*
X212384327Y-237009264D01*
X212369954Y-236972535D01*
X212362599Y-236887161D01*
X212364546Y-236878168D01*
X212409198Y-236878168D01*
X212424425Y-236976776D01*
X212484725Y-237076345D01*
X212555025Y-237150629D01*
X212626037Y-237213735D01*
X212673536Y-237245185D01*
X212708488Y-237250699D01*
X212730982Y-237242394D01*
X212779242Y-237209592D01*
X212788189Y-237176829D01*
X212756309Y-237134336D01*
X212707793Y-237092688D01*
X212628598Y-237036095D01*
X212571549Y-237015522D01*
X212525712Y-237028364D01*
X212505626Y-237044544D01*
X212484240Y-237061131D01*
X212491120Y-237039762D01*
X212498353Y-237025475D01*
X212533554Y-236976743D01*
X212589473Y-236916798D01*
X212609126Y-236898348D01*
X212648948Y-236864713D01*
X212659038Y-236861602D01*
X212648347Y-236876146D01*
X212625618Y-236907181D01*
X212623504Y-236933398D01*
X212647481Y-236966478D01*
X212703026Y-237018098D01*
X212723309Y-237035992D01*
X212790721Y-237089320D01*
X212846581Y-237122832D01*
X212875672Y-237129410D01*
X212900974Y-237127670D01*
X212895047Y-237148845D01*
X212865166Y-237182633D01*
X212818606Y-237218732D01*
X212807961Y-237225305D01*
X212750708Y-237265526D01*
X212738680Y-237298980D01*
X212772413Y-237336068D01*
X212815115Y-237364565D01*
X212899533Y-237399374D01*
X212992547Y-237398819D01*
X213106124Y-237362320D01*
X213135934Y-237349003D01*
X213193925Y-237306543D01*
X213305432Y-237306543D01*
X213306766Y-237346869D01*
X213306864Y-237347031D01*
X213340042Y-237358630D01*
X213413684Y-237362339D01*
X213518107Y-237358697D01*
X213643628Y-237348245D01*
X213780562Y-237331521D01*
X213888216Y-237314618D01*
X213992161Y-237293050D01*
X214107171Y-237263648D01*
X214221694Y-237230071D01*
X214324176Y-237195979D01*
X214403062Y-237165032D01*
X214446800Y-237140889D01*
X214450864Y-237136385D01*
X214446295Y-237121131D01*
X214398862Y-237126404D01*
X214381959Y-237130394D01*
X214229092Y-237149439D01*
X214093728Y-237123610D01*
X213986047Y-237065512D01*
X213932212Y-237028881D01*
X213887953Y-237006575D01*
X213839218Y-236996104D01*
X213771953Y-236994977D01*
X213672105Y-237000705D01*
X213634961Y-237003298D01*
X213395973Y-237020097D01*
X213378983Y-237099063D01*
X213353869Y-237182558D01*
X213325878Y-237248694D01*
X213305432Y-237306543D01*
X213193925Y-237306543D01*
X213233581Y-237277508D01*
X213294354Y-237171950D01*
X213317039Y-237034520D01*
X213317172Y-237022316D01*
X213296777Y-236852431D01*
X213239308Y-236693705D01*
X213150714Y-236557893D01*
X213036941Y-236456751D01*
X213028286Y-236451334D01*
X212943437Y-236411082D01*
X212865701Y-236404062D01*
X212784535Y-236432728D01*
X212689395Y-236499532D01*
X212640486Y-236541554D01*
X212516575Y-236665212D01*
X212439697Y-236775865D01*
X212409198Y-236878168D01*
X212364546Y-236878168D01*
X212379983Y-236806886D01*
X212426887Y-236719756D01*
X212508091Y-236613819D01*
X212518256Y-236601762D01*
X212654885Y-236440690D01*
X212577811Y-236432614D01*
X212518971Y-236416321D01*
X212487169Y-236389181D01*
X212459304Y-236362251D01*
X212396991Y-236321488D01*
X212311975Y-236274326D01*
X212281203Y-236258757D01*
X212184341Y-236206869D01*
X212132003Y-236170936D01*
X212123677Y-236153717D01*
X212158851Y-236157973D01*
X212237011Y-236186463D01*
X212290287Y-236209850D01*
X212366635Y-236244147D01*
X212422209Y-236267881D01*
X212443162Y-236275425D01*
X212448897Y-236252668D01*
X212448963Y-236251560D01*
X212617044Y-236251560D01*
X212625327Y-236323975D01*
X212653908Y-236365996D01*
X212688620Y-236372133D01*
X212721371Y-236355499D01*
X212749510Y-236310203D01*
X212754015Y-236297202D01*
X212943851Y-236297202D01*
X212954072Y-236336360D01*
X212989488Y-236371294D01*
X213055795Y-236415265D01*
X213176792Y-236512471D01*
X213268697Y-236636537D01*
X213336560Y-236788603D01*
X213364699Y-236858150D01*
X213389255Y-236902518D01*
X213399352Y-236911061D01*
X213426018Y-236896768D01*
X213484996Y-236857725D01*
X213567908Y-236799680D01*
X213666379Y-236728385D01*
X213679420Y-236718787D01*
X213784489Y-236641412D01*
X213879819Y-236571383D01*
X213955154Y-236516222D01*
X214000242Y-236483451D01*
X214001254Y-236482724D01*
X214041069Y-236445606D01*
X214051905Y-236400533D01*
X214044616Y-236344567D01*
X214016889Y-236261781D01*
X213973741Y-236189468D01*
X213970838Y-236186050D01*
X213914764Y-236121899D01*
X213610266Y-236298852D01*
X213473982Y-236376043D01*
X213374264Y-236428180D01*
X213312409Y-236454833D01*
X213289715Y-236455569D01*
X213307479Y-236429956D01*
X213362153Y-236381527D01*
X213422980Y-236317538D01*
X213442155Y-236263374D01*
X213418763Y-236225180D01*
X213387187Y-236213156D01*
X213333705Y-236201019D01*
X213249424Y-236181312D01*
X213156667Y-236159275D01*
X213069640Y-236140049D01*
X213004261Y-236128630D01*
X212973922Y-236127331D01*
X212973497Y-236127637D01*
X212964039Y-236156762D01*
X212952615Y-236217176D01*
X212949468Y-236238242D01*
X212943851Y-236297202D01*
X212754015Y-236297202D01*
X212778474Y-236226616D01*
X212786330Y-236199149D01*
X212810301Y-236105354D01*
X212827285Y-236024083D01*
X212833291Y-235977018D01*
X212851319Y-235928643D01*
X212860829Y-235922182D01*
X214008620Y-235922182D01*
X214027438Y-235951438D01*
X214076601Y-235981260D01*
X214152014Y-236047262D01*
X214210026Y-236154405D01*
X214246486Y-236294731D01*
X214248950Y-236311470D01*
X214268916Y-236393331D01*
X214299381Y-236425694D01*
X214340006Y-236408393D01*
X214370980Y-236371470D01*
X214397803Y-236301373D01*
X214409268Y-236203003D01*
X214405287Y-236096592D01*
X214385775Y-236002371D01*
X214372701Y-235970859D01*
X214326741Y-235909069D01*
X214262817Y-235878911D01*
X214169401Y-235876382D01*
X214118500Y-235882610D01*
X214038651Y-235900001D01*
X214008620Y-235922182D01*
X212860829Y-235922182D01*
X212909517Y-235889108D01*
X212927674Y-235881089D01*
X212986090Y-235848383D01*
X212997437Y-235822792D01*
X212965433Y-235808831D01*
X212893793Y-235811015D01*
X212872605Y-235814190D01*
X212805338Y-235832089D01*
X212758719Y-235867274D01*
X212714431Y-235934215D01*
X212709534Y-235943016D01*
X212659591Y-236051974D01*
X212628613Y-236157858D01*
X212617044Y-236251560D01*
X212448963Y-236251560D01*
X212452349Y-236195055D01*
X212452802Y-236160194D01*
X212461063Y-236066711D01*
X212481574Y-235978178D01*
X212488273Y-235960070D01*
X212523744Y-235875177D01*
X212438100Y-235894493D01*
X212360755Y-235924504D01*
X212282590Y-235972981D01*
X212272310Y-235981247D01*
X212216303Y-236021485D01*
X212181326Y-236034258D01*
X212174808Y-236019326D01*
X212198038Y-235983647D01*
X212216993Y-235941622D01*
X212200208Y-235908757D01*
X212185370Y-235883437D01*
X212210786Y-235883414D01*
X212223357Y-235886515D01*
X212288842Y-235878340D01*
X212336491Y-235839642D01*
X212431836Y-235839642D01*
X212450348Y-235843149D01*
X212499381Y-235820034D01*
X212507716Y-235815593D01*
X212551071Y-235773859D01*
X212593906Y-235704635D01*
X212627648Y-235626446D01*
X212643724Y-235557823D01*
X212640898Y-235527781D01*
X212605394Y-235493572D01*
X212577209Y-235487237D01*
X212540592Y-235501768D01*
X212529128Y-235552540D01*
X212529079Y-235558137D01*
X212517405Y-235626106D01*
X212488366Y-235707467D01*
X212478228Y-235728779D01*
X212441808Y-235803517D01*
X212431836Y-235839642D01*
X212336491Y-235839642D01*
X212356685Y-235823242D01*
X212422754Y-235724735D01*
X212430083Y-235710722D01*
X212472748Y-235583822D01*
X212468051Y-235470545D01*
X212418839Y-235376461D01*
X212327958Y-235307143D01*
X212204417Y-235269110D01*
X212081190Y-235273739D01*
X211964645Y-235324305D01*
X211859852Y-235415919D01*
X211771877Y-235543692D01*
X211705791Y-235702736D01*
X211688283Y-235766917D01*
X211688158Y-235862626D01*
X211731756Y-235943709D01*
X211812776Y-236004663D01*
X211924914Y-236039984D01*
X212008541Y-236046596D01*
X212066829Y-236052571D01*
X212085639Y-236068403D01*
X212084134Y-236072022D01*
X212043525Y-236093872D01*
X211972797Y-236094528D01*
X211886357Y-236077359D01*
X211798612Y-236045732D01*
X211723968Y-236003016D01*
X211699505Y-235982097D01*
X211651552Y-235900646D01*
X211639750Y-235797090D01*
X211660132Y-235680572D01*
X211708731Y-235560233D01*
X211781581Y-235445217D01*
X211874717Y-235344667D01*
X211984171Y-235267725D01*
X212016187Y-235252105D01*
X212146323Y-235220516D01*
X212275954Y-235235991D01*
X212393571Y-235295946D01*
X212451510Y-235349809D01*
X212525639Y-235414631D01*
X212591381Y-235436386D01*
X212645042Y-235457770D01*
X212674823Y-235516108D01*
X212679195Y-235602677D01*
X212656628Y-235708755D01*
X212644919Y-235741684D01*
X212644541Y-235758170D01*
X212663933Y-235768508D01*
X212710833Y-235773522D01*
X212792981Y-235774035D01*
X212918115Y-235770871D01*
X212919008Y-235770843D01*
X213057106Y-235768169D01*
X213155379Y-235771028D01*
X213224643Y-235780349D01*
X213275714Y-235797061D01*
X213286769Y-235802432D01*
X213378302Y-235830363D01*
X213508204Y-235841791D01*
X213538477Y-235841950D01*
X213711361Y-235840707D01*
X213551773Y-235779295D01*
X213439673Y-235729623D01*
X213321493Y-235667343D01*
X213254191Y-235626287D01*
X213145892Y-235543564D01*
X213031621Y-235438424D01*
X212923844Y-235323983D01*
X212835032Y-235213357D01*
X212783016Y-235130660D01*
X212741487Y-235063023D01*
X212699122Y-235014339D01*
X212688166Y-235006291D01*
X212665107Y-234985727D01*
X212674826Y-234979502D01*
X212685661Y-234959130D01*
X212681303Y-234930340D01*
X212729483Y-234930340D01*
X212824377Y-235100731D01*
X212963165Y-235300122D01*
X213141340Y-235476909D01*
X213350116Y-235624764D01*
X213580705Y-235737360D01*
X213800350Y-235803476D01*
X213938026Y-235821797D01*
X214103597Y-235827213D01*
X214275899Y-235820201D01*
X214433767Y-235801240D01*
X214499549Y-235787705D01*
X214613521Y-235747237D01*
X214746770Y-235680723D01*
X214882333Y-235597782D01*
X214884646Y-235596065D01*
X215024846Y-235596065D01*
X215060405Y-235594941D01*
X215137889Y-235566819D01*
X215230703Y-235523092D01*
X215335869Y-235454216D01*
X215432883Y-235362499D01*
X215512215Y-235259989D01*
X215564336Y-235158729D01*
X215580130Y-235081443D01*
X215575947Y-235043136D01*
X215556762Y-235033459D01*
X215512616Y-235052519D01*
X215462038Y-235082703D01*
X215375743Y-235152032D01*
X215333283Y-235230581D01*
X215325876Y-235292971D01*
X215314660Y-235336835D01*
X215275569Y-235382973D01*
X215200436Y-235440446D01*
X215181180Y-235453551D01*
X215084087Y-235523760D01*
X215032358Y-235571801D01*
X215024846Y-235596065D01*
X214884646Y-235596065D01*
X215003245Y-235508037D01*
X215024001Y-235490272D01*
X215105295Y-235399771D01*
X215206155Y-235399771D01*
X215208750Y-235410961D01*
X215233867Y-235395210D01*
X215260496Y-235371007D01*
X215290546Y-235331020D01*
X215300051Y-235299539D01*
X215286132Y-235291191D01*
X215275161Y-235296462D01*
X215248774Y-235323639D01*
X215222039Y-235364512D01*
X215206155Y-235399771D01*
X215105295Y-235399771D01*
X215145895Y-235354574D01*
X215221216Y-235201179D01*
X215251808Y-235025635D01*
X215251590Y-234940590D01*
X215243147Y-234702576D01*
X215243570Y-234509407D01*
X215253086Y-234355816D01*
X215271920Y-234236536D01*
X215283608Y-234192282D01*
X215311722Y-234094872D01*
X215321436Y-234033220D01*
X215310477Y-233994859D01*
X215276577Y-233967324D01*
X215239190Y-233948388D01*
X215171436Y-233900777D01*
X215137109Y-233845913D01*
X215109319Y-233803123D01*
X215051823Y-233746695D01*
X214979196Y-233687991D01*
X214906016Y-233638369D01*
X214846857Y-233609191D01*
X214828956Y-233605756D01*
X214802680Y-233626903D01*
X214769809Y-233679819D01*
X214759067Y-233702447D01*
X214687975Y-233827234D01*
X214596168Y-233935322D01*
X214491835Y-234021715D01*
X214383165Y-234081418D01*
X214278345Y-234109437D01*
X214185564Y-234100776D01*
X214142562Y-234078516D01*
X214112895Y-234049531D01*
X214106146Y-234011627D01*
X214119492Y-233946100D01*
X214121457Y-233938676D01*
X214149241Y-233834584D01*
X214074826Y-233834584D01*
X213980248Y-233819908D01*
X213920530Y-233778739D01*
X213902052Y-233722454D01*
X213888620Y-233675143D01*
X213839807Y-233650754D01*
X213827820Y-233648116D01*
X213758555Y-233617319D01*
X213733329Y-233565219D01*
X213753207Y-233497700D01*
X213791523Y-233447580D01*
X213863914Y-233370454D01*
X213698648Y-233383129D01*
X213578215Y-233397951D01*
X213448435Y-233422225D01*
X213377962Y-233439588D01*
X213222542Y-233483372D01*
X213209533Y-233754323D01*
X213196637Y-233924188D01*
X213174535Y-234052626D01*
X213140214Y-234148681D01*
X213090667Y-234221398D01*
X213038406Y-234268573D01*
X212940160Y-234345252D01*
X212874403Y-234407714D01*
X212831890Y-234470790D01*
X212803373Y-234549314D01*
X212779606Y-234658118D01*
X212772797Y-234694648D01*
X212729483Y-234930340D01*
X212681303Y-234930340D01*
X212678151Y-234909520D01*
X212657864Y-234846309D01*
X212630368Y-234785135D01*
X212601232Y-234741637D01*
X212586275Y-234730827D01*
X212562786Y-234741862D01*
X212554286Y-234785168D01*
X212559793Y-234844739D01*
X212578329Y-234904567D01*
X212598999Y-234938588D01*
X212643493Y-234991441D01*
X212583535Y-234940590D01*
X212546502Y-234900972D01*
X212532724Y-234854205D01*
X212536572Y-234779842D01*
X212537376Y-234772903D01*
X212541749Y-234700076D01*
X212529873Y-234642458D01*
X212495261Y-234578883D01*
X212463950Y-234533382D01*
X212419728Y-234466008D01*
X212393674Y-234415933D01*
X212390681Y-234396739D01*
X212402746Y-234396731D01*
X212426326Y-234416811D01*
X212466789Y-234462850D01*
X212529502Y-234540717D01*
X212572765Y-234595833D01*
X212593922Y-234615530D01*
X212602833Y-234595925D01*
X212604546Y-234554508D01*
X212596764Y-234472489D01*
X212579946Y-234406699D01*
X212552964Y-234360095D01*
X212508920Y-234346044D01*
X212472468Y-234347837D01*
X212397012Y-234373101D01*
X212350805Y-234433591D01*
X212332125Y-234532759D01*
X212334309Y-234624613D01*
X212372599Y-234800389D01*
X212455546Y-234956904D01*
X212578505Y-235087353D01*
X212707057Y-235170671D01*
X212758793Y-235203133D01*
X212767860Y-235222408D01*
X212741310Y-235225958D01*
X212686196Y-235211245D01*
X212643971Y-235193367D01*
X212545585Y-235126949D01*
X212448047Y-235028064D01*
X212365525Y-234913319D01*
X212314872Y-234807524D01*
X212282727Y-234669545D01*
X212277862Y-234535441D01*
X212300393Y-234422191D01*
X212312022Y-234395762D01*
X212355949Y-234333587D01*
X212415589Y-234301805D01*
X212506964Y-234292285D01*
X212516060Y-234292242D01*
X212565448Y-234289580D01*
X212592721Y-234273147D01*
X212607588Y-234230274D01*
X212618368Y-234158759D01*
X212636713Y-234062543D01*
X212666534Y-233946567D01*
X212695877Y-233852521D01*
X212801760Y-233612416D01*
X212942473Y-233395470D01*
X213070698Y-233251918D01*
X214843566Y-233251918D01*
X214849718Y-233308727D01*
X214861861Y-233336832D01*
X214881067Y-233339415D01*
X214888892Y-233309560D01*
X214884845Y-233273374D01*
X214944494Y-233273374D01*
X214956105Y-233319798D01*
X214983722Y-233378054D01*
X215016519Y-233428877D01*
X215043674Y-233453000D01*
X215045526Y-233453203D01*
X215055090Y-233432496D01*
X215043222Y-233379330D01*
X215042900Y-233378403D01*
X215016341Y-233321514D01*
X214984809Y-233277595D01*
X214957767Y-233256746D01*
X214944678Y-233269065D01*
X214944494Y-233273374D01*
X214884845Y-233273374D01*
X214883874Y-233264702D01*
X214870701Y-233231529D01*
X214851600Y-233205048D01*
X214844551Y-233222138D01*
X214843566Y-233251918D01*
X213070698Y-233251918D01*
X213112433Y-233205195D01*
X213306059Y-233045101D01*
X213517768Y-232918698D01*
X213741980Y-232829496D01*
X213973112Y-232781007D01*
X214205583Y-232776739D01*
X214366293Y-232801985D01*
G37*
X214366293Y-232801985D02*
X214613693Y-232882263D01*
X214833664Y-233001440D01*
X215028785Y-233161705D01*
X215201637Y-233365251D01*
X215354799Y-233614268D01*
X215379742Y-233662629D01*
X215478660Y-233859342D01*
X215675591Y-233846319D01*
X215778808Y-233839089D01*
X215915125Y-233828975D01*
X216066965Y-233817305D01*
X216216752Y-233805409D01*
X216219759Y-233805165D01*
X216353088Y-233795947D01*
X216473183Y-233790550D01*
X216568399Y-233789295D01*
X216627094Y-233792503D01*
X216633711Y-233793779D01*
X216710195Y-233837052D01*
X216763976Y-233915475D01*
X216792163Y-234017364D01*
X216791864Y-234131037D01*
X216760188Y-234244811D01*
X216750437Y-234265370D01*
X216661260Y-234386598D01*
X216535336Y-234482189D01*
X216380947Y-234550134D01*
X216206375Y-234588422D01*
X216019902Y-234595045D01*
X215829811Y-234567992D01*
X215687247Y-234523369D01*
X215612211Y-234494456D01*
X215558462Y-234475152D01*
X215541050Y-234470220D01*
X215533132Y-234492714D01*
X215528267Y-234548479D01*
X215527813Y-234565565D01*
X215520443Y-234639602D01*
X215502610Y-234739963D01*
X215479672Y-234838889D01*
X215457755Y-234926466D01*
X215443297Y-234992150D01*
X215439094Y-235023103D01*
X215439398Y-235023859D01*
X215461128Y-235014785D01*
X215504654Y-234983191D01*
X215505783Y-234982278D01*
X215545047Y-234943709D01*
X215546078Y-234913240D01*
X215531697Y-234892654D01*
X215514183Y-234859637D01*
X215524724Y-234851601D01*
X215565399Y-234874164D01*
X215602140Y-234930851D01*
X215626227Y-235005163D01*
X215630981Y-235052635D01*
X215610731Y-235166099D01*
X215556299Y-235286886D01*
X215477159Y-235396242D01*
X215437624Y-235435316D01*
X215345553Y-235504678D01*
X215240002Y-235566850D01*
X215136632Y-235613968D01*
X215051110Y-235638169D01*
X215030305Y-235639790D01*
X214987404Y-235649499D01*
X214911368Y-235675103D01*
X214815290Y-235711314D01*
X214712265Y-235752845D01*
X214615386Y-235794409D01*
X214537748Y-235830718D01*
X214492443Y-235856485D01*
X214491133Y-235857505D01*
X214490651Y-235884449D01*
X214516860Y-235923703D01*
X214555096Y-235957986D01*
X214586851Y-235970320D01*
X214651716Y-235985742D01*
X214742034Y-236026940D01*
X214844898Y-236086312D01*
X214947396Y-236156256D01*
X215036620Y-236229171D01*
X215053371Y-236245037D01*
X215180933Y-236396816D01*
X215263162Y-236555653D01*
X215298805Y-236716942D01*
X215286607Y-236876081D01*
X215252494Y-236976043D01*
X215206735Y-237050528D01*
X215140354Y-237128253D01*
X215065584Y-237197834D01*
X214994654Y-237247883D01*
X214939918Y-237267017D01*
X214901591Y-237262583D01*
X214903094Y-237246698D01*
X214946925Y-237215485D01*
X214988989Y-237190940D01*
X215102362Y-237101188D01*
X215188820Y-236981758D01*
X215238055Y-236848105D01*
X215243908Y-236808796D01*
X215240995Y-236690955D01*
X215214883Y-236568828D01*
X215171104Y-236460659D01*
X215115285Y-236384777D01*
X215065266Y-236350822D01*
X214985072Y-236307905D01*
X214886311Y-236260971D01*
X214780593Y-236214966D01*
X214679528Y-236174836D01*
X214594725Y-236145526D01*
X214537795Y-236131982D01*
X214523444Y-236132654D01*
X214496807Y-236166232D01*
X214486836Y-236223262D01*
X214476968Y-236295314D01*
X214452318Y-236382165D01*
X214442373Y-236408394D01*
X214410690Y-236529522D01*
X214398035Y-236686724D01*
X214397878Y-236707657D01*
X214399609Y-236803454D01*
X214408386Y-236874998D01*
X214429529Y-236940321D01*
X214468361Y-237017455D01*
X214511418Y-237092407D01*
X214624989Y-237286466D01*
X214754706Y-237299854D01*
X214836188Y-237314139D01*
X214947290Y-237341370D01*
X215069924Y-237376884D01*
X215133339Y-237397446D01*
X215263644Y-237445211D01*
X215350411Y-237487910D01*
X215399837Y-237531072D01*
X215418121Y-237580225D01*
X215411458Y-237640900D01*
X215410477Y-237644734D01*
X215413138Y-237697461D01*
X215435351Y-237772576D01*
X215453392Y-237814468D01*
X215494798Y-237946649D01*
X215491444Y-238084877D01*
X215442814Y-238235913D01*
X215417207Y-238288823D01*
X215382118Y-238359612D01*
X215360596Y-238409266D01*
X215357011Y-238424755D01*
X215383109Y-238421928D01*
X215445428Y-238408520D01*
X215531126Y-238387326D01*
X215541992Y-238384491D01*
X215697482Y-238349759D01*
X215811217Y-238338962D01*
X215886550Y-238352567D01*
X215926835Y-238391036D01*
X215936086Y-238439038D01*
X215913353Y-238493469D01*
X215851957Y-238554567D01*
X215762101Y-238614932D01*
X215653986Y-238667159D01*
X215590594Y-238689686D01*
X215472052Y-238717020D01*
X215333711Y-238734750D01*
X215191383Y-238742258D01*
X215060877Y-238738925D01*
X214958002Y-238724132D01*
X214929910Y-238715555D01*
X214879390Y-238692207D01*
X214877567Y-238679498D01*
X214923371Y-238677628D01*
X215015731Y-238686796D01*
X215055479Y-238692169D01*
X215202263Y-238701374D01*
X215356799Y-238691357D01*
X215508435Y-238664877D01*
X215646518Y-238624692D01*
X215760392Y-238573562D01*
X215839406Y-238514245D01*
X215862013Y-238483319D01*
X215881439Y-238435206D01*
X215868918Y-238425035D01*
X215826087Y-238452563D01*
X215777136Y-238495841D01*
X215660898Y-238573969D01*
X215505488Y-238625367D01*
X215309581Y-238650266D01*
X215071854Y-238648896D01*
X214950959Y-238639778D01*
X214867805Y-238629115D01*
X214827826Y-238612328D01*
X214823365Y-238582052D01*
X214839297Y-238546431D01*
X215104243Y-238546431D01*
X215134049Y-238567131D01*
X215169330Y-238568472D01*
X215212373Y-238572554D01*
X215224174Y-238587541D01*
X215239333Y-238612774D01*
X215284837Y-238597271D01*
X215335159Y-238561868D01*
X215380691Y-238529944D01*
X215399454Y-238530939D01*
X215402152Y-238549155D01*
X215413541Y-238584856D01*
X215448092Y-238576140D01*
X215503759Y-238525676D01*
X215543341Y-238472914D01*
X215543388Y-238446003D01*
X215506318Y-238449903D01*
X215474249Y-238465161D01*
X215410760Y-238487633D01*
X215366335Y-238490365D01*
X215299768Y-238487965D01*
X215224877Y-238496177D01*
X215157356Y-238511645D01*
X215112898Y-238531012D01*
X215104243Y-238546431D01*
X214839297Y-238546431D01*
X214843687Y-238536617D01*
X214854606Y-238496930D01*
X214835897Y-238489779D01*
X214798909Y-238517587D01*
X214791942Y-238525575D01*
X214749939Y-238557820D01*
X214727696Y-238563713D01*
X214696067Y-238550685D01*
X214629743Y-238514691D01*
X214536735Y-238460364D01*
X214425056Y-238392339D01*
X214348433Y-238344355D01*
X214231314Y-238271111D01*
X214130083Y-238209444D01*
X214052078Y-238163695D01*
X214004639Y-238138201D01*
X213993624Y-238134595D01*
X213992319Y-238162864D01*
X213997152Y-238226612D01*
X214005186Y-238296747D01*
X214016854Y-238413104D01*
X214024977Y-238542449D01*
X214027033Y-238609364D01*
X214020045Y-238723385D01*
X213989762Y-238804389D01*
X213927667Y-238868018D01*
X213863991Y-238908736D01*
X213836320Y-238928548D01*
X213834600Y-238952369D01*
X213861186Y-238994862D01*
X213882383Y-239023151D01*
X213940999Y-239120057D01*
X213991169Y-239238421D01*
X214027410Y-239360924D01*
X214044244Y-239470249D01*
X214041953Y-239527407D01*
X214002755Y-239642347D01*
X213935399Y-239718689D01*
X213846220Y-239753029D01*
X213741554Y-239741963D01*
X213685992Y-239718653D01*
X213616808Y-239677098D01*
X213562262Y-239636177D01*
X213511029Y-239581175D01*
X213457774Y-239510427D01*
X213411462Y-239437865D01*
X213381055Y-239377419D01*
X213374744Y-239344734D01*
X213391724Y-239339803D01*
X213416807Y-239373288D01*
X213468533Y-239449792D01*
X213541823Y-239534749D01*
X213621258Y-239612037D01*
X213691423Y-239665532D01*
X213701831Y-239671365D01*
X213803685Y-239704831D01*
X213887155Y-239694873D01*
X213949068Y-239646592D01*
X213986253Y-239565089D01*
X213995534Y-239455463D01*
X213973740Y-239322813D01*
X213955394Y-239263835D01*
X213920972Y-239177171D01*
X213885888Y-239106548D01*
X213862723Y-239073145D01*
X213843606Y-239059728D01*
X213846124Y-239081700D01*
X213870935Y-239143915D01*
X213872915Y-239148498D01*
X213911953Y-239260917D01*
X213936691Y-239377675D01*
X213945132Y-239483368D01*
X213935279Y-239562593D01*
X213928664Y-239578514D01*
X213881193Y-239618226D01*
X213805671Y-239631724D01*
X213717706Y-239618866D01*
X213635370Y-239581157D01*
X213583802Y-239534427D01*
X213520657Y-239459348D01*
X213485256Y-239408869D01*
X213647797Y-239408869D01*
X213667902Y-239426759D01*
X213719707Y-239421589D01*
X213790452Y-239394976D01*
X213801613Y-239389387D01*
X213854427Y-239352077D01*
X213877628Y-239316776D01*
X213869611Y-239294352D01*
X213828770Y-239295674D01*
X213814757Y-239300407D01*
X213737932Y-239335416D01*
X213677865Y-239373115D01*
X213648685Y-239404328D01*
X213647797Y-239408869D01*
X213485256Y-239408869D01*
X213459312Y-239371877D01*
X213457392Y-239368835D01*
X213432284Y-239330993D01*
X213571521Y-239330993D01*
X213587484Y-239350518D01*
X213636999Y-239337369D01*
X213707637Y-239299879D01*
X213765773Y-239258151D01*
X213805398Y-239216357D01*
X213818753Y-239184871D01*
X213801834Y-239173924D01*
X213766063Y-239187257D01*
X213709485Y-239220114D01*
X213647809Y-239261783D01*
X213596743Y-239301552D01*
X213571993Y-239328708D01*
X213571521Y-239330993D01*
X213432284Y-239330993D01*
X213387561Y-239263589D01*
X213308397Y-239152844D01*
X213247347Y-239073565D01*
X213191963Y-238998284D01*
X213152991Y-238931761D01*
X213139289Y-238890664D01*
X213136450Y-238867204D01*
X213130337Y-238858207D01*
X213167294Y-238858207D01*
X213173159Y-238884457D01*
X213204765Y-238936558D01*
X213253424Y-239002933D01*
X213310450Y-239072007D01*
X213367159Y-239132203D01*
X213385885Y-239149525D01*
X213473196Y-239204061D01*
X213564694Y-239225400D01*
X213645661Y-239211688D01*
X213682071Y-239186869D01*
X213715264Y-239137736D01*
X213746837Y-239067110D01*
X213750419Y-239056721D01*
X213765328Y-238985569D01*
X213747778Y-238943449D01*
X213691423Y-238923543D01*
X213622372Y-238919124D01*
X213551151Y-238913484D01*
X213452484Y-238900052D01*
X213355405Y-238883158D01*
X213266695Y-238867404D01*
X213199738Y-238858356D01*
X213167957Y-238857793D01*
X213167294Y-238858207D01*
X213130337Y-238858207D01*
X213122702Y-238846972D01*
X213090201Y-238825596D01*
X213031100Y-238798707D01*
X212937554Y-238761934D01*
X212846897Y-238727793D01*
X212776435Y-238697509D01*
X212754345Y-238677648D01*
X212766447Y-238670537D01*
X212798454Y-238652578D01*
X212799269Y-238608940D01*
X212795546Y-238593211D01*
X212789991Y-238548591D01*
X212785276Y-238476843D01*
X213572294Y-238476843D01*
X213579467Y-238525544D01*
X213596454Y-238553736D01*
X213614063Y-238548348D01*
X213617285Y-238540835D01*
X213612887Y-238499447D01*
X213601801Y-238474467D01*
X213679999Y-238474467D01*
X213701884Y-238519907D01*
X213708085Y-238531932D01*
X213742504Y-238586215D01*
X213772382Y-238613723D01*
X213776472Y-238614564D01*
X213788911Y-238597298D01*
X213777207Y-238567979D01*
X213736092Y-238512051D01*
X213708820Y-238485346D01*
X213682273Y-238465360D01*
X213679999Y-238474467D01*
X213601801Y-238474467D01*
X213599519Y-238469326D01*
X213579050Y-238439411D01*
X213572842Y-238456788D01*
X213572294Y-238476843D01*
X212785276Y-238476843D01*
X212784268Y-238461513D01*
X212778738Y-238340364D01*
X212773758Y-238193532D01*
X212769688Y-238029407D01*
X212768339Y-237957478D01*
X212768229Y-237950934D01*
X214886961Y-237950934D01*
X214953866Y-238030446D01*
X215002606Y-238103739D01*
X215018679Y-238178917D01*
X215004877Y-238274250D01*
X214996082Y-238306891D01*
X214982513Y-238389457D01*
X214997174Y-238431907D01*
X215035242Y-238432766D01*
X215091892Y-238390562D01*
X215129796Y-238347742D01*
X215202286Y-238278465D01*
X215288467Y-238245142D01*
X215303403Y-238242474D01*
X215382500Y-238216212D01*
X215429892Y-238163567D01*
X215449222Y-238077623D01*
X215446140Y-237971384D01*
X215409764Y-237843950D01*
X215328040Y-237735736D01*
X215215991Y-237657244D01*
X215171036Y-237637880D01*
X215133993Y-237637844D01*
X215096069Y-237663002D01*
X215048468Y-237719221D01*
X214982395Y-237812367D01*
X214981513Y-237813647D01*
X214886961Y-237950934D01*
X212768229Y-237950934D01*
X212758710Y-237389381D01*
X212688389Y-237336300D01*
X212595171Y-237257966D01*
X212506968Y-237169976D01*
X212433460Y-237083389D01*
X212384327Y-237009264D01*
X212369954Y-236972535D01*
X212362599Y-236887161D01*
X212364546Y-236878168D01*
X212409198Y-236878168D01*
X212424425Y-236976776D01*
X212484725Y-237076345D01*
X212555025Y-237150629D01*
X212626037Y-237213735D01*
X212673536Y-237245185D01*
X212708488Y-237250699D01*
X212730982Y-237242394D01*
X212779242Y-237209592D01*
X212788189Y-237176829D01*
X212756309Y-237134336D01*
X212707793Y-237092688D01*
X212628598Y-237036095D01*
X212571549Y-237015522D01*
X212525712Y-237028364D01*
X212505626Y-237044544D01*
X212484240Y-237061131D01*
X212491120Y-237039762D01*
X212498353Y-237025475D01*
X212533554Y-236976743D01*
X212589473Y-236916798D01*
X212609126Y-236898348D01*
X212648948Y-236864713D01*
X212659038Y-236861602D01*
X212648347Y-236876146D01*
X212625618Y-236907181D01*
X212623504Y-236933398D01*
X212647481Y-236966478D01*
X212703026Y-237018098D01*
X212723309Y-237035992D01*
X212790721Y-237089320D01*
X212846581Y-237122832D01*
X212875672Y-237129410D01*
X212900974Y-237127670D01*
X212895047Y-237148845D01*
X212865166Y-237182633D01*
X212818606Y-237218732D01*
X212807961Y-237225305D01*
X212750708Y-237265526D01*
X212738680Y-237298980D01*
X212772413Y-237336068D01*
X212815115Y-237364565D01*
X212899533Y-237399374D01*
X212992547Y-237398819D01*
X213106124Y-237362320D01*
X213135934Y-237349003D01*
X213193925Y-237306543D01*
X213305432Y-237306543D01*
X213306766Y-237346869D01*
X213306864Y-237347031D01*
X213340042Y-237358630D01*
X213413684Y-237362339D01*
X213518107Y-237358697D01*
X213643628Y-237348245D01*
X213780562Y-237331521D01*
X213888216Y-237314618D01*
X213992161Y-237293050D01*
X214107171Y-237263648D01*
X214221694Y-237230071D01*
X214324176Y-237195979D01*
X214403062Y-237165032D01*
X214446800Y-237140889D01*
X214450864Y-237136385D01*
X214446295Y-237121131D01*
X214398862Y-237126404D01*
X214381959Y-237130394D01*
X214229092Y-237149439D01*
X214093728Y-237123610D01*
X213986047Y-237065512D01*
X213932212Y-237028881D01*
X213887953Y-237006575D01*
X213839218Y-236996104D01*
X213771953Y-236994977D01*
X213672105Y-237000705D01*
X213634961Y-237003298D01*
X213395973Y-237020097D01*
X213378983Y-237099063D01*
X213353869Y-237182558D01*
X213325878Y-237248694D01*
X213305432Y-237306543D01*
X213193925Y-237306543D01*
X213233581Y-237277508D01*
X213294354Y-237171950D01*
X213317039Y-237034520D01*
X213317172Y-237022316D01*
X213296777Y-236852431D01*
X213239308Y-236693705D01*
X213150714Y-236557893D01*
X213036941Y-236456751D01*
X213028286Y-236451334D01*
X212943437Y-236411082D01*
X212865701Y-236404062D01*
X212784535Y-236432728D01*
X212689395Y-236499532D01*
X212640486Y-236541554D01*
X212516575Y-236665212D01*
X212439697Y-236775865D01*
X212409198Y-236878168D01*
X212364546Y-236878168D01*
X212379983Y-236806886D01*
X212426887Y-236719756D01*
X212508091Y-236613819D01*
X212518256Y-236601762D01*
X212654885Y-236440690D01*
X212577811Y-236432614D01*
X212518971Y-236416321D01*
X212487169Y-236389181D01*
X212459304Y-236362251D01*
X212396991Y-236321488D01*
X212311975Y-236274326D01*
X212281203Y-236258757D01*
X212184341Y-236206869D01*
X212132003Y-236170936D01*
X212123677Y-236153717D01*
X212158851Y-236157973D01*
X212237011Y-236186463D01*
X212290287Y-236209850D01*
X212366635Y-236244147D01*
X212422209Y-236267881D01*
X212443162Y-236275425D01*
X212448897Y-236252668D01*
X212448963Y-236251560D01*
X212617044Y-236251560D01*
X212625327Y-236323975D01*
X212653908Y-236365996D01*
X212688620Y-236372133D01*
X212721371Y-236355499D01*
X212749510Y-236310203D01*
X212754015Y-236297202D01*
X212943851Y-236297202D01*
X212954072Y-236336360D01*
X212989488Y-236371294D01*
X213055795Y-236415265D01*
X213176792Y-236512471D01*
X213268697Y-236636537D01*
X213336560Y-236788603D01*
X213364699Y-236858150D01*
X213389255Y-236902518D01*
X213399352Y-236911061D01*
X213426018Y-236896768D01*
X213484996Y-236857725D01*
X213567908Y-236799680D01*
X213666379Y-236728385D01*
X213679420Y-236718787D01*
X213784489Y-236641412D01*
X213879819Y-236571383D01*
X213955154Y-236516222D01*
X214000242Y-236483451D01*
X214001254Y-236482724D01*
X214041069Y-236445606D01*
X214051905Y-236400533D01*
X214044616Y-236344567D01*
X214016889Y-236261781D01*
X213973741Y-236189468D01*
X213970838Y-236186050D01*
X213914764Y-236121899D01*
X213610266Y-236298852D01*
X213473982Y-236376043D01*
X213374264Y-236428180D01*
X213312409Y-236454833D01*
X213289715Y-236455569D01*
X213307479Y-236429956D01*
X213362153Y-236381527D01*
X213422980Y-236317538D01*
X213442155Y-236263374D01*
X213418763Y-236225180D01*
X213387187Y-236213156D01*
X213333705Y-236201019D01*
X213249424Y-236181312D01*
X213156667Y-236159275D01*
X213069640Y-236140049D01*
X213004261Y-236128630D01*
X212973922Y-236127331D01*
X212973497Y-236127637D01*
X212964039Y-236156762D01*
X212952615Y-236217176D01*
X212949468Y-236238242D01*
X212943851Y-236297202D01*
X212754015Y-236297202D01*
X212778474Y-236226616D01*
X212786330Y-236199149D01*
X212810301Y-236105354D01*
X212827285Y-236024083D01*
X212833291Y-235977018D01*
X212851319Y-235928643D01*
X212860829Y-235922182D01*
X214008620Y-235922182D01*
X214027438Y-235951438D01*
X214076601Y-235981260D01*
X214152014Y-236047262D01*
X214210026Y-236154405D01*
X214246486Y-236294731D01*
X214248950Y-236311470D01*
X214268916Y-236393331D01*
X214299381Y-236425694D01*
X214340006Y-236408393D01*
X214370980Y-236371470D01*
X214397803Y-236301373D01*
X214409268Y-236203003D01*
X214405287Y-236096592D01*
X214385775Y-236002371D01*
X214372701Y-235970859D01*
X214326741Y-235909069D01*
X214262817Y-235878911D01*
X214169401Y-235876382D01*
X214118500Y-235882610D01*
X214038651Y-235900001D01*
X214008620Y-235922182D01*
X212860829Y-235922182D01*
X212909517Y-235889108D01*
X212927674Y-235881089D01*
X212986090Y-235848383D01*
X212997437Y-235822792D01*
X212965433Y-235808831D01*
X212893793Y-235811015D01*
X212872605Y-235814190D01*
X212805338Y-235832089D01*
X212758719Y-235867274D01*
X212714431Y-235934215D01*
X212709534Y-235943016D01*
X212659591Y-236051974D01*
X212628613Y-236157858D01*
X212617044Y-236251560D01*
X212448963Y-236251560D01*
X212452349Y-236195055D01*
X212452802Y-236160194D01*
X212461063Y-236066711D01*
X212481574Y-235978178D01*
X212488273Y-235960070D01*
X212523744Y-235875177D01*
X212438100Y-235894493D01*
X212360755Y-235924504D01*
X212282590Y-235972981D01*
X212272310Y-235981247D01*
X212216303Y-236021485D01*
X212181326Y-236034258D01*
X212174808Y-236019326D01*
X212198038Y-235983647D01*
X212216993Y-235941622D01*
X212200208Y-235908757D01*
X212185370Y-235883437D01*
X212210786Y-235883414D01*
X212223357Y-235886515D01*
X212288842Y-235878340D01*
X212336491Y-235839642D01*
X212431836Y-235839642D01*
X212450348Y-235843149D01*
X212499381Y-235820034D01*
X212507716Y-235815593D01*
X212551071Y-235773859D01*
X212593906Y-235704635D01*
X212627648Y-235626446D01*
X212643724Y-235557823D01*
X212640898Y-235527781D01*
X212605394Y-235493572D01*
X212577209Y-235487237D01*
X212540592Y-235501768D01*
X212529128Y-235552540D01*
X212529079Y-235558137D01*
X212517405Y-235626106D01*
X212488366Y-235707467D01*
X212478228Y-235728779D01*
X212441808Y-235803517D01*
X212431836Y-235839642D01*
X212336491Y-235839642D01*
X212356685Y-235823242D01*
X212422754Y-235724735D01*
X212430083Y-235710722D01*
X212472748Y-235583822D01*
X212468051Y-235470545D01*
X212418839Y-235376461D01*
X212327958Y-235307143D01*
X212204417Y-235269110D01*
X212081190Y-235273739D01*
X211964645Y-235324305D01*
X211859852Y-235415919D01*
X211771877Y-235543692D01*
X211705791Y-235702736D01*
X211688283Y-235766917D01*
X211688158Y-235862626D01*
X211731756Y-235943709D01*
X211812776Y-236004663D01*
X211924914Y-236039984D01*
X212008541Y-236046596D01*
X212066829Y-236052571D01*
X212085639Y-236068403D01*
X212084134Y-236072022D01*
X212043525Y-236093872D01*
X211972797Y-236094528D01*
X211886357Y-236077359D01*
X211798612Y-236045732D01*
X211723968Y-236003016D01*
X211699505Y-235982097D01*
X211651552Y-235900646D01*
X211639750Y-235797090D01*
X211660132Y-235680572D01*
X211708731Y-235560233D01*
X211781581Y-235445217D01*
X211874717Y-235344667D01*
X211984171Y-235267725D01*
X212016187Y-235252105D01*
X212146323Y-235220516D01*
X212275954Y-235235991D01*
X212393571Y-235295946D01*
X212451510Y-235349809D01*
X212525639Y-235414631D01*
X212591381Y-235436386D01*
X212645042Y-235457770D01*
X212674823Y-235516108D01*
X212679195Y-235602677D01*
X212656628Y-235708755D01*
X212644919Y-235741684D01*
X212644541Y-235758170D01*
X212663933Y-235768508D01*
X212710833Y-235773522D01*
X212792981Y-235774035D01*
X212918115Y-235770871D01*
X212919008Y-235770843D01*
X213057106Y-235768169D01*
X213155379Y-235771028D01*
X213224643Y-235780349D01*
X213275714Y-235797061D01*
X213286769Y-235802432D01*
X213378302Y-235830363D01*
X213508204Y-235841791D01*
X213538477Y-235841950D01*
X213711361Y-235840707D01*
X213551773Y-235779295D01*
X213439673Y-235729623D01*
X213321493Y-235667343D01*
X213254191Y-235626287D01*
X213145892Y-235543564D01*
X213031621Y-235438424D01*
X212923844Y-235323983D01*
X212835032Y-235213357D01*
X212783016Y-235130660D01*
X212741487Y-235063023D01*
X212699122Y-235014339D01*
X212688166Y-235006291D01*
X212665107Y-234985727D01*
X212674826Y-234979502D01*
X212685661Y-234959130D01*
X212681303Y-234930340D01*
X212729483Y-234930340D01*
X212824377Y-235100731D01*
X212963165Y-235300122D01*
X213141340Y-235476909D01*
X213350116Y-235624764D01*
X213580705Y-235737360D01*
X213800350Y-235803476D01*
X213938026Y-235821797D01*
X214103597Y-235827213D01*
X214275899Y-235820201D01*
X214433767Y-235801240D01*
X214499549Y-235787705D01*
X214613521Y-235747237D01*
X214746770Y-235680723D01*
X214882333Y-235597782D01*
X214884646Y-235596065D01*
X215024846Y-235596065D01*
X215060405Y-235594941D01*
X215137889Y-235566819D01*
X215230703Y-235523092D01*
X215335869Y-235454216D01*
X215432883Y-235362499D01*
X215512215Y-235259989D01*
X215564336Y-235158729D01*
X215580130Y-235081443D01*
X215575947Y-235043136D01*
X215556762Y-235033459D01*
X215512616Y-235052519D01*
X215462038Y-235082703D01*
X215375743Y-235152032D01*
X215333283Y-235230581D01*
X215325876Y-235292971D01*
X215314660Y-235336835D01*
X215275569Y-235382973D01*
X215200436Y-235440446D01*
X215181180Y-235453551D01*
X215084087Y-235523760D01*
X215032358Y-235571801D01*
X215024846Y-235596065D01*
X214884646Y-235596065D01*
X215003245Y-235508037D01*
X215024001Y-235490272D01*
X215105295Y-235399771D01*
X215206155Y-235399771D01*
X215208750Y-235410961D01*
X215233867Y-235395210D01*
X215260496Y-235371007D01*
X215290546Y-235331020D01*
X215300051Y-235299539D01*
X215286132Y-235291191D01*
X215275161Y-235296462D01*
X215248774Y-235323639D01*
X215222039Y-235364512D01*
X215206155Y-235399771D01*
X215105295Y-235399771D01*
X215145895Y-235354574D01*
X215221216Y-235201179D01*
X215251808Y-235025635D01*
X215251590Y-234940590D01*
X215243147Y-234702576D01*
X215243570Y-234509407D01*
X215253086Y-234355816D01*
X215271920Y-234236536D01*
X215283608Y-234192282D01*
X215311722Y-234094872D01*
X215321436Y-234033220D01*
X215310477Y-233994859D01*
X215276577Y-233967324D01*
X215239190Y-233948388D01*
X215171436Y-233900777D01*
X215137109Y-233845913D01*
X215109319Y-233803123D01*
X215051823Y-233746695D01*
X214979196Y-233687991D01*
X214906016Y-233638369D01*
X214846857Y-233609191D01*
X214828956Y-233605756D01*
X214802680Y-233626903D01*
X214769809Y-233679819D01*
X214759067Y-233702447D01*
X214687975Y-233827234D01*
X214596168Y-233935322D01*
X214491835Y-234021715D01*
X214383165Y-234081418D01*
X214278345Y-234109437D01*
X214185564Y-234100776D01*
X214142562Y-234078516D01*
X214112895Y-234049531D01*
X214106146Y-234011627D01*
X214119492Y-233946100D01*
X214121457Y-233938676D01*
X214149241Y-233834584D01*
X214074826Y-233834584D01*
X213980248Y-233819908D01*
X213920530Y-233778739D01*
X213902052Y-233722454D01*
X213888620Y-233675143D01*
X213839807Y-233650754D01*
X213827820Y-233648116D01*
X213758555Y-233617319D01*
X213733329Y-233565219D01*
X213753207Y-233497700D01*
X213791523Y-233447580D01*
X213863914Y-233370454D01*
X213698648Y-233383129D01*
X213578215Y-233397951D01*
X213448435Y-233422225D01*
X213377962Y-233439588D01*
X213222542Y-233483372D01*
X213209533Y-233754323D01*
X213196637Y-233924188D01*
X213174535Y-234052626D01*
X213140214Y-234148681D01*
X213090667Y-234221398D01*
X213038406Y-234268573D01*
X212940160Y-234345252D01*
X212874403Y-234407714D01*
X212831890Y-234470790D01*
X212803373Y-234549314D01*
X212779606Y-234658118D01*
X212772797Y-234694648D01*
X212729483Y-234930340D01*
X212681303Y-234930340D01*
X212678151Y-234909520D01*
X212657864Y-234846309D01*
X212630368Y-234785135D01*
X212601232Y-234741637D01*
X212586275Y-234730827D01*
X212562786Y-234741862D01*
X212554286Y-234785168D01*
X212559793Y-234844739D01*
X212578329Y-234904567D01*
X212598999Y-234938588D01*
X212643493Y-234991441D01*
X212583535Y-234940590D01*
X212546502Y-234900972D01*
X212532724Y-234854205D01*
X212536572Y-234779842D01*
X212537376Y-234772903D01*
X212541749Y-234700076D01*
X212529873Y-234642458D01*
X212495261Y-234578883D01*
X212463950Y-234533382D01*
X212419728Y-234466008D01*
X212393674Y-234415933D01*
X212390681Y-234396739D01*
X212402746Y-234396731D01*
X212426326Y-234416811D01*
X212466789Y-234462850D01*
X212529502Y-234540717D01*
X212572765Y-234595833D01*
X212593922Y-234615530D01*
X212602833Y-234595925D01*
X212604546Y-234554508D01*
X212596764Y-234472489D01*
X212579946Y-234406699D01*
X212552964Y-234360095D01*
X212508920Y-234346044D01*
X212472468Y-234347837D01*
X212397012Y-234373101D01*
X212350805Y-234433591D01*
X212332125Y-234532759D01*
X212334309Y-234624613D01*
X212372599Y-234800389D01*
X212455546Y-234956904D01*
X212578505Y-235087353D01*
X212707057Y-235170671D01*
X212758793Y-235203133D01*
X212767860Y-235222408D01*
X212741310Y-235225958D01*
X212686196Y-235211245D01*
X212643971Y-235193367D01*
X212545585Y-235126949D01*
X212448047Y-235028064D01*
X212365525Y-234913319D01*
X212314872Y-234807524D01*
X212282727Y-234669545D01*
X212277862Y-234535441D01*
X212300393Y-234422191D01*
X212312022Y-234395762D01*
X212355949Y-234333587D01*
X212415589Y-234301805D01*
X212506964Y-234292285D01*
X212516060Y-234292242D01*
X212565448Y-234289580D01*
X212592721Y-234273147D01*
X212607588Y-234230274D01*
X212618368Y-234158759D01*
X212636713Y-234062543D01*
X212666534Y-233946567D01*
X212695877Y-233852521D01*
X212801760Y-233612416D01*
X212942473Y-233395470D01*
X213070698Y-233251918D01*
X214843566Y-233251918D01*
X214849718Y-233308727D01*
X214861861Y-233336832D01*
X214881067Y-233339415D01*
X214888892Y-233309560D01*
X214884845Y-233273374D01*
X214944494Y-233273374D01*
X214956105Y-233319798D01*
X214983722Y-233378054D01*
X215016519Y-233428877D01*
X215043674Y-233453000D01*
X215045526Y-233453203D01*
X215055090Y-233432496D01*
X215043222Y-233379330D01*
X215042900Y-233378403D01*
X215016341Y-233321514D01*
X214984809Y-233277595D01*
X214957767Y-233256746D01*
X214944678Y-233269065D01*
X214944494Y-233273374D01*
X214884845Y-233273374D01*
X214883874Y-233264702D01*
X214870701Y-233231529D01*
X214851600Y-233205048D01*
X214844551Y-233222138D01*
X214843566Y-233251918D01*
X213070698Y-233251918D01*
X213112433Y-233205195D01*
X213306059Y-233045101D01*
X213517768Y-232918698D01*
X213741980Y-232829496D01*
X213973112Y-232781007D01*
X214205583Y-232776739D01*
X214366293Y-232801985D01*
G36*
X223203459Y-234153812D02*
G01*
X223201900Y-234230750D01*
X223196518Y-234352186D01*
X223187506Y-234515029D01*
X223175059Y-234716192D01*
X223159369Y-234952583D01*
X223140629Y-235221115D01*
X223119032Y-235518696D01*
X223094771Y-235842238D01*
X223088389Y-235925826D01*
X223073291Y-236122873D01*
X223388059Y-236122873D01*
X223380541Y-236294494D01*
X223373023Y-236466116D01*
X223208422Y-236478829D01*
X223043820Y-236491541D01*
X222989603Y-237063613D01*
X222960145Y-237362642D01*
X222932773Y-237616358D01*
X222907633Y-237823630D01*
X222884870Y-237983329D01*
X222864629Y-238094326D01*
X222849793Y-238148805D01*
X222828962Y-238204267D01*
X222681473Y-238125653D01*
X222605465Y-238084991D01*
X222549966Y-238055020D01*
X222527505Y-238042525D01*
X222528089Y-238017336D01*
X222536702Y-237957923D01*
X222544754Y-237912896D01*
X222554455Y-237849480D01*
X222567725Y-237745305D01*
X222583423Y-237610245D01*
X222600410Y-237454174D01*
X222617546Y-237286966D01*
X222620791Y-237254076D01*
X222637247Y-237087168D01*
X222652856Y-236930684D01*
X222666652Y-236794166D01*
X222677669Y-236687153D01*
X222684941Y-236619184D01*
X222685913Y-236610675D01*
X222698725Y-236500980D01*
X222307220Y-236518887D01*
X221915715Y-236536793D01*
X221907031Y-236367917D01*
X221904399Y-236282657D01*
X221905855Y-236221690D01*
X221911061Y-236198262D01*
X221939557Y-236196590D01*
X222009769Y-236192493D01*
X222112648Y-236186498D01*
X222239145Y-236179132D01*
X222313855Y-236174784D01*
X222449125Y-236166301D01*
X222565434Y-236157844D01*
X222653795Y-236150159D01*
X222705220Y-236143992D01*
X222714469Y-236141553D01*
X222718972Y-236114599D01*
X222726380Y-236044401D01*
X222736130Y-235938370D01*
X222747656Y-235803917D01*
X222760396Y-235648453D01*
X222773784Y-235479390D01*
X222787256Y-235304139D01*
X222800249Y-235130110D01*
X222812198Y-234964715D01*
X222822538Y-234815365D01*
X222830706Y-234689471D01*
X222836137Y-234594444D01*
X222838266Y-234537696D01*
X222837560Y-234524772D01*
X222811673Y-234526704D01*
X222742024Y-234536031D01*
X222635001Y-234551719D01*
X222496989Y-234572733D01*
X222334373Y-234598040D01*
X222153541Y-234626605D01*
X221960879Y-234657394D01*
X221762772Y-234689372D01*
X221565607Y-234721505D01*
X221375769Y-234752760D01*
X221199646Y-234782101D01*
X221043622Y-234808495D01*
X220914085Y-234830908D01*
X220817420Y-234848304D01*
X220760014Y-234859651D01*
X220746645Y-234863398D01*
X220759589Y-234882425D01*
X220804187Y-234920510D01*
X220853113Y-234956753D01*
X220917148Y-235005373D01*
X220959720Y-235044372D01*
X220970320Y-235060672D01*
X220955988Y-235083760D01*
X220915689Y-235142295D01*
X220853468Y-235230674D01*
X220773369Y-235343295D01*
X220679437Y-235474556D01*
X220575716Y-235618852D01*
X220466251Y-235770581D01*
X220355087Y-235924141D01*
X220246268Y-236073928D01*
X220143839Y-236214341D01*
X220051844Y-236339775D01*
X219974329Y-236444629D01*
X219915337Y-236523299D01*
X219899555Y-236543948D01*
X219910767Y-236569686D01*
X219954781Y-236630085D01*
X220029583Y-236722742D01*
X220133160Y-236845255D01*
X220263496Y-236995224D01*
X220418577Y-237170245D01*
X220513533Y-237276140D01*
X220656921Y-237435931D01*
X220788978Y-237584039D01*
X220905957Y-237716190D01*
X221004113Y-237828111D01*
X221079698Y-237915528D01*
X221128966Y-237974166D01*
X221148172Y-237999752D01*
X221148298Y-238000271D01*
X221131472Y-238026621D01*
X221087616Y-238076504D01*
X221033639Y-238131721D01*
X220918980Y-238244251D01*
X220859449Y-238181510D01*
X220828407Y-238147800D01*
X220767921Y-238081229D01*
X220682496Y-237986790D01*
X220576640Y-237869477D01*
X220454862Y-237734283D01*
X220321667Y-237586202D01*
X220233946Y-237488567D01*
X219667974Y-236858365D01*
X219447608Y-237158036D01*
X219369529Y-237264302D01*
X219268665Y-237401710D01*
X219152269Y-237560373D01*
X219027595Y-237730402D01*
X218901895Y-237901909D01*
X218822186Y-238010710D01*
X218714783Y-238156629D01*
X218617069Y-238288019D01*
X218533064Y-238399585D01*
X218466787Y-238486034D01*
X218422257Y-238542071D01*
X218403493Y-238562401D01*
X218403385Y-238562405D01*
X218377545Y-238547148D01*
X218325016Y-238509064D01*
X218275225Y-238470579D01*
X218213456Y-238416373D01*
X218173063Y-238370628D01*
X218163587Y-238349286D01*
X218178763Y-238322777D01*
X218220964Y-238259782D01*
X218287036Y-238164745D01*
X218373825Y-238042108D01*
X218478177Y-237896312D01*
X218596940Y-237731802D01*
X218726959Y-237553018D01*
X218792867Y-237462853D01*
X218926922Y-237279438D01*
X219051162Y-237108826D01*
X219162460Y-236955355D01*
X219257692Y-236823361D01*
X219333733Y-236717183D01*
X219387458Y-236641159D01*
X219415743Y-236599626D01*
X219419369Y-236593164D01*
X219402900Y-236571892D01*
X219355849Y-236516904D01*
X219281751Y-236432195D01*
X219184142Y-236321755D01*
X219066557Y-236189577D01*
X218932531Y-236039654D01*
X218785599Y-235875979D01*
X218707457Y-235789187D01*
X218555267Y-235619838D01*
X218414207Y-235461953D01*
X218287817Y-235319563D01*
X218179638Y-235196699D01*
X218093212Y-235097394D01*
X218032078Y-235025677D01*
X217999777Y-234985580D01*
X217995545Y-234978639D01*
X218013620Y-234952800D01*
X218060734Y-234905905D01*
X218118813Y-234854832D01*
X218242082Y-234751626D01*
X218862507Y-235441084D01*
X219008051Y-235602899D01*
X219145764Y-235756153D01*
X219271220Y-235895908D01*
X219379990Y-236017226D01*
X219467646Y-236115169D01*
X219529761Y-236184799D01*
X219560501Y-236219558D01*
X219638069Y-236308573D01*
X220693931Y-234870039D01*
X220558802Y-234887667D01*
X220471237Y-234900203D01*
X220397647Y-234912641D01*
X220370914Y-234918226D01*
X220342337Y-234920324D01*
X220323178Y-234902844D01*
X220308503Y-234855813D01*
X220293381Y-234769257D01*
X220291632Y-234757896D01*
X220278854Y-234671499D01*
X220270411Y-234608644D01*
X220268047Y-234582371D01*
X220268115Y-234582255D01*
X220295809Y-234575781D01*
X220368137Y-234562584D01*
X220479702Y-234543508D01*
X220625108Y-234519395D01*
X220798958Y-234491087D01*
X220995855Y-234459426D01*
X221210401Y-234425255D01*
X221437201Y-234389417D01*
X221670857Y-234352753D01*
X221905972Y-234316106D01*
X222137149Y-234280318D01*
X222358993Y-234246233D01*
X222566104Y-234214692D01*
X222753088Y-234186537D01*
X222914547Y-234162612D01*
X223045084Y-234143758D01*
X223139302Y-234130817D01*
X223191805Y-234124633D01*
X223201003Y-234124460D01*
X223203459Y-234153812D01*
G37*
X223203459Y-234153812D02*
X223201900Y-234230750D01*
X223196518Y-234352186D01*
X223187506Y-234515029D01*
X223175059Y-234716192D01*
X223159369Y-234952583D01*
X223140629Y-235221115D01*
X223119032Y-235518696D01*
X223094771Y-235842238D01*
X223088389Y-235925826D01*
X223073291Y-236122873D01*
X223388059Y-236122873D01*
X223380541Y-236294494D01*
X223373023Y-236466116D01*
X223208422Y-236478829D01*
X223043820Y-236491541D01*
X222989603Y-237063613D01*
X222960145Y-237362642D01*
X222932773Y-237616358D01*
X222907633Y-237823630D01*
X222884870Y-237983329D01*
X222864629Y-238094326D01*
X222849793Y-238148805D01*
X222828962Y-238204267D01*
X222681473Y-238125653D01*
X222605465Y-238084991D01*
X222549966Y-238055020D01*
X222527505Y-238042525D01*
X222528089Y-238017336D01*
X222536702Y-237957923D01*
X222544754Y-237912896D01*
X222554455Y-237849480D01*
X222567725Y-237745305D01*
X222583423Y-237610245D01*
X222600410Y-237454174D01*
X222617546Y-237286966D01*
X222620791Y-237254076D01*
X222637247Y-237087168D01*
X222652856Y-236930684D01*
X222666652Y-236794166D01*
X222677669Y-236687153D01*
X222684941Y-236619184D01*
X222685913Y-236610675D01*
X222698725Y-236500980D01*
X222307220Y-236518887D01*
X221915715Y-236536793D01*
X221907031Y-236367917D01*
X221904399Y-236282657D01*
X221905855Y-236221690D01*
X221911061Y-236198262D01*
X221939557Y-236196590D01*
X222009769Y-236192493D01*
X222112648Y-236186498D01*
X222239145Y-236179132D01*
X222313855Y-236174784D01*
X222449125Y-236166301D01*
X222565434Y-236157844D01*
X222653795Y-236150159D01*
X222705220Y-236143992D01*
X222714469Y-236141553D01*
X222718972Y-236114599D01*
X222726380Y-236044401D01*
X222736130Y-235938370D01*
X222747656Y-235803917D01*
X222760396Y-235648453D01*
X222773784Y-235479390D01*
X222787256Y-235304139D01*
X222800249Y-235130110D01*
X222812198Y-234964715D01*
X222822538Y-234815365D01*
X222830706Y-234689471D01*
X222836137Y-234594444D01*
X222838266Y-234537696D01*
X222837560Y-234524772D01*
X222811673Y-234526704D01*
X222742024Y-234536031D01*
X222635001Y-234551719D01*
X222496989Y-234572733D01*
X222334373Y-234598040D01*
X222153541Y-234626605D01*
X221960879Y-234657394D01*
X221762772Y-234689372D01*
X221565607Y-234721505D01*
X221375769Y-234752760D01*
X221199646Y-234782101D01*
X221043622Y-234808495D01*
X220914085Y-234830908D01*
X220817420Y-234848304D01*
X220760014Y-234859651D01*
X220746645Y-234863398D01*
X220759589Y-234882425D01*
X220804187Y-234920510D01*
X220853113Y-234956753D01*
X220917148Y-235005373D01*
X220959720Y-235044372D01*
X220970320Y-235060672D01*
X220955988Y-235083760D01*
X220915689Y-235142295D01*
X220853468Y-235230674D01*
X220773369Y-235343295D01*
X220679437Y-235474556D01*
X220575716Y-235618852D01*
X220466251Y-235770581D01*
X220355087Y-235924141D01*
X220246268Y-236073928D01*
X220143839Y-236214341D01*
X220051844Y-236339775D01*
X219974329Y-236444629D01*
X219915337Y-236523299D01*
X219899555Y-236543948D01*
X219910767Y-236569686D01*
X219954781Y-236630085D01*
X220029583Y-236722742D01*
X220133160Y-236845255D01*
X220263496Y-236995224D01*
X220418577Y-237170245D01*
X220513533Y-237276140D01*
X220656921Y-237435931D01*
X220788978Y-237584039D01*
X220905957Y-237716190D01*
X221004113Y-237828111D01*
X221079698Y-237915528D01*
X221128966Y-237974166D01*
X221148172Y-237999752D01*
X221148298Y-238000271D01*
X221131472Y-238026621D01*
X221087616Y-238076504D01*
X221033639Y-238131721D01*
X220918980Y-238244251D01*
X220859449Y-238181510D01*
X220828407Y-238147800D01*
X220767921Y-238081229D01*
X220682496Y-237986790D01*
X220576640Y-237869477D01*
X220454862Y-237734283D01*
X220321667Y-237586202D01*
X220233946Y-237488567D01*
X219667974Y-236858365D01*
X219447608Y-237158036D01*
X219369529Y-237264302D01*
X219268665Y-237401710D01*
X219152269Y-237560373D01*
X219027595Y-237730402D01*
X218901895Y-237901909D01*
X218822186Y-238010710D01*
X218714783Y-238156629D01*
X218617069Y-238288019D01*
X218533064Y-238399585D01*
X218466787Y-238486034D01*
X218422257Y-238542071D01*
X218403493Y-238562401D01*
X218403385Y-238562405D01*
X218377545Y-238547148D01*
X218325016Y-238509064D01*
X218275225Y-238470579D01*
X218213456Y-238416373D01*
X218173063Y-238370628D01*
X218163587Y-238349286D01*
X218178763Y-238322777D01*
X218220964Y-238259782D01*
X218287036Y-238164745D01*
X218373825Y-238042108D01*
X218478177Y-237896312D01*
X218596940Y-237731802D01*
X218726959Y-237553018D01*
X218792867Y-237462853D01*
X218926922Y-237279438D01*
X219051162Y-237108826D01*
X219162460Y-236955355D01*
X219257692Y-236823361D01*
X219333733Y-236717183D01*
X219387458Y-236641159D01*
X219415743Y-236599626D01*
X219419369Y-236593164D01*
X219402900Y-236571892D01*
X219355849Y-236516904D01*
X219281751Y-236432195D01*
X219184142Y-236321755D01*
X219066557Y-236189577D01*
X218932531Y-236039654D01*
X218785599Y-235875979D01*
X218707457Y-235789187D01*
X218555267Y-235619838D01*
X218414207Y-235461953D01*
X218287817Y-235319563D01*
X218179638Y-235196699D01*
X218093212Y-235097394D01*
X218032078Y-235025677D01*
X217999777Y-234985580D01*
X217995545Y-234978639D01*
X218013620Y-234952800D01*
X218060734Y-234905905D01*
X218118813Y-234854832D01*
X218242082Y-234751626D01*
X218862507Y-235441084D01*
X219008051Y-235602899D01*
X219145764Y-235756153D01*
X219271220Y-235895908D01*
X219379990Y-236017226D01*
X219467646Y-236115169D01*
X219529761Y-236184799D01*
X219560501Y-236219558D01*
X219638069Y-236308573D01*
X220693931Y-234870039D01*
X220558802Y-234887667D01*
X220471237Y-234900203D01*
X220397647Y-234912641D01*
X220370914Y-234918226D01*
X220342337Y-234920324D01*
X220323178Y-234902844D01*
X220308503Y-234855813D01*
X220293381Y-234769257D01*
X220291632Y-234757896D01*
X220278854Y-234671499D01*
X220270411Y-234608644D01*
X220268047Y-234582371D01*
X220268115Y-234582255D01*
X220295809Y-234575781D01*
X220368137Y-234562584D01*
X220479702Y-234543508D01*
X220625108Y-234519395D01*
X220798958Y-234491087D01*
X220995855Y-234459426D01*
X221210401Y-234425255D01*
X221437201Y-234389417D01*
X221670857Y-234352753D01*
X221905972Y-234316106D01*
X222137149Y-234280318D01*
X222358993Y-234246233D01*
X222566104Y-234214692D01*
X222753088Y-234186537D01*
X222914547Y-234162612D01*
X223045084Y-234143758D01*
X223139302Y-234130817D01*
X223191805Y-234124633D01*
X223201003Y-234124460D01*
X223203459Y-234153812D01*
G36*
X226384060Y-235480881D02*
G01*
X226381929Y-235579009D01*
X226377372Y-235712463D01*
X226370995Y-235865809D01*
X226363405Y-236023614D01*
X226360847Y-236072022D01*
X226339509Y-236466116D01*
X226521631Y-236866178D01*
X226581730Y-236996631D01*
X226635006Y-237109323D01*
X226677806Y-237196764D01*
X226706479Y-237251462D01*
X226716903Y-237266629D01*
X226725322Y-237242817D01*
X226743619Y-237174809D01*
X226770480Y-237068011D01*
X226804592Y-236927829D01*
X226844641Y-236759670D01*
X226889314Y-236568942D01*
X226937297Y-236361051D01*
X226943804Y-236332632D01*
X226991849Y-236122721D01*
X227036224Y-235929055D01*
X227075680Y-235757070D01*
X227108969Y-235612204D01*
X227134839Y-235499892D01*
X227152042Y-235425572D01*
X227159329Y-235394680D01*
X227159483Y-235394136D01*
X227183157Y-235397186D01*
X227243476Y-235409112D01*
X227327535Y-235427357D01*
X227330124Y-235427938D01*
X227422050Y-235451262D01*
X227472326Y-235472202D01*
X227489696Y-235495185D01*
X227488893Y-235508326D01*
X227481485Y-235540430D01*
X227463759Y-235617476D01*
X227436778Y-235734844D01*
X227401601Y-235887914D01*
X227359291Y-236072066D01*
X227310909Y-236282681D01*
X227257517Y-236515138D01*
X227200176Y-236764818D01*
X227160754Y-236936486D01*
X227101556Y-237194166D01*
X227045712Y-237437004D01*
X226994268Y-237660478D01*
X226948268Y-237860062D01*
X226908756Y-238031231D01*
X226876776Y-238169460D01*
X226853372Y-238270224D01*
X226839588Y-238328999D01*
X226836251Y-238342651D01*
X226824375Y-238326629D01*
X226794535Y-238270492D01*
X226749777Y-238180432D01*
X226693147Y-238062643D01*
X226627688Y-237923318D01*
X226589796Y-237841426D01*
X226506771Y-237663167D01*
X226441573Y-237529022D01*
X226392155Y-237436303D01*
X226356471Y-237382317D01*
X226332474Y-237364373D01*
X226318117Y-237379781D01*
X226311355Y-237425850D01*
X226310049Y-237473598D01*
X226305531Y-237559784D01*
X226295201Y-237638351D01*
X226295099Y-237638864D01*
X226285132Y-237678172D01*
X226266721Y-237699304D01*
X226227271Y-237706830D01*
X226154188Y-237705318D01*
X226117121Y-237703436D01*
X225953703Y-237694910D01*
X225953587Y-237563596D01*
X225954722Y-237496034D01*
X225957988Y-237385596D01*
X225963065Y-237239740D01*
X225969631Y-237065920D01*
X225977364Y-236871594D01*
X225985943Y-236664216D01*
X225995046Y-236451244D01*
X226004353Y-236240134D01*
X226013540Y-236038341D01*
X226022288Y-235853322D01*
X226030273Y-235692533D01*
X226037176Y-235563430D01*
X226042674Y-235473469D01*
X226045039Y-235442743D01*
X226059452Y-235283834D01*
X226385936Y-235283834D01*
X226384060Y-235480881D01*
G37*
X226384060Y-235480881D02*
X226381929Y-235579009D01*
X226377372Y-235712463D01*
X226370995Y-235865809D01*
X226363405Y-236023614D01*
X226360847Y-236072022D01*
X226339509Y-236466116D01*
X226521631Y-236866178D01*
X226581730Y-236996631D01*
X226635006Y-237109323D01*
X226677806Y-237196764D01*
X226706479Y-237251462D01*
X226716903Y-237266629D01*
X226725322Y-237242817D01*
X226743619Y-237174809D01*
X226770480Y-237068011D01*
X226804592Y-236927829D01*
X226844641Y-236759670D01*
X226889314Y-236568942D01*
X226937297Y-236361051D01*
X226943804Y-236332632D01*
X226991849Y-236122721D01*
X227036224Y-235929055D01*
X227075680Y-235757070D01*
X227108969Y-235612204D01*
X227134839Y-235499892D01*
X227152042Y-235425572D01*
X227159329Y-235394680D01*
X227159483Y-235394136D01*
X227183157Y-235397186D01*
X227243476Y-235409112D01*
X227327535Y-235427357D01*
X227330124Y-235427938D01*
X227422050Y-235451262D01*
X227472326Y-235472202D01*
X227489696Y-235495185D01*
X227488893Y-235508326D01*
X227481485Y-235540430D01*
X227463759Y-235617476D01*
X227436778Y-235734844D01*
X227401601Y-235887914D01*
X227359291Y-236072066D01*
X227310909Y-236282681D01*
X227257517Y-236515138D01*
X227200176Y-236764818D01*
X227160754Y-236936486D01*
X227101556Y-237194166D01*
X227045712Y-237437004D01*
X226994268Y-237660478D01*
X226948268Y-237860062D01*
X226908756Y-238031231D01*
X226876776Y-238169460D01*
X226853372Y-238270224D01*
X226839588Y-238328999D01*
X226836251Y-238342651D01*
X226824375Y-238326629D01*
X226794535Y-238270492D01*
X226749777Y-238180432D01*
X226693147Y-238062643D01*
X226627688Y-237923318D01*
X226589796Y-237841426D01*
X226506771Y-237663167D01*
X226441573Y-237529022D01*
X226392155Y-237436303D01*
X226356471Y-237382317D01*
X226332474Y-237364373D01*
X226318117Y-237379781D01*
X226311355Y-237425850D01*
X226310049Y-237473598D01*
X226305531Y-237559784D01*
X226295201Y-237638351D01*
X226295099Y-237638864D01*
X226285132Y-237678172D01*
X226266721Y-237699304D01*
X226227271Y-237706830D01*
X226154188Y-237705318D01*
X226117121Y-237703436D01*
X225953703Y-237694910D01*
X225953587Y-237563596D01*
X225954722Y-237496034D01*
X225957988Y-237385596D01*
X225963065Y-237239740D01*
X225969631Y-237065920D01*
X225977364Y-236871594D01*
X225985943Y-236664216D01*
X225995046Y-236451244D01*
X226004353Y-236240134D01*
X226013540Y-236038341D01*
X226022288Y-235853322D01*
X226030273Y-235692533D01*
X226037176Y-235563430D01*
X226042674Y-235473469D01*
X226045039Y-235442743D01*
X226059452Y-235283834D01*
X226385936Y-235283834D01*
X226384060Y-235480881D01*
G36*
X225129534Y-235972476D02*
G01*
X225286960Y-236130221D01*
X225432561Y-236276874D01*
X225562525Y-236408536D01*
X225673039Y-236521313D01*
X225760290Y-236611306D01*
X225820465Y-236674619D01*
X225849753Y-236707355D01*
X225852002Y-236710888D01*
X225833317Y-236730892D01*
X225780481Y-236779445D01*
X225698318Y-236852437D01*
X225591652Y-236945757D01*
X225465309Y-237055297D01*
X225324113Y-237176945D01*
X225172890Y-237306592D01*
X225016463Y-237440128D01*
X224859658Y-237573442D01*
X224707300Y-237702425D01*
X224564213Y-237822966D01*
X224435222Y-237930955D01*
X224325152Y-238022283D01*
X224238829Y-238092838D01*
X224181076Y-238138512D01*
X224156718Y-238155194D01*
X224156524Y-238155202D01*
X224130905Y-238139368D01*
X224072785Y-238096526D01*
X223988978Y-238031918D01*
X223886303Y-237950782D01*
X223792542Y-237875378D01*
X223680003Y-237783192D01*
X223581980Y-237700995D01*
X223505082Y-237634486D01*
X223455917Y-237589359D01*
X223440944Y-237572339D01*
X223451627Y-237541590D01*
X223486120Y-237487687D01*
X223533494Y-237424609D01*
X223582819Y-237366337D01*
X223623169Y-237326853D01*
X223639870Y-237317868D01*
X223666231Y-237332886D01*
X223723275Y-237373659D01*
X223802309Y-237433764D01*
X223884705Y-237498795D01*
X223977598Y-237572218D01*
X224057718Y-237633588D01*
X224115783Y-237675919D01*
X224141147Y-237691825D01*
X224167468Y-237678942D01*
X224227225Y-237636670D01*
X224315441Y-237568944D01*
X224427143Y-237479700D01*
X224557355Y-237372871D01*
X224701102Y-237252394D01*
X224760298Y-237202098D01*
X225348661Y-236700269D01*
X224842417Y-236194026D01*
X224336174Y-235687782D01*
X224019863Y-235869658D01*
X223867849Y-235957597D01*
X223754106Y-236022964D01*
X223672035Y-236067108D01*
X223615035Y-236091380D01*
X223576506Y-236097130D01*
X223549847Y-236085708D01*
X223528457Y-236058465D01*
X223505737Y-236016749D01*
X223485148Y-235979032D01*
X223456600Y-235931835D01*
X223435323Y-235894989D01*
X223425541Y-235864238D01*
X223431477Y-235835328D01*
X223457355Y-235804002D01*
X223507399Y-235766006D01*
X223585832Y-235717084D01*
X223696878Y-235652980D01*
X223844759Y-235569440D01*
X223951808Y-235508850D01*
X224407066Y-235250341D01*
X225129534Y-235972476D01*
G37*
X225129534Y-235972476D02*
X225286960Y-236130221D01*
X225432561Y-236276874D01*
X225562525Y-236408536D01*
X225673039Y-236521313D01*
X225760290Y-236611306D01*
X225820465Y-236674619D01*
X225849753Y-236707355D01*
X225852002Y-236710888D01*
X225833317Y-236730892D01*
X225780481Y-236779445D01*
X225698318Y-236852437D01*
X225591652Y-236945757D01*
X225465309Y-237055297D01*
X225324113Y-237176945D01*
X225172890Y-237306592D01*
X225016463Y-237440128D01*
X224859658Y-237573442D01*
X224707300Y-237702425D01*
X224564213Y-237822966D01*
X224435222Y-237930955D01*
X224325152Y-238022283D01*
X224238829Y-238092838D01*
X224181076Y-238138512D01*
X224156718Y-238155194D01*
X224156524Y-238155202D01*
X224130905Y-238139368D01*
X224072785Y-238096526D01*
X223988978Y-238031918D01*
X223886303Y-237950782D01*
X223792542Y-237875378D01*
X223680003Y-237783192D01*
X223581980Y-237700995D01*
X223505082Y-237634486D01*
X223455917Y-237589359D01*
X223440944Y-237572339D01*
X223451627Y-237541590D01*
X223486120Y-237487687D01*
X223533494Y-237424609D01*
X223582819Y-237366337D01*
X223623169Y-237326853D01*
X223639870Y-237317868D01*
X223666231Y-237332886D01*
X223723275Y-237373659D01*
X223802309Y-237433764D01*
X223884705Y-237498795D01*
X223977598Y-237572218D01*
X224057718Y-237633588D01*
X224115783Y-237675919D01*
X224141147Y-237691825D01*
X224167468Y-237678942D01*
X224227225Y-237636670D01*
X224315441Y-237568944D01*
X224427143Y-237479700D01*
X224557355Y-237372871D01*
X224701102Y-237252394D01*
X224760298Y-237202098D01*
X225348661Y-236700269D01*
X224842417Y-236194026D01*
X224336174Y-235687782D01*
X224019863Y-235869658D01*
X223867849Y-235957597D01*
X223754106Y-236022964D01*
X223672035Y-236067108D01*
X223615035Y-236091380D01*
X223576506Y-236097130D01*
X223549847Y-236085708D01*
X223528457Y-236058465D01*
X223505737Y-236016749D01*
X223485148Y-235979032D01*
X223456600Y-235931835D01*
X223435323Y-235894989D01*
X223425541Y-235864238D01*
X223431477Y-235835328D01*
X223457355Y-235804002D01*
X223507399Y-235766006D01*
X223585832Y-235717084D01*
X223696878Y-235652980D01*
X223844759Y-235569440D01*
X223951808Y-235508850D01*
X224407066Y-235250341D01*
X225129534Y-235972476D01*
G36*
X231054281Y-235795121D02*
G01*
X231211459Y-235953041D01*
X231356441Y-236100279D01*
X231485455Y-236232887D01*
X231594730Y-236346918D01*
X231680495Y-236438422D01*
X231738978Y-236503452D01*
X231766407Y-236538060D01*
X231767970Y-236542267D01*
X231747107Y-236564825D01*
X231692297Y-236615680D01*
X231608404Y-236690682D01*
X231500293Y-236785685D01*
X231372829Y-236896543D01*
X231230878Y-237019107D01*
X231079306Y-237149230D01*
X230922976Y-237282766D01*
X230766755Y-237415567D01*
X230615507Y-237543486D01*
X230474098Y-237662376D01*
X230347393Y-237768090D01*
X230240257Y-237856480D01*
X230157556Y-237923399D01*
X230104154Y-237964701D01*
X230085335Y-237976568D01*
X230058151Y-237960924D01*
X229998628Y-237918203D01*
X229913685Y-237853646D01*
X229810244Y-237772494D01*
X229716666Y-237697400D01*
X229604316Y-237605547D01*
X229506591Y-237524095D01*
X229430052Y-237458637D01*
X229381260Y-237414769D01*
X229366557Y-237398826D01*
X229377490Y-237370111D01*
X229411222Y-237317015D01*
X229457211Y-237253554D01*
X229504918Y-237193747D01*
X229543804Y-237151609D01*
X229561159Y-237140023D01*
X229585855Y-237155064D01*
X229642053Y-237196052D01*
X229721725Y-237256952D01*
X229816841Y-237331727D01*
X229829317Y-237341668D01*
X230081807Y-237543180D01*
X230325113Y-237335633D01*
X230430041Y-237245981D01*
X230560404Y-237134377D01*
X230703100Y-237012051D01*
X230845029Y-236890229D01*
X230920570Y-236825314D01*
X231272723Y-236522542D01*
X230769910Y-236019258D01*
X230622390Y-235871796D01*
X230506309Y-235756712D01*
X230417231Y-235670344D01*
X230350722Y-235609030D01*
X230302345Y-235569106D01*
X230267667Y-235546911D01*
X230242253Y-235538782D01*
X230221667Y-235541058D01*
X230201642Y-235549987D01*
X230156103Y-235574852D01*
X230076664Y-235619424D01*
X229973456Y-235677975D01*
X229856611Y-235744777D01*
X229822363Y-235764448D01*
X229709529Y-235828951D01*
X229613283Y-235883260D01*
X229541755Y-235922842D01*
X229503073Y-235943164D01*
X229498703Y-235944895D01*
X229481816Y-235924821D01*
X229449642Y-235874323D01*
X229410560Y-235807989D01*
X229372946Y-235740405D01*
X229345176Y-235686157D01*
X229335524Y-235660746D01*
X229356557Y-235643744D01*
X229415638Y-235605549D01*
X229506521Y-235549949D01*
X229622960Y-235480731D01*
X229758711Y-235401682D01*
X229833819Y-235358544D01*
X230332353Y-235073526D01*
X231054281Y-235795121D01*
G37*
X231054281Y-235795121D02*
X231211459Y-235953041D01*
X231356441Y-236100279D01*
X231485455Y-236232887D01*
X231594730Y-236346918D01*
X231680495Y-236438422D01*
X231738978Y-236503452D01*
X231766407Y-236538060D01*
X231767970Y-236542267D01*
X231747107Y-236564825D01*
X231692297Y-236615680D01*
X231608404Y-236690682D01*
X231500293Y-236785685D01*
X231372829Y-236896543D01*
X231230878Y-237019107D01*
X231079306Y-237149230D01*
X230922976Y-237282766D01*
X230766755Y-237415567D01*
X230615507Y-237543486D01*
X230474098Y-237662376D01*
X230347393Y-237768090D01*
X230240257Y-237856480D01*
X230157556Y-237923399D01*
X230104154Y-237964701D01*
X230085335Y-237976568D01*
X230058151Y-237960924D01*
X229998628Y-237918203D01*
X229913685Y-237853646D01*
X229810244Y-237772494D01*
X229716666Y-237697400D01*
X229604316Y-237605547D01*
X229506591Y-237524095D01*
X229430052Y-237458637D01*
X229381260Y-237414769D01*
X229366557Y-237398826D01*
X229377490Y-237370111D01*
X229411222Y-237317015D01*
X229457211Y-237253554D01*
X229504918Y-237193747D01*
X229543804Y-237151609D01*
X229561159Y-237140023D01*
X229585855Y-237155064D01*
X229642053Y-237196052D01*
X229721725Y-237256952D01*
X229816841Y-237331727D01*
X229829317Y-237341668D01*
X230081807Y-237543180D01*
X230325113Y-237335633D01*
X230430041Y-237245981D01*
X230560404Y-237134377D01*
X230703100Y-237012051D01*
X230845029Y-236890229D01*
X230920570Y-236825314D01*
X231272723Y-236522542D01*
X230769910Y-236019258D01*
X230622390Y-235871796D01*
X230506309Y-235756712D01*
X230417231Y-235670344D01*
X230350722Y-235609030D01*
X230302345Y-235569106D01*
X230267667Y-235546911D01*
X230242253Y-235538782D01*
X230221667Y-235541058D01*
X230201642Y-235549987D01*
X230156103Y-235574852D01*
X230076664Y-235619424D01*
X229973456Y-235677975D01*
X229856611Y-235744777D01*
X229822363Y-235764448D01*
X229709529Y-235828951D01*
X229613283Y-235883260D01*
X229541755Y-235922842D01*
X229503073Y-235943164D01*
X229498703Y-235944895D01*
X229481816Y-235924821D01*
X229449642Y-235874323D01*
X229410560Y-235807989D01*
X229372946Y-235740405D01*
X229345176Y-235686157D01*
X229335524Y-235660746D01*
X229356557Y-235643744D01*
X229415638Y-235605549D01*
X229506521Y-235549949D01*
X229622960Y-235480731D01*
X229758711Y-235401682D01*
X229833819Y-235358544D01*
X230332353Y-235073526D01*
X231054281Y-235795121D01*
G36*
X228639634Y-235245695D02*
G01*
X228716861Y-235325109D01*
X228781108Y-235385258D01*
X228825039Y-235419658D01*
X228840990Y-235423673D01*
X228870755Y-235411346D01*
X228938215Y-235405551D01*
X229017408Y-235406774D01*
X229106231Y-235412497D01*
X229155715Y-235421612D01*
X229177337Y-235439416D01*
X229182573Y-235471207D01*
X229182666Y-235483050D01*
X229180956Y-235522092D01*
X229176094Y-235606323D01*
X229168436Y-235730202D01*
X229158339Y-235888187D01*
X229146160Y-236074739D01*
X229132257Y-236284316D01*
X229116985Y-236511377D01*
X229106390Y-236667239D01*
X229090388Y-236903543D01*
X229075529Y-237126655D01*
X229062168Y-237330923D01*
X229050666Y-237510699D01*
X229041380Y-237660330D01*
X229034670Y-237774168D01*
X229030892Y-237846561D01*
X229030180Y-237868590D01*
X229025232Y-237924232D01*
X229013119Y-237948649D01*
X229011111Y-237948604D01*
X228977443Y-237944715D01*
X228908696Y-237939457D01*
X228830855Y-237934619D01*
X228669669Y-237925533D01*
X228685183Y-237691620D01*
X228690512Y-237605220D01*
X228697885Y-237476977D01*
X228706813Y-237315837D01*
X228716808Y-237130747D01*
X228727383Y-236930652D01*
X228738050Y-236724498D01*
X228739895Y-236688358D01*
X228779093Y-235919008D01*
X228608511Y-235729165D01*
X228437928Y-235539322D01*
X228084588Y-235873203D01*
X227970731Y-235978667D01*
X227870828Y-236067125D01*
X227790455Y-236133944D01*
X227735187Y-236174491D01*
X227710600Y-236184132D01*
X227710520Y-236184047D01*
X227682931Y-236153056D01*
X227634393Y-236098267D01*
X227597331Y-236056346D01*
X227504869Y-235951682D01*
X227752660Y-235712120D01*
X227872222Y-235596690D01*
X228005323Y-235468445D01*
X228134244Y-235344447D01*
X228224910Y-235257425D01*
X228449371Y-235042292D01*
X228639634Y-235245695D01*
G37*
X228639634Y-235245695D02*
X228716861Y-235325109D01*
X228781108Y-235385258D01*
X228825039Y-235419658D01*
X228840990Y-235423673D01*
X228870755Y-235411346D01*
X228938215Y-235405551D01*
X229017408Y-235406774D01*
X229106231Y-235412497D01*
X229155715Y-235421612D01*
X229177337Y-235439416D01*
X229182573Y-235471207D01*
X229182666Y-235483050D01*
X229180956Y-235522092D01*
X229176094Y-235606323D01*
X229168436Y-235730202D01*
X229158339Y-235888187D01*
X229146160Y-236074739D01*
X229132257Y-236284316D01*
X229116985Y-236511377D01*
X229106390Y-236667239D01*
X229090388Y-236903543D01*
X229075529Y-237126655D01*
X229062168Y-237330923D01*
X229050666Y-237510699D01*
X229041380Y-237660330D01*
X229034670Y-237774168D01*
X229030892Y-237846561D01*
X229030180Y-237868590D01*
X229025232Y-237924232D01*
X229013119Y-237948649D01*
X229011111Y-237948604D01*
X228977443Y-237944715D01*
X228908696Y-237939457D01*
X228830855Y-237934619D01*
X228669669Y-237925533D01*
X228685183Y-237691620D01*
X228690512Y-237605220D01*
X228697885Y-237476977D01*
X228706813Y-237315837D01*
X228716808Y-237130747D01*
X228727383Y-236930652D01*
X228738050Y-236724498D01*
X228739895Y-236688358D01*
X228779093Y-235919008D01*
X228608511Y-235729165D01*
X228437928Y-235539322D01*
X228084588Y-235873203D01*
X227970731Y-235978667D01*
X227870828Y-236067125D01*
X227790455Y-236133944D01*
X227735187Y-236174491D01*
X227710600Y-236184132D01*
X227710520Y-236184047D01*
X227682931Y-236153056D01*
X227634393Y-236098267D01*
X227597331Y-236056346D01*
X227504869Y-235951682D01*
X227752660Y-235712120D01*
X227872222Y-235596690D01*
X228005323Y-235468445D01*
X228134244Y-235344447D01*
X228224910Y-235257425D01*
X228449371Y-235042292D01*
X228639634Y-235245695D01*
G36*
X217194507Y-236194442D02*
G01*
X217390687Y-236237186D01*
X217580798Y-236313272D01*
X217756680Y-236421939D01*
X217845907Y-236496728D01*
X217954499Y-236618569D01*
X218038672Y-236753696D01*
X218095665Y-236892912D01*
X218122712Y-237027022D01*
X218117051Y-237146828D01*
X218075919Y-237243136D01*
X218071821Y-237248529D01*
X218030463Y-237337909D01*
X218020971Y-237418236D01*
X217996780Y-237560222D01*
X217928024Y-237687837D01*
X217820427Y-237794248D01*
X217679711Y-237872625D01*
X217623982Y-237892083D01*
X217493468Y-237916839D01*
X217335618Y-237925020D01*
X217171121Y-237916760D01*
X217020667Y-237892196D01*
X217003954Y-237888005D01*
X216839847Y-237833237D01*
X216675430Y-237757630D01*
X216521015Y-237667769D01*
X216386918Y-237570236D01*
X216283451Y-237471614D01*
X216227626Y-237392495D01*
X216204211Y-237320737D01*
X216193203Y-237230031D01*
X216193584Y-237133433D01*
X216204336Y-237043996D01*
X216224439Y-236974778D01*
X216252876Y-236938832D01*
X216263203Y-236936486D01*
X216269640Y-236958299D01*
X216261622Y-237014484D01*
X216248162Y-237067176D01*
X216226199Y-237200882D01*
X216246785Y-237319581D01*
X216312719Y-237432595D01*
X216379967Y-237506205D01*
X216485977Y-237591511D01*
X216624435Y-237678121D01*
X216778001Y-237757008D01*
X216929333Y-237819143D01*
X217044835Y-237852371D01*
X217205977Y-237873293D01*
X217376185Y-237874187D01*
X217538991Y-237856360D01*
X217677927Y-237821119D01*
X217732504Y-237797786D01*
X217849046Y-237713111D01*
X217929523Y-237601872D01*
X217967537Y-237473831D01*
X217969701Y-237435918D01*
X217966657Y-237373509D01*
X217952840Y-237351019D01*
X217925625Y-237356342D01*
X217701551Y-237422543D01*
X217468430Y-237438786D01*
X217226578Y-237405093D01*
X216976307Y-237321488D01*
X216883729Y-237278940D01*
X216700794Y-237172237D01*
X216556478Y-237053295D01*
X216452420Y-236926118D01*
X216390260Y-236794706D01*
X216382531Y-236740073D01*
X216422380Y-236740073D01*
X216442891Y-236817592D01*
X216506536Y-236925775D01*
X216610915Y-237035313D01*
X216746473Y-237140038D01*
X216903651Y-237233783D01*
X217072894Y-237310379D01*
X217244645Y-237363660D01*
X217309059Y-237376591D01*
X217440592Y-237388994D01*
X217585283Y-237387796D01*
X217716877Y-237373676D01*
X217758317Y-237364980D01*
X217875025Y-237315257D01*
X217972979Y-237241790D01*
X218034666Y-237175616D01*
X218064254Y-237118445D01*
X218071821Y-237051431D01*
X218056484Y-236915341D01*
X218015052Y-236787160D01*
X217968125Y-236706189D01*
X217934840Y-236665021D01*
X217922165Y-236662975D01*
X217919848Y-236698760D01*
X217919834Y-236700105D01*
X217895289Y-236806238D01*
X217824295Y-236892086D01*
X217748251Y-236939271D01*
X217610655Y-236980342D01*
X217452211Y-236986501D01*
X217283819Y-236961581D01*
X217116378Y-236909413D01*
X216960790Y-236833830D01*
X216827954Y-236738663D01*
X216728771Y-236627746D01*
X216695999Y-236569338D01*
X216671266Y-236504469D01*
X217397915Y-236504469D01*
X217405749Y-236529315D01*
X217443361Y-236552779D01*
X217490292Y-236565598D01*
X217522670Y-236560951D01*
X217523413Y-236538235D01*
X217498742Y-236513086D01*
X217444213Y-236482210D01*
X217409878Y-236489391D01*
X217397915Y-236504469D01*
X216671266Y-236504469D01*
X216666518Y-236492018D01*
X216649878Y-236424373D01*
X216648556Y-236408909D01*
X216647167Y-236401740D01*
X217385335Y-236401740D01*
X217406306Y-236430986D01*
X217454763Y-236462110D01*
X217509027Y-236484017D01*
X217547417Y-236485612D01*
X217548273Y-236485123D01*
X217547901Y-236461482D01*
X217514556Y-236424563D01*
X217513773Y-236423926D01*
X217455302Y-236387951D01*
X217408112Y-236378110D01*
X217385721Y-236396739D01*
X217385335Y-236401740D01*
X216647167Y-236401740D01*
X216639404Y-236361690D01*
X216609786Y-236358680D01*
X216571124Y-236384292D01*
X216476825Y-236488246D01*
X216426377Y-236609767D01*
X216422380Y-236740073D01*
X216382531Y-236740073D01*
X216371636Y-236663062D01*
X216398190Y-236535187D01*
X216471558Y-236415083D01*
X216512244Y-236372134D01*
X216651125Y-236273887D01*
X216816568Y-236212030D01*
X217000415Y-236185803D01*
X217194507Y-236194442D01*
G37*
X217194507Y-236194442D02*
X217390687Y-236237186D01*
X217580798Y-236313272D01*
X217756680Y-236421939D01*
X217845907Y-236496728D01*
X217954499Y-236618569D01*
X218038672Y-236753696D01*
X218095665Y-236892912D01*
X218122712Y-237027022D01*
X218117051Y-237146828D01*
X218075919Y-237243136D01*
X218071821Y-237248529D01*
X218030463Y-237337909D01*
X218020971Y-237418236D01*
X217996780Y-237560222D01*
X217928024Y-237687837D01*
X217820427Y-237794248D01*
X217679711Y-237872625D01*
X217623982Y-237892083D01*
X217493468Y-237916839D01*
X217335618Y-237925020D01*
X217171121Y-237916760D01*
X217020667Y-237892196D01*
X217003954Y-237888005D01*
X216839847Y-237833237D01*
X216675430Y-237757630D01*
X216521015Y-237667769D01*
X216386918Y-237570236D01*
X216283451Y-237471614D01*
X216227626Y-237392495D01*
X216204211Y-237320737D01*
X216193203Y-237230031D01*
X216193584Y-237133433D01*
X216204336Y-237043996D01*
X216224439Y-236974778D01*
X216252876Y-236938832D01*
X216263203Y-236936486D01*
X216269640Y-236958299D01*
X216261622Y-237014484D01*
X216248162Y-237067176D01*
X216226199Y-237200882D01*
X216246785Y-237319581D01*
X216312719Y-237432595D01*
X216379967Y-237506205D01*
X216485977Y-237591511D01*
X216624435Y-237678121D01*
X216778001Y-237757008D01*
X216929333Y-237819143D01*
X217044835Y-237852371D01*
X217205977Y-237873293D01*
X217376185Y-237874187D01*
X217538991Y-237856360D01*
X217677927Y-237821119D01*
X217732504Y-237797786D01*
X217849046Y-237713111D01*
X217929523Y-237601872D01*
X217967537Y-237473831D01*
X217969701Y-237435918D01*
X217966657Y-237373509D01*
X217952840Y-237351019D01*
X217925625Y-237356342D01*
X217701551Y-237422543D01*
X217468430Y-237438786D01*
X217226578Y-237405093D01*
X216976307Y-237321488D01*
X216883729Y-237278940D01*
X216700794Y-237172237D01*
X216556478Y-237053295D01*
X216452420Y-236926118D01*
X216390260Y-236794706D01*
X216382531Y-236740073D01*
X216422380Y-236740073D01*
X216442891Y-236817592D01*
X216506536Y-236925775D01*
X216610915Y-237035313D01*
X216746473Y-237140038D01*
X216903651Y-237233783D01*
X217072894Y-237310379D01*
X217244645Y-237363660D01*
X217309059Y-237376591D01*
X217440592Y-237388994D01*
X217585283Y-237387796D01*
X217716877Y-237373676D01*
X217758317Y-237364980D01*
X217875025Y-237315257D01*
X217972979Y-237241790D01*
X218034666Y-237175616D01*
X218064254Y-237118445D01*
X218071821Y-237051431D01*
X218056484Y-236915341D01*
X218015052Y-236787160D01*
X217968125Y-236706189D01*
X217934840Y-236665021D01*
X217922165Y-236662975D01*
X217919848Y-236698760D01*
X217919834Y-236700105D01*
X217895289Y-236806238D01*
X217824295Y-236892086D01*
X217748251Y-236939271D01*
X217610655Y-236980342D01*
X217452211Y-236986501D01*
X217283819Y-236961581D01*
X217116378Y-236909413D01*
X216960790Y-236833830D01*
X216827954Y-236738663D01*
X216728771Y-236627746D01*
X216695999Y-236569338D01*
X216671266Y-236504469D01*
X217397915Y-236504469D01*
X217405749Y-236529315D01*
X217443361Y-236552779D01*
X217490292Y-236565598D01*
X217522670Y-236560951D01*
X217523413Y-236538235D01*
X217498742Y-236513086D01*
X217444213Y-236482210D01*
X217409878Y-236489391D01*
X217397915Y-236504469D01*
X216671266Y-236504469D01*
X216666518Y-236492018D01*
X216649878Y-236424373D01*
X216648556Y-236408909D01*
X216647167Y-236401740D01*
X217385335Y-236401740D01*
X217406306Y-236430986D01*
X217454763Y-236462110D01*
X217509027Y-236484017D01*
X217547417Y-236485612D01*
X217548273Y-236485123D01*
X217547901Y-236461482D01*
X217514556Y-236424563D01*
X217513773Y-236423926D01*
X217455302Y-236387951D01*
X217408112Y-236378110D01*
X217385721Y-236396739D01*
X217385335Y-236401740D01*
X216647167Y-236401740D01*
X216639404Y-236361690D01*
X216609786Y-236358680D01*
X216571124Y-236384292D01*
X216476825Y-236488246D01*
X216426377Y-236609767D01*
X216422380Y-236740073D01*
X216382531Y-236740073D01*
X216371636Y-236663062D01*
X216398190Y-236535187D01*
X216471558Y-236415083D01*
X216512244Y-236372134D01*
X216651125Y-236273887D01*
X216816568Y-236212030D01*
X217000415Y-236185803D01*
X217194507Y-236194442D01*
G36*
X216443827Y-234885671D02*
G01*
X216529234Y-234914643D01*
X216638228Y-234957234D01*
X216763389Y-235010654D01*
X216897295Y-235072114D01*
X216940390Y-235092834D01*
X217225238Y-235245969D01*
X217476821Y-235414717D01*
X217712626Y-235611503D01*
X217832269Y-235726486D01*
X217946119Y-235843353D01*
X218030967Y-235938805D01*
X218096078Y-236024909D01*
X218150722Y-236113733D01*
X218195249Y-236199149D01*
X218259837Y-236346606D01*
X218307814Y-236489644D01*
X218328286Y-236580305D01*
X218339840Y-236698203D01*
X218339504Y-236818677D01*
X218328839Y-236931133D01*
X218309407Y-237024976D01*
X218282772Y-237089611D01*
X218250494Y-237114445D01*
X218249534Y-237114464D01*
X218238256Y-237096644D01*
X218254827Y-237057257D01*
X218276376Y-236986765D01*
X218287202Y-236880952D01*
X218287855Y-236754081D01*
X218278891Y-236620416D01*
X218260861Y-236494221D01*
X218234319Y-236389758D01*
X218228311Y-236373419D01*
X218107091Y-236131060D01*
X217939029Y-235897063D01*
X217727869Y-235674607D01*
X217477354Y-235466868D01*
X217191228Y-235277024D01*
X216873236Y-235108252D01*
X216599288Y-234990880D01*
X216502809Y-234951124D01*
X216426262Y-234914952D01*
X216380881Y-234887892D01*
X216373460Y-234879741D01*
X216389428Y-234873107D01*
X216443827Y-234885671D01*
G37*
X216443827Y-234885671D02*
X216529234Y-234914643D01*
X216638228Y-234957234D01*
X216763389Y-235010654D01*
X216897295Y-235072114D01*
X216940390Y-235092834D01*
X217225238Y-235245969D01*
X217476821Y-235414717D01*
X217712626Y-235611503D01*
X217832269Y-235726486D01*
X217946119Y-235843353D01*
X218030967Y-235938805D01*
X218096078Y-236024909D01*
X218150722Y-236113733D01*
X218195249Y-236199149D01*
X218259837Y-236346606D01*
X218307814Y-236489644D01*
X218328286Y-236580305D01*
X218339840Y-236698203D01*
X218339504Y-236818677D01*
X218328839Y-236931133D01*
X218309407Y-237024976D01*
X218282772Y-237089611D01*
X218250494Y-237114445D01*
X218249534Y-237114464D01*
X218238256Y-237096644D01*
X218254827Y-237057257D01*
X218276376Y-236986765D01*
X218287202Y-236880952D01*
X218287855Y-236754081D01*
X218278891Y-236620416D01*
X218260861Y-236494221D01*
X218234319Y-236389758D01*
X218228311Y-236373419D01*
X218107091Y-236131060D01*
X217939029Y-235897063D01*
X217727869Y-235674607D01*
X217477354Y-235466868D01*
X217191228Y-235277024D01*
X216873236Y-235108252D01*
X216599288Y-234990880D01*
X216502809Y-234951124D01*
X216426262Y-234914952D01*
X216380881Y-234887892D01*
X216373460Y-234879741D01*
X216389428Y-234873107D01*
X216443827Y-234885671D01*
G36*
X210759618Y-235015339D02*
G01*
X210771569Y-235055005D01*
X210855842Y-235301006D01*
X210970923Y-235521311D01*
X211028910Y-235608523D01*
X211106848Y-235708098D01*
X211213883Y-235829891D01*
X211339923Y-235963713D01*
X211474879Y-236099375D01*
X211608660Y-236226689D01*
X211731174Y-236335466D01*
X211817167Y-236404441D01*
X211908878Y-236473538D01*
X211964593Y-236518100D01*
X211989702Y-236543138D01*
X211989594Y-236553666D01*
X211979163Y-236555105D01*
X211945135Y-236542046D01*
X211884107Y-236508256D01*
X211827882Y-236473058D01*
X211736181Y-236403967D01*
X211621600Y-236304116D01*
X211492936Y-236182522D01*
X211358986Y-236048206D01*
X211228547Y-235910185D01*
X211110415Y-235777479D01*
X211013387Y-235659106D01*
X210955427Y-235578578D01*
X210886807Y-235461340D01*
X210825303Y-235334714D01*
X210775355Y-235210366D01*
X210741401Y-235099965D01*
X210727881Y-235015179D01*
X210730107Y-234986318D01*
X210741635Y-234977547D01*
X210759618Y-235015339D01*
G37*
X210759618Y-235015339D02*
X210771569Y-235055005D01*
X210855842Y-235301006D01*
X210970923Y-235521311D01*
X211028910Y-235608523D01*
X211106848Y-235708098D01*
X211213883Y-235829891D01*
X211339923Y-235963713D01*
X211474879Y-236099375D01*
X211608660Y-236226689D01*
X211731174Y-236335466D01*
X211817167Y-236404441D01*
X211908878Y-236473538D01*
X211964593Y-236518100D01*
X211989702Y-236543138D01*
X211989594Y-236553666D01*
X211979163Y-236555105D01*
X211945135Y-236542046D01*
X211884107Y-236508256D01*
X211827882Y-236473058D01*
X211736181Y-236403967D01*
X211621600Y-236304116D01*
X211492936Y-236182522D01*
X211358986Y-236048206D01*
X211228547Y-235910185D01*
X211110415Y-235777479D01*
X211013387Y-235659106D01*
X210955427Y-235578578D01*
X210886807Y-235461340D01*
X210825303Y-235334714D01*
X210775355Y-235210366D01*
X210741401Y-235099965D01*
X210727881Y-235015179D01*
X210730107Y-234986318D01*
X210741635Y-234977547D01*
X210759618Y-235015339D01*
G36*
X212293894Y-235600455D02*
G01*
X212351922Y-235655617D01*
X212391144Y-235695179D01*
X212401952Y-235708513D01*
X212395665Y-235714682D01*
X212372486Y-235697117D01*
X212325938Y-235650189D01*
X212286341Y-235608008D01*
X212185835Y-235499950D01*
X212293894Y-235600455D01*
G37*
X212293894Y-235600455D02*
X212351922Y-235655617D01*
X212391144Y-235695179D01*
X212401952Y-235708513D01*
X212395665Y-235714682D01*
X212372486Y-235697117D01*
X212325938Y-235650189D01*
X212286341Y-235608008D01*
X212185835Y-235499950D01*
X212293894Y-235600455D01*
G36*
X226731958Y-234680640D02*
G01*
X226732167Y-234708976D01*
X226722671Y-234774058D01*
X226705424Y-234863134D01*
X226700465Y-234886135D01*
X226657772Y-235080430D01*
X226558036Y-235080430D01*
X226468414Y-235066592D01*
X226395244Y-235017211D01*
X226387914Y-235010044D01*
X226347442Y-234954182D01*
X226313127Y-234881128D01*
X226311874Y-234877027D01*
X226487637Y-234877027D01*
X226506985Y-234901713D01*
X226513063Y-234902452D01*
X226537749Y-234883104D01*
X226538488Y-234877027D01*
X226519140Y-234852340D01*
X226513063Y-234851601D01*
X226488376Y-234870949D01*
X226487637Y-234877027D01*
X226311874Y-234877027D01*
X226290702Y-234807755D01*
X226285897Y-234750937D01*
X226293521Y-234732137D01*
X226323614Y-234722844D01*
X226388886Y-234711386D01*
X226474748Y-234699477D01*
X226566611Y-234688830D01*
X226649883Y-234681159D01*
X226709975Y-234678179D01*
X226731958Y-234680640D01*
G37*
X226731958Y-234680640D02*
X226732167Y-234708976D01*
X226722671Y-234774058D01*
X226705424Y-234863134D01*
X226700465Y-234886135D01*
X226657772Y-235080430D01*
X226558036Y-235080430D01*
X226468414Y-235066592D01*
X226395244Y-235017211D01*
X226387914Y-235010044D01*
X226347442Y-234954182D01*
X226313127Y-234881128D01*
X226311874Y-234877027D01*
X226487637Y-234877027D01*
X226506985Y-234901713D01*
X226513063Y-234902452D01*
X226537749Y-234883104D01*
X226538488Y-234877027D01*
X226519140Y-234852340D01*
X226513063Y-234851601D01*
X226488376Y-234870949D01*
X226487637Y-234877027D01*
X226311874Y-234877027D01*
X226290702Y-234807755D01*
X226285897Y-234750937D01*
X226293521Y-234732137D01*
X226323614Y-234722844D01*
X226388886Y-234711386D01*
X226474748Y-234699477D01*
X226566611Y-234688830D01*
X226649883Y-234681159D01*
X226709975Y-234678179D01*
X226731958Y-234680640D01*
G36*
X227173659Y-234658887D02*
G01*
X227283270Y-234696888D01*
X227288538Y-234698675D01*
X227364342Y-234727812D01*
X227403896Y-234756578D01*
X227420311Y-234796843D01*
X227423545Y-234820908D01*
X227420031Y-234896182D01*
X227402429Y-234954281D01*
X227350304Y-235007952D01*
X227266133Y-235051773D01*
X227168704Y-235077231D01*
X227124090Y-235080430D01*
X227046997Y-235080430D01*
X227046997Y-234877027D01*
X227199549Y-234877027D01*
X227208224Y-234901791D01*
X227210761Y-234902452D01*
X227232469Y-234884636D01*
X227237687Y-234877027D01*
X227235671Y-234853598D01*
X227226475Y-234851601D01*
X227200584Y-234870058D01*
X227199549Y-234877027D01*
X227046997Y-234877027D01*
X227046997Y-234849888D01*
X227046077Y-234742148D01*
X227049303Y-234674800D01*
X227065656Y-234642221D01*
X227104115Y-234638791D01*
X227173659Y-234658887D01*
G37*
X227173659Y-234658887D02*
X227283270Y-234696888D01*
X227288538Y-234698675D01*
X227364342Y-234727812D01*
X227403896Y-234756578D01*
X227420311Y-234796843D01*
X227423545Y-234820908D01*
X227420031Y-234896182D01*
X227402429Y-234954281D01*
X227350304Y-235007952D01*
X227266133Y-235051773D01*
X227168704Y-235077231D01*
X227124090Y-235080430D01*
X227046997Y-235080430D01*
X227046997Y-234877027D01*
X227199549Y-234877027D01*
X227208224Y-234901791D01*
X227210761Y-234902452D01*
X227232469Y-234884636D01*
X227237687Y-234877027D01*
X227235671Y-234853598D01*
X227226475Y-234851601D01*
X227200584Y-234870058D01*
X227199549Y-234877027D01*
X227046997Y-234877027D01*
X227046997Y-234849888D01*
X227046077Y-234742148D01*
X227049303Y-234674800D01*
X227065656Y-234642221D01*
X227104115Y-234638791D01*
X227173659Y-234658887D01*
G36*
X210860281Y-234616839D02*
G01*
X210850336Y-234662509D01*
X210830385Y-234715147D01*
X210806892Y-234755541D01*
X210797646Y-234764160D01*
X210776041Y-234760357D01*
X210774724Y-234752597D01*
X210785272Y-234706998D01*
X210809766Y-234652168D01*
X210837487Y-234609168D01*
X210853759Y-234597347D01*
X210860281Y-234616839D01*
G37*
X210860281Y-234616839D02*
X210850336Y-234662509D01*
X210830385Y-234715147D01*
X210806892Y-234755541D01*
X210797646Y-234764160D01*
X210776041Y-234760357D01*
X210774724Y-234752597D01*
X210785272Y-234706998D01*
X210809766Y-234652168D01*
X210837487Y-234609168D01*
X210853759Y-234597347D01*
X210860281Y-234616839D01*
G36*
X211702179Y-234263007D02*
G01*
X211535838Y-234295528D01*
X211406818Y-234326126D01*
X211301946Y-234358917D01*
X211208053Y-234398019D01*
X211111996Y-234447535D01*
X211029302Y-234492282D01*
X210981361Y-234514583D01*
X210958937Y-234517500D01*
X210952792Y-234504095D01*
X210952702Y-234500327D01*
X210975559Y-234472370D01*
X211038816Y-234432798D01*
X211134504Y-234385688D01*
X211254656Y-234335117D01*
X211334084Y-234305202D01*
X211535371Y-234249480D01*
X211740891Y-234226227D01*
X211957007Y-234216106D01*
X211702179Y-234263007D01*
G37*
X211702179Y-234263007D02*
X211535838Y-234295528D01*
X211406818Y-234326126D01*
X211301946Y-234358917D01*
X211208053Y-234398019D01*
X211111996Y-234447535D01*
X211029302Y-234492282D01*
X210981361Y-234514583D01*
X210958937Y-234517500D01*
X210952792Y-234504095D01*
X210952702Y-234500327D01*
X210975559Y-234472370D01*
X211038816Y-234432798D01*
X211134504Y-234385688D01*
X211254656Y-234335117D01*
X211334084Y-234305202D01*
X211535371Y-234249480D01*
X211740891Y-234226227D01*
X211957007Y-234216106D01*
X211702179Y-234263007D01*
G36*
X212978759Y-237080037D02*
G01*
X212974024Y-237089039D01*
X212950067Y-237113320D01*
X212945597Y-237114464D01*
X212943862Y-237098041D01*
X212948598Y-237089039D01*
X212972554Y-237064757D01*
X212977025Y-237063613D01*
X212978759Y-237080037D01*
G37*
X212978759Y-237080037D02*
X212974024Y-237089039D01*
X212950067Y-237113320D01*
X212945597Y-237114464D01*
X212943862Y-237098041D01*
X212948598Y-237089039D01*
X212972554Y-237064757D01*
X212977025Y-237063613D01*
X212978759Y-237080037D01*
G36*
X213607618Y-234936220D02*
G01*
X213630141Y-234964931D01*
X213710525Y-235065175D01*
X213799564Y-235163375D01*
X213886247Y-235248396D01*
X213959565Y-235309101D01*
X213988097Y-235327024D01*
X214094848Y-235355036D01*
X214221025Y-235343269D01*
X214356475Y-235293306D01*
X214415152Y-235260405D01*
X214497435Y-235212795D01*
X214543403Y-235193662D01*
X214551109Y-235202446D01*
X214518608Y-235238588D01*
X214474001Y-235277308D01*
X214337596Y-235363887D01*
X214197220Y-235405501D01*
X214059964Y-235401525D01*
X213932918Y-235351334D01*
X213898932Y-235327996D01*
X213821811Y-235261444D01*
X213742341Y-235180273D01*
X213669335Y-235095154D01*
X213611605Y-235016758D01*
X213577967Y-234955757D01*
X213572934Y-234933282D01*
X213581453Y-234914490D01*
X213607618Y-234936220D01*
G37*
X213607618Y-234936220D02*
X213630141Y-234964931D01*
X213710525Y-235065175D01*
X213799564Y-235163375D01*
X213886247Y-235248396D01*
X213959565Y-235309101D01*
X213988097Y-235327024D01*
X214094848Y-235355036D01*
X214221025Y-235343269D01*
X214356475Y-235293306D01*
X214415152Y-235260405D01*
X214497435Y-235212795D01*
X214543403Y-235193662D01*
X214551109Y-235202446D01*
X214518608Y-235238588D01*
X214474001Y-235277308D01*
X214337596Y-235363887D01*
X214197220Y-235405501D01*
X214059964Y-235401525D01*
X213932918Y-235351334D01*
X213898932Y-235327996D01*
X213821811Y-235261444D01*
X213742341Y-235180273D01*
X213669335Y-235095154D01*
X213611605Y-235016758D01*
X213577967Y-234955757D01*
X213572934Y-234933282D01*
X213581453Y-234914490D01*
X213607618Y-234936220D01*
G36*
X214533586Y-234132354D02*
G01*
X214581091Y-234185798D01*
X214607612Y-234273087D01*
X214612750Y-234387808D01*
X214596108Y-234523546D01*
X214557287Y-234673889D01*
X214508090Y-234804813D01*
X214466232Y-234883600D01*
X214418259Y-234921697D01*
X214349819Y-234925661D01*
X214277077Y-234910351D01*
X214245684Y-234876999D01*
X214232938Y-234801965D01*
X214238737Y-234690838D01*
X214262982Y-234549203D01*
X214285283Y-234455939D01*
X214322679Y-234320178D01*
X214354402Y-234226520D01*
X214384617Y-234167182D01*
X214417491Y-234134378D01*
X214457188Y-234120322D01*
X214465497Y-234119169D01*
X214533586Y-234132354D01*
G37*
X214533586Y-234132354D02*
X214581091Y-234185798D01*
X214607612Y-234273087D01*
X214612750Y-234387808D01*
X214596108Y-234523546D01*
X214557287Y-234673889D01*
X214508090Y-234804813D01*
X214466232Y-234883600D01*
X214418259Y-234921697D01*
X214349819Y-234925661D01*
X214277077Y-234910351D01*
X214245684Y-234876999D01*
X214232938Y-234801965D01*
X214238737Y-234690838D01*
X214262982Y-234549203D01*
X214285283Y-234455939D01*
X214322679Y-234320178D01*
X214354402Y-234226520D01*
X214384617Y-234167182D01*
X214417491Y-234134378D01*
X214457188Y-234120322D01*
X214465497Y-234119169D01*
X214533586Y-234132354D01*
G36*
X213996169Y-234042517D02*
G01*
X213997704Y-234044344D01*
X214030744Y-234119894D01*
X214042548Y-234229778D01*
X214034016Y-234362551D01*
X214006051Y-234506766D01*
X213959556Y-234650980D01*
X213947614Y-234679980D01*
X213913327Y-234751870D01*
X213882064Y-234787792D01*
X213840319Y-234799866D01*
X213813045Y-234800751D01*
X213745532Y-234789535D01*
X213698584Y-234762532D01*
X213698309Y-234762204D01*
X213679270Y-234710496D01*
X213679132Y-234620049D01*
X213682934Y-234582275D01*
X213699325Y-234478659D01*
X213724235Y-234362371D01*
X213753979Y-234246989D01*
X213784869Y-234146090D01*
X213813218Y-234073252D01*
X213828017Y-234047999D01*
X213879716Y-234018257D01*
X213944764Y-234016236D01*
X213996169Y-234042517D01*
G37*
X213996169Y-234042517D02*
X213997704Y-234044344D01*
X214030744Y-234119894D01*
X214042548Y-234229778D01*
X214034016Y-234362551D01*
X214006051Y-234506766D01*
X213959556Y-234650980D01*
X213947614Y-234679980D01*
X213913327Y-234751870D01*
X213882064Y-234787792D01*
X213840319Y-234799866D01*
X213813045Y-234800751D01*
X213745532Y-234789535D01*
X213698584Y-234762532D01*
X213698309Y-234762204D01*
X213679270Y-234710496D01*
X213679132Y-234620049D01*
X213682934Y-234582275D01*
X213699325Y-234478659D01*
X213724235Y-234362371D01*
X213753979Y-234246989D01*
X213784869Y-234146090D01*
X213813218Y-234073252D01*
X213828017Y-234047999D01*
X213879716Y-234018257D01*
X213944764Y-234016236D01*
X213996169Y-234042517D01*
%TD*%
D13*
%TO.C,REF\u002A\u002A*%
X204030001Y-222665000D03*
%TD*%
%TO.C,REF\u002A\u002A*%
X204030001Y-209665000D03*
%TD*%
%TO.C,REF\u002A\u002A*%
X204030001Y-189665000D03*
%TD*%
%TO.C,REF\u002A\u002A*%
X204030001Y-169665000D03*
%TD*%
%TO.C,REF\u002A\u002A*%
X204030001Y-149665000D03*
%TD*%
%TO.C,REF\u002A\u002A*%
X204030001Y-129665000D03*
%TD*%
%TO.C,REF\u002A\u002A*%
X204030001Y-109665000D03*
%TD*%
%TO.C,REF\u002A\u002A*%
X204030001Y-89665000D03*
%TD*%
%TO.C,REF\u002A\u002A*%
X204030001Y-69665000D03*
%TD*%
D14*
%TO.C,H1*%
X216530001Y-69665000D03*
%TD*%
%TO.C,H2*%
X216530001Y-89665000D03*
%TD*%
%TO.C,H3*%
X216530001Y-109665000D03*
%TD*%
%TO.C,H4*%
X216530001Y-129665000D03*
%TD*%
%TO.C,H5*%
X216530001Y-149665000D03*
%TD*%
%TO.C,H6*%
X216530001Y-169665000D03*
%TD*%
%TO.C,H7*%
X216530001Y-189665000D03*
%TD*%
%TO.C,H8*%
X216530001Y-209665000D03*
%TD*%
D15*
%TO.C,H9*%
X236530001Y-69665000D03*
%TD*%
%TO.C,H10*%
X236530001Y-89665000D03*
%TD*%
%TO.C,H11*%
X236530001Y-109665000D03*
%TD*%
%TO.C,H12*%
X236530001Y-129665000D03*
%TD*%
%TO.C,H13*%
X236530001Y-149665000D03*
%TD*%
%TO.C,H14*%
X236530001Y-169665000D03*
%TD*%
%TO.C,H15*%
X236530001Y-189665000D03*
%TD*%
%TO.C,H16*%
X236530001Y-209665000D03*
%TD*%
D16*
%TO.C,M1*%
X204000000Y-45500000D03*
%TD*%
%TO.C,M2*%
X204000000Y-239500000D03*
%TD*%
%TO.C,M3*%
X240000000Y-45500000D03*
%TD*%
%TO.C,M4*%
X240000000Y-239500000D03*
%TD*%
M02*
