M48
; DRILL file {KiCad (5.1.6)-1} date 06/19/20 12:50:06
; FORMAT={-:-/ absolute / inch / decimal}
; #@! TF.CreationDate,2020-06-19T12:50:06-05:00
; #@! TF.GenerationSoftware,Kicad,Pcbnew,(5.1.6)-1
; #@! TF.FileFunction,Plated,1,2,PTH
FMAT,2
INCH
T1C0.1260
T2C0.2402
T3C0.3307
T4C0.3937
%
G90
G05
T2
X8.5248Y-5.1049
X8.5248Y-2.7427
X8.5248Y-8.2545
X8.5248Y-7.4671
X8.5248Y-6.6797
X8.5248Y-3.5301
X8.5248Y-4.3175
X8.5248Y-5.8923
T3
X8.0327Y-5.1049
X8.0327Y-8.2545
X8.0327Y-6.6797
X8.0327Y-2.7427
X8.0327Y-3.5301
X8.0327Y-8.7663
X8.0327Y-7.4671
X8.0327Y-5.8923
X8.0327Y-4.3175
T4
X9.3122Y-3.5301
X9.3122Y-2.7427
X9.3122Y-6.6797
X9.3122Y-7.4671
X9.3122Y-4.3175
X9.3122Y-5.8923
X9.3122Y-5.1049
X9.3122Y-8.2545
T1
G00X7.9724Y-1.7913
M15
G01X8.0906Y-1.7913
M16
G05
G00X9.3898Y-1.7913
M15
G01X9.5079Y-1.7913
M16
G05
G00X9.3898Y-9.4291
M15
G01X9.5079Y-9.4291
M16
G05
G00X7.9724Y-9.4291
M15
G01X8.0906Y-9.4291
M16
G05
T0
M30
