%TF.GenerationSoftware,KiCad,Pcbnew,(5.1.6)-1*%
%TF.CreationDate,2020-06-17T23:21:10-05:00*%
%TF.ProjectId,Euro Playset,4575726f-2050-46c6-9179-7365742e6b69,rev?*%
%TF.SameCoordinates,Original*%
%TF.FileFunction,Copper,L2,Bot*%
%TF.FilePolarity,Positive*%
%FSLAX46Y46*%
G04 Gerber Fmt 4.6, Leading zero omitted, Abs format (unit mm)*
G04 Created by KiCad (PCBNEW (5.1.6)-1) date 2020-06-17 23:21:10*
%MOMM*%
%LPD*%
G01*
G04 APERTURE LIST*
%TA.AperFunction,ComponentPad*%
%ADD10O,1.700000X1.700000*%
%TD*%
%TA.AperFunction,ComponentPad*%
%ADD11R,1.700000X1.700000*%
%TD*%
%TA.AperFunction,ComponentPad*%
%ADD12R,4.500000X4.500000*%
%TD*%
%TA.AperFunction,ComponentPad*%
%ADD13C,4.500000*%
%TD*%
%TA.AperFunction,Conductor*%
%ADD14C,0.254000*%
%TD*%
G04 APERTURE END LIST*
D10*
%TO.P,C2,9*%
%TO.N,GND*%
X373700000Y-213420000D03*
%TO.P,C2,8*%
%TO.N,Net-(J10-Pad8)*%
X373700000Y-210880000D03*
%TO.P,C2,7*%
%TO.N,Net-(J10-Pad7)*%
X373700000Y-208340000D03*
%TO.P,C2,6*%
%TO.N,Net-(J10-Pad6)*%
X373700000Y-205800000D03*
%TO.P,C2,5*%
%TO.N,Net-(J10-Pad5)*%
X373700000Y-203260000D03*
%TO.P,C2,4*%
%TO.N,Net-(J10-Pad4)*%
X373700000Y-200720000D03*
%TO.P,C2,3*%
%TO.N,Net-(J10-Pad3)*%
X373700000Y-198180000D03*
%TO.P,C2,2*%
%TO.N,Net-(J10-Pad2)*%
X373700000Y-195640000D03*
D11*
%TO.P,C2,1*%
%TO.N,Net-(J10-Pad1)*%
X373700000Y-193100000D03*
%TD*%
D12*
%TO.P,J16,G*%
%TO.N,GND*%
X390184000Y-237252000D03*
D13*
%TO.P,J16,S*%
%TO.N,Net-(J16-PadS)*%
X385104000Y-226584000D03*
%TO.P,J16,T*%
%TO.N,Net-(J10-Pad6)*%
X379135000Y-233442000D03*
%TO.P,J16,SN*%
%TO.N,Net-(J16-PadSN)*%
X391200000Y-230140000D03*
%TO.P,J16,TN*%
%TO.N,Net-(J16-PadTN)*%
X383072000Y-238776000D03*
%TD*%
D12*
%TO.P,J12,G*%
%TO.N,GND*%
X390184000Y-157252000D03*
D13*
%TO.P,J12,S*%
%TO.N,Net-(J12-PadS)*%
X385104000Y-146584000D03*
%TO.P,J12,T*%
%TO.N,Net-(J10-Pad2)*%
X379135000Y-153442000D03*
%TO.P,J12,SN*%
%TO.N,Net-(J12-PadSN)*%
X391200000Y-150140000D03*
%TO.P,J12,TN*%
%TO.N,Net-(J12-PadTN)*%
X383072000Y-158776000D03*
%TD*%
D12*
%TO.P,J11,G*%
%TO.N,GND*%
X390184000Y-137252000D03*
D13*
%TO.P,J11,S*%
%TO.N,Net-(J11-PadS)*%
X385104000Y-126584000D03*
%TO.P,J11,T*%
%TO.N,Net-(J10-Pad1)*%
X379135000Y-133442000D03*
%TO.P,J11,SN*%
%TO.N,Net-(J11-PadSN)*%
X391200000Y-130140000D03*
%TO.P,J11,TN*%
%TO.N,Net-(J11-PadTN)*%
X383072000Y-138776000D03*
%TD*%
D12*
%TO.P,J15,G*%
%TO.N,GND*%
X390184000Y-217252000D03*
D13*
%TO.P,J15,S*%
%TO.N,Net-(J15-PadS)*%
X385104000Y-206584000D03*
%TO.P,J15,T*%
%TO.N,Net-(J10-Pad5)*%
X379135000Y-213442000D03*
%TO.P,J15,SN*%
%TO.N,Net-(J15-PadSN)*%
X391200000Y-210140000D03*
%TO.P,J15,TN*%
%TO.N,Net-(J15-PadTN)*%
X383072000Y-218776000D03*
%TD*%
D12*
%TO.P,J14,G*%
%TO.N,GND*%
X390184000Y-197252000D03*
D13*
%TO.P,J14,S*%
%TO.N,Net-(J14-PadS)*%
X385104000Y-186584000D03*
%TO.P,J14,T*%
%TO.N,Net-(J10-Pad4)*%
X379135000Y-193442000D03*
%TO.P,J14,SN*%
%TO.N,Net-(J14-PadSN)*%
X391200000Y-190140000D03*
%TO.P,J14,TN*%
%TO.N,Net-(J14-PadTN)*%
X383072000Y-198776000D03*
%TD*%
D12*
%TO.P,J13,G*%
%TO.N,GND*%
X390184000Y-177252000D03*
D13*
%TO.P,J13,S*%
%TO.N,Net-(J13-PadS)*%
X385104000Y-166584000D03*
%TO.P,J13,T*%
%TO.N,Net-(J10-Pad3)*%
X379135000Y-173442000D03*
%TO.P,J13,SN*%
%TO.N,Net-(J13-PadSN)*%
X391200000Y-170140000D03*
%TO.P,J13,TN*%
%TO.N,Net-(J13-PadTN)*%
X383072000Y-178776000D03*
%TD*%
D12*
%TO.P,J18,G*%
%TO.N,GND*%
X390184000Y-277252000D03*
D13*
%TO.P,J18,S*%
%TO.N,Net-(J18-PadS)*%
X385104000Y-266584000D03*
%TO.P,J18,T*%
%TO.N,Net-(J10-Pad8)*%
X379135000Y-273442000D03*
%TO.P,J18,SN*%
%TO.N,Net-(J18-PadSN)*%
X391200000Y-270140000D03*
%TO.P,J18,TN*%
%TO.N,Net-(J18-PadTN)*%
X383072000Y-278776000D03*
%TD*%
D12*
%TO.P,J17,G*%
%TO.N,GND*%
X390184000Y-257252000D03*
D13*
%TO.P,J17,S*%
%TO.N,Net-(J17-PadS)*%
X385104000Y-246584000D03*
%TO.P,J17,T*%
%TO.N,Net-(J10-Pad7)*%
X379135000Y-253442000D03*
%TO.P,J17,SN*%
%TO.N,Net-(J17-PadSN)*%
X391200000Y-250140000D03*
%TO.P,J17,TN*%
%TO.N,Net-(J17-PadTN)*%
X383072000Y-258776000D03*
%TD*%
D14*
%TO.N,GND*%
G36*
X394048000Y-286048000D02*
G01*
X371852000Y-286048000D01*
X371852000Y-278522188D01*
X380495000Y-278522188D01*
X380495000Y-279029812D01*
X380594033Y-279527683D01*
X380788292Y-279996667D01*
X381070313Y-280418742D01*
X381429258Y-280777687D01*
X381851333Y-281059708D01*
X382320317Y-281253967D01*
X382818188Y-281353000D01*
X383325812Y-281353000D01*
X383823683Y-281253967D01*
X384292667Y-281059708D01*
X384714742Y-280777687D01*
X385073687Y-280418742D01*
X385355708Y-279996667D01*
X385549967Y-279527683D01*
X385649000Y-279029812D01*
X385649000Y-278522188D01*
X385549967Y-278024317D01*
X385355708Y-277555333D01*
X385073687Y-277133258D01*
X384714742Y-276774313D01*
X384292667Y-276492292D01*
X383823683Y-276298033D01*
X383325812Y-276199000D01*
X382818188Y-276199000D01*
X382320317Y-276298033D01*
X381851333Y-276492292D01*
X381429258Y-276774313D01*
X381070313Y-277133258D01*
X380788292Y-277555333D01*
X380594033Y-278024317D01*
X380495000Y-278522188D01*
X371852000Y-278522188D01*
X371852000Y-273188188D01*
X376558000Y-273188188D01*
X376558000Y-273695812D01*
X376657033Y-274193683D01*
X376851292Y-274662667D01*
X377133313Y-275084742D01*
X377492258Y-275443687D01*
X377914333Y-275725708D01*
X378383317Y-275919967D01*
X378881188Y-276019000D01*
X379388812Y-276019000D01*
X379886683Y-275919967D01*
X380355667Y-275725708D01*
X380777742Y-275443687D01*
X381136687Y-275084742D01*
X381418708Y-274662667D01*
X381612967Y-274193683D01*
X381712000Y-273695812D01*
X381712000Y-273188188D01*
X381612967Y-272690317D01*
X381418708Y-272221333D01*
X381136687Y-271799258D01*
X380777742Y-271440313D01*
X380355667Y-271158292D01*
X379886683Y-270964033D01*
X379388812Y-270865000D01*
X378881188Y-270865000D01*
X378383317Y-270964033D01*
X377914333Y-271158292D01*
X377492258Y-271440313D01*
X377133313Y-271799258D01*
X376851292Y-272221333D01*
X376657033Y-272690317D01*
X376558000Y-273188188D01*
X371852000Y-273188188D01*
X371852000Y-269886188D01*
X388623000Y-269886188D01*
X388623000Y-270393812D01*
X388722033Y-270891683D01*
X388916292Y-271360667D01*
X389198313Y-271782742D01*
X389557258Y-272141687D01*
X389979333Y-272423708D01*
X390448317Y-272617967D01*
X390946188Y-272717000D01*
X391453812Y-272717000D01*
X391951683Y-272617967D01*
X392420667Y-272423708D01*
X392842742Y-272141687D01*
X393201687Y-271782742D01*
X393483708Y-271360667D01*
X393677967Y-270891683D01*
X393777000Y-270393812D01*
X393777000Y-269886188D01*
X393677967Y-269388317D01*
X393483708Y-268919333D01*
X393201687Y-268497258D01*
X392842742Y-268138313D01*
X392420667Y-267856292D01*
X391951683Y-267662033D01*
X391453812Y-267563000D01*
X390946188Y-267563000D01*
X390448317Y-267662033D01*
X389979333Y-267856292D01*
X389557258Y-268138313D01*
X389198313Y-268497258D01*
X388916292Y-268919333D01*
X388722033Y-269388317D01*
X388623000Y-269886188D01*
X371852000Y-269886188D01*
X371852000Y-266330188D01*
X382527000Y-266330188D01*
X382527000Y-266837812D01*
X382626033Y-267335683D01*
X382820292Y-267804667D01*
X383102313Y-268226742D01*
X383461258Y-268585687D01*
X383883333Y-268867708D01*
X384352317Y-269061967D01*
X384850188Y-269161000D01*
X385357812Y-269161000D01*
X385855683Y-269061967D01*
X386324667Y-268867708D01*
X386746742Y-268585687D01*
X387105687Y-268226742D01*
X387387708Y-267804667D01*
X387581967Y-267335683D01*
X387681000Y-266837812D01*
X387681000Y-266330188D01*
X387581967Y-265832317D01*
X387387708Y-265363333D01*
X387105687Y-264941258D01*
X386746742Y-264582313D01*
X386324667Y-264300292D01*
X385855683Y-264106033D01*
X385357812Y-264007000D01*
X384850188Y-264007000D01*
X384352317Y-264106033D01*
X383883333Y-264300292D01*
X383461258Y-264582313D01*
X383102313Y-264941258D01*
X382820292Y-265363333D01*
X382626033Y-265832317D01*
X382527000Y-266330188D01*
X371852000Y-266330188D01*
X371852000Y-258522188D01*
X380495000Y-258522188D01*
X380495000Y-259029812D01*
X380594033Y-259527683D01*
X380788292Y-259996667D01*
X381070313Y-260418742D01*
X381429258Y-260777687D01*
X381851333Y-261059708D01*
X382320317Y-261253967D01*
X382818188Y-261353000D01*
X383325812Y-261353000D01*
X383823683Y-261253967D01*
X384292667Y-261059708D01*
X384714742Y-260777687D01*
X385073687Y-260418742D01*
X385355708Y-259996667D01*
X385549967Y-259527683D01*
X385649000Y-259029812D01*
X385649000Y-258522188D01*
X385549967Y-258024317D01*
X385355708Y-257555333D01*
X385073687Y-257133258D01*
X384714742Y-256774313D01*
X384292667Y-256492292D01*
X383823683Y-256298033D01*
X383325812Y-256199000D01*
X382818188Y-256199000D01*
X382320317Y-256298033D01*
X381851333Y-256492292D01*
X381429258Y-256774313D01*
X381070313Y-257133258D01*
X380788292Y-257555333D01*
X380594033Y-258024317D01*
X380495000Y-258522188D01*
X371852000Y-258522188D01*
X371852000Y-253188188D01*
X376558000Y-253188188D01*
X376558000Y-253695812D01*
X376657033Y-254193683D01*
X376851292Y-254662667D01*
X377133313Y-255084742D01*
X377492258Y-255443687D01*
X377914333Y-255725708D01*
X378383317Y-255919967D01*
X378881188Y-256019000D01*
X379388812Y-256019000D01*
X379886683Y-255919967D01*
X380355667Y-255725708D01*
X380777742Y-255443687D01*
X381136687Y-255084742D01*
X381418708Y-254662667D01*
X381612967Y-254193683D01*
X381712000Y-253695812D01*
X381712000Y-253188188D01*
X381612967Y-252690317D01*
X381418708Y-252221333D01*
X381136687Y-251799258D01*
X380777742Y-251440313D01*
X380355667Y-251158292D01*
X379886683Y-250964033D01*
X379388812Y-250865000D01*
X378881188Y-250865000D01*
X378383317Y-250964033D01*
X377914333Y-251158292D01*
X377492258Y-251440313D01*
X377133313Y-251799258D01*
X376851292Y-252221333D01*
X376657033Y-252690317D01*
X376558000Y-253188188D01*
X371852000Y-253188188D01*
X371852000Y-249886188D01*
X388623000Y-249886188D01*
X388623000Y-250393812D01*
X388722033Y-250891683D01*
X388916292Y-251360667D01*
X389198313Y-251782742D01*
X389557258Y-252141687D01*
X389979333Y-252423708D01*
X390448317Y-252617967D01*
X390946188Y-252717000D01*
X391453812Y-252717000D01*
X391951683Y-252617967D01*
X392420667Y-252423708D01*
X392842742Y-252141687D01*
X393201687Y-251782742D01*
X393483708Y-251360667D01*
X393677967Y-250891683D01*
X393777000Y-250393812D01*
X393777000Y-249886188D01*
X393677967Y-249388317D01*
X393483708Y-248919333D01*
X393201687Y-248497258D01*
X392842742Y-248138313D01*
X392420667Y-247856292D01*
X391951683Y-247662033D01*
X391453812Y-247563000D01*
X390946188Y-247563000D01*
X390448317Y-247662033D01*
X389979333Y-247856292D01*
X389557258Y-248138313D01*
X389198313Y-248497258D01*
X388916292Y-248919333D01*
X388722033Y-249388317D01*
X388623000Y-249886188D01*
X371852000Y-249886188D01*
X371852000Y-246330188D01*
X382527000Y-246330188D01*
X382527000Y-246837812D01*
X382626033Y-247335683D01*
X382820292Y-247804667D01*
X383102313Y-248226742D01*
X383461258Y-248585687D01*
X383883333Y-248867708D01*
X384352317Y-249061967D01*
X384850188Y-249161000D01*
X385357812Y-249161000D01*
X385855683Y-249061967D01*
X386324667Y-248867708D01*
X386746742Y-248585687D01*
X387105687Y-248226742D01*
X387387708Y-247804667D01*
X387581967Y-247335683D01*
X387681000Y-246837812D01*
X387681000Y-246330188D01*
X387581967Y-245832317D01*
X387387708Y-245363333D01*
X387105687Y-244941258D01*
X386746742Y-244582313D01*
X386324667Y-244300292D01*
X385855683Y-244106033D01*
X385357812Y-244007000D01*
X384850188Y-244007000D01*
X384352317Y-244106033D01*
X383883333Y-244300292D01*
X383461258Y-244582313D01*
X383102313Y-244941258D01*
X382820292Y-245363333D01*
X382626033Y-245832317D01*
X382527000Y-246330188D01*
X371852000Y-246330188D01*
X371852000Y-238522188D01*
X380495000Y-238522188D01*
X380495000Y-239029812D01*
X380594033Y-239527683D01*
X380788292Y-239996667D01*
X381070313Y-240418742D01*
X381429258Y-240777687D01*
X381851333Y-241059708D01*
X382320317Y-241253967D01*
X382818188Y-241353000D01*
X383325812Y-241353000D01*
X383823683Y-241253967D01*
X384292667Y-241059708D01*
X384714742Y-240777687D01*
X385073687Y-240418742D01*
X385355708Y-239996667D01*
X385549967Y-239527683D01*
X385649000Y-239029812D01*
X385649000Y-238522188D01*
X385549967Y-238024317D01*
X385355708Y-237555333D01*
X385073687Y-237133258D01*
X384714742Y-236774313D01*
X384292667Y-236492292D01*
X383823683Y-236298033D01*
X383325812Y-236199000D01*
X382818188Y-236199000D01*
X382320317Y-236298033D01*
X381851333Y-236492292D01*
X381429258Y-236774313D01*
X381070313Y-237133258D01*
X380788292Y-237555333D01*
X380594033Y-238024317D01*
X380495000Y-238522188D01*
X371852000Y-238522188D01*
X371852000Y-233188188D01*
X376558000Y-233188188D01*
X376558000Y-233695812D01*
X376657033Y-234193683D01*
X376851292Y-234662667D01*
X377133313Y-235084742D01*
X377492258Y-235443687D01*
X377914333Y-235725708D01*
X378383317Y-235919967D01*
X378881188Y-236019000D01*
X379388812Y-236019000D01*
X379886683Y-235919967D01*
X380355667Y-235725708D01*
X380777742Y-235443687D01*
X381136687Y-235084742D01*
X381418708Y-234662667D01*
X381612967Y-234193683D01*
X381712000Y-233695812D01*
X381712000Y-233188188D01*
X381612967Y-232690317D01*
X381418708Y-232221333D01*
X381136687Y-231799258D01*
X380777742Y-231440313D01*
X380355667Y-231158292D01*
X379886683Y-230964033D01*
X379388812Y-230865000D01*
X378881188Y-230865000D01*
X378383317Y-230964033D01*
X377914333Y-231158292D01*
X377492258Y-231440313D01*
X377133313Y-231799258D01*
X376851292Y-232221333D01*
X376657033Y-232690317D01*
X376558000Y-233188188D01*
X371852000Y-233188188D01*
X371852000Y-229886188D01*
X388623000Y-229886188D01*
X388623000Y-230393812D01*
X388722033Y-230891683D01*
X388916292Y-231360667D01*
X389198313Y-231782742D01*
X389557258Y-232141687D01*
X389979333Y-232423708D01*
X390448317Y-232617967D01*
X390946188Y-232717000D01*
X391453812Y-232717000D01*
X391951683Y-232617967D01*
X392420667Y-232423708D01*
X392842742Y-232141687D01*
X393201687Y-231782742D01*
X393483708Y-231360667D01*
X393677967Y-230891683D01*
X393777000Y-230393812D01*
X393777000Y-229886188D01*
X393677967Y-229388317D01*
X393483708Y-228919333D01*
X393201687Y-228497258D01*
X392842742Y-228138313D01*
X392420667Y-227856292D01*
X391951683Y-227662033D01*
X391453812Y-227563000D01*
X390946188Y-227563000D01*
X390448317Y-227662033D01*
X389979333Y-227856292D01*
X389557258Y-228138313D01*
X389198313Y-228497258D01*
X388916292Y-228919333D01*
X388722033Y-229388317D01*
X388623000Y-229886188D01*
X371852000Y-229886188D01*
X371852000Y-226330188D01*
X382527000Y-226330188D01*
X382527000Y-226837812D01*
X382626033Y-227335683D01*
X382820292Y-227804667D01*
X383102313Y-228226742D01*
X383461258Y-228585687D01*
X383883333Y-228867708D01*
X384352317Y-229061967D01*
X384850188Y-229161000D01*
X385357812Y-229161000D01*
X385855683Y-229061967D01*
X386324667Y-228867708D01*
X386746742Y-228585687D01*
X387105687Y-228226742D01*
X387387708Y-227804667D01*
X387581967Y-227335683D01*
X387681000Y-226837812D01*
X387681000Y-226330188D01*
X387581967Y-225832317D01*
X387387708Y-225363333D01*
X387105687Y-224941258D01*
X386746742Y-224582313D01*
X386324667Y-224300292D01*
X385855683Y-224106033D01*
X385357812Y-224007000D01*
X384850188Y-224007000D01*
X384352317Y-224106033D01*
X383883333Y-224300292D01*
X383461258Y-224582313D01*
X383102313Y-224941258D01*
X382820292Y-225363333D01*
X382626033Y-225832317D01*
X382527000Y-226330188D01*
X371852000Y-226330188D01*
X371852000Y-218522188D01*
X380495000Y-218522188D01*
X380495000Y-219029812D01*
X380594033Y-219527683D01*
X380788292Y-219996667D01*
X381070313Y-220418742D01*
X381429258Y-220777687D01*
X381851333Y-221059708D01*
X382320317Y-221253967D01*
X382818188Y-221353000D01*
X383325812Y-221353000D01*
X383823683Y-221253967D01*
X384292667Y-221059708D01*
X384714742Y-220777687D01*
X385073687Y-220418742D01*
X385355708Y-219996667D01*
X385549967Y-219527683D01*
X385649000Y-219029812D01*
X385649000Y-218522188D01*
X385549967Y-218024317D01*
X385355708Y-217555333D01*
X385073687Y-217133258D01*
X384714742Y-216774313D01*
X384292667Y-216492292D01*
X383823683Y-216298033D01*
X383325812Y-216199000D01*
X382818188Y-216199000D01*
X382320317Y-216298033D01*
X381851333Y-216492292D01*
X381429258Y-216774313D01*
X381070313Y-217133258D01*
X380788292Y-217555333D01*
X380594033Y-218024317D01*
X380495000Y-218522188D01*
X371852000Y-218522188D01*
X371852000Y-213188188D01*
X376558000Y-213188188D01*
X376558000Y-213695812D01*
X376657033Y-214193683D01*
X376851292Y-214662667D01*
X377133313Y-215084742D01*
X377492258Y-215443687D01*
X377914333Y-215725708D01*
X378383317Y-215919967D01*
X378881188Y-216019000D01*
X379388812Y-216019000D01*
X379886683Y-215919967D01*
X380355667Y-215725708D01*
X380777742Y-215443687D01*
X381136687Y-215084742D01*
X381418708Y-214662667D01*
X381612967Y-214193683D01*
X381712000Y-213695812D01*
X381712000Y-213188188D01*
X381612967Y-212690317D01*
X381418708Y-212221333D01*
X381136687Y-211799258D01*
X380777742Y-211440313D01*
X380355667Y-211158292D01*
X379886683Y-210964033D01*
X379388812Y-210865000D01*
X378881188Y-210865000D01*
X378383317Y-210964033D01*
X377914333Y-211158292D01*
X377492258Y-211440313D01*
X377133313Y-211799258D01*
X376851292Y-212221333D01*
X376657033Y-212690317D01*
X376558000Y-213188188D01*
X371852000Y-213188188D01*
X371852000Y-210764076D01*
X372523000Y-210764076D01*
X372523000Y-210995924D01*
X372568231Y-211223318D01*
X372656956Y-211437519D01*
X372785764Y-211630294D01*
X372949706Y-211794236D01*
X373142481Y-211923044D01*
X373356682Y-212011769D01*
X373584076Y-212057000D01*
X373815924Y-212057000D01*
X374043318Y-212011769D01*
X374257519Y-211923044D01*
X374450294Y-211794236D01*
X374614236Y-211630294D01*
X374743044Y-211437519D01*
X374831769Y-211223318D01*
X374877000Y-210995924D01*
X374877000Y-210764076D01*
X374831769Y-210536682D01*
X374743044Y-210322481D01*
X374614236Y-210129706D01*
X374450294Y-209965764D01*
X374331200Y-209886188D01*
X388623000Y-209886188D01*
X388623000Y-210393812D01*
X388722033Y-210891683D01*
X388916292Y-211360667D01*
X389198313Y-211782742D01*
X389557258Y-212141687D01*
X389979333Y-212423708D01*
X390448317Y-212617967D01*
X390946188Y-212717000D01*
X391453812Y-212717000D01*
X391951683Y-212617967D01*
X392420667Y-212423708D01*
X392842742Y-212141687D01*
X393201687Y-211782742D01*
X393483708Y-211360667D01*
X393677967Y-210891683D01*
X393777000Y-210393812D01*
X393777000Y-209886188D01*
X393677967Y-209388317D01*
X393483708Y-208919333D01*
X393201687Y-208497258D01*
X392842742Y-208138313D01*
X392420667Y-207856292D01*
X391951683Y-207662033D01*
X391453812Y-207563000D01*
X390946188Y-207563000D01*
X390448317Y-207662033D01*
X389979333Y-207856292D01*
X389557258Y-208138313D01*
X389198313Y-208497258D01*
X388916292Y-208919333D01*
X388722033Y-209388317D01*
X388623000Y-209886188D01*
X374331200Y-209886188D01*
X374257519Y-209836956D01*
X374043318Y-209748231D01*
X373815924Y-209703000D01*
X373584076Y-209703000D01*
X373356682Y-209748231D01*
X373142481Y-209836956D01*
X372949706Y-209965764D01*
X372785764Y-210129706D01*
X372656956Y-210322481D01*
X372568231Y-210536682D01*
X372523000Y-210764076D01*
X371852000Y-210764076D01*
X371852000Y-208224076D01*
X372523000Y-208224076D01*
X372523000Y-208455924D01*
X372568231Y-208683318D01*
X372656956Y-208897519D01*
X372785764Y-209090294D01*
X372949706Y-209254236D01*
X373142481Y-209383044D01*
X373356682Y-209471769D01*
X373584076Y-209517000D01*
X373815924Y-209517000D01*
X374043318Y-209471769D01*
X374257519Y-209383044D01*
X374450294Y-209254236D01*
X374614236Y-209090294D01*
X374743044Y-208897519D01*
X374831769Y-208683318D01*
X374877000Y-208455924D01*
X374877000Y-208224076D01*
X374831769Y-207996682D01*
X374743044Y-207782481D01*
X374614236Y-207589706D01*
X374450294Y-207425764D01*
X374257519Y-207296956D01*
X374043318Y-207208231D01*
X373815924Y-207163000D01*
X373584076Y-207163000D01*
X373356682Y-207208231D01*
X373142481Y-207296956D01*
X372949706Y-207425764D01*
X372785764Y-207589706D01*
X372656956Y-207782481D01*
X372568231Y-207996682D01*
X372523000Y-208224076D01*
X371852000Y-208224076D01*
X371852000Y-205684076D01*
X372523000Y-205684076D01*
X372523000Y-205915924D01*
X372568231Y-206143318D01*
X372656956Y-206357519D01*
X372785764Y-206550294D01*
X372949706Y-206714236D01*
X373142481Y-206843044D01*
X373356682Y-206931769D01*
X373584076Y-206977000D01*
X373815924Y-206977000D01*
X374043318Y-206931769D01*
X374257519Y-206843044D01*
X374450294Y-206714236D01*
X374614236Y-206550294D01*
X374743044Y-206357519D01*
X374754364Y-206330188D01*
X382527000Y-206330188D01*
X382527000Y-206837812D01*
X382626033Y-207335683D01*
X382820292Y-207804667D01*
X383102313Y-208226742D01*
X383461258Y-208585687D01*
X383883333Y-208867708D01*
X384352317Y-209061967D01*
X384850188Y-209161000D01*
X385357812Y-209161000D01*
X385855683Y-209061967D01*
X386324667Y-208867708D01*
X386746742Y-208585687D01*
X387105687Y-208226742D01*
X387387708Y-207804667D01*
X387581967Y-207335683D01*
X387681000Y-206837812D01*
X387681000Y-206330188D01*
X387581967Y-205832317D01*
X387387708Y-205363333D01*
X387105687Y-204941258D01*
X386746742Y-204582313D01*
X386324667Y-204300292D01*
X385855683Y-204106033D01*
X385357812Y-204007000D01*
X384850188Y-204007000D01*
X384352317Y-204106033D01*
X383883333Y-204300292D01*
X383461258Y-204582313D01*
X383102313Y-204941258D01*
X382820292Y-205363333D01*
X382626033Y-205832317D01*
X382527000Y-206330188D01*
X374754364Y-206330188D01*
X374831769Y-206143318D01*
X374877000Y-205915924D01*
X374877000Y-205684076D01*
X374831769Y-205456682D01*
X374743044Y-205242481D01*
X374614236Y-205049706D01*
X374450294Y-204885764D01*
X374257519Y-204756956D01*
X374043318Y-204668231D01*
X373815924Y-204623000D01*
X373584076Y-204623000D01*
X373356682Y-204668231D01*
X373142481Y-204756956D01*
X372949706Y-204885764D01*
X372785764Y-205049706D01*
X372656956Y-205242481D01*
X372568231Y-205456682D01*
X372523000Y-205684076D01*
X371852000Y-205684076D01*
X371852000Y-203144076D01*
X372523000Y-203144076D01*
X372523000Y-203375924D01*
X372568231Y-203603318D01*
X372656956Y-203817519D01*
X372785764Y-204010294D01*
X372949706Y-204174236D01*
X373142481Y-204303044D01*
X373356682Y-204391769D01*
X373584076Y-204437000D01*
X373815924Y-204437000D01*
X374043318Y-204391769D01*
X374257519Y-204303044D01*
X374450294Y-204174236D01*
X374614236Y-204010294D01*
X374743044Y-203817519D01*
X374831769Y-203603318D01*
X374877000Y-203375924D01*
X374877000Y-203144076D01*
X374831769Y-202916682D01*
X374743044Y-202702481D01*
X374614236Y-202509706D01*
X374450294Y-202345764D01*
X374257519Y-202216956D01*
X374043318Y-202128231D01*
X373815924Y-202083000D01*
X373584076Y-202083000D01*
X373356682Y-202128231D01*
X373142481Y-202216956D01*
X372949706Y-202345764D01*
X372785764Y-202509706D01*
X372656956Y-202702481D01*
X372568231Y-202916682D01*
X372523000Y-203144076D01*
X371852000Y-203144076D01*
X371852000Y-200604076D01*
X372523000Y-200604076D01*
X372523000Y-200835924D01*
X372568231Y-201063318D01*
X372656956Y-201277519D01*
X372785764Y-201470294D01*
X372949706Y-201634236D01*
X373142481Y-201763044D01*
X373356682Y-201851769D01*
X373584076Y-201897000D01*
X373815924Y-201897000D01*
X374043318Y-201851769D01*
X374257519Y-201763044D01*
X374450294Y-201634236D01*
X374614236Y-201470294D01*
X374743044Y-201277519D01*
X374831769Y-201063318D01*
X374877000Y-200835924D01*
X374877000Y-200604076D01*
X374831769Y-200376682D01*
X374743044Y-200162481D01*
X374614236Y-199969706D01*
X374450294Y-199805764D01*
X374257519Y-199676956D01*
X374043318Y-199588231D01*
X373815924Y-199543000D01*
X373584076Y-199543000D01*
X373356682Y-199588231D01*
X373142481Y-199676956D01*
X372949706Y-199805764D01*
X372785764Y-199969706D01*
X372656956Y-200162481D01*
X372568231Y-200376682D01*
X372523000Y-200604076D01*
X371852000Y-200604076D01*
X371852000Y-198064076D01*
X372523000Y-198064076D01*
X372523000Y-198295924D01*
X372568231Y-198523318D01*
X372656956Y-198737519D01*
X372785764Y-198930294D01*
X372949706Y-199094236D01*
X373142481Y-199223044D01*
X373356682Y-199311769D01*
X373584076Y-199357000D01*
X373815924Y-199357000D01*
X374043318Y-199311769D01*
X374257519Y-199223044D01*
X374450294Y-199094236D01*
X374614236Y-198930294D01*
X374743044Y-198737519D01*
X374831769Y-198523318D01*
X374831993Y-198522188D01*
X380495000Y-198522188D01*
X380495000Y-199029812D01*
X380594033Y-199527683D01*
X380788292Y-199996667D01*
X381070313Y-200418742D01*
X381429258Y-200777687D01*
X381851333Y-201059708D01*
X382320317Y-201253967D01*
X382818188Y-201353000D01*
X383325812Y-201353000D01*
X383823683Y-201253967D01*
X384292667Y-201059708D01*
X384714742Y-200777687D01*
X385073687Y-200418742D01*
X385355708Y-199996667D01*
X385549967Y-199527683D01*
X385649000Y-199029812D01*
X385649000Y-198522188D01*
X385549967Y-198024317D01*
X385355708Y-197555333D01*
X385073687Y-197133258D01*
X384714742Y-196774313D01*
X384292667Y-196492292D01*
X383823683Y-196298033D01*
X383325812Y-196199000D01*
X382818188Y-196199000D01*
X382320317Y-196298033D01*
X381851333Y-196492292D01*
X381429258Y-196774313D01*
X381070313Y-197133258D01*
X380788292Y-197555333D01*
X380594033Y-198024317D01*
X380495000Y-198522188D01*
X374831993Y-198522188D01*
X374877000Y-198295924D01*
X374877000Y-198064076D01*
X374831769Y-197836682D01*
X374743044Y-197622481D01*
X374614236Y-197429706D01*
X374450294Y-197265764D01*
X374257519Y-197136956D01*
X374043318Y-197048231D01*
X373815924Y-197003000D01*
X373584076Y-197003000D01*
X373356682Y-197048231D01*
X373142481Y-197136956D01*
X372949706Y-197265764D01*
X372785764Y-197429706D01*
X372656956Y-197622481D01*
X372568231Y-197836682D01*
X372523000Y-198064076D01*
X371852000Y-198064076D01*
X371852000Y-195524076D01*
X372523000Y-195524076D01*
X372523000Y-195755924D01*
X372568231Y-195983318D01*
X372656956Y-196197519D01*
X372785764Y-196390294D01*
X372949706Y-196554236D01*
X373142481Y-196683044D01*
X373356682Y-196771769D01*
X373584076Y-196817000D01*
X373815924Y-196817000D01*
X374043318Y-196771769D01*
X374257519Y-196683044D01*
X374450294Y-196554236D01*
X374614236Y-196390294D01*
X374743044Y-196197519D01*
X374831769Y-195983318D01*
X374877000Y-195755924D01*
X374877000Y-195524076D01*
X374831769Y-195296682D01*
X374743044Y-195082481D01*
X374614236Y-194889706D01*
X374450294Y-194725764D01*
X374257519Y-194596956D01*
X374043318Y-194508231D01*
X373815924Y-194463000D01*
X373584076Y-194463000D01*
X373356682Y-194508231D01*
X373142481Y-194596956D01*
X372949706Y-194725764D01*
X372785764Y-194889706D01*
X372656956Y-195082481D01*
X372568231Y-195296682D01*
X372523000Y-195524076D01*
X371852000Y-195524076D01*
X371852000Y-192250000D01*
X372521418Y-192250000D01*
X372521418Y-193950000D01*
X372527732Y-194014103D01*
X372546430Y-194075743D01*
X372576794Y-194132550D01*
X372617657Y-194182343D01*
X372667450Y-194223206D01*
X372724257Y-194253570D01*
X372785897Y-194272268D01*
X372850000Y-194278582D01*
X374550000Y-194278582D01*
X374614103Y-194272268D01*
X374675743Y-194253570D01*
X374732550Y-194223206D01*
X374782343Y-194182343D01*
X374823206Y-194132550D01*
X374853570Y-194075743D01*
X374872268Y-194014103D01*
X374878582Y-193950000D01*
X374878582Y-193188188D01*
X376558000Y-193188188D01*
X376558000Y-193695812D01*
X376657033Y-194193683D01*
X376851292Y-194662667D01*
X377133313Y-195084742D01*
X377492258Y-195443687D01*
X377914333Y-195725708D01*
X378383317Y-195919967D01*
X378881188Y-196019000D01*
X379388812Y-196019000D01*
X379886683Y-195919967D01*
X380355667Y-195725708D01*
X380777742Y-195443687D01*
X381136687Y-195084742D01*
X381418708Y-194662667D01*
X381612967Y-194193683D01*
X381712000Y-193695812D01*
X381712000Y-193188188D01*
X381612967Y-192690317D01*
X381418708Y-192221333D01*
X381136687Y-191799258D01*
X380777742Y-191440313D01*
X380355667Y-191158292D01*
X379886683Y-190964033D01*
X379388812Y-190865000D01*
X378881188Y-190865000D01*
X378383317Y-190964033D01*
X377914333Y-191158292D01*
X377492258Y-191440313D01*
X377133313Y-191799258D01*
X376851292Y-192221333D01*
X376657033Y-192690317D01*
X376558000Y-193188188D01*
X374878582Y-193188188D01*
X374878582Y-192250000D01*
X374872268Y-192185897D01*
X374853570Y-192124257D01*
X374823206Y-192067450D01*
X374782343Y-192017657D01*
X374732550Y-191976794D01*
X374675743Y-191946430D01*
X374614103Y-191927732D01*
X374550000Y-191921418D01*
X372850000Y-191921418D01*
X372785897Y-191927732D01*
X372724257Y-191946430D01*
X372667450Y-191976794D01*
X372617657Y-192017657D01*
X372576794Y-192067450D01*
X372546430Y-192124257D01*
X372527732Y-192185897D01*
X372521418Y-192250000D01*
X371852000Y-192250000D01*
X371852000Y-189886188D01*
X388623000Y-189886188D01*
X388623000Y-190393812D01*
X388722033Y-190891683D01*
X388916292Y-191360667D01*
X389198313Y-191782742D01*
X389557258Y-192141687D01*
X389979333Y-192423708D01*
X390448317Y-192617967D01*
X390946188Y-192717000D01*
X391453812Y-192717000D01*
X391951683Y-192617967D01*
X392420667Y-192423708D01*
X392842742Y-192141687D01*
X393201687Y-191782742D01*
X393483708Y-191360667D01*
X393677967Y-190891683D01*
X393777000Y-190393812D01*
X393777000Y-189886188D01*
X393677967Y-189388317D01*
X393483708Y-188919333D01*
X393201687Y-188497258D01*
X392842742Y-188138313D01*
X392420667Y-187856292D01*
X391951683Y-187662033D01*
X391453812Y-187563000D01*
X390946188Y-187563000D01*
X390448317Y-187662033D01*
X389979333Y-187856292D01*
X389557258Y-188138313D01*
X389198313Y-188497258D01*
X388916292Y-188919333D01*
X388722033Y-189388317D01*
X388623000Y-189886188D01*
X371852000Y-189886188D01*
X371852000Y-186330188D01*
X382527000Y-186330188D01*
X382527000Y-186837812D01*
X382626033Y-187335683D01*
X382820292Y-187804667D01*
X383102313Y-188226742D01*
X383461258Y-188585687D01*
X383883333Y-188867708D01*
X384352317Y-189061967D01*
X384850188Y-189161000D01*
X385357812Y-189161000D01*
X385855683Y-189061967D01*
X386324667Y-188867708D01*
X386746742Y-188585687D01*
X387105687Y-188226742D01*
X387387708Y-187804667D01*
X387581967Y-187335683D01*
X387681000Y-186837812D01*
X387681000Y-186330188D01*
X387581967Y-185832317D01*
X387387708Y-185363333D01*
X387105687Y-184941258D01*
X386746742Y-184582313D01*
X386324667Y-184300292D01*
X385855683Y-184106033D01*
X385357812Y-184007000D01*
X384850188Y-184007000D01*
X384352317Y-184106033D01*
X383883333Y-184300292D01*
X383461258Y-184582313D01*
X383102313Y-184941258D01*
X382820292Y-185363333D01*
X382626033Y-185832317D01*
X382527000Y-186330188D01*
X371852000Y-186330188D01*
X371852000Y-178522188D01*
X380495000Y-178522188D01*
X380495000Y-179029812D01*
X380594033Y-179527683D01*
X380788292Y-179996667D01*
X381070313Y-180418742D01*
X381429258Y-180777687D01*
X381851333Y-181059708D01*
X382320317Y-181253967D01*
X382818188Y-181353000D01*
X383325812Y-181353000D01*
X383823683Y-181253967D01*
X384292667Y-181059708D01*
X384714742Y-180777687D01*
X385073687Y-180418742D01*
X385355708Y-179996667D01*
X385549967Y-179527683D01*
X385649000Y-179029812D01*
X385649000Y-178522188D01*
X385549967Y-178024317D01*
X385355708Y-177555333D01*
X385073687Y-177133258D01*
X384714742Y-176774313D01*
X384292667Y-176492292D01*
X383823683Y-176298033D01*
X383325812Y-176199000D01*
X382818188Y-176199000D01*
X382320317Y-176298033D01*
X381851333Y-176492292D01*
X381429258Y-176774313D01*
X381070313Y-177133258D01*
X380788292Y-177555333D01*
X380594033Y-178024317D01*
X380495000Y-178522188D01*
X371852000Y-178522188D01*
X371852000Y-173188188D01*
X376558000Y-173188188D01*
X376558000Y-173695812D01*
X376657033Y-174193683D01*
X376851292Y-174662667D01*
X377133313Y-175084742D01*
X377492258Y-175443687D01*
X377914333Y-175725708D01*
X378383317Y-175919967D01*
X378881188Y-176019000D01*
X379388812Y-176019000D01*
X379886683Y-175919967D01*
X380355667Y-175725708D01*
X380777742Y-175443687D01*
X381136687Y-175084742D01*
X381418708Y-174662667D01*
X381612967Y-174193683D01*
X381712000Y-173695812D01*
X381712000Y-173188188D01*
X381612967Y-172690317D01*
X381418708Y-172221333D01*
X381136687Y-171799258D01*
X380777742Y-171440313D01*
X380355667Y-171158292D01*
X379886683Y-170964033D01*
X379388812Y-170865000D01*
X378881188Y-170865000D01*
X378383317Y-170964033D01*
X377914333Y-171158292D01*
X377492258Y-171440313D01*
X377133313Y-171799258D01*
X376851292Y-172221333D01*
X376657033Y-172690317D01*
X376558000Y-173188188D01*
X371852000Y-173188188D01*
X371852000Y-169886188D01*
X388623000Y-169886188D01*
X388623000Y-170393812D01*
X388722033Y-170891683D01*
X388916292Y-171360667D01*
X389198313Y-171782742D01*
X389557258Y-172141687D01*
X389979333Y-172423708D01*
X390448317Y-172617967D01*
X390946188Y-172717000D01*
X391453812Y-172717000D01*
X391951683Y-172617967D01*
X392420667Y-172423708D01*
X392842742Y-172141687D01*
X393201687Y-171782742D01*
X393483708Y-171360667D01*
X393677967Y-170891683D01*
X393777000Y-170393812D01*
X393777000Y-169886188D01*
X393677967Y-169388317D01*
X393483708Y-168919333D01*
X393201687Y-168497258D01*
X392842742Y-168138313D01*
X392420667Y-167856292D01*
X391951683Y-167662033D01*
X391453812Y-167563000D01*
X390946188Y-167563000D01*
X390448317Y-167662033D01*
X389979333Y-167856292D01*
X389557258Y-168138313D01*
X389198313Y-168497258D01*
X388916292Y-168919333D01*
X388722033Y-169388317D01*
X388623000Y-169886188D01*
X371852000Y-169886188D01*
X371852000Y-166330188D01*
X382527000Y-166330188D01*
X382527000Y-166837812D01*
X382626033Y-167335683D01*
X382820292Y-167804667D01*
X383102313Y-168226742D01*
X383461258Y-168585687D01*
X383883333Y-168867708D01*
X384352317Y-169061967D01*
X384850188Y-169161000D01*
X385357812Y-169161000D01*
X385855683Y-169061967D01*
X386324667Y-168867708D01*
X386746742Y-168585687D01*
X387105687Y-168226742D01*
X387387708Y-167804667D01*
X387581967Y-167335683D01*
X387681000Y-166837812D01*
X387681000Y-166330188D01*
X387581967Y-165832317D01*
X387387708Y-165363333D01*
X387105687Y-164941258D01*
X386746742Y-164582313D01*
X386324667Y-164300292D01*
X385855683Y-164106033D01*
X385357812Y-164007000D01*
X384850188Y-164007000D01*
X384352317Y-164106033D01*
X383883333Y-164300292D01*
X383461258Y-164582313D01*
X383102313Y-164941258D01*
X382820292Y-165363333D01*
X382626033Y-165832317D01*
X382527000Y-166330188D01*
X371852000Y-166330188D01*
X371852000Y-158522188D01*
X380495000Y-158522188D01*
X380495000Y-159029812D01*
X380594033Y-159527683D01*
X380788292Y-159996667D01*
X381070313Y-160418742D01*
X381429258Y-160777687D01*
X381851333Y-161059708D01*
X382320317Y-161253967D01*
X382818188Y-161353000D01*
X383325812Y-161353000D01*
X383823683Y-161253967D01*
X384292667Y-161059708D01*
X384714742Y-160777687D01*
X385073687Y-160418742D01*
X385355708Y-159996667D01*
X385549967Y-159527683D01*
X385649000Y-159029812D01*
X385649000Y-158522188D01*
X385549967Y-158024317D01*
X385355708Y-157555333D01*
X385073687Y-157133258D01*
X384714742Y-156774313D01*
X384292667Y-156492292D01*
X383823683Y-156298033D01*
X383325812Y-156199000D01*
X382818188Y-156199000D01*
X382320317Y-156298033D01*
X381851333Y-156492292D01*
X381429258Y-156774313D01*
X381070313Y-157133258D01*
X380788292Y-157555333D01*
X380594033Y-158024317D01*
X380495000Y-158522188D01*
X371852000Y-158522188D01*
X371852000Y-153188188D01*
X376558000Y-153188188D01*
X376558000Y-153695812D01*
X376657033Y-154193683D01*
X376851292Y-154662667D01*
X377133313Y-155084742D01*
X377492258Y-155443687D01*
X377914333Y-155725708D01*
X378383317Y-155919967D01*
X378881188Y-156019000D01*
X379388812Y-156019000D01*
X379886683Y-155919967D01*
X380355667Y-155725708D01*
X380777742Y-155443687D01*
X381136687Y-155084742D01*
X381418708Y-154662667D01*
X381612967Y-154193683D01*
X381712000Y-153695812D01*
X381712000Y-153188188D01*
X381612967Y-152690317D01*
X381418708Y-152221333D01*
X381136687Y-151799258D01*
X380777742Y-151440313D01*
X380355667Y-151158292D01*
X379886683Y-150964033D01*
X379388812Y-150865000D01*
X378881188Y-150865000D01*
X378383317Y-150964033D01*
X377914333Y-151158292D01*
X377492258Y-151440313D01*
X377133313Y-151799258D01*
X376851292Y-152221333D01*
X376657033Y-152690317D01*
X376558000Y-153188188D01*
X371852000Y-153188188D01*
X371852000Y-149886188D01*
X388623000Y-149886188D01*
X388623000Y-150393812D01*
X388722033Y-150891683D01*
X388916292Y-151360667D01*
X389198313Y-151782742D01*
X389557258Y-152141687D01*
X389979333Y-152423708D01*
X390448317Y-152617967D01*
X390946188Y-152717000D01*
X391453812Y-152717000D01*
X391951683Y-152617967D01*
X392420667Y-152423708D01*
X392842742Y-152141687D01*
X393201687Y-151782742D01*
X393483708Y-151360667D01*
X393677967Y-150891683D01*
X393777000Y-150393812D01*
X393777000Y-149886188D01*
X393677967Y-149388317D01*
X393483708Y-148919333D01*
X393201687Y-148497258D01*
X392842742Y-148138313D01*
X392420667Y-147856292D01*
X391951683Y-147662033D01*
X391453812Y-147563000D01*
X390946188Y-147563000D01*
X390448317Y-147662033D01*
X389979333Y-147856292D01*
X389557258Y-148138313D01*
X389198313Y-148497258D01*
X388916292Y-148919333D01*
X388722033Y-149388317D01*
X388623000Y-149886188D01*
X371852000Y-149886188D01*
X371852000Y-146330188D01*
X382527000Y-146330188D01*
X382527000Y-146837812D01*
X382626033Y-147335683D01*
X382820292Y-147804667D01*
X383102313Y-148226742D01*
X383461258Y-148585687D01*
X383883333Y-148867708D01*
X384352317Y-149061967D01*
X384850188Y-149161000D01*
X385357812Y-149161000D01*
X385855683Y-149061967D01*
X386324667Y-148867708D01*
X386746742Y-148585687D01*
X387105687Y-148226742D01*
X387387708Y-147804667D01*
X387581967Y-147335683D01*
X387681000Y-146837812D01*
X387681000Y-146330188D01*
X387581967Y-145832317D01*
X387387708Y-145363333D01*
X387105687Y-144941258D01*
X386746742Y-144582313D01*
X386324667Y-144300292D01*
X385855683Y-144106033D01*
X385357812Y-144007000D01*
X384850188Y-144007000D01*
X384352317Y-144106033D01*
X383883333Y-144300292D01*
X383461258Y-144582313D01*
X383102313Y-144941258D01*
X382820292Y-145363333D01*
X382626033Y-145832317D01*
X382527000Y-146330188D01*
X371852000Y-146330188D01*
X371852000Y-138522188D01*
X380495000Y-138522188D01*
X380495000Y-139029812D01*
X380594033Y-139527683D01*
X380788292Y-139996667D01*
X381070313Y-140418742D01*
X381429258Y-140777687D01*
X381851333Y-141059708D01*
X382320317Y-141253967D01*
X382818188Y-141353000D01*
X383325812Y-141353000D01*
X383823683Y-141253967D01*
X384292667Y-141059708D01*
X384714742Y-140777687D01*
X385073687Y-140418742D01*
X385355708Y-139996667D01*
X385549967Y-139527683D01*
X385649000Y-139029812D01*
X385649000Y-138522188D01*
X385549967Y-138024317D01*
X385355708Y-137555333D01*
X385073687Y-137133258D01*
X384714742Y-136774313D01*
X384292667Y-136492292D01*
X383823683Y-136298033D01*
X383325812Y-136199000D01*
X382818188Y-136199000D01*
X382320317Y-136298033D01*
X381851333Y-136492292D01*
X381429258Y-136774313D01*
X381070313Y-137133258D01*
X380788292Y-137555333D01*
X380594033Y-138024317D01*
X380495000Y-138522188D01*
X371852000Y-138522188D01*
X371852000Y-133188188D01*
X376558000Y-133188188D01*
X376558000Y-133695812D01*
X376657033Y-134193683D01*
X376851292Y-134662667D01*
X377133313Y-135084742D01*
X377492258Y-135443687D01*
X377914333Y-135725708D01*
X378383317Y-135919967D01*
X378881188Y-136019000D01*
X379388812Y-136019000D01*
X379886683Y-135919967D01*
X380355667Y-135725708D01*
X380777742Y-135443687D01*
X381136687Y-135084742D01*
X381418708Y-134662667D01*
X381612967Y-134193683D01*
X381712000Y-133695812D01*
X381712000Y-133188188D01*
X381612967Y-132690317D01*
X381418708Y-132221333D01*
X381136687Y-131799258D01*
X380777742Y-131440313D01*
X380355667Y-131158292D01*
X379886683Y-130964033D01*
X379388812Y-130865000D01*
X378881188Y-130865000D01*
X378383317Y-130964033D01*
X377914333Y-131158292D01*
X377492258Y-131440313D01*
X377133313Y-131799258D01*
X376851292Y-132221333D01*
X376657033Y-132690317D01*
X376558000Y-133188188D01*
X371852000Y-133188188D01*
X371852000Y-129886188D01*
X388623000Y-129886188D01*
X388623000Y-130393812D01*
X388722033Y-130891683D01*
X388916292Y-131360667D01*
X389198313Y-131782742D01*
X389557258Y-132141687D01*
X389979333Y-132423708D01*
X390448317Y-132617967D01*
X390946188Y-132717000D01*
X391453812Y-132717000D01*
X391951683Y-132617967D01*
X392420667Y-132423708D01*
X392842742Y-132141687D01*
X393201687Y-131782742D01*
X393483708Y-131360667D01*
X393677967Y-130891683D01*
X393777000Y-130393812D01*
X393777000Y-129886188D01*
X393677967Y-129388317D01*
X393483708Y-128919333D01*
X393201687Y-128497258D01*
X392842742Y-128138313D01*
X392420667Y-127856292D01*
X391951683Y-127662033D01*
X391453812Y-127563000D01*
X390946188Y-127563000D01*
X390448317Y-127662033D01*
X389979333Y-127856292D01*
X389557258Y-128138313D01*
X389198313Y-128497258D01*
X388916292Y-128919333D01*
X388722033Y-129388317D01*
X388623000Y-129886188D01*
X371852000Y-129886188D01*
X371852000Y-126330188D01*
X382527000Y-126330188D01*
X382527000Y-126837812D01*
X382626033Y-127335683D01*
X382820292Y-127804667D01*
X383102313Y-128226742D01*
X383461258Y-128585687D01*
X383883333Y-128867708D01*
X384352317Y-129061967D01*
X384850188Y-129161000D01*
X385357812Y-129161000D01*
X385855683Y-129061967D01*
X386324667Y-128867708D01*
X386746742Y-128585687D01*
X387105687Y-128226742D01*
X387387708Y-127804667D01*
X387581967Y-127335683D01*
X387681000Y-126837812D01*
X387681000Y-126330188D01*
X387581967Y-125832317D01*
X387387708Y-125363333D01*
X387105687Y-124941258D01*
X386746742Y-124582313D01*
X386324667Y-124300292D01*
X385855683Y-124106033D01*
X385357812Y-124007000D01*
X384850188Y-124007000D01*
X384352317Y-124106033D01*
X383883333Y-124300292D01*
X383461258Y-124582313D01*
X383102313Y-124941258D01*
X382820292Y-125363333D01*
X382626033Y-125832317D01*
X382527000Y-126330188D01*
X371852000Y-126330188D01*
X371852000Y-120152000D01*
X394048001Y-120152000D01*
X394048000Y-286048000D01*
G37*
X394048000Y-286048000D02*
X371852000Y-286048000D01*
X371852000Y-278522188D01*
X380495000Y-278522188D01*
X380495000Y-279029812D01*
X380594033Y-279527683D01*
X380788292Y-279996667D01*
X381070313Y-280418742D01*
X381429258Y-280777687D01*
X381851333Y-281059708D01*
X382320317Y-281253967D01*
X382818188Y-281353000D01*
X383325812Y-281353000D01*
X383823683Y-281253967D01*
X384292667Y-281059708D01*
X384714742Y-280777687D01*
X385073687Y-280418742D01*
X385355708Y-279996667D01*
X385549967Y-279527683D01*
X385649000Y-279029812D01*
X385649000Y-278522188D01*
X385549967Y-278024317D01*
X385355708Y-277555333D01*
X385073687Y-277133258D01*
X384714742Y-276774313D01*
X384292667Y-276492292D01*
X383823683Y-276298033D01*
X383325812Y-276199000D01*
X382818188Y-276199000D01*
X382320317Y-276298033D01*
X381851333Y-276492292D01*
X381429258Y-276774313D01*
X381070313Y-277133258D01*
X380788292Y-277555333D01*
X380594033Y-278024317D01*
X380495000Y-278522188D01*
X371852000Y-278522188D01*
X371852000Y-273188188D01*
X376558000Y-273188188D01*
X376558000Y-273695812D01*
X376657033Y-274193683D01*
X376851292Y-274662667D01*
X377133313Y-275084742D01*
X377492258Y-275443687D01*
X377914333Y-275725708D01*
X378383317Y-275919967D01*
X378881188Y-276019000D01*
X379388812Y-276019000D01*
X379886683Y-275919967D01*
X380355667Y-275725708D01*
X380777742Y-275443687D01*
X381136687Y-275084742D01*
X381418708Y-274662667D01*
X381612967Y-274193683D01*
X381712000Y-273695812D01*
X381712000Y-273188188D01*
X381612967Y-272690317D01*
X381418708Y-272221333D01*
X381136687Y-271799258D01*
X380777742Y-271440313D01*
X380355667Y-271158292D01*
X379886683Y-270964033D01*
X379388812Y-270865000D01*
X378881188Y-270865000D01*
X378383317Y-270964033D01*
X377914333Y-271158292D01*
X377492258Y-271440313D01*
X377133313Y-271799258D01*
X376851292Y-272221333D01*
X376657033Y-272690317D01*
X376558000Y-273188188D01*
X371852000Y-273188188D01*
X371852000Y-269886188D01*
X388623000Y-269886188D01*
X388623000Y-270393812D01*
X388722033Y-270891683D01*
X388916292Y-271360667D01*
X389198313Y-271782742D01*
X389557258Y-272141687D01*
X389979333Y-272423708D01*
X390448317Y-272617967D01*
X390946188Y-272717000D01*
X391453812Y-272717000D01*
X391951683Y-272617967D01*
X392420667Y-272423708D01*
X392842742Y-272141687D01*
X393201687Y-271782742D01*
X393483708Y-271360667D01*
X393677967Y-270891683D01*
X393777000Y-270393812D01*
X393777000Y-269886188D01*
X393677967Y-269388317D01*
X393483708Y-268919333D01*
X393201687Y-268497258D01*
X392842742Y-268138313D01*
X392420667Y-267856292D01*
X391951683Y-267662033D01*
X391453812Y-267563000D01*
X390946188Y-267563000D01*
X390448317Y-267662033D01*
X389979333Y-267856292D01*
X389557258Y-268138313D01*
X389198313Y-268497258D01*
X388916292Y-268919333D01*
X388722033Y-269388317D01*
X388623000Y-269886188D01*
X371852000Y-269886188D01*
X371852000Y-266330188D01*
X382527000Y-266330188D01*
X382527000Y-266837812D01*
X382626033Y-267335683D01*
X382820292Y-267804667D01*
X383102313Y-268226742D01*
X383461258Y-268585687D01*
X383883333Y-268867708D01*
X384352317Y-269061967D01*
X384850188Y-269161000D01*
X385357812Y-269161000D01*
X385855683Y-269061967D01*
X386324667Y-268867708D01*
X386746742Y-268585687D01*
X387105687Y-268226742D01*
X387387708Y-267804667D01*
X387581967Y-267335683D01*
X387681000Y-266837812D01*
X387681000Y-266330188D01*
X387581967Y-265832317D01*
X387387708Y-265363333D01*
X387105687Y-264941258D01*
X386746742Y-264582313D01*
X386324667Y-264300292D01*
X385855683Y-264106033D01*
X385357812Y-264007000D01*
X384850188Y-264007000D01*
X384352317Y-264106033D01*
X383883333Y-264300292D01*
X383461258Y-264582313D01*
X383102313Y-264941258D01*
X382820292Y-265363333D01*
X382626033Y-265832317D01*
X382527000Y-266330188D01*
X371852000Y-266330188D01*
X371852000Y-258522188D01*
X380495000Y-258522188D01*
X380495000Y-259029812D01*
X380594033Y-259527683D01*
X380788292Y-259996667D01*
X381070313Y-260418742D01*
X381429258Y-260777687D01*
X381851333Y-261059708D01*
X382320317Y-261253967D01*
X382818188Y-261353000D01*
X383325812Y-261353000D01*
X383823683Y-261253967D01*
X384292667Y-261059708D01*
X384714742Y-260777687D01*
X385073687Y-260418742D01*
X385355708Y-259996667D01*
X385549967Y-259527683D01*
X385649000Y-259029812D01*
X385649000Y-258522188D01*
X385549967Y-258024317D01*
X385355708Y-257555333D01*
X385073687Y-257133258D01*
X384714742Y-256774313D01*
X384292667Y-256492292D01*
X383823683Y-256298033D01*
X383325812Y-256199000D01*
X382818188Y-256199000D01*
X382320317Y-256298033D01*
X381851333Y-256492292D01*
X381429258Y-256774313D01*
X381070313Y-257133258D01*
X380788292Y-257555333D01*
X380594033Y-258024317D01*
X380495000Y-258522188D01*
X371852000Y-258522188D01*
X371852000Y-253188188D01*
X376558000Y-253188188D01*
X376558000Y-253695812D01*
X376657033Y-254193683D01*
X376851292Y-254662667D01*
X377133313Y-255084742D01*
X377492258Y-255443687D01*
X377914333Y-255725708D01*
X378383317Y-255919967D01*
X378881188Y-256019000D01*
X379388812Y-256019000D01*
X379886683Y-255919967D01*
X380355667Y-255725708D01*
X380777742Y-255443687D01*
X381136687Y-255084742D01*
X381418708Y-254662667D01*
X381612967Y-254193683D01*
X381712000Y-253695812D01*
X381712000Y-253188188D01*
X381612967Y-252690317D01*
X381418708Y-252221333D01*
X381136687Y-251799258D01*
X380777742Y-251440313D01*
X380355667Y-251158292D01*
X379886683Y-250964033D01*
X379388812Y-250865000D01*
X378881188Y-250865000D01*
X378383317Y-250964033D01*
X377914333Y-251158292D01*
X377492258Y-251440313D01*
X377133313Y-251799258D01*
X376851292Y-252221333D01*
X376657033Y-252690317D01*
X376558000Y-253188188D01*
X371852000Y-253188188D01*
X371852000Y-249886188D01*
X388623000Y-249886188D01*
X388623000Y-250393812D01*
X388722033Y-250891683D01*
X388916292Y-251360667D01*
X389198313Y-251782742D01*
X389557258Y-252141687D01*
X389979333Y-252423708D01*
X390448317Y-252617967D01*
X390946188Y-252717000D01*
X391453812Y-252717000D01*
X391951683Y-252617967D01*
X392420667Y-252423708D01*
X392842742Y-252141687D01*
X393201687Y-251782742D01*
X393483708Y-251360667D01*
X393677967Y-250891683D01*
X393777000Y-250393812D01*
X393777000Y-249886188D01*
X393677967Y-249388317D01*
X393483708Y-248919333D01*
X393201687Y-248497258D01*
X392842742Y-248138313D01*
X392420667Y-247856292D01*
X391951683Y-247662033D01*
X391453812Y-247563000D01*
X390946188Y-247563000D01*
X390448317Y-247662033D01*
X389979333Y-247856292D01*
X389557258Y-248138313D01*
X389198313Y-248497258D01*
X388916292Y-248919333D01*
X388722033Y-249388317D01*
X388623000Y-249886188D01*
X371852000Y-249886188D01*
X371852000Y-246330188D01*
X382527000Y-246330188D01*
X382527000Y-246837812D01*
X382626033Y-247335683D01*
X382820292Y-247804667D01*
X383102313Y-248226742D01*
X383461258Y-248585687D01*
X383883333Y-248867708D01*
X384352317Y-249061967D01*
X384850188Y-249161000D01*
X385357812Y-249161000D01*
X385855683Y-249061967D01*
X386324667Y-248867708D01*
X386746742Y-248585687D01*
X387105687Y-248226742D01*
X387387708Y-247804667D01*
X387581967Y-247335683D01*
X387681000Y-246837812D01*
X387681000Y-246330188D01*
X387581967Y-245832317D01*
X387387708Y-245363333D01*
X387105687Y-244941258D01*
X386746742Y-244582313D01*
X386324667Y-244300292D01*
X385855683Y-244106033D01*
X385357812Y-244007000D01*
X384850188Y-244007000D01*
X384352317Y-244106033D01*
X383883333Y-244300292D01*
X383461258Y-244582313D01*
X383102313Y-244941258D01*
X382820292Y-245363333D01*
X382626033Y-245832317D01*
X382527000Y-246330188D01*
X371852000Y-246330188D01*
X371852000Y-238522188D01*
X380495000Y-238522188D01*
X380495000Y-239029812D01*
X380594033Y-239527683D01*
X380788292Y-239996667D01*
X381070313Y-240418742D01*
X381429258Y-240777687D01*
X381851333Y-241059708D01*
X382320317Y-241253967D01*
X382818188Y-241353000D01*
X383325812Y-241353000D01*
X383823683Y-241253967D01*
X384292667Y-241059708D01*
X384714742Y-240777687D01*
X385073687Y-240418742D01*
X385355708Y-239996667D01*
X385549967Y-239527683D01*
X385649000Y-239029812D01*
X385649000Y-238522188D01*
X385549967Y-238024317D01*
X385355708Y-237555333D01*
X385073687Y-237133258D01*
X384714742Y-236774313D01*
X384292667Y-236492292D01*
X383823683Y-236298033D01*
X383325812Y-236199000D01*
X382818188Y-236199000D01*
X382320317Y-236298033D01*
X381851333Y-236492292D01*
X381429258Y-236774313D01*
X381070313Y-237133258D01*
X380788292Y-237555333D01*
X380594033Y-238024317D01*
X380495000Y-238522188D01*
X371852000Y-238522188D01*
X371852000Y-233188188D01*
X376558000Y-233188188D01*
X376558000Y-233695812D01*
X376657033Y-234193683D01*
X376851292Y-234662667D01*
X377133313Y-235084742D01*
X377492258Y-235443687D01*
X377914333Y-235725708D01*
X378383317Y-235919967D01*
X378881188Y-236019000D01*
X379388812Y-236019000D01*
X379886683Y-235919967D01*
X380355667Y-235725708D01*
X380777742Y-235443687D01*
X381136687Y-235084742D01*
X381418708Y-234662667D01*
X381612967Y-234193683D01*
X381712000Y-233695812D01*
X381712000Y-233188188D01*
X381612967Y-232690317D01*
X381418708Y-232221333D01*
X381136687Y-231799258D01*
X380777742Y-231440313D01*
X380355667Y-231158292D01*
X379886683Y-230964033D01*
X379388812Y-230865000D01*
X378881188Y-230865000D01*
X378383317Y-230964033D01*
X377914333Y-231158292D01*
X377492258Y-231440313D01*
X377133313Y-231799258D01*
X376851292Y-232221333D01*
X376657033Y-232690317D01*
X376558000Y-233188188D01*
X371852000Y-233188188D01*
X371852000Y-229886188D01*
X388623000Y-229886188D01*
X388623000Y-230393812D01*
X388722033Y-230891683D01*
X388916292Y-231360667D01*
X389198313Y-231782742D01*
X389557258Y-232141687D01*
X389979333Y-232423708D01*
X390448317Y-232617967D01*
X390946188Y-232717000D01*
X391453812Y-232717000D01*
X391951683Y-232617967D01*
X392420667Y-232423708D01*
X392842742Y-232141687D01*
X393201687Y-231782742D01*
X393483708Y-231360667D01*
X393677967Y-230891683D01*
X393777000Y-230393812D01*
X393777000Y-229886188D01*
X393677967Y-229388317D01*
X393483708Y-228919333D01*
X393201687Y-228497258D01*
X392842742Y-228138313D01*
X392420667Y-227856292D01*
X391951683Y-227662033D01*
X391453812Y-227563000D01*
X390946188Y-227563000D01*
X390448317Y-227662033D01*
X389979333Y-227856292D01*
X389557258Y-228138313D01*
X389198313Y-228497258D01*
X388916292Y-228919333D01*
X388722033Y-229388317D01*
X388623000Y-229886188D01*
X371852000Y-229886188D01*
X371852000Y-226330188D01*
X382527000Y-226330188D01*
X382527000Y-226837812D01*
X382626033Y-227335683D01*
X382820292Y-227804667D01*
X383102313Y-228226742D01*
X383461258Y-228585687D01*
X383883333Y-228867708D01*
X384352317Y-229061967D01*
X384850188Y-229161000D01*
X385357812Y-229161000D01*
X385855683Y-229061967D01*
X386324667Y-228867708D01*
X386746742Y-228585687D01*
X387105687Y-228226742D01*
X387387708Y-227804667D01*
X387581967Y-227335683D01*
X387681000Y-226837812D01*
X387681000Y-226330188D01*
X387581967Y-225832317D01*
X387387708Y-225363333D01*
X387105687Y-224941258D01*
X386746742Y-224582313D01*
X386324667Y-224300292D01*
X385855683Y-224106033D01*
X385357812Y-224007000D01*
X384850188Y-224007000D01*
X384352317Y-224106033D01*
X383883333Y-224300292D01*
X383461258Y-224582313D01*
X383102313Y-224941258D01*
X382820292Y-225363333D01*
X382626033Y-225832317D01*
X382527000Y-226330188D01*
X371852000Y-226330188D01*
X371852000Y-218522188D01*
X380495000Y-218522188D01*
X380495000Y-219029812D01*
X380594033Y-219527683D01*
X380788292Y-219996667D01*
X381070313Y-220418742D01*
X381429258Y-220777687D01*
X381851333Y-221059708D01*
X382320317Y-221253967D01*
X382818188Y-221353000D01*
X383325812Y-221353000D01*
X383823683Y-221253967D01*
X384292667Y-221059708D01*
X384714742Y-220777687D01*
X385073687Y-220418742D01*
X385355708Y-219996667D01*
X385549967Y-219527683D01*
X385649000Y-219029812D01*
X385649000Y-218522188D01*
X385549967Y-218024317D01*
X385355708Y-217555333D01*
X385073687Y-217133258D01*
X384714742Y-216774313D01*
X384292667Y-216492292D01*
X383823683Y-216298033D01*
X383325812Y-216199000D01*
X382818188Y-216199000D01*
X382320317Y-216298033D01*
X381851333Y-216492292D01*
X381429258Y-216774313D01*
X381070313Y-217133258D01*
X380788292Y-217555333D01*
X380594033Y-218024317D01*
X380495000Y-218522188D01*
X371852000Y-218522188D01*
X371852000Y-213188188D01*
X376558000Y-213188188D01*
X376558000Y-213695812D01*
X376657033Y-214193683D01*
X376851292Y-214662667D01*
X377133313Y-215084742D01*
X377492258Y-215443687D01*
X377914333Y-215725708D01*
X378383317Y-215919967D01*
X378881188Y-216019000D01*
X379388812Y-216019000D01*
X379886683Y-215919967D01*
X380355667Y-215725708D01*
X380777742Y-215443687D01*
X381136687Y-215084742D01*
X381418708Y-214662667D01*
X381612967Y-214193683D01*
X381712000Y-213695812D01*
X381712000Y-213188188D01*
X381612967Y-212690317D01*
X381418708Y-212221333D01*
X381136687Y-211799258D01*
X380777742Y-211440313D01*
X380355667Y-211158292D01*
X379886683Y-210964033D01*
X379388812Y-210865000D01*
X378881188Y-210865000D01*
X378383317Y-210964033D01*
X377914333Y-211158292D01*
X377492258Y-211440313D01*
X377133313Y-211799258D01*
X376851292Y-212221333D01*
X376657033Y-212690317D01*
X376558000Y-213188188D01*
X371852000Y-213188188D01*
X371852000Y-210764076D01*
X372523000Y-210764076D01*
X372523000Y-210995924D01*
X372568231Y-211223318D01*
X372656956Y-211437519D01*
X372785764Y-211630294D01*
X372949706Y-211794236D01*
X373142481Y-211923044D01*
X373356682Y-212011769D01*
X373584076Y-212057000D01*
X373815924Y-212057000D01*
X374043318Y-212011769D01*
X374257519Y-211923044D01*
X374450294Y-211794236D01*
X374614236Y-211630294D01*
X374743044Y-211437519D01*
X374831769Y-211223318D01*
X374877000Y-210995924D01*
X374877000Y-210764076D01*
X374831769Y-210536682D01*
X374743044Y-210322481D01*
X374614236Y-210129706D01*
X374450294Y-209965764D01*
X374331200Y-209886188D01*
X388623000Y-209886188D01*
X388623000Y-210393812D01*
X388722033Y-210891683D01*
X388916292Y-211360667D01*
X389198313Y-211782742D01*
X389557258Y-212141687D01*
X389979333Y-212423708D01*
X390448317Y-212617967D01*
X390946188Y-212717000D01*
X391453812Y-212717000D01*
X391951683Y-212617967D01*
X392420667Y-212423708D01*
X392842742Y-212141687D01*
X393201687Y-211782742D01*
X393483708Y-211360667D01*
X393677967Y-210891683D01*
X393777000Y-210393812D01*
X393777000Y-209886188D01*
X393677967Y-209388317D01*
X393483708Y-208919333D01*
X393201687Y-208497258D01*
X392842742Y-208138313D01*
X392420667Y-207856292D01*
X391951683Y-207662033D01*
X391453812Y-207563000D01*
X390946188Y-207563000D01*
X390448317Y-207662033D01*
X389979333Y-207856292D01*
X389557258Y-208138313D01*
X389198313Y-208497258D01*
X388916292Y-208919333D01*
X388722033Y-209388317D01*
X388623000Y-209886188D01*
X374331200Y-209886188D01*
X374257519Y-209836956D01*
X374043318Y-209748231D01*
X373815924Y-209703000D01*
X373584076Y-209703000D01*
X373356682Y-209748231D01*
X373142481Y-209836956D01*
X372949706Y-209965764D01*
X372785764Y-210129706D01*
X372656956Y-210322481D01*
X372568231Y-210536682D01*
X372523000Y-210764076D01*
X371852000Y-210764076D01*
X371852000Y-208224076D01*
X372523000Y-208224076D01*
X372523000Y-208455924D01*
X372568231Y-208683318D01*
X372656956Y-208897519D01*
X372785764Y-209090294D01*
X372949706Y-209254236D01*
X373142481Y-209383044D01*
X373356682Y-209471769D01*
X373584076Y-209517000D01*
X373815924Y-209517000D01*
X374043318Y-209471769D01*
X374257519Y-209383044D01*
X374450294Y-209254236D01*
X374614236Y-209090294D01*
X374743044Y-208897519D01*
X374831769Y-208683318D01*
X374877000Y-208455924D01*
X374877000Y-208224076D01*
X374831769Y-207996682D01*
X374743044Y-207782481D01*
X374614236Y-207589706D01*
X374450294Y-207425764D01*
X374257519Y-207296956D01*
X374043318Y-207208231D01*
X373815924Y-207163000D01*
X373584076Y-207163000D01*
X373356682Y-207208231D01*
X373142481Y-207296956D01*
X372949706Y-207425764D01*
X372785764Y-207589706D01*
X372656956Y-207782481D01*
X372568231Y-207996682D01*
X372523000Y-208224076D01*
X371852000Y-208224076D01*
X371852000Y-205684076D01*
X372523000Y-205684076D01*
X372523000Y-205915924D01*
X372568231Y-206143318D01*
X372656956Y-206357519D01*
X372785764Y-206550294D01*
X372949706Y-206714236D01*
X373142481Y-206843044D01*
X373356682Y-206931769D01*
X373584076Y-206977000D01*
X373815924Y-206977000D01*
X374043318Y-206931769D01*
X374257519Y-206843044D01*
X374450294Y-206714236D01*
X374614236Y-206550294D01*
X374743044Y-206357519D01*
X374754364Y-206330188D01*
X382527000Y-206330188D01*
X382527000Y-206837812D01*
X382626033Y-207335683D01*
X382820292Y-207804667D01*
X383102313Y-208226742D01*
X383461258Y-208585687D01*
X383883333Y-208867708D01*
X384352317Y-209061967D01*
X384850188Y-209161000D01*
X385357812Y-209161000D01*
X385855683Y-209061967D01*
X386324667Y-208867708D01*
X386746742Y-208585687D01*
X387105687Y-208226742D01*
X387387708Y-207804667D01*
X387581967Y-207335683D01*
X387681000Y-206837812D01*
X387681000Y-206330188D01*
X387581967Y-205832317D01*
X387387708Y-205363333D01*
X387105687Y-204941258D01*
X386746742Y-204582313D01*
X386324667Y-204300292D01*
X385855683Y-204106033D01*
X385357812Y-204007000D01*
X384850188Y-204007000D01*
X384352317Y-204106033D01*
X383883333Y-204300292D01*
X383461258Y-204582313D01*
X383102313Y-204941258D01*
X382820292Y-205363333D01*
X382626033Y-205832317D01*
X382527000Y-206330188D01*
X374754364Y-206330188D01*
X374831769Y-206143318D01*
X374877000Y-205915924D01*
X374877000Y-205684076D01*
X374831769Y-205456682D01*
X374743044Y-205242481D01*
X374614236Y-205049706D01*
X374450294Y-204885764D01*
X374257519Y-204756956D01*
X374043318Y-204668231D01*
X373815924Y-204623000D01*
X373584076Y-204623000D01*
X373356682Y-204668231D01*
X373142481Y-204756956D01*
X372949706Y-204885764D01*
X372785764Y-205049706D01*
X372656956Y-205242481D01*
X372568231Y-205456682D01*
X372523000Y-205684076D01*
X371852000Y-205684076D01*
X371852000Y-203144076D01*
X372523000Y-203144076D01*
X372523000Y-203375924D01*
X372568231Y-203603318D01*
X372656956Y-203817519D01*
X372785764Y-204010294D01*
X372949706Y-204174236D01*
X373142481Y-204303044D01*
X373356682Y-204391769D01*
X373584076Y-204437000D01*
X373815924Y-204437000D01*
X374043318Y-204391769D01*
X374257519Y-204303044D01*
X374450294Y-204174236D01*
X374614236Y-204010294D01*
X374743044Y-203817519D01*
X374831769Y-203603318D01*
X374877000Y-203375924D01*
X374877000Y-203144076D01*
X374831769Y-202916682D01*
X374743044Y-202702481D01*
X374614236Y-202509706D01*
X374450294Y-202345764D01*
X374257519Y-202216956D01*
X374043318Y-202128231D01*
X373815924Y-202083000D01*
X373584076Y-202083000D01*
X373356682Y-202128231D01*
X373142481Y-202216956D01*
X372949706Y-202345764D01*
X372785764Y-202509706D01*
X372656956Y-202702481D01*
X372568231Y-202916682D01*
X372523000Y-203144076D01*
X371852000Y-203144076D01*
X371852000Y-200604076D01*
X372523000Y-200604076D01*
X372523000Y-200835924D01*
X372568231Y-201063318D01*
X372656956Y-201277519D01*
X372785764Y-201470294D01*
X372949706Y-201634236D01*
X373142481Y-201763044D01*
X373356682Y-201851769D01*
X373584076Y-201897000D01*
X373815924Y-201897000D01*
X374043318Y-201851769D01*
X374257519Y-201763044D01*
X374450294Y-201634236D01*
X374614236Y-201470294D01*
X374743044Y-201277519D01*
X374831769Y-201063318D01*
X374877000Y-200835924D01*
X374877000Y-200604076D01*
X374831769Y-200376682D01*
X374743044Y-200162481D01*
X374614236Y-199969706D01*
X374450294Y-199805764D01*
X374257519Y-199676956D01*
X374043318Y-199588231D01*
X373815924Y-199543000D01*
X373584076Y-199543000D01*
X373356682Y-199588231D01*
X373142481Y-199676956D01*
X372949706Y-199805764D01*
X372785764Y-199969706D01*
X372656956Y-200162481D01*
X372568231Y-200376682D01*
X372523000Y-200604076D01*
X371852000Y-200604076D01*
X371852000Y-198064076D01*
X372523000Y-198064076D01*
X372523000Y-198295924D01*
X372568231Y-198523318D01*
X372656956Y-198737519D01*
X372785764Y-198930294D01*
X372949706Y-199094236D01*
X373142481Y-199223044D01*
X373356682Y-199311769D01*
X373584076Y-199357000D01*
X373815924Y-199357000D01*
X374043318Y-199311769D01*
X374257519Y-199223044D01*
X374450294Y-199094236D01*
X374614236Y-198930294D01*
X374743044Y-198737519D01*
X374831769Y-198523318D01*
X374831993Y-198522188D01*
X380495000Y-198522188D01*
X380495000Y-199029812D01*
X380594033Y-199527683D01*
X380788292Y-199996667D01*
X381070313Y-200418742D01*
X381429258Y-200777687D01*
X381851333Y-201059708D01*
X382320317Y-201253967D01*
X382818188Y-201353000D01*
X383325812Y-201353000D01*
X383823683Y-201253967D01*
X384292667Y-201059708D01*
X384714742Y-200777687D01*
X385073687Y-200418742D01*
X385355708Y-199996667D01*
X385549967Y-199527683D01*
X385649000Y-199029812D01*
X385649000Y-198522188D01*
X385549967Y-198024317D01*
X385355708Y-197555333D01*
X385073687Y-197133258D01*
X384714742Y-196774313D01*
X384292667Y-196492292D01*
X383823683Y-196298033D01*
X383325812Y-196199000D01*
X382818188Y-196199000D01*
X382320317Y-196298033D01*
X381851333Y-196492292D01*
X381429258Y-196774313D01*
X381070313Y-197133258D01*
X380788292Y-197555333D01*
X380594033Y-198024317D01*
X380495000Y-198522188D01*
X374831993Y-198522188D01*
X374877000Y-198295924D01*
X374877000Y-198064076D01*
X374831769Y-197836682D01*
X374743044Y-197622481D01*
X374614236Y-197429706D01*
X374450294Y-197265764D01*
X374257519Y-197136956D01*
X374043318Y-197048231D01*
X373815924Y-197003000D01*
X373584076Y-197003000D01*
X373356682Y-197048231D01*
X373142481Y-197136956D01*
X372949706Y-197265764D01*
X372785764Y-197429706D01*
X372656956Y-197622481D01*
X372568231Y-197836682D01*
X372523000Y-198064076D01*
X371852000Y-198064076D01*
X371852000Y-195524076D01*
X372523000Y-195524076D01*
X372523000Y-195755924D01*
X372568231Y-195983318D01*
X372656956Y-196197519D01*
X372785764Y-196390294D01*
X372949706Y-196554236D01*
X373142481Y-196683044D01*
X373356682Y-196771769D01*
X373584076Y-196817000D01*
X373815924Y-196817000D01*
X374043318Y-196771769D01*
X374257519Y-196683044D01*
X374450294Y-196554236D01*
X374614236Y-196390294D01*
X374743044Y-196197519D01*
X374831769Y-195983318D01*
X374877000Y-195755924D01*
X374877000Y-195524076D01*
X374831769Y-195296682D01*
X374743044Y-195082481D01*
X374614236Y-194889706D01*
X374450294Y-194725764D01*
X374257519Y-194596956D01*
X374043318Y-194508231D01*
X373815924Y-194463000D01*
X373584076Y-194463000D01*
X373356682Y-194508231D01*
X373142481Y-194596956D01*
X372949706Y-194725764D01*
X372785764Y-194889706D01*
X372656956Y-195082481D01*
X372568231Y-195296682D01*
X372523000Y-195524076D01*
X371852000Y-195524076D01*
X371852000Y-192250000D01*
X372521418Y-192250000D01*
X372521418Y-193950000D01*
X372527732Y-194014103D01*
X372546430Y-194075743D01*
X372576794Y-194132550D01*
X372617657Y-194182343D01*
X372667450Y-194223206D01*
X372724257Y-194253570D01*
X372785897Y-194272268D01*
X372850000Y-194278582D01*
X374550000Y-194278582D01*
X374614103Y-194272268D01*
X374675743Y-194253570D01*
X374732550Y-194223206D01*
X374782343Y-194182343D01*
X374823206Y-194132550D01*
X374853570Y-194075743D01*
X374872268Y-194014103D01*
X374878582Y-193950000D01*
X374878582Y-193188188D01*
X376558000Y-193188188D01*
X376558000Y-193695812D01*
X376657033Y-194193683D01*
X376851292Y-194662667D01*
X377133313Y-195084742D01*
X377492258Y-195443687D01*
X377914333Y-195725708D01*
X378383317Y-195919967D01*
X378881188Y-196019000D01*
X379388812Y-196019000D01*
X379886683Y-195919967D01*
X380355667Y-195725708D01*
X380777742Y-195443687D01*
X381136687Y-195084742D01*
X381418708Y-194662667D01*
X381612967Y-194193683D01*
X381712000Y-193695812D01*
X381712000Y-193188188D01*
X381612967Y-192690317D01*
X381418708Y-192221333D01*
X381136687Y-191799258D01*
X380777742Y-191440313D01*
X380355667Y-191158292D01*
X379886683Y-190964033D01*
X379388812Y-190865000D01*
X378881188Y-190865000D01*
X378383317Y-190964033D01*
X377914333Y-191158292D01*
X377492258Y-191440313D01*
X377133313Y-191799258D01*
X376851292Y-192221333D01*
X376657033Y-192690317D01*
X376558000Y-193188188D01*
X374878582Y-193188188D01*
X374878582Y-192250000D01*
X374872268Y-192185897D01*
X374853570Y-192124257D01*
X374823206Y-192067450D01*
X374782343Y-192017657D01*
X374732550Y-191976794D01*
X374675743Y-191946430D01*
X374614103Y-191927732D01*
X374550000Y-191921418D01*
X372850000Y-191921418D01*
X372785897Y-191927732D01*
X372724257Y-191946430D01*
X372667450Y-191976794D01*
X372617657Y-192017657D01*
X372576794Y-192067450D01*
X372546430Y-192124257D01*
X372527732Y-192185897D01*
X372521418Y-192250000D01*
X371852000Y-192250000D01*
X371852000Y-189886188D01*
X388623000Y-189886188D01*
X388623000Y-190393812D01*
X388722033Y-190891683D01*
X388916292Y-191360667D01*
X389198313Y-191782742D01*
X389557258Y-192141687D01*
X389979333Y-192423708D01*
X390448317Y-192617967D01*
X390946188Y-192717000D01*
X391453812Y-192717000D01*
X391951683Y-192617967D01*
X392420667Y-192423708D01*
X392842742Y-192141687D01*
X393201687Y-191782742D01*
X393483708Y-191360667D01*
X393677967Y-190891683D01*
X393777000Y-190393812D01*
X393777000Y-189886188D01*
X393677967Y-189388317D01*
X393483708Y-188919333D01*
X393201687Y-188497258D01*
X392842742Y-188138313D01*
X392420667Y-187856292D01*
X391951683Y-187662033D01*
X391453812Y-187563000D01*
X390946188Y-187563000D01*
X390448317Y-187662033D01*
X389979333Y-187856292D01*
X389557258Y-188138313D01*
X389198313Y-188497258D01*
X388916292Y-188919333D01*
X388722033Y-189388317D01*
X388623000Y-189886188D01*
X371852000Y-189886188D01*
X371852000Y-186330188D01*
X382527000Y-186330188D01*
X382527000Y-186837812D01*
X382626033Y-187335683D01*
X382820292Y-187804667D01*
X383102313Y-188226742D01*
X383461258Y-188585687D01*
X383883333Y-188867708D01*
X384352317Y-189061967D01*
X384850188Y-189161000D01*
X385357812Y-189161000D01*
X385855683Y-189061967D01*
X386324667Y-188867708D01*
X386746742Y-188585687D01*
X387105687Y-188226742D01*
X387387708Y-187804667D01*
X387581967Y-187335683D01*
X387681000Y-186837812D01*
X387681000Y-186330188D01*
X387581967Y-185832317D01*
X387387708Y-185363333D01*
X387105687Y-184941258D01*
X386746742Y-184582313D01*
X386324667Y-184300292D01*
X385855683Y-184106033D01*
X385357812Y-184007000D01*
X384850188Y-184007000D01*
X384352317Y-184106033D01*
X383883333Y-184300292D01*
X383461258Y-184582313D01*
X383102313Y-184941258D01*
X382820292Y-185363333D01*
X382626033Y-185832317D01*
X382527000Y-186330188D01*
X371852000Y-186330188D01*
X371852000Y-178522188D01*
X380495000Y-178522188D01*
X380495000Y-179029812D01*
X380594033Y-179527683D01*
X380788292Y-179996667D01*
X381070313Y-180418742D01*
X381429258Y-180777687D01*
X381851333Y-181059708D01*
X382320317Y-181253967D01*
X382818188Y-181353000D01*
X383325812Y-181353000D01*
X383823683Y-181253967D01*
X384292667Y-181059708D01*
X384714742Y-180777687D01*
X385073687Y-180418742D01*
X385355708Y-179996667D01*
X385549967Y-179527683D01*
X385649000Y-179029812D01*
X385649000Y-178522188D01*
X385549967Y-178024317D01*
X385355708Y-177555333D01*
X385073687Y-177133258D01*
X384714742Y-176774313D01*
X384292667Y-176492292D01*
X383823683Y-176298033D01*
X383325812Y-176199000D01*
X382818188Y-176199000D01*
X382320317Y-176298033D01*
X381851333Y-176492292D01*
X381429258Y-176774313D01*
X381070313Y-177133258D01*
X380788292Y-177555333D01*
X380594033Y-178024317D01*
X380495000Y-178522188D01*
X371852000Y-178522188D01*
X371852000Y-173188188D01*
X376558000Y-173188188D01*
X376558000Y-173695812D01*
X376657033Y-174193683D01*
X376851292Y-174662667D01*
X377133313Y-175084742D01*
X377492258Y-175443687D01*
X377914333Y-175725708D01*
X378383317Y-175919967D01*
X378881188Y-176019000D01*
X379388812Y-176019000D01*
X379886683Y-175919967D01*
X380355667Y-175725708D01*
X380777742Y-175443687D01*
X381136687Y-175084742D01*
X381418708Y-174662667D01*
X381612967Y-174193683D01*
X381712000Y-173695812D01*
X381712000Y-173188188D01*
X381612967Y-172690317D01*
X381418708Y-172221333D01*
X381136687Y-171799258D01*
X380777742Y-171440313D01*
X380355667Y-171158292D01*
X379886683Y-170964033D01*
X379388812Y-170865000D01*
X378881188Y-170865000D01*
X378383317Y-170964033D01*
X377914333Y-171158292D01*
X377492258Y-171440313D01*
X377133313Y-171799258D01*
X376851292Y-172221333D01*
X376657033Y-172690317D01*
X376558000Y-173188188D01*
X371852000Y-173188188D01*
X371852000Y-169886188D01*
X388623000Y-169886188D01*
X388623000Y-170393812D01*
X388722033Y-170891683D01*
X388916292Y-171360667D01*
X389198313Y-171782742D01*
X389557258Y-172141687D01*
X389979333Y-172423708D01*
X390448317Y-172617967D01*
X390946188Y-172717000D01*
X391453812Y-172717000D01*
X391951683Y-172617967D01*
X392420667Y-172423708D01*
X392842742Y-172141687D01*
X393201687Y-171782742D01*
X393483708Y-171360667D01*
X393677967Y-170891683D01*
X393777000Y-170393812D01*
X393777000Y-169886188D01*
X393677967Y-169388317D01*
X393483708Y-168919333D01*
X393201687Y-168497258D01*
X392842742Y-168138313D01*
X392420667Y-167856292D01*
X391951683Y-167662033D01*
X391453812Y-167563000D01*
X390946188Y-167563000D01*
X390448317Y-167662033D01*
X389979333Y-167856292D01*
X389557258Y-168138313D01*
X389198313Y-168497258D01*
X388916292Y-168919333D01*
X388722033Y-169388317D01*
X388623000Y-169886188D01*
X371852000Y-169886188D01*
X371852000Y-166330188D01*
X382527000Y-166330188D01*
X382527000Y-166837812D01*
X382626033Y-167335683D01*
X382820292Y-167804667D01*
X383102313Y-168226742D01*
X383461258Y-168585687D01*
X383883333Y-168867708D01*
X384352317Y-169061967D01*
X384850188Y-169161000D01*
X385357812Y-169161000D01*
X385855683Y-169061967D01*
X386324667Y-168867708D01*
X386746742Y-168585687D01*
X387105687Y-168226742D01*
X387387708Y-167804667D01*
X387581967Y-167335683D01*
X387681000Y-166837812D01*
X387681000Y-166330188D01*
X387581967Y-165832317D01*
X387387708Y-165363333D01*
X387105687Y-164941258D01*
X386746742Y-164582313D01*
X386324667Y-164300292D01*
X385855683Y-164106033D01*
X385357812Y-164007000D01*
X384850188Y-164007000D01*
X384352317Y-164106033D01*
X383883333Y-164300292D01*
X383461258Y-164582313D01*
X383102313Y-164941258D01*
X382820292Y-165363333D01*
X382626033Y-165832317D01*
X382527000Y-166330188D01*
X371852000Y-166330188D01*
X371852000Y-158522188D01*
X380495000Y-158522188D01*
X380495000Y-159029812D01*
X380594033Y-159527683D01*
X380788292Y-159996667D01*
X381070313Y-160418742D01*
X381429258Y-160777687D01*
X381851333Y-161059708D01*
X382320317Y-161253967D01*
X382818188Y-161353000D01*
X383325812Y-161353000D01*
X383823683Y-161253967D01*
X384292667Y-161059708D01*
X384714742Y-160777687D01*
X385073687Y-160418742D01*
X385355708Y-159996667D01*
X385549967Y-159527683D01*
X385649000Y-159029812D01*
X385649000Y-158522188D01*
X385549967Y-158024317D01*
X385355708Y-157555333D01*
X385073687Y-157133258D01*
X384714742Y-156774313D01*
X384292667Y-156492292D01*
X383823683Y-156298033D01*
X383325812Y-156199000D01*
X382818188Y-156199000D01*
X382320317Y-156298033D01*
X381851333Y-156492292D01*
X381429258Y-156774313D01*
X381070313Y-157133258D01*
X380788292Y-157555333D01*
X380594033Y-158024317D01*
X380495000Y-158522188D01*
X371852000Y-158522188D01*
X371852000Y-153188188D01*
X376558000Y-153188188D01*
X376558000Y-153695812D01*
X376657033Y-154193683D01*
X376851292Y-154662667D01*
X377133313Y-155084742D01*
X377492258Y-155443687D01*
X377914333Y-155725708D01*
X378383317Y-155919967D01*
X378881188Y-156019000D01*
X379388812Y-156019000D01*
X379886683Y-155919967D01*
X380355667Y-155725708D01*
X380777742Y-155443687D01*
X381136687Y-155084742D01*
X381418708Y-154662667D01*
X381612967Y-154193683D01*
X381712000Y-153695812D01*
X381712000Y-153188188D01*
X381612967Y-152690317D01*
X381418708Y-152221333D01*
X381136687Y-151799258D01*
X380777742Y-151440313D01*
X380355667Y-151158292D01*
X379886683Y-150964033D01*
X379388812Y-150865000D01*
X378881188Y-150865000D01*
X378383317Y-150964033D01*
X377914333Y-151158292D01*
X377492258Y-151440313D01*
X377133313Y-151799258D01*
X376851292Y-152221333D01*
X376657033Y-152690317D01*
X376558000Y-153188188D01*
X371852000Y-153188188D01*
X371852000Y-149886188D01*
X388623000Y-149886188D01*
X388623000Y-150393812D01*
X388722033Y-150891683D01*
X388916292Y-151360667D01*
X389198313Y-151782742D01*
X389557258Y-152141687D01*
X389979333Y-152423708D01*
X390448317Y-152617967D01*
X390946188Y-152717000D01*
X391453812Y-152717000D01*
X391951683Y-152617967D01*
X392420667Y-152423708D01*
X392842742Y-152141687D01*
X393201687Y-151782742D01*
X393483708Y-151360667D01*
X393677967Y-150891683D01*
X393777000Y-150393812D01*
X393777000Y-149886188D01*
X393677967Y-149388317D01*
X393483708Y-148919333D01*
X393201687Y-148497258D01*
X392842742Y-148138313D01*
X392420667Y-147856292D01*
X391951683Y-147662033D01*
X391453812Y-147563000D01*
X390946188Y-147563000D01*
X390448317Y-147662033D01*
X389979333Y-147856292D01*
X389557258Y-148138313D01*
X389198313Y-148497258D01*
X388916292Y-148919333D01*
X388722033Y-149388317D01*
X388623000Y-149886188D01*
X371852000Y-149886188D01*
X371852000Y-146330188D01*
X382527000Y-146330188D01*
X382527000Y-146837812D01*
X382626033Y-147335683D01*
X382820292Y-147804667D01*
X383102313Y-148226742D01*
X383461258Y-148585687D01*
X383883333Y-148867708D01*
X384352317Y-149061967D01*
X384850188Y-149161000D01*
X385357812Y-149161000D01*
X385855683Y-149061967D01*
X386324667Y-148867708D01*
X386746742Y-148585687D01*
X387105687Y-148226742D01*
X387387708Y-147804667D01*
X387581967Y-147335683D01*
X387681000Y-146837812D01*
X387681000Y-146330188D01*
X387581967Y-145832317D01*
X387387708Y-145363333D01*
X387105687Y-144941258D01*
X386746742Y-144582313D01*
X386324667Y-144300292D01*
X385855683Y-144106033D01*
X385357812Y-144007000D01*
X384850188Y-144007000D01*
X384352317Y-144106033D01*
X383883333Y-144300292D01*
X383461258Y-144582313D01*
X383102313Y-144941258D01*
X382820292Y-145363333D01*
X382626033Y-145832317D01*
X382527000Y-146330188D01*
X371852000Y-146330188D01*
X371852000Y-138522188D01*
X380495000Y-138522188D01*
X380495000Y-139029812D01*
X380594033Y-139527683D01*
X380788292Y-139996667D01*
X381070313Y-140418742D01*
X381429258Y-140777687D01*
X381851333Y-141059708D01*
X382320317Y-141253967D01*
X382818188Y-141353000D01*
X383325812Y-141353000D01*
X383823683Y-141253967D01*
X384292667Y-141059708D01*
X384714742Y-140777687D01*
X385073687Y-140418742D01*
X385355708Y-139996667D01*
X385549967Y-139527683D01*
X385649000Y-139029812D01*
X385649000Y-138522188D01*
X385549967Y-138024317D01*
X385355708Y-137555333D01*
X385073687Y-137133258D01*
X384714742Y-136774313D01*
X384292667Y-136492292D01*
X383823683Y-136298033D01*
X383325812Y-136199000D01*
X382818188Y-136199000D01*
X382320317Y-136298033D01*
X381851333Y-136492292D01*
X381429258Y-136774313D01*
X381070313Y-137133258D01*
X380788292Y-137555333D01*
X380594033Y-138024317D01*
X380495000Y-138522188D01*
X371852000Y-138522188D01*
X371852000Y-133188188D01*
X376558000Y-133188188D01*
X376558000Y-133695812D01*
X376657033Y-134193683D01*
X376851292Y-134662667D01*
X377133313Y-135084742D01*
X377492258Y-135443687D01*
X377914333Y-135725708D01*
X378383317Y-135919967D01*
X378881188Y-136019000D01*
X379388812Y-136019000D01*
X379886683Y-135919967D01*
X380355667Y-135725708D01*
X380777742Y-135443687D01*
X381136687Y-135084742D01*
X381418708Y-134662667D01*
X381612967Y-134193683D01*
X381712000Y-133695812D01*
X381712000Y-133188188D01*
X381612967Y-132690317D01*
X381418708Y-132221333D01*
X381136687Y-131799258D01*
X380777742Y-131440313D01*
X380355667Y-131158292D01*
X379886683Y-130964033D01*
X379388812Y-130865000D01*
X378881188Y-130865000D01*
X378383317Y-130964033D01*
X377914333Y-131158292D01*
X377492258Y-131440313D01*
X377133313Y-131799258D01*
X376851292Y-132221333D01*
X376657033Y-132690317D01*
X376558000Y-133188188D01*
X371852000Y-133188188D01*
X371852000Y-129886188D01*
X388623000Y-129886188D01*
X388623000Y-130393812D01*
X388722033Y-130891683D01*
X388916292Y-131360667D01*
X389198313Y-131782742D01*
X389557258Y-132141687D01*
X389979333Y-132423708D01*
X390448317Y-132617967D01*
X390946188Y-132717000D01*
X391453812Y-132717000D01*
X391951683Y-132617967D01*
X392420667Y-132423708D01*
X392842742Y-132141687D01*
X393201687Y-131782742D01*
X393483708Y-131360667D01*
X393677967Y-130891683D01*
X393777000Y-130393812D01*
X393777000Y-129886188D01*
X393677967Y-129388317D01*
X393483708Y-128919333D01*
X393201687Y-128497258D01*
X392842742Y-128138313D01*
X392420667Y-127856292D01*
X391951683Y-127662033D01*
X391453812Y-127563000D01*
X390946188Y-127563000D01*
X390448317Y-127662033D01*
X389979333Y-127856292D01*
X389557258Y-128138313D01*
X389198313Y-128497258D01*
X388916292Y-128919333D01*
X388722033Y-129388317D01*
X388623000Y-129886188D01*
X371852000Y-129886188D01*
X371852000Y-126330188D01*
X382527000Y-126330188D01*
X382527000Y-126837812D01*
X382626033Y-127335683D01*
X382820292Y-127804667D01*
X383102313Y-128226742D01*
X383461258Y-128585687D01*
X383883333Y-128867708D01*
X384352317Y-129061967D01*
X384850188Y-129161000D01*
X385357812Y-129161000D01*
X385855683Y-129061967D01*
X386324667Y-128867708D01*
X386746742Y-128585687D01*
X387105687Y-128226742D01*
X387387708Y-127804667D01*
X387581967Y-127335683D01*
X387681000Y-126837812D01*
X387681000Y-126330188D01*
X387581967Y-125832317D01*
X387387708Y-125363333D01*
X387105687Y-124941258D01*
X386746742Y-124582313D01*
X386324667Y-124300292D01*
X385855683Y-124106033D01*
X385357812Y-124007000D01*
X384850188Y-124007000D01*
X384352317Y-124106033D01*
X383883333Y-124300292D01*
X383461258Y-124582313D01*
X383102313Y-124941258D01*
X382820292Y-125363333D01*
X382626033Y-125832317D01*
X382527000Y-126330188D01*
X371852000Y-126330188D01*
X371852000Y-120152000D01*
X394048001Y-120152000D01*
X394048000Y-286048000D01*
%TD*%
M02*
