M48
; DRILL file {KiCad (5.1.6)-1} date 06/17/20 23:21:15
; FORMAT={-:-/ absolute / inch / decimal}
; #@! TF.CreationDate,2020-06-17T23:21:15-05:00
; #@! TF.GenerationSoftware,Kicad,Pcbnew,(5.1.6)-1
; #@! TF.FileFunction,Plated,1,2,PTH
FMAT,2
INCH
T1C0.0394
T2C0.1063
%
G90
G05
T1
X14.7126Y-7.6024
X14.7126Y-7.7024
X14.7126Y-7.8024
X14.7126Y-7.9024
X14.7126Y-8.0024
X14.7126Y-8.1024
X14.7126Y-8.2024
X14.7126Y-8.3024
X14.7126Y-8.4024
T2
X14.9266Y-5.2536
X15.0816Y-5.4636
X15.1616Y-4.9836
X15.3616Y-5.4036
X15.4016Y-5.1236
X14.9266Y-9.1906
X15.0816Y-9.4006
X15.1616Y-8.9206
X15.3616Y-9.3406
X15.4016Y-9.0606
X14.9266Y-9.978
X15.0816Y-10.188
X15.1616Y-9.708
X15.3616Y-10.128
X15.4016Y-9.848
X14.9266Y-6.8284
X15.0816Y-7.0384
X15.1616Y-6.5584
X15.3616Y-6.9784
X15.4016Y-6.6984
X14.9266Y-6.041
X15.0816Y-6.251
X15.1616Y-5.771
X15.3616Y-6.191
X15.4016Y-5.911
X14.9266Y-10.7654
X15.0816Y-10.9754
X15.1616Y-10.4954
X15.3616Y-10.9154
X15.4016Y-10.6354
X14.9266Y-7.6158
X15.0816Y-7.8258
X15.1616Y-7.3458
X15.3616Y-7.7658
X15.4016Y-7.4858
X14.9266Y-8.4032
X15.0816Y-8.6132
X15.1616Y-8.1332
X15.3616Y-8.5532
X15.4016Y-8.2732
T0
M30
