%TF.GenerationSoftware,KiCad,Pcbnew,(5.1.6)-1*%
%TF.CreationDate,2020-06-17T23:21:10-05:00*%
%TF.ProjectId,Euro Playset,4575726f-2050-46c6-9179-7365742e6b69,rev?*%
%TF.SameCoordinates,Original*%
%TF.FileFunction,Legend,Top*%
%TF.FilePolarity,Positive*%
%FSLAX46Y46*%
G04 Gerber Fmt 4.6, Leading zero omitted, Abs format (unit mm)*
G04 Created by KiCad (PCBNEW (5.1.6)-1) date 2020-06-17 23:21:10*
%MOMM*%
%LPD*%
G01*
G04 APERTURE LIST*
%ADD10C,0.120000*%
%ADD11C,0.010000*%
%ADD12C,0.150000*%
G04 APERTURE END LIST*
D10*
%TO.C,C2*%
X372370000Y-214750000D02*
X375030000Y-214750000D01*
X372370000Y-194370000D02*
X372370000Y-214750000D01*
X375030000Y-194370000D02*
X375030000Y-214750000D01*
X372370000Y-194370000D02*
X375030000Y-194370000D01*
X372370000Y-193100000D02*
X372370000Y-191770000D01*
X372370000Y-191770000D02*
X373700000Y-191770000D01*
D11*
%TO.C,G\u002A\u002A\u002A*%
G36*
X390096726Y-282815165D02*
G01*
X390177755Y-282826151D01*
X390285834Y-282842528D01*
X390410994Y-282862608D01*
X390543266Y-282884702D01*
X390672682Y-282907121D01*
X390789274Y-282928178D01*
X390883074Y-282946183D01*
X390944114Y-282959448D01*
X390962523Y-282965375D01*
X390975578Y-283002367D01*
X390963039Y-283046232D01*
X390934713Y-283074749D01*
X390914056Y-283075187D01*
X390886273Y-283069484D01*
X390881979Y-283085210D01*
X390903469Y-283126993D01*
X390953038Y-283199464D01*
X391021772Y-283292380D01*
X391166435Y-283484582D01*
X391390159Y-283243646D01*
X391482239Y-283145314D01*
X391546698Y-283079881D01*
X391590162Y-283042451D01*
X391619258Y-283028126D01*
X391640613Y-283032011D01*
X391657632Y-283045978D01*
X391673544Y-283065927D01*
X391676089Y-283088717D01*
X391660879Y-283121465D01*
X391623528Y-283171287D01*
X391559648Y-283245301D01*
X391480509Y-283333329D01*
X391397742Y-283426189D01*
X391329154Y-283505796D01*
X391281200Y-283564459D01*
X391260339Y-283594488D01*
X391259945Y-283596086D01*
X391274400Y-283622557D01*
X391313672Y-283681479D01*
X391371993Y-283764488D01*
X391443593Y-283863223D01*
X391453689Y-283876930D01*
X391534770Y-283988846D01*
X391587714Y-284067906D01*
X391616283Y-284121053D01*
X391624238Y-284155230D01*
X391616023Y-284176579D01*
X391580953Y-284208118D01*
X391565648Y-284214056D01*
X391543838Y-284194771D01*
X391498528Y-284142212D01*
X391436260Y-284064323D01*
X391363577Y-283969046D01*
X391360864Y-283965411D01*
X391288616Y-283868689D01*
X391227902Y-283787617D01*
X391184970Y-283730527D01*
X391166068Y-283705746D01*
X391165933Y-283705583D01*
X391145881Y-283718439D01*
X391098555Y-283761803D01*
X391031252Y-283828685D01*
X390959432Y-283903418D01*
X390873418Y-283993623D01*
X390814331Y-284051380D01*
X390774667Y-284081865D01*
X390746922Y-284090257D01*
X390723589Y-284081732D01*
X390712531Y-284073758D01*
X390687681Y-284050979D01*
X390683710Y-284027776D01*
X390705050Y-283993095D01*
X390756133Y-283935886D01*
X390776508Y-283914177D01*
X390856377Y-283829028D01*
X390939883Y-283739563D01*
X390986314Y-283689574D01*
X391082326Y-283585876D01*
X390914553Y-283363450D01*
X390826600Y-283240445D01*
X390775126Y-283152990D01*
X390760096Y-283101024D01*
X390761083Y-283095959D01*
X390761914Y-283075141D01*
X390743945Y-283058541D01*
X390699182Y-283043435D01*
X390619626Y-283027102D01*
X390501096Y-283007422D01*
X390386456Y-282989697D01*
X390289338Y-282975507D01*
X390221515Y-282966523D01*
X390196414Y-282964203D01*
X390180500Y-282981262D01*
X390174513Y-283036032D01*
X390177893Y-283134429D01*
X390178895Y-283149347D01*
X390188156Y-283276558D01*
X390197981Y-283361471D01*
X390213024Y-283412629D01*
X390237933Y-283438574D01*
X390277362Y-283447850D01*
X390335962Y-283448999D01*
X390342052Y-283448996D01*
X390417547Y-283451081D01*
X390455142Y-283461710D01*
X390467904Y-283487439D01*
X390469076Y-283512751D01*
X390464942Y-283550589D01*
X390443844Y-283569465D01*
X390392739Y-283575902D01*
X390341566Y-283576506D01*
X390268817Y-283580068D01*
X390222650Y-283589175D01*
X390214056Y-283596301D01*
X390217043Y-283629202D01*
X390224996Y-283699512D01*
X390236402Y-283794049D01*
X390240696Y-283828552D01*
X390252827Y-283933853D01*
X390256374Y-284000464D01*
X390250425Y-284040116D01*
X390234068Y-284064542D01*
X390221569Y-284074810D01*
X390177933Y-284093994D01*
X390156073Y-284089326D01*
X390146022Y-284058674D01*
X390132747Y-283991165D01*
X390118248Y-283900679D01*
X390104527Y-283801095D01*
X390093583Y-283706291D01*
X390087418Y-283630147D01*
X390086740Y-283608383D01*
X390065274Y-283582506D01*
X390035542Y-283576506D01*
X389998056Y-283564328D01*
X389985004Y-283519184D01*
X389984538Y-283500800D01*
X389990373Y-283448806D01*
X390012480Y-283437134D01*
X390026481Y-283441189D01*
X390043569Y-283443697D01*
X390054351Y-283430446D01*
X390059415Y-283393802D01*
X390059346Y-283326128D01*
X390054729Y-283219789D01*
X390050027Y-283134365D01*
X390044664Y-283012884D01*
X390043187Y-282912246D01*
X390045518Y-282842016D01*
X390051576Y-282811760D01*
X390052713Y-282811260D01*
X390096726Y-282815165D01*
G37*
X390096726Y-282815165D02*
X390177755Y-282826151D01*
X390285834Y-282842528D01*
X390410994Y-282862608D01*
X390543266Y-282884702D01*
X390672682Y-282907121D01*
X390789274Y-282928178D01*
X390883074Y-282946183D01*
X390944114Y-282959448D01*
X390962523Y-282965375D01*
X390975578Y-283002367D01*
X390963039Y-283046232D01*
X390934713Y-283074749D01*
X390914056Y-283075187D01*
X390886273Y-283069484D01*
X390881979Y-283085210D01*
X390903469Y-283126993D01*
X390953038Y-283199464D01*
X391021772Y-283292380D01*
X391166435Y-283484582D01*
X391390159Y-283243646D01*
X391482239Y-283145314D01*
X391546698Y-283079881D01*
X391590162Y-283042451D01*
X391619258Y-283028126D01*
X391640613Y-283032011D01*
X391657632Y-283045978D01*
X391673544Y-283065927D01*
X391676089Y-283088717D01*
X391660879Y-283121465D01*
X391623528Y-283171287D01*
X391559648Y-283245301D01*
X391480509Y-283333329D01*
X391397742Y-283426189D01*
X391329154Y-283505796D01*
X391281200Y-283564459D01*
X391260339Y-283594488D01*
X391259945Y-283596086D01*
X391274400Y-283622557D01*
X391313672Y-283681479D01*
X391371993Y-283764488D01*
X391443593Y-283863223D01*
X391453689Y-283876930D01*
X391534770Y-283988846D01*
X391587714Y-284067906D01*
X391616283Y-284121053D01*
X391624238Y-284155230D01*
X391616023Y-284176579D01*
X391580953Y-284208118D01*
X391565648Y-284214056D01*
X391543838Y-284194771D01*
X391498528Y-284142212D01*
X391436260Y-284064323D01*
X391363577Y-283969046D01*
X391360864Y-283965411D01*
X391288616Y-283868689D01*
X391227902Y-283787617D01*
X391184970Y-283730527D01*
X391166068Y-283705746D01*
X391165933Y-283705583D01*
X391145881Y-283718439D01*
X391098555Y-283761803D01*
X391031252Y-283828685D01*
X390959432Y-283903418D01*
X390873418Y-283993623D01*
X390814331Y-284051380D01*
X390774667Y-284081865D01*
X390746922Y-284090257D01*
X390723589Y-284081732D01*
X390712531Y-284073758D01*
X390687681Y-284050979D01*
X390683710Y-284027776D01*
X390705050Y-283993095D01*
X390756133Y-283935886D01*
X390776508Y-283914177D01*
X390856377Y-283829028D01*
X390939883Y-283739563D01*
X390986314Y-283689574D01*
X391082326Y-283585876D01*
X390914553Y-283363450D01*
X390826600Y-283240445D01*
X390775126Y-283152990D01*
X390760096Y-283101024D01*
X390761083Y-283095959D01*
X390761914Y-283075141D01*
X390743945Y-283058541D01*
X390699182Y-283043435D01*
X390619626Y-283027102D01*
X390501096Y-283007422D01*
X390386456Y-282989697D01*
X390289338Y-282975507D01*
X390221515Y-282966523D01*
X390196414Y-282964203D01*
X390180500Y-282981262D01*
X390174513Y-283036032D01*
X390177893Y-283134429D01*
X390178895Y-283149347D01*
X390188156Y-283276558D01*
X390197981Y-283361471D01*
X390213024Y-283412629D01*
X390237933Y-283438574D01*
X390277362Y-283447850D01*
X390335962Y-283448999D01*
X390342052Y-283448996D01*
X390417547Y-283451081D01*
X390455142Y-283461710D01*
X390467904Y-283487439D01*
X390469076Y-283512751D01*
X390464942Y-283550589D01*
X390443844Y-283569465D01*
X390392739Y-283575902D01*
X390341566Y-283576506D01*
X390268817Y-283580068D01*
X390222650Y-283589175D01*
X390214056Y-283596301D01*
X390217043Y-283629202D01*
X390224996Y-283699512D01*
X390236402Y-283794049D01*
X390240696Y-283828552D01*
X390252827Y-283933853D01*
X390256374Y-284000464D01*
X390250425Y-284040116D01*
X390234068Y-284064542D01*
X390221569Y-284074810D01*
X390177933Y-284093994D01*
X390156073Y-284089326D01*
X390146022Y-284058674D01*
X390132747Y-283991165D01*
X390118248Y-283900679D01*
X390104527Y-283801095D01*
X390093583Y-283706291D01*
X390087418Y-283630147D01*
X390086740Y-283608383D01*
X390065274Y-283582506D01*
X390035542Y-283576506D01*
X389998056Y-283564328D01*
X389985004Y-283519184D01*
X389984538Y-283500800D01*
X389990373Y-283448806D01*
X390012480Y-283437134D01*
X390026481Y-283441189D01*
X390043569Y-283443697D01*
X390054351Y-283430446D01*
X390059415Y-283393802D01*
X390059346Y-283326128D01*
X390054729Y-283219789D01*
X390050027Y-283134365D01*
X390044664Y-283012884D01*
X390043187Y-282912246D01*
X390045518Y-282842016D01*
X390051576Y-282811760D01*
X390052713Y-282811260D01*
X390096726Y-282815165D01*
G36*
X389173671Y-283538253D02*
G01*
X389179441Y-283669851D01*
X389182874Y-283784327D01*
X389183783Y-283871462D01*
X389181978Y-283921040D01*
X389180847Y-283927158D01*
X389152039Y-283953614D01*
X389107883Y-283957199D01*
X389072905Y-283939280D01*
X389066466Y-283920783D01*
X389057580Y-283885158D01*
X389035628Y-283891856D01*
X389007663Y-283936333D01*
X388995304Y-283966610D01*
X388963760Y-284039584D01*
X388930117Y-284098256D01*
X388929658Y-284098888D01*
X388902056Y-284132259D01*
X388887932Y-284123618D01*
X388879148Y-284097689D01*
X388866890Y-284051763D01*
X388846830Y-283969849D01*
X388821310Y-283862193D01*
X388792672Y-283739042D01*
X388763258Y-283610644D01*
X388735407Y-283487246D01*
X388711464Y-283379095D01*
X388693768Y-283296438D01*
X388684661Y-283249522D01*
X388683936Y-283243395D01*
X388705704Y-283225194D01*
X388745598Y-283219478D01*
X388774559Y-283223123D01*
X388796383Y-283240092D01*
X388815358Y-283279435D01*
X388835771Y-283350201D01*
X388861912Y-283461440D01*
X388863422Y-283468122D01*
X388888526Y-283575757D01*
X388910784Y-283664869D01*
X388927146Y-283723567D01*
X388933071Y-283739607D01*
X388952041Y-283734659D01*
X388982982Y-283694479D01*
X388993789Y-283675852D01*
X389019762Y-283613372D01*
X389033146Y-283536616D01*
X389036152Y-283430079D01*
X389035229Y-283385241D01*
X389032987Y-283284086D01*
X389035303Y-283223508D01*
X389045103Y-283193106D01*
X389065308Y-283182478D01*
X389092579Y-283181225D01*
X389155723Y-283181225D01*
X389173671Y-283538253D01*
G37*
X389173671Y-283538253D02*
X389179441Y-283669851D01*
X389182874Y-283784327D01*
X389183783Y-283871462D01*
X389181978Y-283921040D01*
X389180847Y-283927158D01*
X389152039Y-283953614D01*
X389107883Y-283957199D01*
X389072905Y-283939280D01*
X389066466Y-283920783D01*
X389057580Y-283885158D01*
X389035628Y-283891856D01*
X389007663Y-283936333D01*
X388995304Y-283966610D01*
X388963760Y-284039584D01*
X388930117Y-284098256D01*
X388929658Y-284098888D01*
X388902056Y-284132259D01*
X388887932Y-284123618D01*
X388879148Y-284097689D01*
X388866890Y-284051763D01*
X388846830Y-283969849D01*
X388821310Y-283862193D01*
X388792672Y-283739042D01*
X388763258Y-283610644D01*
X388735407Y-283487246D01*
X388711464Y-283379095D01*
X388693768Y-283296438D01*
X388684661Y-283249522D01*
X388683936Y-283243395D01*
X388705704Y-283225194D01*
X388745598Y-283219478D01*
X388774559Y-283223123D01*
X388796383Y-283240092D01*
X388815358Y-283279435D01*
X388835771Y-283350201D01*
X388861912Y-283461440D01*
X388863422Y-283468122D01*
X388888526Y-283575757D01*
X388910784Y-283664869D01*
X388927146Y-283723567D01*
X388933071Y-283739607D01*
X388952041Y-283734659D01*
X388982982Y-283694479D01*
X388993789Y-283675852D01*
X389019762Y-283613372D01*
X389033146Y-283536616D01*
X389036152Y-283430079D01*
X389035229Y-283385241D01*
X389032987Y-283284086D01*
X389035303Y-283223508D01*
X389045103Y-283193106D01*
X389065308Y-283182478D01*
X389092579Y-283181225D01*
X389155723Y-283181225D01*
X389173671Y-283538253D01*
G36*
X389819997Y-283248875D02*
G01*
X389909044Y-283303565D01*
X389958869Y-283343511D01*
X389975885Y-283376753D01*
X389966502Y-283411327D01*
X389959287Y-283423494D01*
X389939047Y-283442249D01*
X389906463Y-283439746D01*
X389849108Y-283413399D01*
X389811208Y-283392685D01*
X389687553Y-283323624D01*
X389537432Y-283475327D01*
X389461684Y-283557342D01*
X389418290Y-283616739D01*
X389410618Y-283648834D01*
X389411779Y-283650208D01*
X389442038Y-283676991D01*
X389499852Y-283726778D01*
X389573763Y-283789716D01*
X389588504Y-283802198D01*
X389740762Y-283931011D01*
X389826076Y-283865939D01*
X389880938Y-283826486D01*
X389912128Y-283816503D01*
X389935810Y-283833606D01*
X389947238Y-283848074D01*
X389963928Y-283878374D01*
X389957214Y-283907933D01*
X389920983Y-283948847D01*
X389875429Y-283990152D01*
X389812073Y-284042152D01*
X389762090Y-284076323D01*
X389742269Y-284084347D01*
X389714398Y-284068378D01*
X389655988Y-284025118D01*
X389574987Y-283960749D01*
X389479342Y-283881452D01*
X389456359Y-283861966D01*
X389195951Y-283640261D01*
X389672105Y-283162459D01*
X389819997Y-283248875D01*
G37*
X389819997Y-283248875D02*
X389909044Y-283303565D01*
X389958869Y-283343511D01*
X389975885Y-283376753D01*
X389966502Y-283411327D01*
X389959287Y-283423494D01*
X389939047Y-283442249D01*
X389906463Y-283439746D01*
X389849108Y-283413399D01*
X389811208Y-283392685D01*
X389687553Y-283323624D01*
X389537432Y-283475327D01*
X389461684Y-283557342D01*
X389418290Y-283616739D01*
X389410618Y-283648834D01*
X389411779Y-283650208D01*
X389442038Y-283676991D01*
X389499852Y-283726778D01*
X389573763Y-283789716D01*
X389588504Y-283802198D01*
X389740762Y-283931011D01*
X389826076Y-283865939D01*
X389880938Y-283826486D01*
X389912128Y-283816503D01*
X389935810Y-283833606D01*
X389947238Y-283848074D01*
X389963928Y-283878374D01*
X389957214Y-283907933D01*
X389920983Y-283948847D01*
X389875429Y-283990152D01*
X389812073Y-284042152D01*
X389762090Y-284076323D01*
X389742269Y-284084347D01*
X389714398Y-284068378D01*
X389655988Y-284025118D01*
X389574987Y-283960749D01*
X389479342Y-283881452D01*
X389456359Y-283861966D01*
X389195951Y-283640261D01*
X389672105Y-283162459D01*
X389819997Y-283248875D01*
G36*
X387932826Y-283181991D02*
G01*
X388028975Y-283235731D01*
X388084861Y-283275327D01*
X388106635Y-283307778D01*
X388100448Y-283340084D01*
X388088359Y-283358964D01*
X388066046Y-283383554D01*
X388039708Y-283387726D01*
X387995536Y-283369252D01*
X387933448Y-283333956D01*
X387812205Y-283262903D01*
X387506374Y-283568734D01*
X387693372Y-283724207D01*
X387780413Y-283795755D01*
X387837817Y-283838713D01*
X387874926Y-283857386D01*
X387901084Y-283856077D01*
X387925632Y-283839090D01*
X387931500Y-283833894D01*
X387992793Y-283784654D01*
X388034037Y-283770819D01*
X388068830Y-283789460D01*
X388080763Y-283801741D01*
X388100437Y-283829167D01*
X388097403Y-283854550D01*
X388065414Y-283888498D01*
X387998511Y-283941401D01*
X387931999Y-283990821D01*
X387883364Y-284024522D01*
X387865093Y-284034512D01*
X387843074Y-284018532D01*
X387789861Y-283975526D01*
X387712972Y-283911681D01*
X387619919Y-283833184D01*
X387600101Y-283816331D01*
X387504723Y-283734208D01*
X387424550Y-283663456D01*
X387367059Y-283610802D01*
X387339731Y-283582975D01*
X387338572Y-283581067D01*
X387353151Y-283557283D01*
X387397654Y-283505312D01*
X387465428Y-283432512D01*
X387549817Y-283346243D01*
X387561478Y-283334604D01*
X387790893Y-283106252D01*
X387932826Y-283181991D01*
G37*
X387932826Y-283181991D02*
X388028975Y-283235731D01*
X388084861Y-283275327D01*
X388106635Y-283307778D01*
X388100448Y-283340084D01*
X388088359Y-283358964D01*
X388066046Y-283383554D01*
X388039708Y-283387726D01*
X387995536Y-283369252D01*
X387933448Y-283333956D01*
X387812205Y-283262903D01*
X387506374Y-283568734D01*
X387693372Y-283724207D01*
X387780413Y-283795755D01*
X387837817Y-283838713D01*
X387874926Y-283857386D01*
X387901084Y-283856077D01*
X387925632Y-283839090D01*
X387931500Y-283833894D01*
X387992793Y-283784654D01*
X388034037Y-283770819D01*
X388068830Y-283789460D01*
X388080763Y-283801741D01*
X388100437Y-283829167D01*
X388097403Y-283854550D01*
X388065414Y-283888498D01*
X387998511Y-283941401D01*
X387931999Y-283990821D01*
X387883364Y-284024522D01*
X387865093Y-284034512D01*
X387843074Y-284018532D01*
X387789861Y-283975526D01*
X387712972Y-283911681D01*
X387619919Y-283833184D01*
X387600101Y-283816331D01*
X387504723Y-283734208D01*
X387424550Y-283663456D01*
X387367059Y-283610802D01*
X387339731Y-283582975D01*
X387338572Y-283581067D01*
X387353151Y-283557283D01*
X387397654Y-283505312D01*
X387465428Y-283432512D01*
X387549817Y-283346243D01*
X387561478Y-283334604D01*
X387790893Y-283106252D01*
X387932826Y-283181991D01*
G36*
X388419677Y-283134526D02*
G01*
X388474428Y-283179667D01*
X388542578Y-283243851D01*
X388556406Y-283257711D01*
X388625413Y-283329092D01*
X388662932Y-283374727D01*
X388674032Y-283404435D01*
X388663784Y-283428036D01*
X388651314Y-283441543D01*
X388623799Y-283463828D01*
X388596930Y-283463306D01*
X388558013Y-283435122D01*
X388506218Y-283386018D01*
X388447598Y-283330344D01*
X388411666Y-283305972D01*
X388384681Y-283308505D01*
X388352902Y-283333548D01*
X388350098Y-283336071D01*
X388327247Y-283359486D01*
X388312588Y-283387167D01*
X388305099Y-283428972D01*
X388303757Y-283494757D01*
X388307540Y-283594377D01*
X388312957Y-283694236D01*
X388319672Y-283825674D01*
X388321797Y-283914957D01*
X388318675Y-283970782D01*
X388309646Y-284001846D01*
X388294052Y-284016846D01*
X388288331Y-284019386D01*
X388246547Y-284031542D01*
X388220677Y-284022567D01*
X388205217Y-283983671D01*
X388194666Y-283906064D01*
X388190694Y-283863403D01*
X388181507Y-283754456D01*
X388170856Y-283619854D01*
X388160726Y-283484830D01*
X388158607Y-283455371D01*
X388141815Y-283219478D01*
X388204907Y-283219478D01*
X388270069Y-283201033D01*
X388314157Y-283168474D01*
X388358488Y-283130278D01*
X388389111Y-283117470D01*
X388419677Y-283134526D01*
G37*
X388419677Y-283134526D02*
X388474428Y-283179667D01*
X388542578Y-283243851D01*
X388556406Y-283257711D01*
X388625413Y-283329092D01*
X388662932Y-283374727D01*
X388674032Y-283404435D01*
X388663784Y-283428036D01*
X388651314Y-283441543D01*
X388623799Y-283463828D01*
X388596930Y-283463306D01*
X388558013Y-283435122D01*
X388506218Y-283386018D01*
X388447598Y-283330344D01*
X388411666Y-283305972D01*
X388384681Y-283308505D01*
X388352902Y-283333548D01*
X388350098Y-283336071D01*
X388327247Y-283359486D01*
X388312588Y-283387167D01*
X388305099Y-283428972D01*
X388303757Y-283494757D01*
X388307540Y-283594377D01*
X388312957Y-283694236D01*
X388319672Y-283825674D01*
X388321797Y-283914957D01*
X388318675Y-283970782D01*
X388309646Y-284001846D01*
X388294052Y-284016846D01*
X388288331Y-284019386D01*
X388246547Y-284031542D01*
X388220677Y-284022567D01*
X388205217Y-283983671D01*
X388194666Y-283906064D01*
X388190694Y-283863403D01*
X388181507Y-283754456D01*
X388170856Y-283619854D01*
X388160726Y-283484830D01*
X388158607Y-283455371D01*
X388141815Y-283219478D01*
X388204907Y-283219478D01*
X388270069Y-283201033D01*
X388314157Y-283168474D01*
X388358488Y-283130278D01*
X388389111Y-283117470D01*
X388419677Y-283134526D01*
G36*
X388834462Y-282990159D02*
G01*
X388834063Y-283044319D01*
X388832371Y-283060773D01*
X388821813Y-283112301D01*
X388797414Y-283123950D01*
X388766817Y-283115050D01*
X388720551Y-283078964D01*
X388711861Y-283031655D01*
X388740902Y-282991683D01*
X388765704Y-282981194D01*
X388814787Y-282972831D01*
X388834462Y-282990159D01*
G37*
X388834462Y-282990159D02*
X388834063Y-283044319D01*
X388832371Y-283060773D01*
X388821813Y-283112301D01*
X388797414Y-283123950D01*
X388766817Y-283115050D01*
X388720551Y-283078964D01*
X388711861Y-283031655D01*
X388740902Y-282991683D01*
X388765704Y-282981194D01*
X388814787Y-282972831D01*
X388834462Y-282990159D01*
G36*
X389056194Y-282999101D02*
G01*
X389077907Y-283028571D01*
X389055562Y-283081441D01*
X389051205Y-283087812D01*
X389006444Y-283134957D01*
X388970351Y-283132308D01*
X388939076Y-283079515D01*
X388938325Y-283077556D01*
X388918305Y-283019756D01*
X388924088Y-282995398D01*
X388963947Y-282990028D01*
X388988455Y-282989960D01*
X389056194Y-282999101D01*
G37*
X389056194Y-282999101D02*
X389077907Y-283028571D01*
X389055562Y-283081441D01*
X389051205Y-283087812D01*
X389006444Y-283134957D01*
X388970351Y-283132308D01*
X388939076Y-283079515D01*
X388938325Y-283077556D01*
X388918305Y-283019756D01*
X388924088Y-282995398D01*
X388963947Y-282990028D01*
X388988455Y-282989960D01*
X389056194Y-282999101D01*
%TO.C,J16*%
D12*
X384040476Y-229846380D02*
X384040476Y-230560666D01*
X383992857Y-230703523D01*
X383897619Y-230798761D01*
X383754761Y-230846380D01*
X383659523Y-230846380D01*
X385040476Y-230846380D02*
X384469047Y-230846380D01*
X384754761Y-230846380D02*
X384754761Y-229846380D01*
X384659523Y-229989238D01*
X384564285Y-230084476D01*
X384469047Y-230132095D01*
X385897619Y-229846380D02*
X385707142Y-229846380D01*
X385611904Y-229894000D01*
X385564285Y-229941619D01*
X385469047Y-230084476D01*
X385421428Y-230274952D01*
X385421428Y-230655904D01*
X385469047Y-230751142D01*
X385516666Y-230798761D01*
X385611904Y-230846380D01*
X385802380Y-230846380D01*
X385897619Y-230798761D01*
X385945238Y-230751142D01*
X385992857Y-230655904D01*
X385992857Y-230417809D01*
X385945238Y-230322571D01*
X385897619Y-230274952D01*
X385802380Y-230227333D01*
X385611904Y-230227333D01*
X385516666Y-230274952D01*
X385469047Y-230322571D01*
X385421428Y-230417809D01*
%TO.C,J12*%
X384040476Y-149846380D02*
X384040476Y-150560666D01*
X383992857Y-150703523D01*
X383897619Y-150798761D01*
X383754761Y-150846380D01*
X383659523Y-150846380D01*
X385040476Y-150846380D02*
X384469047Y-150846380D01*
X384754761Y-150846380D02*
X384754761Y-149846380D01*
X384659523Y-149989238D01*
X384564285Y-150084476D01*
X384469047Y-150132095D01*
X385421428Y-149941619D02*
X385469047Y-149894000D01*
X385564285Y-149846380D01*
X385802380Y-149846380D01*
X385897619Y-149894000D01*
X385945238Y-149941619D01*
X385992857Y-150036857D01*
X385992857Y-150132095D01*
X385945238Y-150274952D01*
X385373809Y-150846380D01*
X385992857Y-150846380D01*
%TO.C,J11*%
X384040476Y-129846380D02*
X384040476Y-130560666D01*
X383992857Y-130703523D01*
X383897619Y-130798761D01*
X383754761Y-130846380D01*
X383659523Y-130846380D01*
X385040476Y-130846380D02*
X384469047Y-130846380D01*
X384754761Y-130846380D02*
X384754761Y-129846380D01*
X384659523Y-129989238D01*
X384564285Y-130084476D01*
X384469047Y-130132095D01*
X385992857Y-130846380D02*
X385421428Y-130846380D01*
X385707142Y-130846380D02*
X385707142Y-129846380D01*
X385611904Y-129989238D01*
X385516666Y-130084476D01*
X385421428Y-130132095D01*
%TO.C,J15*%
X384040476Y-209846380D02*
X384040476Y-210560666D01*
X383992857Y-210703523D01*
X383897619Y-210798761D01*
X383754761Y-210846380D01*
X383659523Y-210846380D01*
X385040476Y-210846380D02*
X384469047Y-210846380D01*
X384754761Y-210846380D02*
X384754761Y-209846380D01*
X384659523Y-209989238D01*
X384564285Y-210084476D01*
X384469047Y-210132095D01*
X385945238Y-209846380D02*
X385469047Y-209846380D01*
X385421428Y-210322571D01*
X385469047Y-210274952D01*
X385564285Y-210227333D01*
X385802380Y-210227333D01*
X385897619Y-210274952D01*
X385945238Y-210322571D01*
X385992857Y-210417809D01*
X385992857Y-210655904D01*
X385945238Y-210751142D01*
X385897619Y-210798761D01*
X385802380Y-210846380D01*
X385564285Y-210846380D01*
X385469047Y-210798761D01*
X385421428Y-210751142D01*
%TO.C,J14*%
X384040476Y-189846380D02*
X384040476Y-190560666D01*
X383992857Y-190703523D01*
X383897619Y-190798761D01*
X383754761Y-190846380D01*
X383659523Y-190846380D01*
X385040476Y-190846380D02*
X384469047Y-190846380D01*
X384754761Y-190846380D02*
X384754761Y-189846380D01*
X384659523Y-189989238D01*
X384564285Y-190084476D01*
X384469047Y-190132095D01*
X385897619Y-190179714D02*
X385897619Y-190846380D01*
X385659523Y-189798761D02*
X385421428Y-190513047D01*
X386040476Y-190513047D01*
%TO.C,J13*%
X384040476Y-169846380D02*
X384040476Y-170560666D01*
X383992857Y-170703523D01*
X383897619Y-170798761D01*
X383754761Y-170846380D01*
X383659523Y-170846380D01*
X385040476Y-170846380D02*
X384469047Y-170846380D01*
X384754761Y-170846380D02*
X384754761Y-169846380D01*
X384659523Y-169989238D01*
X384564285Y-170084476D01*
X384469047Y-170132095D01*
X385373809Y-169846380D02*
X385992857Y-169846380D01*
X385659523Y-170227333D01*
X385802380Y-170227333D01*
X385897619Y-170274952D01*
X385945238Y-170322571D01*
X385992857Y-170417809D01*
X385992857Y-170655904D01*
X385945238Y-170751142D01*
X385897619Y-170798761D01*
X385802380Y-170846380D01*
X385516666Y-170846380D01*
X385421428Y-170798761D01*
X385373809Y-170751142D01*
%TO.C,J18*%
X384040476Y-269846380D02*
X384040476Y-270560666D01*
X383992857Y-270703523D01*
X383897619Y-270798761D01*
X383754761Y-270846380D01*
X383659523Y-270846380D01*
X385040476Y-270846380D02*
X384469047Y-270846380D01*
X384754761Y-270846380D02*
X384754761Y-269846380D01*
X384659523Y-269989238D01*
X384564285Y-270084476D01*
X384469047Y-270132095D01*
X385611904Y-270274952D02*
X385516666Y-270227333D01*
X385469047Y-270179714D01*
X385421428Y-270084476D01*
X385421428Y-270036857D01*
X385469047Y-269941619D01*
X385516666Y-269894000D01*
X385611904Y-269846380D01*
X385802380Y-269846380D01*
X385897619Y-269894000D01*
X385945238Y-269941619D01*
X385992857Y-270036857D01*
X385992857Y-270084476D01*
X385945238Y-270179714D01*
X385897619Y-270227333D01*
X385802380Y-270274952D01*
X385611904Y-270274952D01*
X385516666Y-270322571D01*
X385469047Y-270370190D01*
X385421428Y-270465428D01*
X385421428Y-270655904D01*
X385469047Y-270751142D01*
X385516666Y-270798761D01*
X385611904Y-270846380D01*
X385802380Y-270846380D01*
X385897619Y-270798761D01*
X385945238Y-270751142D01*
X385992857Y-270655904D01*
X385992857Y-270465428D01*
X385945238Y-270370190D01*
X385897619Y-270322571D01*
X385802380Y-270274952D01*
%TO.C,J17*%
X384040476Y-249846380D02*
X384040476Y-250560666D01*
X383992857Y-250703523D01*
X383897619Y-250798761D01*
X383754761Y-250846380D01*
X383659523Y-250846380D01*
X385040476Y-250846380D02*
X384469047Y-250846380D01*
X384754761Y-250846380D02*
X384754761Y-249846380D01*
X384659523Y-249989238D01*
X384564285Y-250084476D01*
X384469047Y-250132095D01*
X385373809Y-249846380D02*
X386040476Y-249846380D01*
X385611904Y-250846380D01*
%TD*%
M02*
